<?xml version="1.0" encoding="UTF-8" standalone="no"?>
<!-- Created with Inkscape (http://www.inkscape.org/) -->

<svg
   xmlns:dc="http://purl.org/dc/elements/1.1/"
   xmlns:cc="http://creativecommons.org/ns#"
   xmlns:rdf="http://www.w3.org/1999/02/22-rdf-syntax-ns#"
   xmlns:svg="http://www.w3.org/2000/svg"
   xmlns="http://www.w3.org/2000/svg"
   xmlns:sodipodi="http://sodipodi.sourceforge.net/DTD/sodipodi-0.dtd"
   xmlns:inkscape="http://www.inkscape.org/namespaces/inkscape"
   width="650mm"
   height="400mm"
   viewBox="0 0 2303.1496 1417.3228"
   id="svg2"
   version="1.1"
   inkscape:version="0.91 r13725"
   sodipodi:docname="stitch box front.svg">
  <defs
     id="defs4" />
  <sodipodi:namedview
     id="base"
     pagecolor="#ffffff"
     bordercolor="#666666"
     borderopacity="1.0"
     inkscape:pageopacity="0.0"
     inkscape:pageshadow="2"
     inkscape:zoom="0.125"
     inkscape:cx="1682.5658"
     inkscape:cy="2174.6561"
     inkscape:document-units="mm"
     inkscape:current-layer="layer1"
     showgrid="false"
     inkscape:snap-object-midpoints="true"
     inkscape:window-width="1440"
     inkscape:window-height="849"
     inkscape:window-x="0"
     inkscape:window-y="25"
     inkscape:window-maximized="1"
     inkscape:object-nodes="true"
     inkscape:snap-intersection-paths="true"
     inkscape:object-paths="true"
     inkscape:snap-smooth-nodes="true"
     inkscape:snap-midpoints="true"
     inkscape:snap-bbox="true"
     inkscape:snap-nodes="true"
     inkscape:snap-bbox-edge-midpoints="true"
     inkscape:bbox-nodes="true" />
  <metadata
     id="metadata7">
    <rdf:RDF>
      <cc:Work
         rdf:about="">
        <dc:format>image/svg+xml</dc:format>
        <dc:type
           rdf:resource="http://purl.org/dc/dcmitype/StillImage" />
        <dc:title></dc:title>
      </cc:Work>
    </rdf:RDF>
  </metadata>
  <g
     inkscape:label="Layer 1"
     inkscape:groupmode="layer"
     id="layer1"
     transform="translate(0,364.96045)">
    <g
       id="g4370"
       transform="translate(-40,1444)">
      <path
         inkscape:connector-curvature="0"
         id="rect4161"
         d="m 1446.6602,-715.24232 0,10.6308 -52.7968,0 -10.629,0 0,17.3614 10.629,0 0,70.8672 -10.629,0 0,70.8671 10.629,0 0,70.8672 -10.629,0 0,17.3614 10.629,0 52.7968,0 0,10.6289 70.8653,0 0,-10.6289 70.8671,0 0,10.6289 70.8653,0 0,-10.6289 70.8672,0 0,10.6289 70.8652,0 0,-10.6289 70.8652,0 0,10.6289 70.8672,0 0,-10.6289 70.8653,0 0,10.6289 70.8671,0 0,-10.6289 70.8653,0 0,10.6289 70.8671,0 0,-10.6289 52.795,0 10.6289,0 0,-17.3614 -10.6289,0 0,-70.8672 10.6289,0 0,-70.8671 -10.6289,0 0,-70.8672 10.6289,0 0,-17.3614 -10.6289,0 -52.795,0 0,-10.6308 -70.8671,0 0,10.6308 -70.8653,0 0,-10.6308 -70.8671,0 0,10.6308 -70.8653,0 0,-10.6308 -70.8672,0 0,10.6308 -70.8652,0 0,-10.6308 -70.8652,0 0,10.6308 -70.8672,0 0,-10.6308 -70.8653,0 0,10.6308 -70.8671,0 0,-10.6308 -70.8653,0 z"
         style="fill:none;stroke:#0000ff;stroke-width:0.70736748;stroke-miterlimit:4;stroke-dasharray:none" />
      <path
         style="fill:none;stroke:#ff00ff;stroke-width:0.70866144;stroke-miterlimit:4;stroke-dasharray:none"
         d="m 1763.7091,-580.95044 a 52.713779,52.713779 0 0 1 -52.7137,52.71378 52.713779,52.713779 0 0 1 -52.7138,-52.71378 52.713779,52.713779 0 0 1 52.7138,-52.71378 52.713779,52.713779 0 0 1 52.7137,52.71378 z"
         id="circle4280"
         inkscape:connector-curvature="0" />
      <path
         style="fill:none;stroke:#ff00ff;stroke-width:0.70866144;stroke-miterlimit:4;stroke-dasharray:none"
         d="m 2014.5642,-580.95044 a 52.713779,52.713779 0 0 1 -52.7137,52.71378 52.713779,52.713779 0 0 1 -52.7138,-52.71378 52.713779,52.713779 0 0 1 52.7138,-52.71378 52.713779,52.713779 0 0 1 52.7137,52.71378 z"
         id="circle4282"
         inkscape:connector-curvature="0" />
      <path
         d="m 1941.7919,-494.36257 -7.8906,-10.6836 7.4023,0 4.4727,6.48438 4.5312,-6.48438 7.4024,0 -7.8907,10.64453 8.2813,11.23047 -7.4024,0 -4.9218,-6.91406 -4.8633,6.91406 -7.4024,0 8.2813,-11.1914 z"
         style="font-style:normal;font-variant:normal;font-weight:bold;font-stretch:normal;font-size:medium;line-height:125%;font-family:sans-serif;-inkscape-font-specification:'sans-serif Bold';letter-spacing:0px;word-spacing:0px;fill:none;fill-opacity:1;stroke:#000000;stroke-width:0.70866144;stroke-linecap:butt;stroke-linejoin:miter;stroke-miterlimit:4;stroke-dasharray:none;stroke-opacity:1"
         id="path5432"
         inkscape:connector-curvature="0" />
      <path
         d="m 1970.2099,-488.69851 12.832,0 0,5.52734 -21.1914,0 0,-5.52734 10.6445,-9.39453 q 1.4258,-1.28906 2.1094,-2.51953 0.6836,-1.23047 0.6836,-2.5586 0,-2.05078 -1.3867,-3.30078 -1.3672,-1.25 -3.6524,-1.25 -1.7578,0 -3.8476,0.76172 -2.0899,0.74219 -4.4727,2.22656 l 0,-6.40625 q 2.5391,-0.83984 5.0195,-1.26953 2.4805,-0.44922 4.8633,-0.44922 5.2344,0 8.125,2.30469 2.9102,2.30469 2.9102,6.42578 0,2.38281 -1.2305,4.45313 -1.2305,2.05078 -5.1758,5.50781 l -6.2304,5.46875 z"
         style="font-style:normal;font-variant:normal;font-weight:bold;font-stretch:normal;font-size:medium;line-height:125%;font-family:sans-serif;-inkscape-font-specification:'sans-serif Bold';letter-spacing:0px;word-spacing:0px;fill:none;fill-opacity:1;stroke:#000000;stroke-width:0.70866144;stroke-linecap:butt;stroke-linejoin:miter;stroke-miterlimit:4;stroke-dasharray:none;stroke-opacity:1"
         id="path5434"
         inkscape:connector-curvature="0" />
      <path
         inkscape:connector-curvature="0"
         id="rect5416"
         d="m 1665.801,-518.60284 0,3.54297 0,31.88868 35.4317,0 0,-35.43165 -35.4317,0 z m 7.086,7.08594 21.2597,0 0,21.25977 -21.2597,0 0,-21.25977 z"
         style="color:#000000;font-style:normal;font-variant:normal;font-weight:normal;font-stretch:normal;font-size:medium;line-height:normal;font-family:sans-serif;text-indent:0;text-align:start;text-decoration:none;text-decoration-line:none;text-decoration-style:solid;text-decoration-color:#000000;letter-spacing:normal;word-spacing:normal;text-transform:none;direction:ltr;block-progression:tb;writing-mode:lr-tb;baseline-shift:baseline;text-anchor:start;white-space:normal;clip-rule:nonzero;display:inline;overflow:visible;visibility:visible;opacity:1;isolation:auto;mix-blend-mode:normal;color-interpolation:sRGB;color-interpolation-filters:linearRGB;solid-color:#000000;solid-opacity:1;fill:none;fill-opacity:1;fill-rule:nonzero;stroke:#000000;stroke-width:0.70866144;stroke-linecap:butt;stroke-linejoin:miter;stroke-miterlimit:4;stroke-dasharray:none;stroke-dashoffset:0;stroke-opacity:1;color-rendering:auto;image-rendering:auto;shape-rendering:auto;text-rendering:auto;enable-background:accumulate" />
      <path
         inkscape:connector-curvature="0"
         id="rect5422"
         d="m 1727.5999,-517.56085 -4.7559,4.75586 11.918,11.91797 -11.918,11.91797 4.7559,4.75586 11.9179,-11.91797 11.918,11.91797 4.7539,-4.75586 -11.918,-11.91797 11.918,-11.91797 -4.7539,-4.75586 -11.918,11.91797 -11.9179,-11.91797 z"
         style="fill:none;stroke:#000000;stroke-width:0.70866144;stroke-miterlimit:4;stroke-dasharray:none" />
    </g>
    <g
       id="g4342"
       transform="translate(-35.9649,1508.0098)">
      <path
         style="fill:none;stroke:#ff00ff;stroke-width:0.70866144;stroke-miterlimit:4;stroke-dasharray:none"
         d="m 1889.6694,-1491.7218 a 52.713779,52.713779 0 0 1 -52.7138,52.7138 52.713779,52.713779 0 0 1 -52.7138,-52.7138 52.713779,52.713779 0 0 1 52.7138,-52.7138 52.713779,52.713779 0 0 1 52.7138,52.7138 z"
         id="path4138"
         inkscape:connector-curvature="0" />
      <path
         inkscape:connector-curvature="0"
         id="rect4159"
         d="m 1394.3966,-1703.631 0,10.6289 -10.6309,0 0,52.7969 10.6309,0 0,70.8652 -10.6309,0 0,70.8672 10.6309,0 0,70.8652 -10.6309,0 0,70.8672 10.6309,0 0,70.8653 -10.6309,0 0,70.8652 10.6309,0 0,70.8672 -10.6309,0 0,70.8652 10.6309,0 0,70.8672 -10.6309,0 0,70.86528 10.6309,0 0,70.8671 -10.6309,0 0,52.795 10.6309,0 0,10.6308 52.7949,0 0,-10.6308 70.8672,0 0,10.6308 70.8652,0 0,-10.6308 70.8672,0 0,10.6308 70.8652,0 0,-10.6308 70.8653,0 0,10.6308 70.8671,0 0,-10.6308 70.8653,0 0,10.6308 70.8672,0 0,-10.6308 70.8652,0 0,10.6308 70.8672,0 0,-10.6308 70.8652,0 0,10.6308 52.7969,0 0,-10.6308 10.6289,0 0,-52.795 -10.6289,0 0,-70.8671 10.6289,0 0,-70.86528 -10.6289,0 0,-70.8672 10.6289,0 0,-70.8652 -10.6289,0 0,-70.8672 10.6289,0 0,-70.8652 -10.6289,0 0,-70.8653 10.6289,0 0,-70.8672 -10.6289,0 0,-70.8652 10.6289,0 0,-70.8672 -10.6289,0 0,-70.8652 10.6289,0 0,-52.7969 -10.6289,0 0,-10.6289 -52.7969,0 0,10.6289 -70.8652,0 0,-10.6289 -70.8672,0 0,10.6289 -70.8652,0 0,-10.6289 -70.8672,0 0,10.6289 -70.8653,0 0,-10.6289 -70.8652,0 0,10.6289 -70.8672,0 0,-10.6289 -70.8652,0 0,10.6289 -70.8672,0 0,-10.6289 -70.8652,0 0,10.6289 -70.8672,0 0,-10.6289 -52.7949,0 z"
         style="fill:none;stroke:#0000ff;stroke-width:0.70809484;stroke-miterlimit:4;stroke-dasharray:none" />
      <path
         style="fill:none;stroke:#ff00ff;stroke-width:0.70866144;stroke-miterlimit:4;stroke-dasharray:none"
         d="m 1648.3897,-1491.7218 a 52.713779,52.713779 0 0 1 -52.7138,52.7138 52.713779,52.713779 0 0 1 -52.7137,-52.7138 52.713779,52.713779 0 0 1 52.7137,-52.7138 52.713779,52.713779 0 0 1 52.7138,52.7138 z"
         id="circle4205"
         inkscape:connector-curvature="0" />
      <path
         style="fill:none;stroke:#ff00ff;stroke-width:0.70866144;stroke-miterlimit:4;stroke-dasharray:none"
         d="m 2130.949,-1491.7218 a 52.713779,52.713779 0 0 1 -52.7138,52.7138 52.713779,52.713779 0 0 1 -52.7137,-52.7138 52.713779,52.713779 0 0 1 52.7137,-52.7138 52.713779,52.713779 0 0 1 52.7138,52.7138 z"
         id="circle4207"
         inkscape:connector-curvature="0" />
      <path
         style="fill:none;stroke:#ff00ff;stroke-width:0.70866144;stroke-miterlimit:4;stroke-dasharray:none"
         d="m 1648.3897,-1250.4422 a 52.713779,52.713779 0 0 1 -52.7138,52.7138 52.713779,52.713779 0 0 1 -52.7137,-52.7138 52.713779,52.713779 0 0 1 52.7137,-52.7137 52.713779,52.713779 0 0 1 52.7138,52.7137 z"
         id="circle4209"
         inkscape:connector-curvature="0" />
      <path
         style="fill:none;stroke:#ff00ff;stroke-width:0.70866144;stroke-miterlimit:4;stroke-dasharray:none"
         d="m 2130.949,-1250.4422 a 52.713779,52.713779 0 0 1 -52.7138,52.7138 52.713779,52.713779 0 0 1 -52.7137,-52.7138 52.713779,52.713779 0 0 1 52.7137,-52.7137 52.713779,52.713779 0 0 1 52.7138,52.7137 z"
         id="circle4213"
         inkscape:connector-curvature="0" />
      <path
         style="fill:none;stroke:#ff00ff;stroke-width:0.70866144;stroke-miterlimit:4;stroke-dasharray:none"
         d="m 1648.3897,-1009.1625 a 52.713779,52.713779 0 0 1 -52.7138,52.71377 52.713779,52.713779 0 0 1 -52.7137,-52.71377 52.713779,52.713779 0 0 1 52.7137,-52.7138 52.713779,52.713779 0 0 1 52.7138,52.7138 z"
         id="circle4215"
         inkscape:connector-curvature="0" />
      <path
         style="fill:none;stroke:#ff00ff;stroke-width:0.70866144;stroke-miterlimit:4;stroke-dasharray:none"
         d="m 1889.6694,-1009.1625 a 52.713779,52.713779 0 0 1 -52.7138,52.71377 52.713779,52.713779 0 0 1 -52.7138,-52.71377 52.713779,52.713779 0 0 1 52.7138,-52.7138 52.713779,52.713779 0 0 1 52.7138,52.7138 z"
         id="circle4217"
         inkscape:connector-curvature="0" />
      <path
         style="fill:none;stroke:#ff00ff;stroke-width:0.70866144;stroke-miterlimit:4;stroke-dasharray:none"
         d="m 2130.949,-1009.1625 a 52.713779,52.713779 0 0 1 -52.7138,52.71377 52.713779,52.713779 0 0 1 -52.7137,-52.71377 52.713779,52.713779 0 0 1 52.7137,-52.7138 52.713779,52.713779 0 0 1 52.7138,52.7138 z"
         id="circle4219"
         inkscape:connector-curvature="0" />
      <path
         id="path5453"
         transform="translate(0,-364.96051)"
         d="m 1697.7285,-1029.7188 -5.0117,5.0118 135.6836,135.68356 -133.1777,0 0,7.08594 133.1777,0 -135.6836,135.68359 5.0117,5.01172 135.6836,-135.68359 0,133.17773 7.0859,0 0,-133.17773 135.6836,135.68359 5.0118,-5.01172 -135.6836,-135.68359 133.1777,0 0,-7.08594 -133.1777,0 135.6836,-135.68356 -5.0118,-5.0118 -135.6836,135.68364 0,-133.17774 -7.0859,0 0,133.17774 -135.6836,-135.68364 z"
         style="color:#000000;font-style:normal;font-variant:normal;font-weight:normal;font-stretch:normal;font-size:medium;line-height:normal;font-family:sans-serif;text-indent:0;text-align:start;text-decoration:none;text-decoration-line:none;text-decoration-style:solid;text-decoration-color:#000000;letter-spacing:normal;word-spacing:normal;text-transform:none;direction:ltr;block-progression:tb;writing-mode:lr-tb;baseline-shift:baseline;text-anchor:start;white-space:normal;clip-rule:nonzero;display:inline;overflow:visible;visibility:visible;opacity:1;isolation:auto;mix-blend-mode:normal;color-interpolation:sRGB;color-interpolation-filters:linearRGB;solid-color:#000000;solid-opacity:1;fill:none;fill-opacity:1;fill-rule:evenodd;stroke:#000000;stroke-width:0.70866144;stroke-linecap:butt;stroke-linejoin:miter;stroke-miterlimit:4;stroke-dasharray:none;stroke-dashoffset:0;stroke-opacity:1;color-rendering:auto;image-rendering:auto;shape-rendering:auto;text-rendering:auto;enable-background:accumulate"
         inkscape:connector-curvature="0" />
      <path
         style="fill:none;stroke:#000000;stroke-width:0.70866144;stroke-miterlimit:4;stroke-dasharray:none"
         d="m 1583.759,-1602.6388 -4.7559,4.7559 11.918,11.9179 -11.918,11.918 4.7559,4.7559 11.9179,-11.918 11.918,11.918 4.7539,-4.7559 -11.918,-11.918 11.918,-11.9179 -4.7539,-4.7559 -11.918,11.918 -11.9179,-11.918 z"
         id="path4165"
         inkscape:connector-curvature="0" />
      <path
         inkscape:connector-curvature="0"
         id="path4173"
         d="m 1819.2398,-1604.576 0,3.543 0,31.8887 35.4317,0 0,-35.4317 -35.4317,0 z m 7.086,7.086 21.2597,0 0,21.2597 -21.2597,0 0,-21.2597 z"
         style="color:#000000;font-style:normal;font-variant:normal;font-weight:normal;font-stretch:normal;font-size:medium;line-height:normal;font-family:sans-serif;text-indent:0;text-align:start;text-decoration:none;text-decoration-line:none;text-decoration-style:solid;text-decoration-color:#000000;letter-spacing:normal;word-spacing:normal;text-transform:none;direction:ltr;block-progression:tb;writing-mode:lr-tb;baseline-shift:baseline;text-anchor:start;white-space:normal;clip-rule:nonzero;display:inline;overflow:visible;visibility:visible;opacity:1;isolation:auto;mix-blend-mode:normal;color-interpolation:sRGB;color-interpolation-filters:linearRGB;solid-color:#000000;solid-opacity:1;fill:none;fill-opacity:1;fill-rule:nonzero;stroke:#000000;stroke-width:0.70866144;stroke-linecap:butt;stroke-linejoin:miter;stroke-miterlimit:4;stroke-dasharray:none;stroke-dashoffset:0;stroke-opacity:1;color-rendering:auto;image-rendering:auto;shape-rendering:auto;text-rendering:auto;enable-background:accumulate" />
      <path
         style="fill:none;stroke:#000000;stroke-width:0.70866144;stroke-miterlimit:4;stroke-dasharray:none"
         d="m 2066.3183,-1602.6388 -4.7559,4.7559 11.918,11.9179 -11.918,11.918 4.7559,4.7559 11.9179,-11.918 11.918,11.918 4.7539,-4.7559 -11.918,-11.918 11.918,-11.9179 -4.7539,-4.7559 -11.918,11.918 -11.9179,-11.918 z"
         id="path4181"
         inkscape:connector-curvature="0" />
      <path
         inkscape:connector-curvature="0"
         id="path4185"
         d="m 2191.0894,-1268.158 -3.543,0 -31.8887,0 0,35.4317 35.4317,0 0,-35.4317 z m -7.086,7.086 0,21.2597 -21.2597,0 0,-21.2597 21.2597,0 z"
         style="color:#000000;font-style:normal;font-variant:normal;font-weight:normal;font-stretch:normal;font-size:medium;line-height:normal;font-family:sans-serif;text-indent:0;text-align:start;text-decoration:none;text-decoration-line:none;text-decoration-style:solid;text-decoration-color:#000000;letter-spacing:normal;word-spacing:normal;text-transform:none;direction:ltr;block-progression:tb;writing-mode:lr-tb;baseline-shift:baseline;text-anchor:start;white-space:normal;clip-rule:nonzero;display:inline;overflow:visible;visibility:visible;opacity:1;isolation:auto;mix-blend-mode:normal;color-interpolation:sRGB;color-interpolation-filters:linearRGB;solid-color:#000000;solid-opacity:1;fill:none;fill-opacity:1;fill-rule:nonzero;stroke:#000000;stroke-width:0.70866144;stroke-linecap:butt;stroke-linejoin:miter;stroke-miterlimit:4;stroke-dasharray:none;stroke-dashoffset:0;stroke-opacity:1;color-rendering:auto;image-rendering:auto;shape-rendering:auto;text-rendering:auto;enable-background:accumulate" />
      <path
         style="color:#000000;font-style:normal;font-variant:normal;font-weight:normal;font-stretch:normal;font-size:medium;line-height:normal;font-family:sans-serif;text-indent:0;text-align:start;text-decoration:none;text-decoration-line:none;text-decoration-style:solid;text-decoration-color:#000000;letter-spacing:normal;word-spacing:normal;text-transform:none;direction:ltr;block-progression:tb;writing-mode:lr-tb;baseline-shift:baseline;text-anchor:start;white-space:normal;clip-rule:nonzero;display:inline;overflow:visible;visibility:visible;opacity:1;isolation:auto;mix-blend-mode:normal;color-interpolation:sRGB;color-interpolation-filters:linearRGB;solid-color:#000000;solid-opacity:1;fill:none;fill-opacity:1;fill-rule:nonzero;stroke:#000000;stroke-width:0.70866144;stroke-linecap:butt;stroke-linejoin:miter;stroke-miterlimit:4;stroke-dasharray:none;stroke-dashoffset:0;stroke-opacity:1;color-rendering:auto;image-rendering:auto;shape-rendering:auto;text-rendering:auto;enable-background:accumulate"
         d="m 1518.2535,-1268.158 -3.543,0 -31.8887,0 0,35.4317 35.4317,0 0,-35.4317 z m -7.086,7.086 0,21.2597 -21.2597,0 0,-21.2597 21.2597,0 z"
         id="path4191"
         inkscape:connector-curvature="0" />
      <path
         inkscape:connector-curvature="0"
         id="path4199"
         d="m 1583.759,-931.59325 -4.7559,4.7559 11.918,11.9179 -11.918,11.918 4.7559,4.7559 11.9179,-11.918 11.918,11.918 4.7539,-4.7559 -11.918,-11.918 11.918,-11.9179 -4.7539,-4.7559 -11.918,11.918 -11.9179,-11.918 z"
         style="fill:none;stroke:#000000;stroke-width:0.70866144;stroke-miterlimit:4;stroke-dasharray:none" />
      <path
         style="color:#000000;font-style:normal;font-variant:normal;font-weight:normal;font-stretch:normal;font-size:medium;line-height:normal;font-family:sans-serif;text-indent:0;text-align:start;text-decoration:none;text-decoration-line:none;text-decoration-style:solid;text-decoration-color:#000000;letter-spacing:normal;word-spacing:normal;text-transform:none;direction:ltr;block-progression:tb;writing-mode:lr-tb;baseline-shift:baseline;text-anchor:start;white-space:normal;clip-rule:nonzero;display:inline;overflow:visible;visibility:visible;opacity:1;isolation:auto;mix-blend-mode:normal;color-interpolation:sRGB;color-interpolation-filters:linearRGB;solid-color:#000000;solid-opacity:1;fill:none;fill-opacity:1;fill-rule:nonzero;stroke:#000000;stroke-width:0.70866144;stroke-linecap:butt;stroke-linejoin:miter;stroke-miterlimit:4;stroke-dasharray:none;stroke-dashoffset:0;stroke-opacity:1;color-rendering:auto;image-rendering:auto;shape-rendering:auto;text-rendering:auto;enable-background:accumulate"
         d="m 1819.2398,-931.74007 0,3.543 0,31.8887 35.4317,0 0,-35.4317 -35.4317,0 z m 7.086,7.086 21.2597,0 0,21.2597 -21.2597,0 0,-21.2597 z"
         id="path4203"
         inkscape:connector-curvature="0" />
      <path
         inkscape:connector-curvature="0"
         id="path4211"
         d="m 2066.3183,-931.59325 -4.7559,4.7559 11.918,11.9179 -11.918,11.918 4.7559,4.7559 11.9179,-11.918 11.918,11.918 4.7539,-4.7559 -11.918,-11.918 11.918,-11.9179 -4.7539,-4.7559 -11.918,11.918 -11.9179,-11.918 z"
         style="fill:none;stroke:#000000;stroke-width:0.70866144;stroke-miterlimit:4;stroke-dasharray:none" />
      <path
         id="path4229"
         d="m 1480.1132,-1274.3695 a 3.5028412,3.5028412 0 0 1 -3.5028,3.5028 3.5028412,3.5028412 0 0 1 -3.5029,-3.5028 3.5028412,3.5028412 0 0 1 3.5029,-3.5028 3.5028412,3.5028412 0 0 1 3.5028,3.5028 z"
         style="fill:none;stroke:#000000;stroke-width:0.70866144;stroke-miterlimit:4;stroke-dasharray:none"
         inkscape:connector-curvature="0" />
      <path
         id="circle4231"
         d="m 1578.1476,-1606.9971 a 3.5028412,3.5028412 0 0 1 -3.5028,3.5029 3.5028412,3.5028412 0 0 1 -3.5029,-3.5029 3.5028412,3.5028412 0 0 1 3.5029,-3.5028 3.5028412,3.5028412 0 0 1 3.5028,3.5028 z"
         style="fill:none;stroke:#000000;stroke-width:0.70866144;stroke-miterlimit:4;stroke-dasharray:none"
         inkscape:connector-curvature="0" />
      <path
         id="circle4233"
         d="m 1864.3859,-1610.7875 a 3.5028412,3.5028412 0 0 1 -3.5028,3.5029 3.5028412,3.5028412 0 0 1 -3.5029,-3.5029 3.5028412,3.5028412 0 0 1 3.5029,-3.5028 3.5028412,3.5028412 0 0 1 3.5028,3.5028 z"
         style="fill:none;stroke:#000000;stroke-width:0.70866144;stroke-miterlimit:4;stroke-dasharray:none"
         inkscape:connector-curvature="0" />
      <path
         id="circle4235"
         d="m 2102.7692,-1606.9971 a 3.5028412,3.5028412 0 0 1 -3.5028,3.5029 3.5028412,3.5028412 0 0 1 -3.5029,-3.5029 3.5028412,3.5028412 0 0 1 3.5029,-3.5028 3.5028412,3.5028412 0 0 1 3.5028,3.5028 z"
         style="fill:none;stroke:#000000;stroke-width:0.70866144;stroke-miterlimit:4;stroke-dasharray:none"
         inkscape:connector-curvature="0" />
      <path
         id="circle4237"
         d="m 2200.8036,-1226.5148 a 3.5028412,3.5028412 0 0 1 -3.5028,3.5029 3.5028412,3.5028412 0 0 1 -3.5029,-3.5029 3.5028412,3.5028412 0 0 1 3.5029,-3.5028 3.5028412,3.5028412 0 0 1 3.5028,3.5028 z"
         style="fill:none;stroke:#000000;stroke-width:0.70866144;stroke-miterlimit:4;stroke-dasharray:none"
         inkscape:connector-curvature="0" />
      <path
         id="circle4239"
         d="m 2102.7692,-893.88721 a 3.5028412,3.5028412 0 0 1 -3.5028,3.50284 3.5028412,3.5028412 0 0 1 -3.5029,-3.50284 3.5028412,3.5028412 0 0 1 3.5029,-3.50284 3.5028412,3.5028412 0 0 1 3.5028,3.50284 z"
         style="fill:none;stroke:#000000;stroke-width:0.70866144;stroke-miterlimit:4;stroke-dasharray:none"
         inkscape:connector-curvature="0" />
      <path
         id="circle4241"
         d="m 1816.5312,-890.09686 a 3.5028412,3.5028412 0 0 1 -3.5029,3.50284 3.5028412,3.5028412 0 0 1 -3.5028,-3.50284 3.5028412,3.5028412 0 0 1 3.5028,-3.50284 3.5028412,3.5028412 0 0 1 3.5029,3.50284 z"
         style="fill:none;stroke:#000000;stroke-width:0.70866144;stroke-miterlimit:4;stroke-dasharray:none"
         inkscape:connector-curvature="0" />
      <path
         id="circle4243"
         d="m 1578.1476,-893.88721 a 3.5028412,3.5028412 0 0 1 -3.5028,3.50284 3.5028412,3.5028412 0 0 1 -3.5029,-3.50284 3.5028412,3.5028412 0 0 1 3.5029,-3.50284 3.5028412,3.5028412 0 0 1 3.5028,3.50284 z"
         style="fill:none;stroke:#000000;stroke-width:0.70866144;stroke-miterlimit:4;stroke-dasharray:none"
         inkscape:connector-curvature="0" />
    </g>
  </g>
</svg>
