<?xml version="1.0" encoding="UTF-8" standalone="no"?>
<!-- Created with Inkscape (http://www.inkscape.org/) -->

<svg
   xmlns:dc="http://purl.org/dc/elements/1.1/"
   xmlns:cc="http://creativecommons.org/ns#"
   xmlns:rdf="http://www.w3.org/1999/02/22-rdf-syntax-ns#"
   xmlns:svg="http://www.w3.org/2000/svg"
   xmlns="http://www.w3.org/2000/svg"
   xmlns:sodipodi="http://sodipodi.sourceforge.net/DTD/sodipodi-0.dtd"
   xmlns:inkscape="http://www.inkscape.org/namespaces/inkscape"
   width="650mm"
   height="400mm"
   viewBox="0 0 2303.1496 1417.3228"
   id="svg2"
   version="1.1"
   inkscape:version="0.91 r13725"
   sodipodi:docname="stitch box side 2.svg">
  <defs
     id="defs4" />
  <sodipodi:namedview
     id="base"
     pagecolor="#ffffff"
     bordercolor="#666666"
     borderopacity="1.0"
     inkscape:pageopacity="0.0"
     inkscape:pageshadow="2"
     inkscape:zoom="0.088388348"
     inkscape:cx="2827.662"
     inkscape:cy="65.719013"
     inkscape:document-units="mm"
     inkscape:current-layer="layer1"
     showgrid="false"
     inkscape:snap-object-midpoints="true"
     inkscape:window-width="1440"
     inkscape:window-height="849"
     inkscape:window-x="0"
     inkscape:window-y="25"
     inkscape:window-maximized="1"
     inkscape:object-nodes="true"
     inkscape:snap-intersection-paths="true"
     inkscape:object-paths="true"
     inkscape:snap-smooth-nodes="true"
     inkscape:snap-midpoints="true"
     inkscape:snap-bbox="true"
     inkscape:snap-nodes="true"
     inkscape:snap-bbox-edge-midpoints="true"
     inkscape:bbox-nodes="true" />
  <metadata
     id="metadata7">
    <rdf:RDF>
      <cc:Work
         rdf:about="">
        <dc:format>image/svg+xml</dc:format>
        <dc:type
           rdf:resource="http://purl.org/dc/dcmitype/StillImage" />
        <dc:title></dc:title>
      </cc:Work>
    </rdf:RDF>
  </metadata>
  <g
     inkscape:label="Layer 1"
     inkscape:groupmode="layer"
     id="layer1"
     transform="translate(0,364.96045)">
    <g
       id="g4323"
       transform="matrix(-1,0,0,-1,6785.8723,-1102.5874)">
      <path
         inkscape:connector-curvature="0"
         style="fill:none;fill-rule:evenodd;stroke:#0000ff;stroke-width:0.70866132;stroke-linecap:butt;stroke-linejoin:miter;stroke-miterlimit:4;stroke-dasharray:none;stroke-opacity:1"
         d="m 5396.3948,-2082.3525 0,10.6309 0,61.6543 10.6289,0 0,70.8652 -10.6289,0 0,61.6563 -26.3965,45.7207 9.2051,5.3164 -35.4336,61.3711 -9.2051,-5.3145 -35.4336,61.3711 9.2051,5.3164 -35.4317,61.3711 -9.207,-5.3144 -35.4316,61.371 9.205,5.3145 -35.4336,61.373 -9.205,-5.3144 -35.4336,61.3711 9.205,5.3144 -35.4316,61.3731 -9.2051,-5.3164 -35.4336,61.373 9.2051,5.3145 -35.4336,61.3711 -9.2051,-5.3145 -35.4335,61.3731 9.207,5.3144 -35.4336,61.3711 -9.2051,-5.3145 -26.3984,45.7227 0,17.3613 10.6289,0 0,70.8672 -10.6289,0 0,70.8672 10.6289,0 0,70.86719 -10.6289,0 0,17.36132 0,10.63086 -26.7539,0 0,-10.63086 -70.8653,0 0,10.63086 -70.8652,0 0,-10.63086 -70.8652,0 0,10.63086 -70.8653,0 0,-10.63086 -70.8652,0 0,10.63086 -26.7539,0 0,-10.63086 0,-72.52734 -10.6289,0 0,-70.86527 10.6289,0 0,-70.8652 -10.6289,0 0,-70.8652 10.6289,0 0,-70.8653 -10.6289,0 0,-70.8652 10.6289,0 0,-70.8652 -10.6289,0 0,-70.8653 10.6289,0 0,-70.8652 -10.6289,0 0,-70.8652 10.6289,0 0,-70.8653 -10.6289,0 0,-70.8652 10.6289,0 0,-70.8652 -10.6289,0 0,-70.8653 10.6289,0 0,-70.8652 -10.6289,0 0,-70.8652 10.6289,0 0,-72.5293 0,-10.6309 35.4375,0 0,10.6309 70.8652,0 0,-10.6309 70.8653,0 0,10.6309 70.8652,0 0,-10.6309 70.8652,0 0,10.6309 70.8653,0 0,-10.6309 70.8652,0 0,10.6309 70.8652,0 0,-10.6309 70.8653,0 0,10.6309 70.8652,0 0,-10.6309 70.8652,0 0,10.6309 70.8653,0 0,-10.6309 35.4375,0 z"
         id="path5369" />
      <path
         id="rect4260"
         d="m 4717.1865,-999.88483 65.4652,0 0,42.43372 -65.4652,0 z"
         style="fill:none;stroke:#ff00ff;stroke-width:0.70866144;stroke-miterlimit:4;stroke-dasharray:none"
         inkscape:connector-curvature="0" />
      <path
         d="m 4808.4512,-914.0293 6.1718,0 q -1.0742,2.40235 -1.621,4.6875 -0.5469,2.28516 -0.5469,4.31641 0,2.69531 0.7422,3.98437 0.7422,1.28907 2.3047,1.28907 1.1718,0 1.8359,-0.85938 0.6445,-0.8789 1.1133,-3.16406 l 0.6445,-3.20313 q 0.9766,-4.86328 2.9688,-6.91406 1.9921,-2.05078 5.664,-2.05078 4.8242,0 7.1875,2.87109 2.3438,2.85157 2.3438,8.73047 0,2.77344 -0.5274,5.56641 -0.5273,2.79297 -1.5625,5.58594 l -6.3476,0 q 1.4843,-2.79297 2.2461,-5.39063 0.7421,-2.61719 0.7421,-5.03906 0,-2.46094 -0.8203,-3.76953 -0.8203,-1.3086 -2.3437,-1.3086 -1.3672,0 -2.1094,0.89844 -0.7422,0.87891 -1.3281,3.53516 l -0.6445,2.91015 q -0.9375,4.375 -2.9883,6.40625 -2.0508,2.01172 -5.5274,2.01172 -4.3554,0 -6.6992,-2.8125 -2.3437,-2.8125 -2.3437,-8.08593 0,-2.40235 0.3711,-4.94141 0.3515,-2.53906 1.0742,-5.25391 z"
         style="font-style:normal;font-variant:normal;font-weight:bold;font-stretch:normal;font-size:medium;line-height:125%;font-family:sans-serif;-inkscape-font-specification:'sans-serif Bold';letter-spacing:0px;word-spacing:0px;fill:none;fill-opacity:1;stroke:#000000;stroke-width:0.70866144;stroke-linecap:butt;stroke-linejoin:miter;stroke-miterlimit:4;stroke-dasharray:none;stroke-opacity:1"
         id="path4271"
         inkscape:connector-curvature="0" />
      <path
         d="m 4807.5332,-920.08398 0,-7.20704 21.1914,-5.03906 -21.1914,-5 0,-7.24609 21.1914,-5 -21.1914,-5.03906 0,-7.14844 29.1602,6.875 0,8.67187 -22.168,5.29297 22.168,5.23438 0,8.67187 -29.1602,6.9336 z"
         style="font-style:normal;font-variant:normal;font-weight:bold;font-stretch:normal;font-size:medium;line-height:125%;font-family:sans-serif;-inkscape-font-specification:'sans-serif Bold';letter-spacing:0px;word-spacing:0px;fill:none;fill-opacity:1;stroke:#000000;stroke-width:0.70866144;stroke-linecap:butt;stroke-linejoin:miter;stroke-miterlimit:4;stroke-dasharray:none;stroke-opacity:1"
         id="path4273"
         inkscape:connector-curvature="0" />
      <path
         d="m 4807.5332,-966.70508 0,-7.51953 29.1602,0 0,7.51953 -29.1602,0 z"
         style="font-style:normal;font-variant:normal;font-weight:bold;font-stretch:normal;font-size:medium;line-height:125%;font-family:sans-serif;-inkscape-font-specification:'sans-serif Bold';letter-spacing:0px;word-spacing:0px;fill:none;fill-opacity:1;stroke:#000000;stroke-width:0.70866144;stroke-linecap:butt;stroke-linejoin:miter;stroke-miterlimit:4;stroke-dasharray:none;stroke-opacity:1"
         id="path4275"
         inkscape:connector-curvature="0" />
      <path
         d="m 4807.5332,-978.15039 0,-26.87501 5.6836,0 0,9.66798 23.4766,0 0,7.51953 -23.4766,0 0,9.6875 -5.6836,0 z"
         style="font-style:normal;font-variant:normal;font-weight:bold;font-stretch:normal;font-size:medium;line-height:125%;font-family:sans-serif;-inkscape-font-specification:'sans-serif Bold';letter-spacing:0px;word-spacing:0px;fill:none;fill-opacity:1;stroke:#000000;stroke-width:0.70866144;stroke-linecap:butt;stroke-linejoin:miter;stroke-miterlimit:4;stroke-dasharray:none;stroke-opacity:1"
         id="path4277"
         inkscape:connector-curvature="0" />
      <path
         d="m 4835.0918,-1032.0176 q 1.0742,2.0703 1.6211,4.3164 0.5469,2.2461 0.5469,4.6875 0,7.2852 -4.0625,11.543 -4.0821,4.2578 -11.0547,4.2578 -6.9922,0 -11.0547,-4.2578 -4.082,-4.2578 -4.082,-11.543 0,-2.4414 0.5468,-4.6875 0.5469,-2.2461 1.6211,-4.3164 l 6.0352,0 q -1.4258,2.0899 -2.0899,4.1211 -0.664,2.0313 -0.664,4.2774 0,4.0234 2.5781,6.3281 2.5781,2.3047 7.1094,2.3047 4.5117,0 7.0898,-2.3047 2.5781,-2.3047 2.5781,-6.3281 0,-2.2461 -0.664,-4.2774 -0.6641,-2.0312 -2.0899,-4.1211 l 6.0352,0 z"
         style="font-style:normal;font-variant:normal;font-weight:bold;font-stretch:normal;font-size:medium;line-height:125%;font-family:sans-serif;-inkscape-font-specification:'sans-serif Bold';letter-spacing:0px;word-spacing:0px;fill:none;fill-opacity:1;stroke:#000000;stroke-width:0.70866144;stroke-linecap:butt;stroke-linejoin:miter;stroke-miterlimit:4;stroke-dasharray:none;stroke-opacity:1"
         id="path4279"
         inkscape:connector-curvature="0" />
      <path
         d="m 4807.5332,-1038.2676 0,-7.5195 11.1133,0 0,-11.0938 -11.1133,0 0,-7.5195 29.1602,0 0,7.5195 -12.3633,0 0,11.0938 12.3633,0 0,7.5195 -29.1602,0 z"
         style="font-style:normal;font-variant:normal;font-weight:bold;font-stretch:normal;font-size:medium;line-height:125%;font-family:sans-serif;-inkscape-font-specification:'sans-serif Bold';letter-spacing:0px;word-spacing:0px;fill:none;fill-opacity:1;stroke:#000000;stroke-width:0.70866144;stroke-linecap:butt;stroke-linejoin:miter;stroke-miterlimit:4;stroke-dasharray:none;stroke-opacity:1"
         id="path4281"
         inkscape:connector-curvature="0" />
    </g>
  </g>
</svg>
