<?xml version="1.0" encoding="UTF-8" standalone="no"?>
<!-- Created with Inkscape (http://www.inkscape.org/) -->

<svg
   xmlns:dc="http://purl.org/dc/elements/1.1/"
   xmlns:cc="http://creativecommons.org/ns#"
   xmlns:rdf="http://www.w3.org/1999/02/22-rdf-syntax-ns#"
   xmlns:svg="http://www.w3.org/2000/svg"
   xmlns="http://www.w3.org/2000/svg"
   xmlns:sodipodi="http://sodipodi.sourceforge.net/DTD/sodipodi-0.dtd"
   xmlns:inkscape="http://www.inkscape.org/namespaces/inkscape"
   width="650mm"
   height="400mm"
   viewBox="0 0 2303.1496 1417.3228"
   id="svg2"
   version="1.1"
   inkscape:version="0.91 r13725"
   sodipodi:docname="stitch box side 1.svg">
  <defs
     id="defs4" />
  <sodipodi:namedview
     id="base"
     pagecolor="#ffffff"
     bordercolor="#666666"
     borderopacity="1.0"
     inkscape:pageopacity="0.0"
     inkscape:pageshadow="2"
     inkscape:zoom="0.088388348"
     inkscape:cx="2827.662"
     inkscape:cy="65.719013"
     inkscape:document-units="mm"
     inkscape:current-layer="layer1"
     showgrid="false"
     inkscape:snap-object-midpoints="true"
     inkscape:window-width="1440"
     inkscape:window-height="849"
     inkscape:window-x="0"
     inkscape:window-y="25"
     inkscape:window-maximized="1"
     inkscape:object-nodes="true"
     inkscape:snap-intersection-paths="true"
     inkscape:object-paths="true"
     inkscape:snap-smooth-nodes="true"
     inkscape:snap-midpoints="true"
     inkscape:snap-bbox="true"
     inkscape:snap-nodes="true"
     inkscape:snap-bbox-edge-midpoints="true"
     inkscape:bbox-nodes="true" />
  <metadata
     id="metadata7">
    <rdf:RDF>
      <cc:Work
         rdf:about="">
        <dc:format>image/svg+xml</dc:format>
        <dc:type
           rdf:resource="http://purl.org/dc/dcmitype/StillImage" />
        <dc:title></dc:title>
      </cc:Work>
    </rdf:RDF>
  </metadata>
  <g
     inkscape:label="Layer 1"
     inkscape:groupmode="layer"
     id="layer1"
     transform="translate(0,364.96045)">
    <g
       id="g4333"
       transform="translate(-1078.6846,1768.9385)">
      <path
         id="path4183"
         d="m 2431.5527,-2075.8863 0,10.6309 0,61.6543 -10.6289,0 0,70.8652 10.6289,0 0,61.6563 26.3965,45.7207 -9.2051,5.3164 35.4336,61.3711 9.2051,-5.3145 35.4336,61.3711 -9.2051,5.3164 35.4317,61.3711 9.207,-5.3144 35.4316,61.371 -9.205,5.3145 35.4336,61.373 9.205,-5.3144 35.4336,61.3711 -9.205,5.3144 35.4316,61.3731 9.2051,-5.3164 35.4336,61.373 -9.2051,5.3145 35.4336,61.3711 9.2051,-5.3145 35.4335,61.3731 -9.207,5.3144 35.4336,61.3711 9.2051,-5.3144 26.3984,45.7226 0,17.3613 -10.6289,0 0,70.8672 10.6289,0 0,70.86721 -10.6289,0 0,70.86719 10.6289,0 0,17.36132 0,10.63086 26.7539,0 0,-10.63086 70.8653,0 0,10.63086 70.8652,0 0,-10.63086 70.8652,0 0,10.63086 70.8653,0 0,-10.63086 70.8652,0 0,10.63086 26.7539,0 0,-10.63086 0,-72.52734 10.6289,0 0,-70.86518 -10.6289,0 0,-70.8653 10.6289,0 0,-70.8652 -10.6289,0 0,-70.8653 10.6289,0 0,-70.8652 -10.6289,0 0,-70.8652 10.6289,0 0,-70.8653 -10.6289,0 0,-70.8652 10.6289,0 0,-70.8652 -10.6289,0 0,-70.8653 10.6289,0 0,-70.8652 -10.6289,0 0,-70.8652 10.6289,0 0,-70.8653 -10.6289,0 0,-70.8652 10.6289,0 0,-70.8652 -10.6289,0 0,-72.5293 0,-10.6309 -35.4375,0 0,10.6309 -70.8652,0 0,-10.6309 -70.8653,0 0,10.6309 -70.8652,0 0,-10.6309 -70.8652,0 0,10.6309 -70.8653,0 0,-10.6309 -70.8652,0 0,10.6309 -70.8652,0 0,-10.6309 -70.8653,0 0,10.6309 -70.8652,0 0,-10.6309 -70.8652,0 0,10.6309 -70.8653,0 0,-10.6309 -35.4375,0 z"
         style="fill:none;fill-rule:evenodd;stroke:#0000ff;stroke-width:0.70866132;stroke-linecap:butt;stroke-linejoin:miter;stroke-miterlimit:4;stroke-dasharray:none;stroke-opacity:1"
         inkscape:connector-curvature="0" />
      <path
         style="fill:none;stroke:#ff00ff;stroke-width:0.70866132;stroke-miterlimit:4;stroke-dasharray:none"
         d="m 3130.7421,-966.88623 a 52.713779,52.713779 0 0 1 -52.7138,52.71378 52.713779,52.713779 0 0 1 -52.7138,-52.71378 52.713779,52.713779 0 0 1 52.7138,-52.71377 52.713779,52.713779 0 0 1 52.7138,52.71377 z"
         id="circle4284"
         inkscape:connector-curvature="0" />
      <path
         d="m 3183.1824,-921.12451 q 1.0742,2.07031 1.6211,4.3164 0.5468,2.2461 0.5468,4.6875 0,7.28516 -4.0625,11.54297 -4.082,4.25782 -11.0546,4.25782 -6.9922,0 -11.0547,-4.25782 -4.0821,-4.25781 -4.0821,-11.54297 0,-2.4414 0.5469,-4.6875 0.5469,-2.24609 1.6211,-4.3164 l 6.0352,0 q -1.4258,2.08984 -2.0899,4.12109 -0.664,2.03125 -0.664,4.27735 0,4.02343 2.5781,6.32812 2.5781,2.30469 7.1094,2.30469 4.5117,0 7.0898,-2.30469 2.5781,-2.30469 2.5781,-6.32812 0,-2.2461 -0.664,-4.27735 -0.6641,-2.03125 -2.0899,-4.12109 l 6.0352,0 z"
         style="font-style:normal;font-variant:normal;font-weight:bold;font-stretch:normal;font-size:medium;line-height:125%;font-family:sans-serif;-inkscape-font-specification:'sans-serif Bold';letter-spacing:0px;word-spacing:0px;fill:none;fill-opacity:1;stroke:#000000;stroke-width:0.70866144;stroke-linecap:butt;stroke-linejoin:miter;stroke-miterlimit:4;stroke-dasharray:none;stroke-opacity:1"
         id="path4250"
         inkscape:connector-curvature="0" />
      <path
         d="m 3155.6238,-927.37451 0,-7.51953 23.4765,0 0,-13.20313 5.6836,0 0,20.72266 -29.1601,0 z"
         style="font-style:normal;font-variant:normal;font-weight:bold;font-stretch:normal;font-size:medium;line-height:125%;font-family:sans-serif;-inkscape-font-specification:'sans-serif Bold';letter-spacing:0px;word-spacing:0px;fill:none;fill-opacity:1;stroke:#000000;stroke-width:0.70866144;stroke-linecap:butt;stroke-linejoin:miter;stroke-miterlimit:4;stroke-dasharray:none;stroke-opacity:1"
         id="path4252"
         inkscape:connector-curvature="0" />
      <path
         d="m 3155.6238,-952.84326 0,-20.29297 5.6836,0 0,12.77344 5.4297,0 0,-12.01172 5.6836,0 0,12.01172 6.6796,0 0,-13.20313 5.6836,0 0,20.72266 -29.1601,0 z"
         style="font-style:normal;font-variant:normal;font-weight:bold;font-stretch:normal;font-size:medium;line-height:125%;font-family:sans-serif;-inkscape-font-specification:'sans-serif Bold';letter-spacing:0px;word-spacing:0px;fill:none;fill-opacity:1;stroke:#000000;stroke-width:0.70866144;stroke-linecap:butt;stroke-linejoin:miter;stroke-miterlimit:4;stroke-dasharray:none;stroke-opacity:1"
         id="path4254"
         inkscape:connector-curvature="0" />
      <path
         d="m 3179.4714,-997.88232 0,11.75781 5.3125,1.85547 0,7.55859 -29.1601,-10.80078 0,-8.96484 29.1601,-10.80083 0,7.55864 -5.3125,1.83594 z m -5.4101,9.88281 0,-7.98828 -11.6016,3.98437 11.6016,4.00391 z"
         style="font-style:normal;font-variant:normal;font-weight:bold;font-stretch:normal;font-size:medium;line-height:125%;font-family:sans-serif;-inkscape-font-specification:'sans-serif Bold';letter-spacing:0px;word-spacing:0px;fill:none;fill-opacity:1;stroke:#000000;stroke-width:0.70866144;stroke-linecap:butt;stroke-linejoin:miter;stroke-miterlimit:4;stroke-dasharray:none;stroke-opacity:1"
         id="path4256"
         inkscape:connector-curvature="0" />
      <path
         d="m 3168.5535,-1021.8081 q 0,-2.3633 -0.8789,-3.3789 -0.8789,-1.0352 -2.8907,-1.0352 -1.9922,0 -2.8515,1.0352 -0.8594,1.0156 -0.8594,3.3789 l 0,3.1641 7.4805,0 0,-3.1641 z m 5.1953,3.1641 11.0351,0 0,7.5195 -29.1601,0 0,-11.4844 q 0,-5.7617 1.9336,-8.4375 1.9336,-2.6953 6.1133,-2.6953 2.8906,0 4.746,1.4063 1.8555,1.3867 2.7344,4.1992 0.3516,-1.543 1.6016,-2.7539 1.2305,-1.2305 3.75,-2.4805 l 8.2812,-4.082 0,8.0078 -7.2461,3.5547 q -2.1875,1.0742 -2.9882,2.1875 -0.8008,1.0937 -0.8008,2.9297 l 0,2.1289 z"
         style="font-style:normal;font-variant:normal;font-weight:bold;font-stretch:normal;font-size:medium;line-height:125%;font-family:sans-serif;-inkscape-font-specification:'sans-serif Bold';letter-spacing:0px;word-spacing:0px;fill:none;fill-opacity:1;stroke:#000000;stroke-width:0.70866144;stroke-linecap:butt;stroke-linejoin:miter;stroke-miterlimit:4;stroke-dasharray:none;stroke-opacity:1"
         id="path4258"
         inkscape:connector-curvature="0" />
    </g>
  </g>
</svg>
