  0
SECTION
  2
HEADER
  9
$ACADVER
  1
AC1014
  9
$HANDSEED
  5
FFFF
  9
$MEASUREMENT
 70
     1
  0
ENDSEC
  0
SECTION
  2
TABLES
  0
TABLE
  2
VPORT
  5
8
330
0
100
AcDbSymbolTable
 70
     4
  0
VPORT
  5
2E
330
8
100
AcDbSymbolTableRecord
100
AcDbViewportTableRecord
  2
*ACTIVE
 70
     0
 10
0.0
 20
0.0
 11
1.0
 21
1.0
 12
210.0
 22
148.5
 13
0.0
 23
0.0
 14
10.0
 24
10.0
 15
10.0
 25
10.0
 16
0.0
 26
0.0
 36
1.0
 17
0.0
 27
0.0
 37
0.0
 40
341.0
 41
1.24
 42
50.0
 43
0.0
 44
0.0
 50
0.0
 51
0.0
 71
     0
 72
   100
 73
     1
 74
     3
 75
     0
 76
     0
 77
     0
 78
     0
  0
ENDTAB
  0
TABLE
  2
LTYPE
  5
5
330
0
100
AcDbSymbolTable
 70
     1
  0
LTYPE
  5
14
330
5
100
AcDbSymbolTableRecord
100
AcDbLinetypeTableRecord
  2
BYBLOCK
 70
     0
  3

 72
    65
 73
     0
 40
0.0
  0
LTYPE
  5
15
330
5
100
AcDbSymbolTableRecord
100
AcDbLinetypeTableRecord
  2
BYLAYER
 70
     0
  3

 72
    65
 73
     0
 40
0.0
  0
LTYPE
  5
16
330
5
100
AcDbSymbolTableRecord
100
AcDbLinetypeTableRecord
  2
CONTINUOUS
 70
     0
  3
Solid line
 72
    65
 73
     0
 40
0.0
  0
ENDTAB
  0
TABLE
  2
LAYER
  5
2
100
AcDbSymbolTable
 70
2
  0
LAYER
  5
50
100
AcDbSymbolTableRecord
100
AcDbLayerTableRecord
  2
0
 70
0
  6
CONTINUOUS
  0
LAYER
  5
51
100
AcDbSymbolTableRecord
100
AcDbLayerTableRecord
  2
Layer_1
 70
0
  6
CONTINUOUS
  0
ENDTAB
  0
TABLE
  2
STYLE
  5
3
330
0
100
AcDbSymbolTable
 70
     1
  0
STYLE
  5
11
330
3
100
AcDbSymbolTableRecord
100
AcDbTextStyleTableRecord
  2
STANDARD
 70
     0
 40
0.0
 41
1.0
 50
0.0
 71
     0
 42
2.5
  3
txt
  4

  0
ENDTAB
  0
TABLE
  2
VIEW
  5
6
330
0
100
AcDbSymbolTable
 70
     0
  0
ENDTAB
  0
TABLE
  2
UCS
  5
7
330
0
100
AcDbSymbolTable
 70
     0
  0
ENDTAB
  0
TABLE
  2
APPID
  5
9
330
0
100
AcDbSymbolTable
 70
     2
  0
APPID
  5
12
330
9
100
AcDbSymbolTableRecord
100
AcDbRegAppTableRecord
  2
ACAD
 70
     0
  0
ENDTAB
  0
TABLE
  2
DIMSTYLE
  5
A
330
0
100
AcDbSymbolTable
 70
     1
  0
DIMSTYLE
105
27
330
A
100
AcDbSymbolTableRecord
100
AcDbDimStyleTableRecord
  2
ISO-25
 70
     0
  3

  4

  5

  6

  7

 40
1.0
 41
2.5
 42
0.625
 43
3.75
 44
1.25
 45
0.0
 46
0.0
 47
0.0
 48
0.0
140
2.5
141
2.5
142
0.0
143
0.03937007874016
144
1.0
145
0.0
146
1.0
147
0.625
 71
     0
 72
     0
 73
     0
 74
     0
 75
     0
 76
     0
 77
     1
 78
     8
170
     0
171
     3
172
     1
173
     0
174
     0
175
     0
176
     0
177
     0
178
     0
270
     2
271
     2
272
     2
273
     2
274
     3
340
11
275
     0
280
     0
281
     0
282
     0
283
     0
284
     8
285
     0
286
     0
287
     3
288
     0
  0
ENDTAB
  0
TABLE
  2
BLOCK_RECORD
  5
1
330
0
100
AcDbSymbolTable
 70
     1
  0
BLOCK_RECORD
  5
1F
330
1
100
AcDbSymbolTableRecord
100
AcDbBlockTableRecord
  2
*MODEL_SPACE
  0
BLOCK_RECORD
  5
1B
330
1
100
AcDbSymbolTableRecord
100
AcDbBlockTableRecord
  2
*PAPER_SPACE
  0
ENDTAB
  0
ENDSEC
  0
SECTION
  2
BLOCKS
  0
BLOCK
  5
20
330
1F
100
AcDbEntity
  8
0
100
AcDbBlockBegin
  2
*MODEL_SPACE
 70
     0
 10
0.0
 20
0.0
 30
0.0
  3
*MODEL_SPACE
  1

  0
ENDBLK
  5
21
330
1F
100
AcDbEntity
  8
0
100
AcDbBlockEnd
  0
BLOCK
  5
1C
330
1B
100
AcDbEntity
 67
     1
  8
0
100
AcDbBlockBegin
  2
*PAPER_SPACE
  1

  0
ENDBLK
  5
1D
330
1B
100
AcDbEntity
 67
     1
  8
0
100
AcDbBlockEnd
  0
ENDSEC
  0
SECTION
  2
ENTITIES
  0
LINE
  5
100
100
AcDbEntity
  8
Layer_1
 62
5
100
AcDbLine
 10
374.752560
 20
283.241746
 30
0.0
 11
374.752560
 21
263.241447
 31
0.0
  0
LINE
  5
101
100
AcDbEntity
  8
Layer_1
 62
5
100
AcDbLine
 10
374.752560
 20
263.241447
 30
0.0
 11
371.752820
 21
263.241447
 31
0.0
  0
LINE
  5
102
100
AcDbEntity
  8
Layer_1
 62
5
100
AcDbLine
 10
371.752820
 20
263.241447
 30
0.0
 11
371.752820
 21
243.241177
 31
0.0
  0
LINE
  5
103
100
AcDbEntity
  8
Layer_1
 62
5
100
AcDbLine
 10
371.752820
 20
243.241177
 30
0.0
 11
374.752560
 21
243.241177
 31
0.0
  0
LINE
  5
104
100
AcDbEntity
  8
Layer_1
 62
5
100
AcDbLine
 10
374.752560
 20
243.241177
 30
0.0
 11
374.752560
 21
223.240878
 31
0.0
  0
LINE
  5
105
100
AcDbEntity
  8
Layer_1
 62
5
100
AcDbLine
 10
374.752560
 20
223.240878
 30
0.0
 11
371.752820
 21
223.240878
 31
0.0
  0
LINE
  5
106
100
AcDbEntity
  8
Layer_1
 62
5
100
AcDbLine
 10
371.752820
 20
223.240878
 30
0.0
 11
371.752820
 21
218.341105
 31
0.0
  0
LINE
  5
107
100
AcDbEntity
  8
Layer_1
 62
5
100
AcDbLine
 10
371.752820
 20
218.341105
 30
0.0
 11
374.752560
 21
218.341105
 31
0.0
  0
LINE
  5
108
100
AcDbEntity
  8
Layer_1
 62
5
100
AcDbLine
 10
374.752560
 20
218.341105
 30
0.0
 11
389.652990
 21
218.341105
 31
0.0
  0
LINE
  5
109
100
AcDbEntity
  8
Layer_1
 62
5
100
AcDbLine
 10
389.652990
 20
218.341105
 30
0.0
 11
389.652990
 21
215.341393
 31
0.0
  0
LINE
  5
10a
100
AcDbEntity
  8
Layer_1
 62
5
100
AcDbLine
 10
389.652990
 20
215.341393
 30
0.0
 11
409.652753
 21
215.341393
 31
0.0
  0
LINE
  5
10b
100
AcDbEntity
  8
Layer_1
 62
5
100
AcDbLine
 10
409.652753
 20
215.341393
 30
0.0
 11
409.652753
 21
218.341105
 31
0.0
  0
LINE
  5
10c
100
AcDbEntity
  8
Layer_1
 62
5
100
AcDbLine
 10
409.652753
 20
218.341105
 30
0.0
 11
429.653023
 21
218.341105
 31
0.0
  0
LINE
  5
10d
100
AcDbEntity
  8
Layer_1
 62
5
100
AcDbLine
 10
429.653023
 20
218.341105
 30
0.0
 11
429.653023
 21
215.341393
 31
0.0
  0
LINE
  5
10e
100
AcDbEntity
  8
Layer_1
 62
5
100
AcDbLine
 10
429.653023
 20
215.341393
 30
0.0
 11
449.652785
 21
215.341393
 31
0.0
  0
LINE
  5
10f
100
AcDbEntity
  8
Layer_1
 62
5
100
AcDbLine
 10
449.652785
 20
215.341393
 30
0.0
 11
449.652785
 21
218.341105
 31
0.0
  0
LINE
  5
110
100
AcDbEntity
  8
Layer_1
 62
5
100
AcDbLine
 10
449.652785
 20
218.341105
 30
0.0
 11
469.653084
 21
218.341105
 31
0.0
  0
LINE
  5
111
100
AcDbEntity
  8
Layer_1
 62
5
100
AcDbLine
 10
469.653084
 20
218.341105
 30
0.0
 11
469.653084
 21
215.341393
 31
0.0
  0
LINE
  5
112
100
AcDbEntity
  8
Layer_1
 62
5
100
AcDbLine
 10
469.653084
 20
215.341393
 30
0.0
 11
489.652818
 21
215.341393
 31
0.0
  0
LINE
  5
113
100
AcDbEntity
  8
Layer_1
 62
5
100
AcDbLine
 10
489.652818
 20
215.341393
 30
0.0
 11
489.652818
 21
218.341105
 31
0.0
  0
LINE
  5
114
100
AcDbEntity
  8
Layer_1
 62
5
100
AcDbLine
 10
489.652818
 20
218.341105
 30
0.0
 11
509.652553
 21
218.341105
 31
0.0
  0
LINE
  5
115
100
AcDbEntity
  8
Layer_1
 62
5
100
AcDbLine
 10
509.652553
 20
218.341105
 30
0.0
 11
509.652553
 21
215.341393
 31
0.0
  0
LINE
  5
116
100
AcDbEntity
  8
Layer_1
 62
5
100
AcDbLine
 10
509.652553
 20
215.341393
 30
0.0
 11
529.652851
 21
215.341393
 31
0.0
  0
LINE
  5
117
100
AcDbEntity
  8
Layer_1
 62
5
100
AcDbLine
 10
529.652851
 20
215.341393
 30
0.0
 11
529.652851
 21
218.341105
 31
0.0
  0
LINE
  5
118
100
AcDbEntity
  8
Layer_1
 62
5
100
AcDbLine
 10
529.652851
 20
218.341105
 30
0.0
 11
549.652614
 21
218.341105
 31
0.0
  0
LINE
  5
119
100
AcDbEntity
  8
Layer_1
 62
5
100
AcDbLine
 10
549.652614
 20
218.341105
 30
0.0
 11
549.652614
 21
215.341393
 31
0.0
  0
LINE
  5
11a
100
AcDbEntity
  8
Layer_1
 62
5
100
AcDbLine
 10
549.652614
 20
215.341393
 30
0.0
 11
569.652884
 21
215.341393
 31
0.0
  0
LINE
  5
11b
100
AcDbEntity
  8
Layer_1
 62
5
100
AcDbLine
 10
569.652884
 20
215.341393
 30
0.0
 11
569.652884
 21
218.341105
 31
0.0
  0
LINE
  5
11c
100
AcDbEntity
  8
Layer_1
 62
5
100
AcDbLine
 10
569.652884
 20
218.341105
 30
0.0
 11
589.652647
 21
218.341105
 31
0.0
  0
LINE
  5
11d
100
AcDbEntity
  8
Layer_1
 62
5
100
AcDbLine
 10
589.652647
 20
218.341105
 30
0.0
 11
589.652647
 21
215.341393
 31
0.0
  0
LINE
  5
11e
100
AcDbEntity
  8
Layer_1
 62
5
100
AcDbLine
 10
589.652647
 20
215.341393
 30
0.0
 11
609.652917
 21
215.341393
 31
0.0
  0
LINE
  5
11f
100
AcDbEntity
  8
Layer_1
 62
5
100
AcDbLine
 10
609.652917
 20
215.341393
 30
0.0
 11
609.652917
 21
218.341105
 31
0.0
  0
LINE
  5
120
100
AcDbEntity
  8
Layer_1
 62
5
100
AcDbLine
 10
609.652917
 20
218.341105
 30
0.0
 11
624.552839
 21
218.341105
 31
0.0
  0
LINE
  5
121
100
AcDbEntity
  8
Layer_1
 62
5
100
AcDbLine
 10
624.552839
 20
218.341105
 30
0.0
 11
627.552551
 21
218.341105
 31
0.0
  0
LINE
  5
122
100
AcDbEntity
  8
Layer_1
 62
5
100
AcDbLine
 10
627.552551
 20
218.341105
 30
0.0
 11
627.552551
 21
223.240878
 31
0.0
  0
LINE
  5
123
100
AcDbEntity
  8
Layer_1
 62
5
100
AcDbLine
 10
627.552551
 20
223.240878
 30
0.0
 11
624.552839
 21
223.240878
 31
0.0
  0
LINE
  5
124
100
AcDbEntity
  8
Layer_1
 62
5
100
AcDbLine
 10
624.552839
 20
223.240878
 30
0.0
 11
624.552839
 21
243.241177
 31
0.0
  0
LINE
  5
125
100
AcDbEntity
  8
Layer_1
 62
5
100
AcDbLine
 10
624.552839
 20
243.241177
 30
0.0
 11
627.552551
 21
243.241177
 31
0.0
  0
LINE
  5
126
100
AcDbEntity
  8
Layer_1
 62
5
100
AcDbLine
 10
627.552551
 20
243.241177
 30
0.0
 11
627.552551
 21
263.241447
 31
0.0
  0
LINE
  5
127
100
AcDbEntity
  8
Layer_1
 62
5
100
AcDbLine
 10
627.552551
 20
263.241447
 30
0.0
 11
624.552839
 21
263.241447
 31
0.0
  0
LINE
  5
128
100
AcDbEntity
  8
Layer_1
 62
5
100
AcDbLine
 10
624.552839
 20
263.241447
 30
0.0
 11
624.552839
 21
283.241746
 31
0.0
  0
LINE
  5
129
100
AcDbEntity
  8
Layer_1
 62
5
100
AcDbLine
 10
624.552839
 20
283.061519
 30
0.0
 11
609.652917
 21
283.061519
 31
0.0
  0
LINE
  5
12a
100
AcDbEntity
  8
Layer_1
 62
5
100
AcDbLine
 10
609.652917
 20
283.061519
 30
0.0
 11
609.652917
 21
286.061767
 31
0.0
  0
LINE
  5
12b
100
AcDbEntity
  8
Layer_1
 62
5
100
AcDbLine
 10
609.652917
 20
286.061767
 30
0.0
 11
589.652647
 21
286.061767
 31
0.0
  0
LINE
  5
12c
100
AcDbEntity
  8
Layer_1
 62
5
100
AcDbLine
 10
589.652647
 20
286.061767
 30
0.0
 11
589.652647
 21
283.061519
 31
0.0
  0
LINE
  5
12d
100
AcDbEntity
  8
Layer_1
 62
5
100
AcDbLine
 10
589.652647
 20
283.061519
 30
0.0
 11
569.652884
 21
283.061519
 31
0.0
  0
LINE
  5
12e
100
AcDbEntity
  8
Layer_1
 62
5
100
AcDbLine
 10
569.652884
 20
283.061519
 30
0.0
 11
569.652884
 21
286.061767
 31
0.0
  0
LINE
  5
12f
100
AcDbEntity
  8
Layer_1
 62
5
100
AcDbLine
 10
569.652884
 20
286.061767
 30
0.0
 11
549.652614
 21
286.061767
 31
0.0
  0
LINE
  5
130
100
AcDbEntity
  8
Layer_1
 62
5
100
AcDbLine
 10
549.652614
 20
286.061767
 30
0.0
 11
549.652614
 21
283.061519
 31
0.0
  0
LINE
  5
131
100
AcDbEntity
  8
Layer_1
 62
5
100
AcDbLine
 10
549.652614
 20
283.061519
 30
0.0
 11
529.652851
 21
283.061519
 31
0.0
  0
LINE
  5
132
100
AcDbEntity
  8
Layer_1
 62
5
100
AcDbLine
 10
529.652851
 20
283.061519
 30
0.0
 11
529.652851
 21
286.061767
 31
0.0
  0
LINE
  5
133
100
AcDbEntity
  8
Layer_1
 62
5
100
AcDbLine
 10
529.652851
 20
286.061767
 30
0.0
 11
509.652553
 21
286.061767
 31
0.0
  0
LINE
  5
134
100
AcDbEntity
  8
Layer_1
 62
5
100
AcDbLine
 10
509.652553
 20
286.061767
 30
0.0
 11
509.652553
 21
283.061519
 31
0.0
  0
LINE
  5
135
100
AcDbEntity
  8
Layer_1
 62
5
100
AcDbLine
 10
509.652553
 20
283.061519
 30
0.0
 11
489.652818
 21
283.061519
 31
0.0
  0
LINE
  5
136
100
AcDbEntity
  8
Layer_1
 62
5
100
AcDbLine
 10
489.652818
 20
283.061519
 30
0.0
 11
489.652818
 21
286.061767
 31
0.0
  0
LINE
  5
137
100
AcDbEntity
  8
Layer_1
 62
5
100
AcDbLine
 10
489.652818
 20
286.061767
 30
0.0
 11
469.653084
 21
286.061767
 31
0.0
  0
LINE
  5
138
100
AcDbEntity
  8
Layer_1
 62
5
100
AcDbLine
 10
469.653084
 20
286.061767
 30
0.0
 11
469.653084
 21
283.061519
 31
0.0
  0
LINE
  5
139
100
AcDbEntity
  8
Layer_1
 62
5
100
AcDbLine
 10
469.653084
 20
283.061519
 30
0.0
 11
449.652785
 21
283.061519
 31
0.0
  0
LINE
  5
13a
100
AcDbEntity
  8
Layer_1
 62
5
100
AcDbLine
 10
449.652785
 20
283.061519
 30
0.0
 11
449.652785
 21
286.061767
 31
0.0
  0
LINE
  5
13b
100
AcDbEntity
  8
Layer_1
 62
5
100
AcDbLine
 10
449.652785
 20
286.061767
 30
0.0
 11
429.653023
 21
286.061767
 31
0.0
  0
LINE
  5
13c
100
AcDbEntity
  8
Layer_1
 62
5
100
AcDbLine
 10
429.653023
 20
286.061767
 30
0.0
 11
429.653023
 21
283.061519
 31
0.0
  0
LINE
  5
13d
100
AcDbEntity
  8
Layer_1
 62
5
100
AcDbLine
 10
429.653023
 20
283.061519
 30
0.0
 11
409.652753
 21
283.061519
 31
0.0
  0
LINE
  5
13e
100
AcDbEntity
  8
Layer_1
 62
5
100
AcDbLine
 10
409.652753
 20
283.061519
 30
0.0
 11
409.652753
 21
286.061767
 31
0.0
  0
LINE
  5
13f
100
AcDbEntity
  8
Layer_1
 62
5
100
AcDbLine
 10
409.652753
 20
286.061767
 30
0.0
 11
389.652990
 21
286.061767
 31
0.0
  0
LINE
  5
140
100
AcDbEntity
  8
Layer_1
 62
5
100
AcDbLine
 10
389.652990
 20
286.061767
 30
0.0
 11
389.652990
 21
283.061519
 31
0.0
  0
LINE
  5
141
100
AcDbEntity
  8
Layer_1
 62
5
100
AcDbLine
 10
389.652990
 20
283.061519
 30
0.0
 11
374.752560
 21
283.061519
 31
0.0
  0
SPLINE
  5
142
100
AcDbEntity
  8
Layer_1
 62
6
100
AcDbSpline
 70
8
 71
3
 72
8
 73
4
 74
0
 40
0
 40
0
 40
0
 40
0
 40
1
 40
1
 40
1
 40
1
 10
479.131235
 20
253.241614
 30
0.0
 10
479.131235
 20
245.025282
 30
0.0
 10
472.470589
 20
238.364626
 30
0.0
 10
464.254258
 20
238.364614
 30
0.0
  0
SPLINE
  5
143
100
AcDbEntity
  8
Layer_1
 62
6
100
AcDbSpline
 70
8
 71
3
 72
8
 73
4
 74
0
 40
0
 40
0
 40
0
 40
0
 40
1
 40
1
 40
1
 40
1
 10
464.254258
 20
238.364614
 30
0.0
 10
460.308631
 20
238.364612
 30
0.0
 10
456.524606
 20
239.932005
 30
0.0
 10
453.734626
 20
242.721984
 30
0.0
  0
SPLINE
  5
144
100
AcDbEntity
  8
Layer_1
 62
6
100
AcDbSpline
 70
8
 71
3
 72
8
 73
4
 74
0
 40
0
 40
0
 40
0
 40
0
 40
1
 40
1
 40
1
 40
1
 10
453.734626
 20
242.721984
 30
0.0
 10
450.944646
 20
245.511963
 30
0.0
 10
449.377252
 20
249.295987
 30
0.0
 10
449.377252
 20
253.241614
 30
0.0
  0
SPLINE
  5
145
100
AcDbEntity
  8
Layer_1
 62
6
100
AcDbSpline
 70
8
 71
3
 72
8
 73
4
 74
0
 40
0
 40
0
 40
0
 40
0
 40
1
 40
1
 40
1
 40
1
 10
449.377252
 20
253.241614
 30
0.0
 10
449.377252
 20
257.187241
 30
0.0
 10
450.944646
 20
260.971265
 30
0.0
 10
453.734626
 20
263.761244
 30
0.0
  0
SPLINE
  5
146
100
AcDbEntity
  8
Layer_1
 62
6
100
AcDbSpline
 70
8
 71
3
 72
8
 73
4
 74
0
 40
0
 40
0
 40
0
 40
0
 40
1
 40
1
 40
1
 40
1
 10
453.734626
 20
263.761244
 30
0.0
 10
456.524606
 20
266.551222
 30
0.0
 10
460.308631
 20
268.118615
 30
0.0
 10
464.254258
 20
268.118614
 30
0.0
  0
SPLINE
  5
147
100
AcDbEntity
  8
Layer_1
 62
6
100
AcDbSpline
 70
8
 71
3
 72
8
 73
4
 74
0
 40
0
 40
0
 40
0
 40
0
 40
1
 40
1
 40
1
 40
1
 10
464.254258
 20
268.118614
 30
0.0
 10
472.470589
 20
268.118602
 30
0.0
 10
479.131235
 20
261.457945
 30
0.0
 10
479.131235
 20
253.241614
 30
0.0
  0
LINE
  5
148
100
AcDbEntity
  8
Layer_1
 62
6
100
AcDbLine
 10
479.131235
 20
253.241614
 30
0.0
 11
479.131235
 21
253.241614
 31
0.0
  0
SPLINE
  5
149
100
AcDbEntity
  8
Layer_1
 62
6
100
AcDbSpline
 70
8
 71
3
 72
8
 73
4
 74
0
 40
0
 40
0
 40
0
 40
0
 40
1
 40
1
 40
1
 40
1
 10
549.928119
 20
253.241614
 30
0.0
 10
549.928119
 20
245.025282
 30
0.0
 10
543.267473
 20
238.364626
 30
0.0
 10
535.051141
 20
238.364614
 30
0.0
  0
SPLINE
  5
14a
100
AcDbEntity
  8
Layer_1
 62
6
100
AcDbSpline
 70
8
 71
3
 72
8
 73
4
 74
0
 40
0
 40
0
 40
0
 40
0
 40
1
 40
1
 40
1
 40
1
 10
535.051141
 20
238.364614
 30
0.0
 10
531.105515
 20
238.364612
 30
0.0
 10
527.321490
 20
239.932005
 30
0.0
 10
524.531510
 20
242.721984
 30
0.0
  0
SPLINE
  5
14b
100
AcDbEntity
  8
Layer_1
 62
6
100
AcDbSpline
 70
8
 71
3
 72
8
 73
4
 74
0
 40
0
 40
0
 40
0
 40
0
 40
1
 40
1
 40
1
 40
1
 10
524.531510
 20
242.721984
 30
0.0
 10
521.741530
 20
245.511963
 30
0.0
 10
520.174136
 20
249.295987
 30
0.0
 10
520.174136
 20
253.241614
 30
0.0
  0
SPLINE
  5
14c
100
AcDbEntity
  8
Layer_1
 62
6
100
AcDbSpline
 70
8
 71
3
 72
8
 73
4
 74
0
 40
0
 40
0
 40
0
 40
0
 40
1
 40
1
 40
1
 40
1
 10
520.174136
 20
253.241614
 30
0.0
 10
520.174136
 20
257.187241
 30
0.0
 10
521.741530
 20
260.971265
 30
0.0
 10
524.531510
 20
263.761244
 30
0.0
  0
SPLINE
  5
14d
100
AcDbEntity
  8
Layer_1
 62
6
100
AcDbSpline
 70
8
 71
3
 72
8
 73
4
 74
0
 40
0
 40
0
 40
0
 40
0
 40
1
 40
1
 40
1
 40
1
 10
524.531510
 20
263.761244
 30
0.0
 10
527.321490
 20
266.551222
 30
0.0
 10
531.105515
 20
268.118615
 30
0.0
 10
535.051141
 20
268.118614
 30
0.0
  0
SPLINE
  5
14e
100
AcDbEntity
  8
Layer_1
 62
6
100
AcDbSpline
 70
8
 71
3
 72
8
 73
4
 74
0
 40
0
 40
0
 40
0
 40
0
 40
1
 40
1
 40
1
 40
1
 10
535.051141
 20
268.118614
 30
0.0
 10
543.267473
 20
268.118602
 30
0.0
 10
549.928119
 20
261.457945
 30
0.0
 10
549.928119
 20
253.241614
 30
0.0
  0
LINE
  5
14f
100
AcDbEntity
  8
Layer_1
 62
6
100
AcDbLine
 10
549.928119
 20
253.241614
 30
0.0
 11
549.928119
 21
253.241614
 31
0.0
  0
LINE
  5
150
100
AcDbEntity
  8
Layer_1
 62
7
100
AcDbLine
 10
529.390159
 20
228.804593
 30
0.0
 11
527.163256
 21
231.819742
 31
0.0
  0
LINE
  5
151
100
AcDbEntity
  8
Layer_1
 62
7
100
AcDbLine
 10
527.163256
 20
231.819742
 30
0.0
 11
529.252350
 21
231.819742
 31
0.0
  0
LINE
  5
152
100
AcDbEntity
  8
Layer_1
 62
7
100
AcDbLine
 10
529.252350
 20
231.819742
 30
0.0
 11
530.514645
 21
229.989706
 31
0.0
  0
LINE
  5
153
100
AcDbEntity
  8
Layer_1
 62
7
100
AcDbLine
 10
530.514645
 20
229.989706
 30
0.0
 11
531.793450
 21
231.819742
 31
0.0
  0
LINE
  5
154
100
AcDbEntity
  8
Layer_1
 62
7
100
AcDbLine
 10
531.793450
 20
231.819742
 30
0.0
 11
533.882572
 21
231.819742
 31
0.0
  0
LINE
  5
155
100
AcDbEntity
  8
Layer_1
 62
7
100
AcDbLine
 10
533.882572
 20
231.819742
 30
0.0
 11
531.655641
 21
228.815619
 31
0.0
  0
LINE
  5
156
100
AcDbEntity
  8
Layer_1
 62
7
100
AcDbLine
 10
531.655641
 20
228.815619
 30
0.0
 11
533.992808
 21
225.646131
 31
0.0
  0
LINE
  5
157
100
AcDbEntity
  8
Layer_1
 62
7
100
AcDbLine
 10
533.992808
 20
225.646131
 30
0.0
 11
531.903686
 21
225.646131
 31
0.0
  0
LINE
  5
158
100
AcDbEntity
  8
Layer_1
 62
7
100
AcDbLine
 10
531.903686
 20
225.646131
 30
0.0
 11
530.514645
 21
227.597432
 31
0.0
  0
LINE
  5
159
100
AcDbEntity
  8
Layer_1
 62
7
100
AcDbLine
 10
530.514645
 20
227.597432
 30
0.0
 11
529.142114
 21
225.646131
 31
0.0
  0
LINE
  5
15a
100
AcDbEntity
  8
Layer_1
 62
7
100
AcDbLine
 10
529.142114
 20
225.646131
 30
0.0
 11
527.052992
 21
225.646131
 31
0.0
  0
LINE
  5
15b
100
AcDbEntity
  8
Layer_1
 62
7
100
AcDbLine
 10
527.052992
 20
225.646131
 30
0.0
 11
529.390159
 21
228.804593
 31
0.0
  0
LINE
  5
15c
100
AcDbEntity
  8
Layer_1
 62
7
100
AcDbLine
 10
529.390159
 20
228.804593
 30
0.0
 11
529.390159
 21
228.804593
 31
0.0
  0
LINE
  5
15d
100
AcDbEntity
  8
Layer_1
 62
7
100
AcDbLine
 10
537.410350
 20
227.206069
 30
0.0
 11
541.031825
 21
227.206069
 31
0.0
  0
LINE
  5
15e
100
AcDbEntity
  8
Layer_1
 62
7
100
AcDbLine
 10
541.031825
 20
227.206069
 30
0.0
 11
541.031825
 21
225.646131
 31
0.0
  0
LINE
  5
15f
100
AcDbEntity
  8
Layer_1
 62
7
100
AcDbLine
 10
541.031825
 20
225.646131
 30
0.0
 11
535.051141
 21
225.646131
 31
0.0
  0
LINE
  5
160
100
AcDbEntity
  8
Layer_1
 62
7
100
AcDbLine
 10
535.051141
 20
225.646131
 30
0.0
 11
535.051141
 21
227.206069
 31
0.0
  0
LINE
  5
161
100
AcDbEntity
  8
Layer_1
 62
7
100
AcDbLine
 10
535.051141
 20
227.206069
 30
0.0
 11
538.055256
 21
229.857414
 31
0.0
  0
SPLINE
  5
162
100
AcDbEntity
  8
Layer_1
 62
7
100
AcDbSpline
 70
8
 71
3
 72
8
 73
4
 74
0
 40
0
 40
0
 40
0
 40
0
 40
1
 40
1
 40
1
 40
1
 10
538.055256
 20
229.857414
 30
0.0
 10
538.323517
 20
230.099948
 30
0.0
 10
538.521957
 20
230.336971
 30
0.0
 10
538.650575
 20
230.568482
 30
0.0
  0
SPLINE
  5
163
100
AcDbEntity
  8
Layer_1
 62
7
100
AcDbSpline
 70
8
 71
3
 72
8
 73
4
 74
0
 40
0
 40
0
 40
0
 40
0
 40
1
 40
1
 40
1
 40
1
 10
538.650575
 20
230.568482
 30
0.0
 10
538.779193
 20
230.799992
 30
0.0
 10
538.843503
 20
231.040690
 30
0.0
 10
538.843503
 20
231.290575
 30
0.0
  0
SPLINE
  5
164
100
AcDbEntity
  8
Layer_1
 62
7
100
AcDbSpline
 70
8
 71
3
 72
8
 73
4
 74
0
 40
0
 40
0
 40
0
 40
0
 40
1
 40
1
 40
1
 40
1
 10
538.843503
 20
231.290575
 30
0.0
 10
538.843503
 20
231.676426
 30
0.0
 10
538.713050
 20
231.986944
 30
0.0
 10
538.452145
 20
232.222129
 30
0.0
  0
SPLINE
  5
165
100
AcDbEntity
  8
Layer_1
 62
7
100
AcDbSpline
 70
8
 71
3
 72
8
 73
4
 74
0
 40
0
 40
0
 40
0
 40
0
 40
1
 40
1
 40
1
 40
1
 10
538.452145
 20
232.222129
 30
0.0
 10
538.194909
 20
232.457314
 30
0.0
 10
537.851313
 20
232.574907
 30
0.0
 10
537.421357
 20
232.574907
 30
0.0
  0
SPLINE
  5
166
100
AcDbEntity
  8
Layer_1
 62
7
100
AcDbSpline
 70
8
 71
3
 72
8
 73
4
 74
0
 40
0
 40
0
 40
0
 40
0
 40
1
 40
1
 40
1
 40
1
 10
537.421357
 20
232.574907
 30
0.0
 10
537.090630
 20
232.574907
 30
0.0
 10
536.728670
 20
232.503248
 30
0.0
 10
536.335478
 20
232.359932
 30
0.0
  0
SPLINE
  5
167
100
AcDbEntity
  8
Layer_1
 62
7
100
AcDbSpline
 70
8
 71
3
 72
8
 73
4
 74
0
 40
0
 40
0
 40
0
 40
0
 40
1
 40
1
 40
1
 40
1
 10
536.335478
 20
232.359932
 30
0.0
 10
535.942267
 20
232.220291
 30
0.0
 10
535.521502
 20
232.010829
 30
0.0
 10
535.073183
 20
231.731548
 30
0.0
  0
LINE
  5
168
100
AcDbEntity
  8
Layer_1
 62
7
100
AcDbLine
 10
535.073183
 20
231.731548
 30
0.0
 11
535.073183
 21
233.539534
 31
0.0
  0
SPLINE
  5
169
100
AcDbEntity
  8
Layer_1
 62
7
100
AcDbSpline
 70
8
 71
3
 72
8
 73
4
 74
0
 40
0
 40
0
 40
0
 40
0
 40
1
 40
1
 40
1
 40
1
 10
535.073183
 20
233.539534
 30
0.0
 10
535.550910
 20
233.697548
 30
0.0
 10
536.023115
 20
233.816978
 30
0.0
 10
536.489797
 20
233.897823
 30
0.0
  0
SPLINE
  5
16a
100
AcDbEntity
  8
Layer_1
 62
7
100
AcDbSpline
 70
8
 71
3
 72
8
 73
4
 74
0
 40
0
 40
0
 40
0
 40
0
 40
1
 40
1
 40
1
 40
1
 10
536.489797
 20
233.897823
 30
0.0
 10
536.956499
 20
233.982343
 30
0.0
 10
537.414009
 20
234.024603
 30
0.0
 10
537.862329
 20
234.024603
 30
0.0
  0
SPLINE
  5
16b
100
AcDbEntity
  8
Layer_1
 62
7
100
AcDbSpline
 70
8
 71
3
 72
8
 73
4
 74
0
 40
0
 40
0
 40
0
 40
0
 40
1
 40
1
 40
1
 40
1
 10
537.862329
 20
234.024603
 30
0.0
 10
538.847171
 20
234.024603
 30
0.0
 10
539.611523
 20
233.807792
 30
0.0
 10
540.155384
 20
233.374168
 30
0.0
  0
SPLINE
  5
16c
100
AcDbEntity
  8
Layer_1
 62
7
100
AcDbSpline
 70
8
 71
3
 72
8
 73
4
 74
0
 40
0
 40
0
 40
0
 40
0
 40
1
 40
1
 40
1
 40
1
 10
540.155384
 20
233.374168
 30
0.0
 10
540.702933
 20
232.940545
 30
0.0
 10
540.976707
 20
232.336046
 30
0.0
 10
540.976707
 20
231.560670
 30
0.0
  0
SPLINE
  5
16d
100
AcDbEntity
  8
Layer_1
 62
7
100
AcDbSpline
 70
8
 71
3
 72
8
 73
4
 74
0
 40
0
 40
0
 40
0
 40
0
 40
1
 40
1
 40
1
 40
1
 10
540.976707
 20
231.560670
 30
0.0
 10
540.976707
 20
231.112349
 30
0.0
 10
540.860949
 20
230.693425
 30
0.0
 10
540.629433
 20
230.303898
 30
0.0
  0
SPLINE
  5
16e
100
AcDbEntity
  8
Layer_1
 62
7
100
AcDbSpline
 70
8
 71
3
 72
8
 73
4
 74
0
 40
0
 40
0
 40
0
 40
0
 40
1
 40
1
 40
1
 40
1
 10
540.629433
 20
230.303898
 30
0.0
 10
540.397917
 20
229.918048
 30
0.0
 10
539.911008
 20
229.399906
 30
0.0
 10
539.168707
 20
228.749472
 30
0.0
  0
LINE
  5
16f
100
AcDbEntity
  8
Layer_1
 62
7
100
AcDbLine
 10
539.168707
 20
228.749472
 30
0.0
 11
537.410350
 21
227.206069
 31
0.0
  0
LINE
  5
170
100
AcDbEntity
  8
Layer_1
 62
7
100
AcDbLine
 10
537.410350
 20
227.206069
 30
0.0
 11
537.410350
 21
227.206069
 31
0.0
  0
LINE
  5
171
100
AcDbEntity
  8
Layer_1
 62
7
100
AcDbLine
 10
451.499394
 20
235.645736
 30
0.0
 11
451.499394
 21
234.645831
 31
0.0
  0
LINE
  5
172
100
AcDbEntity
  8
Layer_1
 62
7
100
AcDbLine
 10
451.499394
 20
234.645831
 30
0.0
 11
451.499394
 21
225.646137
 31
0.0
  0
LINE
  5
173
100
AcDbEntity
  8
Layer_1
 62
7
100
AcDbLine
 10
451.499394
 20
225.646137
 30
0.0
 11
461.499007
 21
225.646137
 31
0.0
  0
LINE
  5
174
100
AcDbEntity
  8
Layer_1
 62
7
100
AcDbLine
 10
461.499007
 20
225.646137
 30
0.0
 11
461.499007
 21
235.645736
 31
0.0
  0
LINE
  5
175
100
AcDbEntity
  8
Layer_1
 62
7
100
AcDbLine
 10
461.499007
 20
235.645736
 30
0.0
 11
451.499394
 21
235.645736
 31
0.0
  0
LINE
  5
176
100
AcDbEntity
  8
Layer_1
 62
7
100
AcDbLine
 10
451.499394
 20
235.645736
 30
0.0
 11
451.499394
 21
235.645736
 31
0.0
  0
LINE
  5
177
100
AcDbEntity
  8
Layer_1
 62
7
100
AcDbLine
 10
453.499220
 20
233.645926
 30
0.0
 11
459.499180
 21
233.645926
 31
0.0
  0
LINE
  5
178
100
AcDbEntity
  8
Layer_1
 62
7
100
AcDbLine
 10
459.499180
 20
233.645926
 30
0.0
 11
459.499180
 21
227.645946
 31
0.0
  0
LINE
  5
179
100
AcDbEntity
  8
Layer_1
 62
7
100
AcDbLine
 10
459.499180
 20
227.645946
 30
0.0
 11
453.499220
 21
227.645946
 31
0.0
  0
LINE
  5
17a
100
AcDbEntity
  8
Layer_1
 62
7
100
AcDbLine
 10
453.499220
 20
227.645946
 30
0.0
 11
453.499220
 21
233.645926
 31
0.0
  0
LINE
  5
17b
100
AcDbEntity
  8
Layer_1
 62
7
100
AcDbLine
 10
453.499220
 20
233.645926
 30
0.0
 11
453.499220
 21
233.645926
 31
0.0
  0
LINE
  5
17c
100
AcDbEntity
  8
Layer_1
 62
7
100
AcDbLine
 10
468.940417
 20
235.351663
 30
0.0
 11
467.598196
 21
234.009453
 31
0.0
  0
LINE
  5
17d
100
AcDbEntity
  8
Layer_1
 62
7
100
AcDbLine
 10
467.598196
 20
234.009453
 30
0.0
 11
470.961720
 21
230.645937
 31
0.0
  0
LINE
  5
17e
100
AcDbEntity
  8
Layer_1
 62
7
100
AcDbLine
 10
470.961720
 20
230.645937
 30
0.0
 11
467.598196
 21
227.282421
 31
0.0
  0
LINE
  5
17f
100
AcDbEntity
  8
Layer_1
 62
7
100
AcDbLine
 10
467.598196
 20
227.282421
 30
0.0
 11
468.940417
 21
225.940212
 31
0.0
  0
LINE
  5
180
100
AcDbEntity
  8
Layer_1
 62
7
100
AcDbLine
 10
468.940417
 20
225.940212
 30
0.0
 11
472.303913
 21
229.303728
 31
0.0
  0
LINE
  5
181
100
AcDbEntity
  8
Layer_1
 62
7
100
AcDbLine
 10
472.303913
 20
229.303728
 30
0.0
 11
475.667437
 21
225.940212
 31
0.0
  0
LINE
  5
182
100
AcDbEntity
  8
Layer_1
 62
7
100
AcDbLine
 10
475.667437
 20
225.940212
 30
0.0
 11
477.009093
 21
227.282421
 31
0.0
  0
LINE
  5
183
100
AcDbEntity
  8
Layer_1
 62
7
100
AcDbLine
 10
477.009093
 20
227.282421
 30
0.0
 11
473.645569
 21
230.645937
 31
0.0
  0
LINE
  5
184
100
AcDbEntity
  8
Layer_1
 62
7
100
AcDbLine
 10
473.645569
 20
230.645937
 30
0.0
 11
477.009093
 21
234.009453
 31
0.0
  0
LINE
  5
185
100
AcDbEntity
  8
Layer_1
 62
7
100
AcDbLine
 10
477.009093
 20
234.009453
 30
0.0
 11
475.667437
 21
235.351663
 31
0.0
  0
LINE
  5
186
100
AcDbEntity
  8
Layer_1
 62
7
100
AcDbLine
 10
475.667437
 20
235.351663
 30
0.0
 11
472.303913
 21
231.988147
 31
0.0
  0
LINE
  5
187
100
AcDbEntity
  8
Layer_1
 62
7
100
AcDbLine
 10
472.303913
 20
231.988147
 30
0.0
 11
468.940417
 21
235.351663
 31
0.0
  0
LINE
  5
188
100
AcDbEntity
  8
Layer_1
 62
7
100
AcDbLine
 10
468.940417
 20
235.351663
 30
0.0
 11
468.940417
 21
235.351663
 31
0.0
  0
ENDSEC
  0
SECTION
  2
OBJECTS
  0
DICTIONARY
  5
C
330
0
100
AcDbDictionary
  3
ACAD_GROUP
350
D
  3
ACAD_MLINESTYLE
350
17
  0
DICTIONARY
  5
D
330
C
100
AcDbDictionary
  0
DICTIONARY
  5
1A
330
C
100
AcDbDictionary
  0
DICTIONARY
  5
17
330
C
100
AcDbDictionary
  3
STANDARD
350
18
  0
DICTIONARY
  5
19
330
C
100
AcDbDictionary
  0
ENDSEC
  0
EOF
