  0
SECTION
  2
HEADER
  9
$ACADVER
  1
AC1014
  9
$HANDSEED
  5
FFFF
  9
$MEASUREMENT
 70
     1
  0
ENDSEC
  0
SECTION
  2
TABLES
  0
TABLE
  2
VPORT
  5
8
330
0
100
AcDbSymbolTable
 70
     4
  0
VPORT
  5
2E
330
8
100
AcDbSymbolTableRecord
100
AcDbViewportTableRecord
  2
*ACTIVE
 70
     0
 10
0.0
 20
0.0
 11
1.0
 21
1.0
 12
210.0
 22
148.5
 13
0.0
 23
0.0
 14
10.0
 24
10.0
 15
10.0
 25
10.0
 16
0.0
 26
0.0
 36
1.0
 17
0.0
 27
0.0
 37
0.0
 40
341.0
 41
1.24
 42
50.0
 43
0.0
 44
0.0
 50
0.0
 51
0.0
 71
     0
 72
   100
 73
     1
 74
     3
 75
     0
 76
     0
 77
     0
 78
     0
  0
ENDTAB
  0
TABLE
  2
LTYPE
  5
5
330
0
100
AcDbSymbolTable
 70
     1
  0
LTYPE
  5
14
330
5
100
AcDbSymbolTableRecord
100
AcDbLinetypeTableRecord
  2
BYBLOCK
 70
     0
  3

 72
    65
 73
     0
 40
0.0
  0
LTYPE
  5
15
330
5
100
AcDbSymbolTableRecord
100
AcDbLinetypeTableRecord
  2
BYLAYER
 70
     0
  3

 72
    65
 73
     0
 40
0.0
  0
LTYPE
  5
16
330
5
100
AcDbSymbolTableRecord
100
AcDbLinetypeTableRecord
  2
CONTINUOUS
 70
     0
  3
Solid line
 72
    65
 73
     0
 40
0.0
  0
ENDTAB
  0
TABLE
  2
LAYER
  5
2
100
AcDbSymbolTable
 70
2
  0
LAYER
  5
50
100
AcDbSymbolTableRecord
100
AcDbLayerTableRecord
  2
0
 70
0
  6
CONTINUOUS
  0
LAYER
  5
51
100
AcDbSymbolTableRecord
100
AcDbLayerTableRecord
  2
Layer_1
 70
0
  6
CONTINUOUS
  0
ENDTAB
  0
TABLE
  2
STYLE
  5
3
330
0
100
AcDbSymbolTable
 70
     1
  0
STYLE
  5
11
330
3
100
AcDbSymbolTableRecord
100
AcDbTextStyleTableRecord
  2
STANDARD
 70
     0
 40
0.0
 41
1.0
 50
0.0
 71
     0
 42
2.5
  3
txt
  4

  0
ENDTAB
  0
TABLE
  2
VIEW
  5
6
330
0
100
AcDbSymbolTable
 70
     0
  0
ENDTAB
  0
TABLE
  2
UCS
  5
7
330
0
100
AcDbSymbolTable
 70
     0
  0
ENDTAB
  0
TABLE
  2
APPID
  5
9
330
0
100
AcDbSymbolTable
 70
     2
  0
APPID
  5
12
330
9
100
AcDbSymbolTableRecord
100
AcDbRegAppTableRecord
  2
ACAD
 70
     0
  0
ENDTAB
  0
TABLE
  2
DIMSTYLE
  5
A
330
0
100
AcDbSymbolTable
 70
     1
  0
DIMSTYLE
105
27
330
A
100
AcDbSymbolTableRecord
100
AcDbDimStyleTableRecord
  2
ISO-25
 70
     0
  3

  4

  5

  6

  7

 40
1.0
 41
2.5
 42
0.625
 43
3.75
 44
1.25
 45
0.0
 46
0.0
 47
0.0
 48
0.0
140
2.5
141
2.5
142
0.0
143
0.03937007874016
144
1.0
145
0.0
146
1.0
147
0.625
 71
     0
 72
     0
 73
     0
 74
     0
 75
     0
 76
     0
 77
     1
 78
     8
170
     0
171
     3
172
     1
173
     0
174
     0
175
     0
176
     0
177
     0
178
     0
270
     2
271
     2
272
     2
273
     2
274
     3
340
11
275
     0
280
     0
281
     0
282
     0
283
     0
284
     8
285
     0
286
     0
287
     3
288
     0
  0
ENDTAB
  0
TABLE
  2
BLOCK_RECORD
  5
1
330
0
100
AcDbSymbolTable
 70
     1
  0
BLOCK_RECORD
  5
1F
330
1
100
AcDbSymbolTableRecord
100
AcDbBlockTableRecord
  2
*MODEL_SPACE
  0
BLOCK_RECORD
  5
1B
330
1
100
AcDbSymbolTableRecord
100
AcDbBlockTableRecord
  2
*PAPER_SPACE
  0
ENDTAB
  0
ENDSEC
  0
SECTION
  2
BLOCKS
  0
BLOCK
  5
20
330
1F
100
AcDbEntity
  8
0
100
AcDbBlockBegin
  2
*MODEL_SPACE
 70
     0
 10
0.0
 20
0.0
 30
0.0
  3
*MODEL_SPACE
  1

  0
ENDBLK
  5
21
330
1F
100
AcDbEntity
  8
0
100
AcDbBlockEnd
  0
BLOCK
  5
1C
330
1B
100
AcDbEntity
 67
     1
  8
0
100
AcDbBlockBegin
  2
*PAPER_SPACE
  1

  0
ENDBLK
  5
1D
330
1B
100
AcDbEntity
 67
     1
  8
0
100
AcDbBlockEnd
  0
ENDSEC
  0
SECTION
  2
ENTITIES
  0
LINE
  5
100
100
AcDbEntity
  8
Layer_1
 62
5
100
AcDbLine
 10
381.809442
 20
383.627541
 30
0.0
 11
381.809442
 21
380.627265
 31
0.0
  0
LINE
  5
101
100
AcDbEntity
  8
Layer_1
 62
5
100
AcDbLine
 10
381.809442
 20
380.627265
 30
0.0
 11
381.809442
 21
363.227051
 31
0.0
  0
LINE
  5
102
100
AcDbEntity
  8
Layer_1
 62
5
100
AcDbLine
 10
381.809442
 20
363.227051
 30
0.0
 11
378.809730
 21
363.227051
 31
0.0
  0
LINE
  5
103
100
AcDbEntity
  8
Layer_1
 62
5
100
AcDbLine
 10
378.809730
 20
363.227051
 30
0.0
 11
378.809730
 21
343.227317
 31
0.0
  0
LINE
  5
104
100
AcDbEntity
  8
Layer_1
 62
5
100
AcDbLine
 10
378.809730
 20
343.227317
 30
0.0
 11
381.809442
 21
343.227317
 31
0.0
  0
LINE
  5
105
100
AcDbEntity
  8
Layer_1
 62
5
100
AcDbLine
 10
381.809442
 20
343.227317
 30
0.0
 11
381.809442
 21
325.826539
 31
0.0
  0
LINE
  5
106
100
AcDbEntity
  8
Layer_1
 62
5
100
AcDbLine
 10
381.809442
 20
325.826539
 30
0.0
 11
389.259120
 21
312.923141
 31
0.0
  0
LINE
  5
107
100
AcDbEntity
  8
Layer_1
 62
5
100
AcDbLine
 10
389.259120
 20
312.923141
 30
0.0
 11
386.661237
 21
311.422735
 31
0.0
  0
LINE
  5
108
100
AcDbEntity
  8
Layer_1
 62
5
100
AcDbLine
 10
386.661237
 20
311.422735
 30
0.0
 11
396.661386
 21
294.102447
 31
0.0
  0
LINE
  5
109
100
AcDbEntity
  8
Layer_1
 62
5
100
AcDbLine
 10
396.661386
 20
294.102447
 30
0.0
 11
399.259270
 21
295.602317
 31
0.0
  0
LINE
  5
10a
100
AcDbEntity
  8
Layer_1
 62
5
100
AcDbLine
 10
399.259270
 20
295.602317
 30
0.0
 11
409.259419
 21
278.282029
 31
0.0
  0
LINE
  5
10b
100
AcDbEntity
  8
Layer_1
 62
5
100
AcDbLine
 10
409.259419
 20
278.282029
 30
0.0
 11
406.661535
 21
276.781623
 31
0.0
  0
LINE
  5
10c
100
AcDbEntity
  8
Layer_1
 62
5
100
AcDbLine
 10
406.661535
 20
276.781623
 30
0.0
 11
416.661148
 21
259.461334
 31
0.0
  0
LINE
  5
10d
100
AcDbEntity
  8
Layer_1
 62
5
100
AcDbLine
 10
416.661148
 20
259.461334
 30
0.0
 11
419.259568
 21
260.961176
 31
0.0
  0
LINE
  5
10e
100
AcDbEntity
  8
Layer_1
 62
5
100
AcDbLine
 10
419.259568
 20
260.961176
 30
0.0
 11
429.259153
 21
243.640916
 31
0.0
  0
LINE
  5
10f
100
AcDbEntity
  8
Layer_1
 62
5
100
AcDbLine
 10
429.259153
 20
243.640916
 30
0.0
 11
426.661298
 21
242.141046
 31
0.0
  0
LINE
  5
110
100
AcDbEntity
  8
Layer_1
 62
5
100
AcDbLine
 10
426.661298
 20
242.141046
 30
0.0
 11
436.661447
 21
224.820222
 31
0.0
  0
LINE
  5
111
100
AcDbEntity
  8
Layer_1
 62
5
100
AcDbLine
 10
436.661447
 20
224.820222
 30
0.0
 11
439.259303
 21
226.320063
 31
0.0
  0
LINE
  5
112
100
AcDbEntity
  8
Layer_1
 62
5
100
AcDbLine
 10
439.259303
 20
226.320063
 30
0.0
 11
449.259452
 21
208.999775
 31
0.0
  0
LINE
  5
113
100
AcDbEntity
  8
Layer_1
 62
5
100
AcDbLine
 10
449.259452
 20
208.999775
 30
0.0
 11
446.661596
 21
207.499933
 31
0.0
  0
LINE
  5
114
100
AcDbEntity
  8
Layer_1
 62
5
100
AcDbLine
 10
446.661596
 20
207.499933
 30
0.0
 11
456.661181
 21
190.179081
 31
0.0
  0
LINE
  5
115
100
AcDbEntity
  8
Layer_1
 62
5
100
AcDbLine
 10
456.661181
 20
190.179081
 30
0.0
 11
459.259065
 21
191.679487
 31
0.0
  0
LINE
  5
116
100
AcDbEntity
  8
Layer_1
 62
5
100
AcDbLine
 10
459.259065
 20
191.679487
 30
0.0
 11
469.259214
 21
174.358663
 31
0.0
  0
LINE
  5
117
100
AcDbEntity
  8
Layer_1
 62
5
100
AcDbLine
 10
469.259214
 20
174.358663
 30
0.0
 11
466.661331
 21
172.858793
 31
0.0
  0
LINE
  5
118
100
AcDbEntity
  8
Layer_1
 62
5
100
AcDbLine
 10
466.661331
 20
172.858793
 30
0.0
 11
476.661480
 21
155.538504
 31
0.0
  0
LINE
  5
119
100
AcDbEntity
  8
Layer_1
 62
5
100
AcDbLine
 10
476.661480
 20
155.538504
 30
0.0
 11
479.259364
 21
157.038374
 31
0.0
  0
LINE
  5
11a
100
AcDbEntity
  8
Layer_1
 62
5
100
AcDbLine
 10
479.259364
 20
157.038374
 30
0.0
 11
489.259485
 21
139.717522
 31
0.0
  0
LINE
  5
11b
100
AcDbEntity
  8
Layer_1
 62
5
100
AcDbLine
 10
489.259485
 20
139.717522
 30
0.0
 11
486.661065
 21
138.217680
 31
0.0
  0
LINE
  5
11c
100
AcDbEntity
  8
Layer_1
 62
5
100
AcDbLine
 10
486.661065
 20
138.217680
 30
0.0
 11
496.661214
 21
120.897392
 31
0.0
  0
LINE
  5
11d
100
AcDbEntity
  8
Layer_1
 62
5
100
AcDbLine
 10
496.661214
 20
120.897392
 30
0.0
 11
499.259098
 21
122.397233
 31
0.0
  0
LINE
  5
11e
100
AcDbEntity
  8
Layer_1
 62
5
100
AcDbLine
 10
499.259098
 20
122.397233
 30
0.0
 11
506.709313
 21
109.493300
 31
0.0
  0
LINE
  5
11f
100
AcDbEntity
  8
Layer_1
 62
5
100
AcDbLine
 10
506.709313
 20
109.493300
 30
0.0
 11
506.709313
 21
104.593555
 31
0.0
  0
LINE
  5
120
100
AcDbEntity
  8
Layer_1
 62
5
100
AcDbLine
 10
506.709313
 20
104.593555
 30
0.0
 11
503.709601
 21
104.593555
 31
0.0
  0
LINE
  5
121
100
AcDbEntity
  8
Layer_1
 62
5
100
AcDbLine
 10
503.709601
 20
104.593555
 30
0.0
 11
503.709601
 21
84.593256
 31
0.0
  0
LINE
  5
122
100
AcDbEntity
  8
Layer_1
 62
5
100
AcDbLine
 10
503.709601
 20
84.593256
 30
0.0
 11
506.709313
 21
84.593256
 31
0.0
  0
LINE
  5
123
100
AcDbEntity
  8
Layer_1
 62
5
100
AcDbLine
 10
506.709313
 20
84.593256
 30
0.0
 11
506.709313
 21
64.592955
 31
0.0
  0
LINE
  5
124
100
AcDbEntity
  8
Layer_1
 62
5
100
AcDbLine
 10
506.709313
 20
64.592955
 30
0.0
 11
503.709601
 21
64.592955
 31
0.0
  0
LINE
  5
125
100
AcDbEntity
  8
Layer_1
 62
5
100
AcDbLine
 10
503.709601
 20
64.592955
 30
0.0
 11
503.709601
 21
44.592659
 31
0.0
  0
LINE
  5
126
100
AcDbEntity
  8
Layer_1
 62
5
100
AcDbLine
 10
503.709601
 20
44.592659
 30
0.0
 11
506.709313
 21
44.592659
 31
0.0
  0
LINE
  5
127
100
AcDbEntity
  8
Layer_1
 62
5
100
AcDbLine
 10
506.709313
 20
44.592659
 30
0.0
 11
506.709313
 21
39.692909
 31
0.0
  0
LINE
  5
128
100
AcDbEntity
  8
Layer_1
 62
5
100
AcDbLine
 10
506.709313
 20
39.692909
 30
0.0
 11
506.709313
 21
36.692644
 31
0.0
  0
LINE
  5
129
100
AcDbEntity
  8
Layer_1
 62
5
100
AcDbLine
 10
506.709313
 20
36.692644
 30
0.0
 11
514.259858
 21
36.692644
 31
0.0
  0
LINE
  5
12a
100
AcDbEntity
  8
Layer_1
 62
5
100
AcDbLine
 10
514.259858
 20
36.692644
 30
0.0
 11
514.259858
 21
39.692909
 31
0.0
  0
LINE
  5
12b
100
AcDbEntity
  8
Layer_1
 62
5
100
AcDbLine
 10
514.259858
 20
39.692909
 30
0.0
 11
534.259621
 21
39.692909
 31
0.0
  0
LINE
  5
12c
100
AcDbEntity
  8
Layer_1
 62
5
100
AcDbLine
 10
534.259621
 20
39.692909
 30
0.0
 11
534.259621
 21
36.692644
 31
0.0
  0
LINE
  5
12d
100
AcDbEntity
  8
Layer_1
 62
5
100
AcDbLine
 10
534.259621
 20
36.692644
 30
0.0
 11
554.259355
 21
36.692644
 31
0.0
  0
LINE
  5
12e
100
AcDbEntity
  8
Layer_1
 62
5
100
AcDbLine
 10
554.259355
 20
36.692644
 30
0.0
 11
554.259355
 21
39.692909
 31
0.0
  0
LINE
  5
12f
100
AcDbEntity
  8
Layer_1
 62
5
100
AcDbLine
 10
554.259355
 20
39.692909
 30
0.0
 11
574.259089
 21
39.692909
 31
0.0
  0
LINE
  5
130
100
AcDbEntity
  8
Layer_1
 62
5
100
AcDbLine
 10
574.259089
 20
39.692909
 30
0.0
 11
574.259089
 21
36.692644
 31
0.0
  0
LINE
  5
131
100
AcDbEntity
  8
Layer_1
 62
5
100
AcDbLine
 10
574.259089
 20
36.692644
 30
0.0
 11
594.258852
 21
36.692644
 31
0.0
  0
LINE
  5
132
100
AcDbEntity
  8
Layer_1
 62
5
100
AcDbLine
 10
594.258852
 20
36.692644
 30
0.0
 11
594.258852
 21
39.692909
 31
0.0
  0
LINE
  5
133
100
AcDbEntity
  8
Layer_1
 62
5
100
AcDbLine
 10
594.258852
 20
39.692909
 30
0.0
 11
614.258586
 21
39.692909
 31
0.0
  0
LINE
  5
134
100
AcDbEntity
  8
Layer_1
 62
5
100
AcDbLine
 10
614.258586
 20
39.692909
 30
0.0
 11
614.258586
 21
36.692644
 31
0.0
  0
LINE
  5
135
100
AcDbEntity
  8
Layer_1
 62
5
100
AcDbLine
 10
614.258586
 20
36.692644
 30
0.0
 11
621.809131
 21
36.692644
 31
0.0
  0
LINE
  5
136
100
AcDbEntity
  8
Layer_1
 62
5
100
AcDbLine
 10
621.809131
 20
36.692644
 30
0.0
 11
621.809131
 21
39.692909
 31
0.0
  0
LINE
  5
137
100
AcDbEntity
  8
Layer_1
 62
5
100
AcDbLine
 10
621.809131
 20
39.692909
 30
0.0
 11
621.809131
 21
60.161736
 31
0.0
  0
LINE
  5
138
100
AcDbEntity
  8
Layer_1
 62
5
100
AcDbLine
 10
621.809131
 20
60.161736
 30
0.0
 11
624.808843
 21
60.161736
 31
0.0
  0
LINE
  5
139
100
AcDbEntity
  8
Layer_1
 62
5
100
AcDbLine
 10
624.808843
 20
60.161736
 30
0.0
 11
624.808843
 21
80.161464
 31
0.0
  0
LINE
  5
13a
100
AcDbEntity
  8
Layer_1
 62
5
100
AcDbLine
 10
624.808843
 20
80.161464
 30
0.0
 11
621.809131
 21
80.161464
 31
0.0
  0
LINE
  5
13b
100
AcDbEntity
  8
Layer_1
 62
5
100
AcDbLine
 10
621.809131
 20
80.161464
 30
0.0
 11
621.809131
 21
100.161227
 31
0.0
  0
LINE
  5
13c
100
AcDbEntity
  8
Layer_1
 62
5
100
AcDbLine
 10
621.809131
 20
100.161227
 30
0.0
 11
624.808843
 21
100.161227
 31
0.0
  0
LINE
  5
13d
100
AcDbEntity
  8
Layer_1
 62
5
100
AcDbLine
 10
624.808843
 20
100.161227
 30
0.0
 11
624.808843
 21
120.160961
 31
0.0
  0
LINE
  5
13e
100
AcDbEntity
  8
Layer_1
 62
5
100
AcDbLine
 10
624.808843
 20
120.160961
 30
0.0
 11
621.809131
 21
120.160961
 31
0.0
  0
LINE
  5
13f
100
AcDbEntity
  8
Layer_1
 62
5
100
AcDbLine
 10
621.809131
 20
120.160961
 30
0.0
 11
621.809131
 21
140.160723
 31
0.0
  0
LINE
  5
140
100
AcDbEntity
  8
Layer_1
 62
5
100
AcDbLine
 10
621.809131
 20
140.160723
 30
0.0
 11
624.808843
 21
140.160723
 31
0.0
  0
LINE
  5
141
100
AcDbEntity
  8
Layer_1
 62
5
100
AcDbLine
 10
624.808843
 20
140.160723
 30
0.0
 11
624.808843
 21
160.160458
 31
0.0
  0
LINE
  5
142
100
AcDbEntity
  8
Layer_1
 62
5
100
AcDbLine
 10
624.808843
 20
160.160458
 30
0.0
 11
621.809131
 21
160.160458
 31
0.0
  0
LINE
  5
143
100
AcDbEntity
  8
Layer_1
 62
5
100
AcDbLine
 10
621.809131
 20
160.160458
 30
0.0
 11
621.809131
 21
180.160192
 31
0.0
  0
LINE
  5
144
100
AcDbEntity
  8
Layer_1
 62
5
100
AcDbLine
 10
621.809131
 20
180.160192
 30
0.0
 11
624.808843
 21
180.160192
 31
0.0
  0
LINE
  5
145
100
AcDbEntity
  8
Layer_1
 62
5
100
AcDbLine
 10
624.808843
 20
180.160192
 30
0.0
 11
624.808843
 21
200.159954
 31
0.0
  0
LINE
  5
146
100
AcDbEntity
  8
Layer_1
 62
5
100
AcDbLine
 10
624.808843
 20
200.159954
 30
0.0
 11
621.809131
 21
200.159954
 31
0.0
  0
LINE
  5
147
100
AcDbEntity
  8
Layer_1
 62
5
100
AcDbLine
 10
621.809131
 20
200.159954
 30
0.0
 11
621.809131
 21
220.159689
 31
0.0
  0
LINE
  5
148
100
AcDbEntity
  8
Layer_1
 62
5
100
AcDbLine
 10
621.809131
 20
220.159689
 30
0.0
 11
624.808843
 21
220.159689
 31
0.0
  0
LINE
  5
149
100
AcDbEntity
  8
Layer_1
 62
5
100
AcDbLine
 10
624.808843
 20
220.159689
 30
0.0
 11
624.808843
 21
240.159423
 31
0.0
  0
LINE
  5
14a
100
AcDbEntity
  8
Layer_1
 62
5
100
AcDbLine
 10
624.808843
 20
240.159423
 30
0.0
 11
621.809131
 21
240.159423
 31
0.0
  0
LINE
  5
14b
100
AcDbEntity
  8
Layer_1
 62
5
100
AcDbLine
 10
621.809131
 20
240.159423
 30
0.0
 11
621.809131
 21
260.159185
 31
0.0
  0
LINE
  5
14c
100
AcDbEntity
  8
Layer_1
 62
5
100
AcDbLine
 10
621.809131
 20
260.159185
 30
0.0
 11
624.808843
 21
260.159185
 31
0.0
  0
LINE
  5
14d
100
AcDbEntity
  8
Layer_1
 62
5
100
AcDbLine
 10
624.808843
 20
260.159185
 30
0.0
 11
624.808843
 21
280.158919
 31
0.0
  0
LINE
  5
14e
100
AcDbEntity
  8
Layer_1
 62
5
100
AcDbLine
 10
624.808843
 20
280.158919
 30
0.0
 11
621.809131
 21
280.158919
 31
0.0
  0
LINE
  5
14f
100
AcDbEntity
  8
Layer_1
 62
5
100
AcDbLine
 10
621.809131
 20
280.158919
 30
0.0
 11
621.809131
 21
300.158654
 31
0.0
  0
LINE
  5
150
100
AcDbEntity
  8
Layer_1
 62
5
100
AcDbLine
 10
621.809131
 20
300.158654
 30
0.0
 11
624.808843
 21
300.158654
 31
0.0
  0
LINE
  5
151
100
AcDbEntity
  8
Layer_1
 62
5
100
AcDbLine
 10
624.808843
 20
300.158654
 30
0.0
 11
624.808843
 21
320.158416
 31
0.0
  0
LINE
  5
152
100
AcDbEntity
  8
Layer_1
 62
5
100
AcDbLine
 10
624.808843
 20
320.158416
 30
0.0
 11
621.809131
 21
320.158416
 31
0.0
  0
LINE
  5
153
100
AcDbEntity
  8
Layer_1
 62
5
100
AcDbLine
 10
621.809131
 20
320.158416
 30
0.0
 11
621.809131
 21
340.158150
 31
0.0
  0
LINE
  5
154
100
AcDbEntity
  8
Layer_1
 62
5
100
AcDbLine
 10
621.809131
 20
340.158150
 30
0.0
 11
624.808843
 21
340.158150
 31
0.0
  0
LINE
  5
155
100
AcDbEntity
  8
Layer_1
 62
5
100
AcDbLine
 10
624.808843
 20
340.158150
 30
0.0
 11
624.808843
 21
360.157885
 31
0.0
  0
LINE
  5
156
100
AcDbEntity
  8
Layer_1
 62
5
100
AcDbLine
 10
624.808843
 20
360.157885
 30
0.0
 11
621.809131
 21
360.157885
 31
0.0
  0
LINE
  5
157
100
AcDbEntity
  8
Layer_1
 62
5
100
AcDbLine
 10
621.809131
 20
360.157885
 30
0.0
 11
621.809131
 21
380.627265
 31
0.0
  0
LINE
  5
158
100
AcDbEntity
  8
Layer_1
 62
5
100
AcDbLine
 10
621.809131
 20
380.627265
 30
0.0
 11
621.809131
 21
383.627541
 31
0.0
  0
LINE
  5
159
100
AcDbEntity
  8
Layer_1
 62
5
100
AcDbLine
 10
621.809131
 20
383.627541
 30
0.0
 11
611.807881
 21
383.627541
 31
0.0
  0
LINE
  5
15a
100
AcDbEntity
  8
Layer_1
 62
5
100
AcDbLine
 10
611.807881
 20
383.627541
 30
0.0
 11
611.807881
 21
380.627265
 31
0.0
  0
LINE
  5
15b
100
AcDbEntity
  8
Layer_1
 62
5
100
AcDbLine
 10
611.807881
 20
380.627265
 30
0.0
 11
591.808147
 21
380.627265
 31
0.0
  0
LINE
  5
15c
100
AcDbEntity
  8
Layer_1
 62
5
100
AcDbLine
 10
591.808147
 20
380.627265
 30
0.0
 11
591.808147
 21
383.627541
 31
0.0
  0
LINE
  5
15d
100
AcDbEntity
  8
Layer_1
 62
5
100
AcDbLine
 10
591.808147
 20
383.627541
 30
0.0
 11
571.808384
 21
383.627541
 31
0.0
  0
LINE
  5
15e
100
AcDbEntity
  8
Layer_1
 62
5
100
AcDbLine
 10
571.808384
 20
383.627541
 30
0.0
 11
571.808384
 21
380.627265
 31
0.0
  0
LINE
  5
15f
100
AcDbEntity
  8
Layer_1
 62
5
100
AcDbLine
 10
571.808384
 20
380.627265
 30
0.0
 11
551.808650
 21
380.627265
 31
0.0
  0
LINE
  5
160
100
AcDbEntity
  8
Layer_1
 62
5
100
AcDbLine
 10
551.808650
 20
380.627265
 30
0.0
 11
551.808650
 21
383.627541
 31
0.0
  0
LINE
  5
161
100
AcDbEntity
  8
Layer_1
 62
5
100
AcDbLine
 10
551.808650
 20
383.627541
 30
0.0
 11
531.808916
 21
383.627541
 31
0.0
  0
LINE
  5
162
100
AcDbEntity
  8
Layer_1
 62
5
100
AcDbLine
 10
531.808916
 20
383.627541
 30
0.0
 11
531.808916
 21
380.627265
 31
0.0
  0
LINE
  5
163
100
AcDbEntity
  8
Layer_1
 62
5
100
AcDbLine
 10
531.808916
 20
380.627265
 30
0.0
 11
511.809153
 21
380.627265
 31
0.0
  0
LINE
  5
164
100
AcDbEntity
  8
Layer_1
 62
5
100
AcDbLine
 10
511.809153
 20
380.627265
 30
0.0
 11
511.809153
 21
383.627541
 31
0.0
  0
LINE
  5
165
100
AcDbEntity
  8
Layer_1
 62
5
100
AcDbLine
 10
511.809153
 20
383.627541
 30
0.0
 11
491.809419
 21
383.627541
 31
0.0
  0
LINE
  5
166
100
AcDbEntity
  8
Layer_1
 62
5
100
AcDbLine
 10
491.809419
 20
383.627541
 30
0.0
 11
491.809419
 21
380.627265
 31
0.0
  0
LINE
  5
167
100
AcDbEntity
  8
Layer_1
 62
5
100
AcDbLine
 10
491.809419
 20
380.627265
 30
0.0
 11
471.809685
 21
380.627265
 31
0.0
  0
LINE
  5
168
100
AcDbEntity
  8
Layer_1
 62
5
100
AcDbLine
 10
471.809685
 20
380.627265
 30
0.0
 11
471.809685
 21
383.627541
 31
0.0
  0
LINE
  5
169
100
AcDbEntity
  8
Layer_1
 62
5
100
AcDbLine
 10
471.809685
 20
383.627541
 30
0.0
 11
451.809922
 21
383.627541
 31
0.0
  0
LINE
  5
16a
100
AcDbEntity
  8
Layer_1
 62
5
100
AcDbLine
 10
451.809922
 20
383.627541
 30
0.0
 11
451.809922
 21
380.627265
 31
0.0
  0
LINE
  5
16b
100
AcDbEntity
  8
Layer_1
 62
5
100
AcDbLine
 10
451.809922
 20
380.627265
 30
0.0
 11
431.810188
 21
380.627265
 31
0.0
  0
LINE
  5
16c
100
AcDbEntity
  8
Layer_1
 62
5
100
AcDbLine
 10
431.810188
 20
380.627265
 30
0.0
 11
431.810188
 21
383.627541
 31
0.0
  0
LINE
  5
16d
100
AcDbEntity
  8
Layer_1
 62
5
100
AcDbLine
 10
431.810188
 20
383.627541
 30
0.0
 11
411.810454
 21
383.627541
 31
0.0
  0
LINE
  5
16e
100
AcDbEntity
  8
Layer_1
 62
5
100
AcDbLine
 10
411.810454
 20
383.627541
 30
0.0
 11
411.810454
 21
380.627265
 31
0.0
  0
LINE
  5
16f
100
AcDbEntity
  8
Layer_1
 62
5
100
AcDbLine
 10
411.810454
 20
380.627265
 30
0.0
 11
391.810692
 21
380.627265
 31
0.0
  0
LINE
  5
170
100
AcDbEntity
  8
Layer_1
 62
5
100
AcDbLine
 10
391.810692
 20
380.627265
 30
0.0
 11
391.810692
 21
383.627541
 31
0.0
  0
LINE
  5
171
100
AcDbEntity
  8
Layer_1
 62
5
100
AcDbLine
 10
391.810692
 20
383.627541
 30
0.0
 11
381.809442
 21
383.627541
 31
0.0
  0
LINE
  5
172
100
AcDbEntity
  8
Layer_1
 62
5
100
AcDbLine
 10
381.809442
 20
383.627541
 30
0.0
 11
381.809442
 21
383.627541
 31
0.0
  0
SPLINE
  5
173
100
AcDbEntity
  8
Layer_1
 62
6
100
AcDbSpline
 70
8
 71
3
 72
8
 73
4
 74
0
 40
0
 40
0
 40
0
 40
0
 40
1
 40
1
 40
1
 40
1
 10
579.136228
 20
70.643077
 30
0.0
 10
579.136228
 20
66.697450
 30
0.0
 10
577.568833
 20
62.913426
 30
0.0
 10
574.778853
 20
60.123447
 30
0.0
  0
SPLINE
  5
174
100
AcDbEntity
  8
Layer_1
 62
6
100
AcDbSpline
 70
8
 71
3
 72
8
 73
4
 74
0
 40
0
 40
0
 40
0
 40
0
 40
1
 40
1
 40
1
 40
1
 10
574.778853
 20
60.123447
 30
0.0
 10
571.988873
 20
57.333468
 30
0.0
 10
568.204849
 20
55.766075
 30
0.0
 10
564.259222
 20
55.766077
 30
0.0
  0
SPLINE
  5
175
100
AcDbEntity
  8
Layer_1
 62
6
100
AcDbSpline
 70
8
 71
3
 72
8
 73
4
 74
0
 40
0
 40
0
 40
0
 40
0
 40
1
 40
1
 40
1
 40
1
 10
564.259222
 20
55.766077
 30
0.0
 10
560.313595
 20
55.766075
 30
0.0
 10
556.529571
 20
57.333468
 30
0.0
 10
553.739591
 20
60.123447
 30
0.0
  0
SPLINE
  5
176
100
AcDbEntity
  8
Layer_1
 62
6
100
AcDbSpline
 70
8
 71
3
 72
8
 73
4
 74
0
 40
0
 40
0
 40
0
 40
0
 40
1
 40
1
 40
1
 40
1
 10
553.739591
 20
60.123447
 30
0.0
 10
550.949611
 20
62.913426
 30
0.0
 10
549.382216
 20
66.697450
 30
0.0
 10
549.382216
 20
70.643077
 30
0.0
  0
SPLINE
  5
177
100
AcDbEntity
  8
Layer_1
 62
6
100
AcDbSpline
 70
8
 71
3
 72
8
 73
4
 74
0
 40
0
 40
0
 40
0
 40
0
 40
1
 40
1
 40
1
 40
1
 10
549.382216
 20
70.643077
 30
0.0
 10
549.382217
 20
74.588703
 30
0.0
 10
550.949612
 20
78.372726
 30
0.0
 10
553.739592
 20
81.162705
 30
0.0
  0
SPLINE
  5
178
100
AcDbEntity
  8
Layer_1
 62
6
100
AcDbSpline
 70
8
 71
3
 72
8
 73
4
 74
0
 40
0
 40
0
 40
0
 40
0
 40
1
 40
1
 40
1
 40
1
 10
553.739592
 20
81.162705
 30
0.0
 10
556.529571
 20
83.952683
 30
0.0
 10
560.313596
 20
85.520076
 30
0.0
 10
564.259222
 20
85.520074
 30
0.0
  0
SPLINE
  5
179
100
AcDbEntity
  8
Layer_1
 62
6
100
AcDbSpline
 70
8
 71
3
 72
8
 73
4
 74
0
 40
0
 40
0
 40
0
 40
0
 40
1
 40
1
 40
1
 40
1
 10
564.259222
 20
85.520074
 30
0.0
 10
568.204848
 20
85.520076
 30
0.0
 10
571.988873
 20
83.952683
 30
0.0
 10
574.778852
 20
81.162705
 30
0.0
  0
SPLINE
  5
17a
100
AcDbEntity
  8
Layer_1
 62
6
100
AcDbSpline
 70
8
 71
3
 72
8
 73
4
 74
0
 40
0
 40
0
 40
0
 40
0
 40
1
 40
1
 40
1
 40
1
 10
574.778852
 20
81.162705
 30
0.0
 10
577.568832
 20
78.372726
 30
0.0
 10
579.136227
 20
74.588703
 30
0.0
 10
579.136228
 20
70.643077
 30
0.0
  0
LINE
  5
17b
100
AcDbEntity
  8
Layer_1
 62
6
100
AcDbLine
 10
579.136228
 20
70.643077
 30
0.0
 11
579.136228
 21
70.643077
 31
0.0
  0
SPLINE
  5
17c
100
AcDbEntity
  8
Layer_1
 62
7
100
AcDbSpline
 70
8
 71
3
 72
8
 73
4
 74
0
 40
0
 40
0
 40
0
 40
0
 40
1
 40
1
 40
1
 40
1
 10
593.936046
 20
57.728102
 30
0.0
 10
594.138155
 20
57.338577
 30
0.0
 10
594.290658
 20
56.932516
 30
0.0
 10
594.393556
 20
56.509918
 30
0.0
  0
SPLINE
  5
17d
100
AcDbEntity
  8
Layer_1
 62
7
100
AcDbSpline
 70
8
 71
3
 72
8
 73
4
 74
0
 40
0
 40
0
 40
0
 40
0
 40
1
 40
1
 40
1
 40
1
 10
594.393556
 20
56.509918
 30
0.0
 10
594.496436
 20
56.087319
 30
0.0
 10
594.547875
 20
55.646347
 30
0.0
 10
594.547875
 20
55.187002
 30
0.0
  0
SPLINE
  5
17e
100
AcDbEntity
  8
Layer_1
 62
7
100
AcDbSpline
 70
8
 71
3
 72
8
 73
4
 74
0
 40
0
 40
0
 40
0
 40
0
 40
1
 40
1
 40
1
 40
1
 10
594.547875
 20
55.187002
 30
0.0
 10
594.547875
 20
53.816312
 30
0.0
 10
594.165699
 20
52.730418
 30
0.0
 10
593.401348
 20
51.929319
 30
0.0
  0
SPLINE
  5
17f
100
AcDbEntity
  8
Layer_1
 62
7
100
AcDbSpline
 70
8
 71
3
 72
8
 73
4
 74
0
 40
0
 40
0
 40
0
 40
0
 40
1
 40
1
 40
1
 40
1
 10
593.401348
 20
51.929319
 30
0.0
 10
592.633327
 20
51.128218
 30
0.0
 10
591.593376
 20
50.727668
 30
0.0
 10
590.281494
 20
50.727668
 30
0.0
  0
SPLINE
  5
180
100
AcDbEntity
  8
Layer_1
 62
7
100
AcDbSpline
 70
8
 71
3
 72
8
 73
4
 74
0
 40
0
 40
0
 40
0
 40
0
 40
1
 40
1
 40
1
 40
1
 10
590.281494
 20
50.727668
 30
0.0
 10
588.965924
 20
50.727668
 30
0.0
 10
587.925964
 20
51.128218
 30
0.0
 10
587.161612
 20
51.929319
 30
0.0
  0
SPLINE
  5
181
100
AcDbEntity
  8
Layer_1
 62
7
100
AcDbSpline
 70
8
 71
3
 72
8
 73
4
 74
0
 40
0
 40
0
 40
0
 40
0
 40
1
 40
1
 40
1
 40
1
 10
587.161612
 20
51.929319
 30
0.0
 10
586.393572
 20
52.730418
 30
0.0
 10
586.009552
 20
53.816312
 30
0.0
 10
586.009552
 20
55.187002
 30
0.0
  0
SPLINE
  5
182
100
AcDbEntity
  8
Layer_1
 62
7
100
AcDbSpline
 70
8
 71
3
 72
8
 73
4
 74
0
 40
0
 40
0
 40
0
 40
0
 40
1
 40
1
 40
1
 40
1
 10
586.009552
 20
55.187002
 30
0.0
 10
586.009552
 20
55.646347
 30
0.0
 10
586.061002
 20
56.087319
 30
0.0
 10
586.163900
 20
56.509918
 30
0.0
  0
SPLINE
  5
183
100
AcDbEntity
  8
Layer_1
 62
7
100
AcDbSpline
 70
8
 71
3
 72
8
 73
4
 74
0
 40
0
 40
0
 40
0
 40
0
 40
1
 40
1
 40
1
 40
1
 10
586.163900
 20
56.509918
 30
0.0
 10
586.266798
 20
56.932516
 30
0.0
 10
586.419301
 20
57.338577
 30
0.0
 10
586.621410
 20
57.728102
 30
0.0
  0
LINE
  5
184
100
AcDbEntity
  8
Layer_1
 62
7
100
AcDbLine
 10
586.621410
 20
57.728102
 30
0.0
 11
588.324678
 21
57.728102
 31
0.0
  0
SPLINE
  5
185
100
AcDbEntity
  8
Layer_1
 62
7
100
AcDbSpline
 70
8
 71
3
 72
8
 73
4
 74
0
 40
0
 40
0
 40
0
 40
0
 40
1
 40
1
 40
1
 40
1
 10
588.324678
 20
57.728102
 30
0.0
 10
588.056416
 20
57.334903
 30
0.0
 10
587.859811
 20
56.947215
 30
0.0
 10
587.734862
 20
56.565039
 30
0.0
  0
SPLINE
  5
186
100
AcDbEntity
  8
Layer_1
 62
7
100
AcDbSpline
 70
8
 71
3
 72
8
 73
4
 74
0
 40
0
 40
0
 40
0
 40
0
 40
1
 40
1
 40
1
 40
1
 10
587.734862
 20
56.565039
 30
0.0
 10
587.609931
 20
56.182863
 30
0.0
 10
587.547466
 20
55.780476
 30
0.0
 10
587.547466
 20
55.357876
 30
0.0
  0
SPLINE
  5
187
100
AcDbEntity
  8
Layer_1
 62
7
100
AcDbSpline
 70
8
 71
3
 72
8
 73
4
 74
0
 40
0
 40
0
 40
0
 40
0
 40
1
 40
1
 40
1
 40
1
 10
587.547466
 20
55.357876
 30
0.0
 10
587.547466
 20
54.600875
 30
0.0
 10
587.789998
 20
54.005563
 30
0.0
 10
588.275063
 20
53.571940
 30
0.0
  0
SPLINE
  5
188
100
AcDbEntity
  8
Layer_1
 62
7
100
AcDbSpline
 70
8
 71
3
 72
8
 73
4
 74
0
 40
0
 40
0
 40
0
 40
0
 40
1
 40
1
 40
1
 40
1
 10
588.275063
 20
53.571940
 30
0.0
 10
588.760128
 20
53.138317
 30
0.0
 10
589.428938
 20
52.921505
 30
0.0
 10
590.281494
 20
52.921505
 30
0.0
  0
SPLINE
  5
189
100
AcDbEntity
  8
Layer_1
 62
7
100
AcDbSpline
 70
8
 71
3
 72
8
 73
4
 74
0
 40
0
 40
0
 40
0
 40
0
 40
1
 40
1
 40
1
 40
1
 10
590.281494
 20
52.921505
 30
0.0
 10
591.130362
 20
52.921505
 30
0.0
 10
591.797328
 20
53.138317
 30
0.0
 10
592.282393
 20
53.571940
 30
0.0
  0
SPLINE
  5
18a
100
AcDbEntity
  8
Layer_1
 62
7
100
AcDbSpline
 70
8
 71
3
 72
8
 73
4
 74
0
 40
0
 40
0
 40
0
 40
0
 40
1
 40
1
 40
1
 40
1
 10
592.282393
 20
53.571940
 30
0.0
 10
592.767458
 20
54.005563
 30
0.0
 10
593.009990
 20
54.600875
 30
0.0
 10
593.009990
 20
55.357876
 30
0.0
  0
SPLINE
  5
18b
100
AcDbEntity
  8
Layer_1
 62
7
100
AcDbSpline
 70
8
 71
3
 72
8
 73
4
 74
0
 40
0
 40
0
 40
0
 40
0
 40
1
 40
1
 40
1
 40
1
 10
593.009990
 20
55.357876
 30
0.0
 10
593.009990
 20
55.780476
 30
0.0
 10
592.947525
 20
56.182863
 30
0.0
 10
592.822594
 20
56.565039
 30
0.0
  0
SPLINE
  5
18c
100
AcDbEntity
  8
Layer_1
 62
7
100
AcDbSpline
 70
8
 71
3
 72
8
 73
4
 74
0
 40
0
 40
0
 40
0
 40
0
 40
1
 40
1
 40
1
 40
1
 10
592.822594
 20
56.565039
 30
0.0
 10
592.697645
 20
56.947215
 30
0.0
 10
592.501040
 20
57.334903
 30
0.0
 10
592.232778
 20
57.728102
 30
0.0
  0
LINE
  5
18d
100
AcDbEntity
  8
Layer_1
 62
7
100
AcDbLine
 10
592.232778
 20
57.728102
 30
0.0
 11
593.936046
 21
57.728102
 31
0.0
  0
LINE
  5
18e
100
AcDbEntity
  8
Layer_1
 62
7
100
AcDbLine
 10
593.936046
 20
57.728102
 30
0.0
 11
593.936046
 21
57.728102
 31
0.0
  0
LINE
  5
18f
100
AcDbEntity
  8
Layer_1
 62
7
100
AcDbLine
 10
586.158396
 20
59.491991
 30
0.0
 11
586.158396
 21
61.614170
 31
0.0
  0
LINE
  5
190
100
AcDbEntity
  8
Layer_1
 62
7
100
AcDbLine
 10
586.158396
 20
61.614170
 30
0.0
 11
592.783986
 21
61.614170
 31
0.0
  0
LINE
  5
191
100
AcDbEntity
  8
Layer_1
 62
7
100
AcDbLine
 10
592.783986
 20
61.614170
 30
0.0
 11
592.783986
 21
65.340387
 31
0.0
  0
LINE
  5
192
100
AcDbEntity
  8
Layer_1
 62
7
100
AcDbLine
 10
592.783986
 20
65.340387
 30
0.0
 11
594.388025
 21
65.340387
 31
0.0
  0
LINE
  5
193
100
AcDbEntity
  8
Layer_1
 62
7
100
AcDbLine
 10
594.388025
 20
65.340387
 30
0.0
 11
594.388025
 21
59.491991
 31
0.0
  0
LINE
  5
194
100
AcDbEntity
  8
Layer_1
 62
7
100
AcDbLine
 10
594.388025
 20
59.491991
 30
0.0
 11
586.158396
 21
59.491991
 31
0.0
  0
LINE
  5
195
100
AcDbEntity
  8
Layer_1
 62
7
100
AcDbLine
 10
586.158396
 20
59.491991
 30
0.0
 11
586.158396
 21
59.491991
 31
0.0
  0
LINE
  5
196
100
AcDbEntity
  8
Layer_1
 62
7
100
AcDbLine
 10
586.158396
 20
66.679839
 30
0.0
 11
586.158396
 21
72.406966
 31
0.0
  0
LINE
  5
197
100
AcDbEntity
  8
Layer_1
 62
7
100
AcDbLine
 10
586.158396
 20
72.406966
 30
0.0
 11
587.762435
 21
72.406966
 31
0.0
  0
LINE
  5
198
100
AcDbEntity
  8
Layer_1
 62
7
100
AcDbLine
 10
587.762435
 20
72.406966
 30
0.0
 11
587.762435
 21
68.802017
 31
0.0
  0
LINE
  5
199
100
AcDbEntity
  8
Layer_1
 62
7
100
AcDbLine
 10
587.762435
 20
68.802017
 30
0.0
 11
589.294817
 21
68.802017
 31
0.0
  0
LINE
  5
19a
100
AcDbEntity
  8
Layer_1
 62
7
100
AcDbLine
 10
589.294817
 20
68.802017
 30
0.0
 11
589.294817
 21
72.191991
 31
0.0
  0
LINE
  5
19b
100
AcDbEntity
  8
Layer_1
 62
7
100
AcDbLine
 10
589.294817
 20
72.191991
 30
0.0
 11
590.898855
 21
72.191991
 31
0.0
  0
LINE
  5
19c
100
AcDbEntity
  8
Layer_1
 62
7
100
AcDbLine
 10
590.898855
 20
72.191991
 30
0.0
 11
590.898855
 21
68.802017
 31
0.0
  0
LINE
  5
19d
100
AcDbEntity
  8
Layer_1
 62
7
100
AcDbLine
 10
590.898855
 20
68.802017
 30
0.0
 11
592.783986
 21
68.802017
 31
0.0
  0
LINE
  5
19e
100
AcDbEntity
  8
Layer_1
 62
7
100
AcDbLine
 10
592.783986
 20
68.802017
 30
0.0
 11
592.783986
 21
72.528234
 31
0.0
  0
LINE
  5
19f
100
AcDbEntity
  8
Layer_1
 62
7
100
AcDbLine
 10
592.783986
 20
72.528234
 30
0.0
 11
594.388025
 21
72.528234
 31
0.0
  0
LINE
  5
1a0
100
AcDbEntity
  8
Layer_1
 62
7
100
AcDbLine
 10
594.388025
 20
72.528234
 30
0.0
 11
594.388025
 21
66.679839
 31
0.0
  0
LINE
  5
1a1
100
AcDbEntity
  8
Layer_1
 62
7
100
AcDbLine
 10
594.388025
 20
66.679839
 30
0.0
 11
586.158396
 21
66.679839
 31
0.0
  0
LINE
  5
1a2
100
AcDbEntity
  8
Layer_1
 62
7
100
AcDbLine
 10
586.158396
 20
66.679839
 30
0.0
 11
586.158396
 21
66.679839
 31
0.0
  0
LINE
  5
1a3
100
AcDbEntity
  8
Layer_1
 62
7
100
AcDbLine
 10
592.888719
 20
79.390862
 30
0.0
 11
592.888719
 21
76.072547
 31
0.0
  0
LINE
  5
1a4
100
AcDbEntity
  8
Layer_1
 62
7
100
AcDbLine
 10
592.888719
 20
76.072547
 30
0.0
 11
594.388025
 21
75.548892
 31
0.0
  0
LINE
  5
1a5
100
AcDbEntity
  8
Layer_1
 62
7
100
AcDbLine
 10
594.388025
 20
75.548892
 30
0.0
 11
594.388025
 21
73.415690
 31
0.0
  0
LINE
  5
1a6
100
AcDbEntity
  8
Layer_1
 62
7
100
AcDbLine
 10
594.388025
 20
73.415690
 30
0.0
 11
586.158396
 21
76.463910
 31
0.0
  0
LINE
  5
1a7
100
AcDbEntity
  8
Layer_1
 62
7
100
AcDbLine
 10
586.158396
 20
76.463910
 30
0.0
 11
586.158396
 21
78.993987
 31
0.0
  0
LINE
  5
1a8
100
AcDbEntity
  8
Layer_1
 62
7
100
AcDbLine
 10
586.158396
 20
78.993987
 30
0.0
 11
594.388025
 21
82.042221
 31
0.0
  0
LINE
  5
1a9
100
AcDbEntity
  8
Layer_1
 62
7
100
AcDbLine
 10
594.388025
 20
82.042221
 30
0.0
 11
594.388025
 21
79.909005
 31
0.0
  0
LINE
  5
1aa
100
AcDbEntity
  8
Layer_1
 62
7
100
AcDbLine
 10
594.388025
 20
79.909005
 30
0.0
 11
592.888719
 21
79.390862
 31
0.0
  0
LINE
  5
1ab
100
AcDbEntity
  8
Layer_1
 62
7
100
AcDbLine
 10
592.888719
 20
79.390862
 30
0.0
 11
592.888719
 21
79.390862
 31
0.0
  0
LINE
  5
1ac
100
AcDbEntity
  8
Layer_1
 62
7
100
AcDbLine
 10
591.361869
 20
76.601714
 30
0.0
 11
591.361869
 21
78.856184
 31
0.0
  0
LINE
  5
1ad
100
AcDbEntity
  8
Layer_1
 62
7
100
AcDbLine
 10
591.361869
 20
78.856184
 30
0.0
 11
588.087639
 21
77.731706
 31
0.0
  0
LINE
  5
1ae
100
AcDbEntity
  8
Layer_1
 62
7
100
AcDbLine
 10
588.087639
 20
77.731706
 30
0.0
 11
591.361869
 21
76.601714
 31
0.0
  0
LINE
  5
1af
100
AcDbEntity
  8
Layer_1
 62
7
100
AcDbLine
 10
591.361869
 20
76.601714
 30
0.0
 11
591.361869
 21
76.601714
 31
0.0
  0
SPLINE
  5
1b0
100
AcDbEntity
  8
Layer_1
 62
7
100
AcDbSpline
 70
8
 71
3
 72
8
 73
4
 74
0
 40
0
 40
0
 40
0
 40
0
 40
1
 40
1
 40
1
 40
1
 10
589.807445
 20
86.143249
 30
0.0
 10
589.807445
 20
86.587900
 30
0.0
 10
589.724763
 20
86.905766
 30
0.0
 10
589.559400
 20
87.096850
 30
0.0
  0
SPLINE
  5
1b1
100
AcDbEntity
  8
Layer_1
 62
7
100
AcDbSpline
 70
8
 71
3
 72
8
 73
4
 74
0
 40
0
 40
0
 40
0
 40
0
 40
1
 40
1
 40
1
 40
1
 10
589.559400
 20
87.096850
 30
0.0
 10
589.394037
 20
87.291621
 30
0.0
 10
589.122097
 20
87.389006
 30
0.0
 10
588.743580
 20
87.389006
 30
0.0
  0
SPLINE
  5
1b2
100
AcDbEntity
  8
Layer_1
 62
7
100
AcDbSpline
 70
8
 71
3
 72
8
 73
4
 74
0
 40
0
 40
0
 40
0
 40
0
 40
1
 40
1
 40
1
 40
1
 10
588.743580
 20
87.389006
 30
0.0
 10
588.368751
 20
87.389006
 30
0.0
 10
588.100499
 20
87.291621
 30
0.0
 10
587.938824
 20
87.096850
 30
0.0
  0
SPLINE
  5
1b3
100
AcDbEntity
  8
Layer_1
 62
7
100
AcDbSpline
 70
8
 71
3
 72
8
 73
4
 74
0
 40
0
 40
0
 40
0
 40
0
 40
1
 40
1
 40
1
 40
1
 10
587.938824
 20
87.096850
 30
0.0
 10
587.777129
 20
86.905766
 30
0.0
 10
587.696282
 20
86.587900
 30
0.0
 10
587.696282
 20
86.143249
 30
0.0
  0
LINE
  5
1b4
100
AcDbEntity
  8
Layer_1
 62
7
100
AcDbLine
 10
587.696282
 20
86.143249
 30
0.0
 11
587.696282
 21
85.250270
 31
0.0
  0
LINE
  5
1b5
100
AcDbEntity
  8
Layer_1
 62
7
100
AcDbLine
 10
587.696282
 20
85.250270
 30
0.0
 11
589.807445
 21
85.250270
 31
0.0
  0
LINE
  5
1b6
100
AcDbEntity
  8
Layer_1
 62
7
100
AcDbLine
 10
589.807445
 20
85.250270
 30
0.0
 11
589.807445
 21
86.143249
 31
0.0
  0
LINE
  5
1b7
100
AcDbEntity
  8
Layer_1
 62
7
100
AcDbLine
 10
589.807445
 20
86.143249
 30
0.0
 11
589.807445
 21
86.143249
 31
0.0
  0
LINE
  5
1b8
100
AcDbEntity
  8
Layer_1
 62
7
100
AcDbLine
 10
591.273674
 20
85.250270
 30
0.0
 11
594.388025
 21
85.250270
 31
0.0
  0
LINE
  5
1b9
100
AcDbEntity
  8
Layer_1
 62
7
100
AcDbLine
 10
594.388025
 20
85.250270
 30
0.0
 11
594.388025
 21
83.128100
 31
0.0
  0
LINE
  5
1ba
100
AcDbEntity
  8
Layer_1
 62
7
100
AcDbLine
 10
594.388025
 20
83.128100
 30
0.0
 11
586.158396
 21
83.128100
 31
0.0
  0
LINE
  5
1bb
100
AcDbEntity
  8
Layer_1
 62
7
100
AcDbLine
 10
586.158396
 20
83.128100
 30
0.0
 11
586.158396
 21
86.369253
 31
0.0
  0
SPLINE
  5
1bc
100
AcDbEntity
  8
Layer_1
 62
7
100
AcDbSpline
 70
8
 71
3
 72
8
 73
4
 74
0
 40
0
 40
0
 40
0
 40
0
 40
1
 40
1
 40
1
 40
1
 10
586.158396
 20
86.369253
 30
0.0
 10
586.158396
 20
87.453306
 30
0.0
 10
586.340298
 20
88.247056
 30
0.0
 10
586.704101
 20
88.750503
 30
0.0
  0
SPLINE
  5
1bd
100
AcDbEntity
  8
Layer_1
 62
7
100
AcDbSpline
 70
8
 71
3
 72
8
 73
4
 74
0
 40
0
 40
0
 40
0
 40
0
 40
1
 40
1
 40
1
 40
1
 10
586.704101
 20
88.750503
 30
0.0
 10
587.067905
 20
89.257618
 30
0.0
 10
587.643008
 20
89.511176
 30
0.0
 10
588.429410
 20
89.511176
 30
0.0
  0
SPLINE
  5
1be
100
AcDbEntity
  8
Layer_1
 62
7
100
AcDbSpline
 70
8
 71
3
 72
8
 73
4
 74
0
 40
0
 40
0
 40
0
 40
0
 40
1
 40
1
 40
1
 40
1
 10
588.429410
 20
89.511176
 30
0.0
 10
588.973271
 20
89.511176
 30
0.0
 10
589.419747
 20
89.378880
 30
0.0
 10
589.768837
 20
89.114287
 30
0.0
  0
SPLINE
  5
1bf
100
AcDbEntity
  8
Layer_1
 62
7
100
AcDbSpline
 70
8
 71
3
 72
8
 73
4
 74
0
 40
0
 40
0
 40
0
 40
0
 40
1
 40
1
 40
1
 40
1
 10
589.768837
 20
89.114287
 30
0.0
 10
590.117946
 20
88.853382
 30
0.0
 10
590.375182
 20
88.458346
 30
0.0
 10
590.540546
 20
87.929179
 30
0.0
  0
SPLINE
  5
1c0
100
AcDbEntity
  8
Layer_1
 62
7
100
AcDbSpline
 70
8
 71
3
 72
8
 73
4
 74
0
 40
0
 40
0
 40
0
 40
0
 40
1
 40
1
 40
1
 40
1
 10
590.540546
 20
87.929179
 30
0.0
 10
590.606698
 20
88.219492
 30
0.0
 10
590.757367
 20
88.478563
 30
0.0
 10
590.992553
 20
88.706391
 30
0.0
  0
SPLINE
  5
1c1
100
AcDbEntity
  8
Layer_1
 62
7
100
AcDbSpline
 70
8
 71
3
 72
8
 73
4
 74
0
 40
0
 40
0
 40
0
 40
0
 40
1
 40
1
 40
1
 40
1
 10
590.992553
 20
88.706391
 30
0.0
 10
591.224069
 20
88.937908
 30
0.0
 10
591.576847
 20
89.171258
 30
0.0
 10
592.050886
 20
89.406443
 30
0.0
  0
LINE
  5
1c2
100
AcDbEntity
  8
Layer_1
 62
7
100
AcDbLine
 10
592.050886
 20
89.406443
 30
0.0
 11
594.388025
 21
90.558475
 31
0.0
  0
LINE
  5
1c3
100
AcDbEntity
  8
Layer_1
 62
7
100
AcDbLine
 10
594.388025
 20
90.558475
 30
0.0
 11
594.388025
 21
88.298495
 31
0.0
  0
LINE
  5
1c4
100
AcDbEntity
  8
Layer_1
 62
7
100
AcDbLine
 10
594.388025
 20
88.298495
 30
0.0
 11
592.343014
 21
87.295280
 31
0.0
  0
SPLINE
  5
1c5
100
AcDbEntity
  8
Layer_1
 62
7
100
AcDbSpline
 70
8
 71
3
 72
8
 73
4
 74
0
 40
0
 40
0
 40
0
 40
0
 40
1
 40
1
 40
1
 40
1
 10
592.343014
 20
87.295280
 30
0.0
 10
591.931440
 20
87.093171
 30
0.0
 10
591.650328
 20
86.887384
 30
0.0
 10
591.499678
 20
86.677919
 30
0.0
  0
SPLINE
  5
1c6
100
AcDbEntity
  8
Layer_1
 62
7
100
AcDbSpline
 70
8
 71
3
 72
8
 73
4
 74
0
 40
0
 40
0
 40
0
 40
0
 40
1
 40
1
 40
1
 40
1
 10
591.499678
 20
86.677919
 30
0.0
 10
591.349009
 20
86.472141
 30
0.0
 10
591.273674
 20
86.196533
 30
0.0
 10
591.273674
 20
85.851093
 30
0.0
  0
LINE
  5
1c7
100
AcDbEntity
  8
Layer_1
 62
7
100
AcDbLine
 10
591.273674
 20
85.851093
 30
0.0
 11
591.273674
 21
85.250270
 31
0.0
  0
LINE
  5
1c8
100
AcDbEntity
  8
Layer_1
 62
7
100
AcDbLine
 10
591.273674
 20
85.250270
 30
0.0
 11
591.273674
 21
85.250270
 31
0.0
  0
ENDSEC
  0
SECTION
  2
OBJECTS
  0
DICTIONARY
  5
C
330
0
100
AcDbDictionary
  3
ACAD_GROUP
350
D
  3
ACAD_MLINESTYLE
350
17
  0
DICTIONARY
  5
D
330
C
100
AcDbDictionary
  0
DICTIONARY
  5
1A
330
C
100
AcDbDictionary
  0
DICTIONARY
  5
17
330
C
100
AcDbDictionary
  3
STANDARD
350
18
  0
DICTIONARY
  5
19
330
C
100
AcDbDictionary
  0
ENDSEC
  0
EOF
