  0
SECTION
  2
HEADER
  9
$ACADVER
  1
AC1014
  9
$HANDSEED
  5
FFFF
  9
$MEASUREMENT
 70
     1
  0
ENDSEC
  0
SECTION
  2
TABLES
  0
TABLE
  2
VPORT
  5
8
330
0
100
AcDbSymbolTable
 70
     4
  0
VPORT
  5
2E
330
8
100
AcDbSymbolTableRecord
100
AcDbViewportTableRecord
  2
*ACTIVE
 70
     0
 10
0.0
 20
0.0
 11
1.0
 21
1.0
 12
210.0
 22
148.5
 13
0.0
 23
0.0
 14
10.0
 24
10.0
 15
10.0
 25
10.0
 16
0.0
 26
0.0
 36
1.0
 17
0.0
 27
0.0
 37
0.0
 40
341.0
 41
1.24
 42
50.0
 43
0.0
 44
0.0
 50
0.0
 51
0.0
 71
     0
 72
   100
 73
     1
 74
     3
 75
     0
 76
     0
 77
     0
 78
     0
  0
ENDTAB
  0
TABLE
  2
LTYPE
  5
5
330
0
100
AcDbSymbolTable
 70
     1
  0
LTYPE
  5
14
330
5
100
AcDbSymbolTableRecord
100
AcDbLinetypeTableRecord
  2
BYBLOCK
 70
     0
  3

 72
    65
 73
     0
 40
0.0
  0
LTYPE
  5
15
330
5
100
AcDbSymbolTableRecord
100
AcDbLinetypeTableRecord
  2
BYLAYER
 70
     0
  3

 72
    65
 73
     0
 40
0.0
  0
LTYPE
  5
16
330
5
100
AcDbSymbolTableRecord
100
AcDbLinetypeTableRecord
  2
CONTINUOUS
 70
     0
  3
Solid line
 72
    65
 73
     0
 40
0.0
  0
ENDTAB
  0
TABLE
  2
LAYER
  5
2
100
AcDbSymbolTable
 70
2
  0
LAYER
  5
50
100
AcDbSymbolTableRecord
100
AcDbLayerTableRecord
  2
0
 70
0
  6
CONTINUOUS
  0
LAYER
  5
51
100
AcDbSymbolTableRecord
100
AcDbLayerTableRecord
  2
Layer_1
 70
0
  6
CONTINUOUS
  0
ENDTAB
  0
TABLE
  2
STYLE
  5
3
330
0
100
AcDbSymbolTable
 70
     1
  0
STYLE
  5
11
330
3
100
AcDbSymbolTableRecord
100
AcDbTextStyleTableRecord
  2
STANDARD
 70
     0
 40
0.0
 41
1.0
 50
0.0
 71
     0
 42
2.5
  3
txt
  4

  0
ENDTAB
  0
TABLE
  2
VIEW
  5
6
330
0
100
AcDbSymbolTable
 70
     0
  0
ENDTAB
  0
TABLE
  2
UCS
  5
7
330
0
100
AcDbSymbolTable
 70
     0
  0
ENDTAB
  0
TABLE
  2
APPID
  5
9
330
0
100
AcDbSymbolTable
 70
     2
  0
APPID
  5
12
330
9
100
AcDbSymbolTableRecord
100
AcDbRegAppTableRecord
  2
ACAD
 70
     0
  0
ENDTAB
  0
TABLE
  2
DIMSTYLE
  5
A
330
0
100
AcDbSymbolTable
 70
     1
  0
DIMSTYLE
105
27
330
A
100
AcDbSymbolTableRecord
100
AcDbDimStyleTableRecord
  2
ISO-25
 70
     0
  3

  4

  5

  6

  7

 40
1.0
 41
2.5
 42
0.625
 43
3.75
 44
1.25
 45
0.0
 46
0.0
 47
0.0
 48
0.0
140
2.5
141
2.5
142
0.0
143
0.03937007874016
144
1.0
145
0.0
146
1.0
147
0.625
 71
     0
 72
     0
 73
     0
 74
     0
 75
     0
 76
     0
 77
     1
 78
     8
170
     0
171
     3
172
     1
173
     0
174
     0
175
     0
176
     0
177
     0
178
     0
270
     2
271
     2
272
     2
273
     2
274
     3
340
11
275
     0
280
     0
281
     0
282
     0
283
     0
284
     8
285
     0
286
     0
287
     3
288
     0
  0
ENDTAB
  0
TABLE
  2
BLOCK_RECORD
  5
1
330
0
100
AcDbSymbolTable
 70
     1
  0
BLOCK_RECORD
  5
1F
330
1
100
AcDbSymbolTableRecord
100
AcDbBlockTableRecord
  2
*MODEL_SPACE
  0
BLOCK_RECORD
  5
1B
330
1
100
AcDbSymbolTableRecord
100
AcDbBlockTableRecord
  2
*PAPER_SPACE
  0
ENDTAB
  0
ENDSEC
  0
SECTION
  2
BLOCKS
  0
BLOCK
  5
20
330
1F
100
AcDbEntity
  8
0
100
AcDbBlockBegin
  2
*MODEL_SPACE
 70
     0
 10
0.0
 20
0.0
 30
0.0
  3
*MODEL_SPACE
  1

  0
ENDBLK
  5
21
330
1F
100
AcDbEntity
  8
0
100
AcDbBlockEnd
  0
BLOCK
  5
1C
330
1B
100
AcDbEntity
 67
     1
  8
0
100
AcDbBlockBegin
  2
*PAPER_SPACE
  1

  0
ENDBLK
  5
1D
330
1B
100
AcDbEntity
 67
     1
  8
0
100
AcDbBlockEnd
  0
ENDSEC
  0
SECTION
  2
ENTITIES
  0
LINE
  5
100
100
AcDbEntity
  8
Layer_1
 62
5
100
AcDbLine
 10
392.141428
 20
20.488567
 30
0.0
 11
392.141428
 21
23.488843
 31
0.0
  0
LINE
  5
101
100
AcDbEntity
  8
Layer_1
 62
5
100
AcDbLine
 10
392.141428
 20
23.488843
 30
0.0
 11
392.141428
 21
40.889057
 31
0.0
  0
LINE
  5
102
100
AcDbEntity
  8
Layer_1
 62
5
100
AcDbLine
 10
392.141428
 20
40.889057
 30
0.0
 11
389.141716
 21
40.889057
 31
0.0
  0
LINE
  5
103
100
AcDbEntity
  8
Layer_1
 62
5
100
AcDbLine
 10
389.141716
 20
40.889057
 30
0.0
 11
389.141716
 21
60.888791
 31
0.0
  0
LINE
  5
104
100
AcDbEntity
  8
Layer_1
 62
5
100
AcDbLine
 10
389.141716
 20
60.888791
 30
0.0
 11
392.141428
 21
60.888791
 31
0.0
  0
LINE
  5
105
100
AcDbEntity
  8
Layer_1
 62
5
100
AcDbLine
 10
392.141428
 20
60.888791
 30
0.0
 11
392.141428
 21
78.289569
 31
0.0
  0
LINE
  5
106
100
AcDbEntity
  8
Layer_1
 62
5
100
AcDbLine
 10
392.141428
 20
78.289569
 30
0.0
 11
399.591107
 21
91.192967
 31
0.0
  0
LINE
  5
107
100
AcDbEntity
  8
Layer_1
 62
5
100
AcDbLine
 10
399.591107
 20
91.192967
 30
0.0
 11
396.993223
 21
92.693373
 31
0.0
  0
LINE
  5
108
100
AcDbEntity
  8
Layer_1
 62
5
100
AcDbLine
 10
396.993223
 20
92.693373
 30
0.0
 11
406.993372
 21
110.013661
 31
0.0
  0
LINE
  5
109
100
AcDbEntity
  8
Layer_1
 62
5
100
AcDbLine
 10
406.993372
 20
110.013661
 30
0.0
 11
409.591256
 21
108.513791
 31
0.0
  0
LINE
  5
10a
100
AcDbEntity
  8
Layer_1
 62
5
100
AcDbLine
 10
409.591256
 20
108.513791
 30
0.0
 11
419.591405
 21
125.834079
 31
0.0
  0
LINE
  5
10b
100
AcDbEntity
  8
Layer_1
 62
5
100
AcDbLine
 10
419.591405
 20
125.834079
 30
0.0
 11
416.993522
 21
127.334485
 31
0.0
  0
LINE
  5
10c
100
AcDbEntity
  8
Layer_1
 62
5
100
AcDbLine
 10
416.993522
 20
127.334485
 30
0.0
 11
426.993135
 21
144.654774
 31
0.0
  0
LINE
  5
10d
100
AcDbEntity
  8
Layer_1
 62
5
100
AcDbLine
 10
426.993135
 20
144.654774
 30
0.0
 11
429.591555
 21
143.154932
 31
0.0
  0
LINE
  5
10e
100
AcDbEntity
  8
Layer_1
 62
5
100
AcDbLine
 10
429.591555
 20
143.154932
 30
0.0
 11
439.591140
 21
160.475192
 31
0.0
  0
LINE
  5
10f
100
AcDbEntity
  8
Layer_1
 62
5
100
AcDbLine
 10
439.591140
 20
160.475192
 30
0.0
 11
436.993284
 21
161.975062
 31
0.0
  0
LINE
  5
110
100
AcDbEntity
  8
Layer_1
 62
5
100
AcDbLine
 10
436.993284
 20
161.975062
 30
0.0
 11
446.993433
 21
179.295886
 31
0.0
  0
LINE
  5
111
100
AcDbEntity
  8
Layer_1
 62
5
100
AcDbLine
 10
446.993433
 20
179.295886
 30
0.0
 11
449.591289
 21
177.796045
 31
0.0
  0
LINE
  5
112
100
AcDbEntity
  8
Layer_1
 62
5
100
AcDbLine
 10
449.591289
 20
177.796045
 30
0.0
 11
459.591438
 21
195.116333
 31
0.0
  0
LINE
  5
113
100
AcDbEntity
  8
Layer_1
 62
5
100
AcDbLine
 10
459.591438
 20
195.116333
 30
0.0
 11
456.993583
 21
196.616175
 31
0.0
  0
LINE
  5
114
100
AcDbEntity
  8
Layer_1
 62
5
100
AcDbLine
 10
456.993583
 20
196.616175
 30
0.0
 11
466.993168
 21
213.937027
 31
0.0
  0
LINE
  5
115
100
AcDbEntity
  8
Layer_1
 62
5
100
AcDbLine
 10
466.993168
 20
213.937027
 30
0.0
 11
469.591051
 21
212.436621
 31
0.0
  0
LINE
  5
116
100
AcDbEntity
  8
Layer_1
 62
5
100
AcDbLine
 10
469.591051
 20
212.436621
 30
0.0
 11
479.591201
 21
229.757445
 31
0.0
  0
LINE
  5
117
100
AcDbEntity
  8
Layer_1
 62
5
100
AcDbLine
 10
479.591201
 20
229.757445
 30
0.0
 11
476.993317
 21
231.257315
 31
0.0
  0
LINE
  5
118
100
AcDbEntity
  8
Layer_1
 62
5
100
AcDbLine
 10
476.993317
 20
231.257315
 30
0.0
 11
486.993466
 21
248.577604
 31
0.0
  0
LINE
  5
119
100
AcDbEntity
  8
Layer_1
 62
5
100
AcDbLine
 10
486.993466
 20
248.577604
 30
0.0
 11
489.591350
 21
247.077734
 31
0.0
  0
LINE
  5
11a
100
AcDbEntity
  8
Layer_1
 62
5
100
AcDbLine
 10
489.591350
 20
247.077734
 30
0.0
 11
499.591471
 21
264.398586
 31
0.0
  0
LINE
  5
11b
100
AcDbEntity
  8
Layer_1
 62
5
100
AcDbLine
 10
499.591471
 20
264.398586
 30
0.0
 11
496.993051
 21
265.898428
 31
0.0
  0
LINE
  5
11c
100
AcDbEntity
  8
Layer_1
 62
5
100
AcDbLine
 10
496.993051
 20
265.898428
 30
0.0
 11
506.993200
 21
283.218716
 31
0.0
  0
LINE
  5
11d
100
AcDbEntity
  8
Layer_1
 62
5
100
AcDbLine
 10
506.993200
 20
283.218716
 30
0.0
 11
509.591084
 21
281.718846
 31
0.0
  0
LINE
  5
11e
100
AcDbEntity
  8
Layer_1
 62
5
100
AcDbLine
 10
509.591084
 20
281.718846
 30
0.0
 11
517.041299
 21
294.622808
 31
0.0
  0
LINE
  5
11f
100
AcDbEntity
  8
Layer_1
 62
5
100
AcDbLine
 10
517.041299
 20
294.622808
 30
0.0
 11
517.041299
 21
299.522553
 31
0.0
  0
LINE
  5
120
100
AcDbEntity
  8
Layer_1
 62
5
100
AcDbLine
 10
517.041299
 20
299.522553
 30
0.0
 11
514.041588
 21
299.522553
 31
0.0
  0
LINE
  5
121
100
AcDbEntity
  8
Layer_1
 62
5
100
AcDbLine
 10
514.041588
 20
299.522553
 30
0.0
 11
514.041588
 21
319.522852
 31
0.0
  0
LINE
  5
122
100
AcDbEntity
  8
Layer_1
 62
5
100
AcDbLine
 10
514.041588
 20
319.522852
 30
0.0
 11
517.041299
 21
319.522852
 31
0.0
  0
LINE
  5
123
100
AcDbEntity
  8
Layer_1
 62
5
100
AcDbLine
 10
517.041299
 20
319.522852
 30
0.0
 11
517.041299
 21
339.523150
 31
0.0
  0
LINE
  5
124
100
AcDbEntity
  8
Layer_1
 62
5
100
AcDbLine
 10
517.041299
 20
339.523150
 30
0.0
 11
514.041588
 21
339.523150
 31
0.0
  0
LINE
  5
125
100
AcDbEntity
  8
Layer_1
 62
5
100
AcDbLine
 10
514.041588
 20
339.523150
 30
0.0
 11
514.041588
 21
359.523446
 31
0.0
  0
LINE
  5
126
100
AcDbEntity
  8
Layer_1
 62
5
100
AcDbLine
 10
514.041588
 20
359.523446
 30
0.0
 11
517.041299
 21
359.523446
 31
0.0
  0
LINE
  5
127
100
AcDbEntity
  8
Layer_1
 62
5
100
AcDbLine
 10
517.041299
 20
359.523446
 30
0.0
 11
517.041299
 21
364.423196
 31
0.0
  0
LINE
  5
128
100
AcDbEntity
  8
Layer_1
 62
5
100
AcDbLine
 10
517.041299
 20
364.423196
 30
0.0
 11
517.041299
 21
367.423461
 31
0.0
  0
LINE
  5
129
100
AcDbEntity
  8
Layer_1
 62
5
100
AcDbLine
 10
517.041299
 20
367.423461
 30
0.0
 11
524.591844
 21
367.423461
 31
0.0
  0
LINE
  5
12a
100
AcDbEntity
  8
Layer_1
 62
5
100
AcDbLine
 10
524.591844
 20
367.423461
 30
0.0
 11
524.591844
 21
364.423196
 31
0.0
  0
LINE
  5
12b
100
AcDbEntity
  8
Layer_1
 62
5
100
AcDbLine
 10
524.591844
 20
364.423196
 30
0.0
 11
544.591607
 21
364.423196
 31
0.0
  0
LINE
  5
12c
100
AcDbEntity
  8
Layer_1
 62
5
100
AcDbLine
 10
544.591607
 20
364.423196
 30
0.0
 11
544.591607
 21
367.423461
 31
0.0
  0
LINE
  5
12d
100
AcDbEntity
  8
Layer_1
 62
5
100
AcDbLine
 10
544.591607
 20
367.423461
 30
0.0
 11
564.591341
 21
367.423461
 31
0.0
  0
LINE
  5
12e
100
AcDbEntity
  8
Layer_1
 62
5
100
AcDbLine
 10
564.591341
 20
367.423461
 30
0.0
 11
564.591341
 21
364.423196
 31
0.0
  0
LINE
  5
12f
100
AcDbEntity
  8
Layer_1
 62
5
100
AcDbLine
 10
564.591341
 20
364.423196
 30
0.0
 11
584.591075
 21
364.423196
 31
0.0
  0
LINE
  5
130
100
AcDbEntity
  8
Layer_1
 62
5
100
AcDbLine
 10
584.591075
 20
364.423196
 30
0.0
 11
584.591075
 21
367.423461
 31
0.0
  0
LINE
  5
131
100
AcDbEntity
  8
Layer_1
 62
5
100
AcDbLine
 10
584.591075
 20
367.423461
 30
0.0
 11
604.590838
 21
367.423461
 31
0.0
  0
LINE
  5
132
100
AcDbEntity
  8
Layer_1
 62
5
100
AcDbLine
 10
604.590838
 20
367.423461
 30
0.0
 11
604.590838
 21
364.423196
 31
0.0
  0
LINE
  5
133
100
AcDbEntity
  8
Layer_1
 62
5
100
AcDbLine
 10
604.590838
 20
364.423196
 30
0.0
 11
624.590572
 21
364.423196
 31
0.0
  0
LINE
  5
134
100
AcDbEntity
  8
Layer_1
 62
5
100
AcDbLine
 10
624.590572
 20
364.423196
 30
0.0
 11
624.590572
 21
367.423461
 31
0.0
  0
LINE
  5
135
100
AcDbEntity
  8
Layer_1
 62
5
100
AcDbLine
 10
624.590572
 20
367.423461
 30
0.0
 11
632.141117
 21
367.423461
 31
0.0
  0
LINE
  5
136
100
AcDbEntity
  8
Layer_1
 62
5
100
AcDbLine
 10
632.141117
 20
367.423461
 30
0.0
 11
632.141117
 21
364.423196
 31
0.0
  0
LINE
  5
137
100
AcDbEntity
  8
Layer_1
 62
5
100
AcDbLine
 10
632.141117
 20
364.423196
 30
0.0
 11
632.141117
 21
343.954369
 31
0.0
  0
LINE
  5
138
100
AcDbEntity
  8
Layer_1
 62
5
100
AcDbLine
 10
632.141117
 20
343.954369
 30
0.0
 11
635.140829
 21
343.954369
 31
0.0
  0
LINE
  5
139
100
AcDbEntity
  8
Layer_1
 62
5
100
AcDbLine
 10
635.140829
 20
343.954369
 30
0.0
 11
635.140829
 21
323.954615
 31
0.0
  0
LINE
  5
13a
100
AcDbEntity
  8
Layer_1
 62
5
100
AcDbLine
 10
635.140829
 20
323.954615
 30
0.0
 11
632.141117
 21
323.954615
 31
0.0
  0
LINE
  5
13b
100
AcDbEntity
  8
Layer_1
 62
5
100
AcDbLine
 10
632.141117
 20
323.954615
 30
0.0
 11
632.141117
 21
303.954881
 31
0.0
  0
LINE
  5
13c
100
AcDbEntity
  8
Layer_1
 62
5
100
AcDbLine
 10
632.141117
 20
303.954881
 30
0.0
 11
635.140829
 21
303.954881
 31
0.0
  0
LINE
  5
13d
100
AcDbEntity
  8
Layer_1
 62
5
100
AcDbLine
 10
635.140829
 20
303.954881
 30
0.0
 11
635.140829
 21
283.955147
 31
0.0
  0
LINE
  5
13e
100
AcDbEntity
  8
Layer_1
 62
5
100
AcDbLine
 10
635.140829
 20
283.955147
 30
0.0
 11
632.141117
 21
283.955147
 31
0.0
  0
LINE
  5
13f
100
AcDbEntity
  8
Layer_1
 62
5
100
AcDbLine
 10
632.141117
 20
283.955147
 30
0.0
 11
632.141117
 21
263.955385
 31
0.0
  0
LINE
  5
140
100
AcDbEntity
  8
Layer_1
 62
5
100
AcDbLine
 10
632.141117
 20
263.955385
 30
0.0
 11
635.140829
 21
263.955385
 31
0.0
  0
LINE
  5
141
100
AcDbEntity
  8
Layer_1
 62
5
100
AcDbLine
 10
635.140829
 20
263.955385
 30
0.0
 11
635.140829
 21
243.955650
 31
0.0
  0
LINE
  5
142
100
AcDbEntity
  8
Layer_1
 62
5
100
AcDbLine
 10
635.140829
 20
243.955650
 30
0.0
 11
632.141117
 21
243.955650
 31
0.0
  0
LINE
  5
143
100
AcDbEntity
  8
Layer_1
 62
5
100
AcDbLine
 10
632.141117
 20
243.955650
 30
0.0
 11
632.141117
 21
223.955916
 31
0.0
  0
LINE
  5
144
100
AcDbEntity
  8
Layer_1
 62
5
100
AcDbLine
 10
632.141117
 20
223.955916
 30
0.0
 11
635.140829
 21
223.955916
 31
0.0
  0
LINE
  5
145
100
AcDbEntity
  8
Layer_1
 62
5
100
AcDbLine
 10
635.140829
 20
223.955916
 30
0.0
 11
635.140829
 21
203.956154
 31
0.0
  0
LINE
  5
146
100
AcDbEntity
  8
Layer_1
 62
5
100
AcDbLine
 10
635.140829
 20
203.956154
 30
0.0
 11
632.141117
 21
203.956154
 31
0.0
  0
LINE
  5
147
100
AcDbEntity
  8
Layer_1
 62
5
100
AcDbLine
 10
632.141117
 20
203.956154
 30
0.0
 11
632.141117
 21
183.956419
 31
0.0
  0
LINE
  5
148
100
AcDbEntity
  8
Layer_1
 62
5
100
AcDbLine
 10
632.141117
 20
183.956419
 30
0.0
 11
635.140829
 21
183.956419
 31
0.0
  0
LINE
  5
149
100
AcDbEntity
  8
Layer_1
 62
5
100
AcDbLine
 10
635.140829
 20
183.956419
 30
0.0
 11
635.140829
 21
163.956685
 31
0.0
  0
LINE
  5
14a
100
AcDbEntity
  8
Layer_1
 62
5
100
AcDbLine
 10
635.140829
 20
163.956685
 30
0.0
 11
632.141117
 21
163.956685
 31
0.0
  0
LINE
  5
14b
100
AcDbEntity
  8
Layer_1
 62
5
100
AcDbLine
 10
632.141117
 20
163.956685
 30
0.0
 11
632.141117
 21
143.956923
 31
0.0
  0
LINE
  5
14c
100
AcDbEntity
  8
Layer_1
 62
5
100
AcDbLine
 10
632.141117
 20
143.956923
 30
0.0
 11
635.140829
 21
143.956923
 31
0.0
  0
LINE
  5
14d
100
AcDbEntity
  8
Layer_1
 62
5
100
AcDbLine
 10
635.140829
 20
143.956923
 30
0.0
 11
635.140829
 21
123.957189
 31
0.0
  0
LINE
  5
14e
100
AcDbEntity
  8
Layer_1
 62
5
100
AcDbLine
 10
635.140829
 20
123.957189
 30
0.0
 11
632.141117
 21
123.957189
 31
0.0
  0
LINE
  5
14f
100
AcDbEntity
  8
Layer_1
 62
5
100
AcDbLine
 10
632.141117
 20
123.957189
 30
0.0
 11
632.141117
 21
103.957454
 31
0.0
  0
LINE
  5
150
100
AcDbEntity
  8
Layer_1
 62
5
100
AcDbLine
 10
632.141117
 20
103.957454
 30
0.0
 11
635.140829
 21
103.957454
 31
0.0
  0
LINE
  5
151
100
AcDbEntity
  8
Layer_1
 62
5
100
AcDbLine
 10
635.140829
 20
103.957454
 30
0.0
 11
635.140829
 21
83.957692
 31
0.0
  0
LINE
  5
152
100
AcDbEntity
  8
Layer_1
 62
5
100
AcDbLine
 10
635.140829
 20
83.957692
 30
0.0
 11
632.141117
 21
83.957692
 31
0.0
  0
LINE
  5
153
100
AcDbEntity
  8
Layer_1
 62
5
100
AcDbLine
 10
632.141117
 20
83.957692
 30
0.0
 11
632.141117
 21
63.957958
 31
0.0
  0
LINE
  5
154
100
AcDbEntity
  8
Layer_1
 62
5
100
AcDbLine
 10
632.141117
 20
63.957958
 30
0.0
 11
635.140829
 21
63.957958
 31
0.0
  0
LINE
  5
155
100
AcDbEntity
  8
Layer_1
 62
5
100
AcDbLine
 10
635.140829
 20
63.957958
 30
0.0
 11
635.140829
 21
43.958223
 31
0.0
  0
LINE
  5
156
100
AcDbEntity
  8
Layer_1
 62
5
100
AcDbLine
 10
635.140829
 20
43.958223
 30
0.0
 11
632.141117
 21
43.958223
 31
0.0
  0
LINE
  5
157
100
AcDbEntity
  8
Layer_1
 62
5
100
AcDbLine
 10
632.141117
 20
43.958223
 30
0.0
 11
632.141117
 21
23.488843
 31
0.0
  0
LINE
  5
158
100
AcDbEntity
  8
Layer_1
 62
5
100
AcDbLine
 10
632.141117
 20
23.488843
 30
0.0
 11
632.141117
 21
20.488567
 31
0.0
  0
LINE
  5
159
100
AcDbEntity
  8
Layer_1
 62
5
100
AcDbLine
 10
632.141117
 20
20.488567
 30
0.0
 11
622.139867
 21
20.488567
 31
0.0
  0
LINE
  5
15a
100
AcDbEntity
  8
Layer_1
 62
5
100
AcDbLine
 10
622.139867
 20
20.488567
 30
0.0
 11
622.139867
 21
23.488843
 31
0.0
  0
LINE
  5
15b
100
AcDbEntity
  8
Layer_1
 62
5
100
AcDbLine
 10
622.139867
 20
23.488843
 30
0.0
 11
602.140133
 21
23.488843
 31
0.0
  0
LINE
  5
15c
100
AcDbEntity
  8
Layer_1
 62
5
100
AcDbLine
 10
602.140133
 20
23.488843
 30
0.0
 11
602.140133
 21
20.488567
 31
0.0
  0
LINE
  5
15d
100
AcDbEntity
  8
Layer_1
 62
5
100
AcDbLine
 10
602.140133
 20
20.488567
 30
0.0
 11
582.140370
 21
20.488567
 31
0.0
  0
LINE
  5
15e
100
AcDbEntity
  8
Layer_1
 62
5
100
AcDbLine
 10
582.140370
 20
20.488567
 30
0.0
 11
582.140370
 21
23.488843
 31
0.0
  0
LINE
  5
15f
100
AcDbEntity
  8
Layer_1
 62
5
100
AcDbLine
 10
582.140370
 20
23.488843
 30
0.0
 11
562.140636
 21
23.488843
 31
0.0
  0
LINE
  5
160
100
AcDbEntity
  8
Layer_1
 62
5
100
AcDbLine
 10
562.140636
 20
23.488843
 30
0.0
 11
562.140636
 21
20.488567
 31
0.0
  0
LINE
  5
161
100
AcDbEntity
  8
Layer_1
 62
5
100
AcDbLine
 10
562.140636
 20
20.488567
 30
0.0
 11
542.140902
 21
20.488567
 31
0.0
  0
LINE
  5
162
100
AcDbEntity
  8
Layer_1
 62
5
100
AcDbLine
 10
542.140902
 20
20.488567
 30
0.0
 11
542.140902
 21
23.488843
 31
0.0
  0
LINE
  5
163
100
AcDbEntity
  8
Layer_1
 62
5
100
AcDbLine
 10
542.140902
 20
23.488843
 30
0.0
 11
522.141140
 21
23.488843
 31
0.0
  0
LINE
  5
164
100
AcDbEntity
  8
Layer_1
 62
5
100
AcDbLine
 10
522.141140
 20
23.488843
 30
0.0
 11
522.141140
 21
20.488567
 31
0.0
  0
LINE
  5
165
100
AcDbEntity
  8
Layer_1
 62
5
100
AcDbLine
 10
522.141140
 20
20.488567
 30
0.0
 11
502.141405
 21
20.488567
 31
0.0
  0
LINE
  5
166
100
AcDbEntity
  8
Layer_1
 62
5
100
AcDbLine
 10
502.141405
 20
20.488567
 30
0.0
 11
502.141405
 21
23.488843
 31
0.0
  0
LINE
  5
167
100
AcDbEntity
  8
Layer_1
 62
5
100
AcDbLine
 10
502.141405
 20
23.488843
 30
0.0
 11
482.141671
 21
23.488843
 31
0.0
  0
LINE
  5
168
100
AcDbEntity
  8
Layer_1
 62
5
100
AcDbLine
 10
482.141671
 20
23.488843
 30
0.0
 11
482.141671
 21
20.488567
 31
0.0
  0
LINE
  5
169
100
AcDbEntity
  8
Layer_1
 62
5
100
AcDbLine
 10
482.141671
 20
20.488567
 30
0.0
 11
462.141909
 21
20.488567
 31
0.0
  0
LINE
  5
16a
100
AcDbEntity
  8
Layer_1
 62
5
100
AcDbLine
 10
462.141909
 20
20.488567
 30
0.0
 11
462.141909
 21
23.488843
 31
0.0
  0
LINE
  5
16b
100
AcDbEntity
  8
Layer_1
 62
5
100
AcDbLine
 10
462.141909
 20
23.488843
 30
0.0
 11
442.142174
 21
23.488843
 31
0.0
  0
LINE
  5
16c
100
AcDbEntity
  8
Layer_1
 62
5
100
AcDbLine
 10
442.142174
 20
23.488843
 30
0.0
 11
442.142174
 21
20.488567
 31
0.0
  0
LINE
  5
16d
100
AcDbEntity
  8
Layer_1
 62
5
100
AcDbLine
 10
442.142174
 20
20.488567
 30
0.0
 11
422.142440
 21
20.488567
 31
0.0
  0
LINE
  5
16e
100
AcDbEntity
  8
Layer_1
 62
5
100
AcDbLine
 10
422.142440
 20
20.488567
 30
0.0
 11
422.142440
 21
23.488843
 31
0.0
  0
LINE
  5
16f
100
AcDbEntity
  8
Layer_1
 62
5
100
AcDbLine
 10
422.142440
 20
23.488843
 30
0.0
 11
402.142678
 21
23.488843
 31
0.0
  0
LINE
  5
170
100
AcDbEntity
  8
Layer_1
 62
5
100
AcDbLine
 10
402.142678
 20
23.488843
 30
0.0
 11
402.142678
 21
20.488567
 31
0.0
  0
LINE
  5
171
100
AcDbEntity
  8
Layer_1
 62
5
100
AcDbLine
 10
402.142678
 20
20.488567
 30
0.0
 11
392.141428
 21
20.488567
 31
0.0
  0
LINE
  5
172
100
AcDbEntity
  8
Layer_1
 62
5
100
AcDbLine
 10
392.141428
 20
20.488567
 30
0.0
 11
392.141428
 21
20.488567
 31
0.0
  0
LINE
  5
173
100
AcDbEntity
  8
Layer_1
 62
6
100
AcDbLine
 10
583.829104
 20
325.984998
 30
0.0
 11
565.353369
 21
325.984998
 31
0.0
  0
LINE
  5
174
100
AcDbEntity
  8
Layer_1
 62
6
100
AcDbLine
 10
565.353369
 20
325.984998
 30
0.0
 11
565.353369
 21
337.960737
 31
0.0
  0
LINE
  5
175
100
AcDbEntity
  8
Layer_1
 62
6
100
AcDbLine
 10
565.353369
 20
337.960737
 30
0.0
 11
583.829104
 21
337.960737
 31
0.0
  0
LINE
  5
176
100
AcDbEntity
  8
Layer_1
 62
6
100
AcDbLine
 10
583.829104
 20
337.960737
 30
0.0
 11
583.829104
 21
325.984998
 31
0.0
  0
LINE
  5
177
100
AcDbEntity
  8
Layer_1
 62
7
100
AcDbLine
 10
558.072177
 20
350.215337
 30
0.0
 11
556.330358
 21
350.215337
 31
0.0
  0
SPLINE
  5
178
100
AcDbEntity
  8
Layer_1
 62
7
100
AcDbSpline
 70
8
 71
3
 72
8
 73
4
 74
0
 40
0
 40
0
 40
0
 40
0
 40
1
 40
1
 40
1
 40
1
 10
556.330358
 20
350.215337
 30
0.0
 10
556.532467
 20
350.667334
 30
0.0
 10
556.684961
 20
351.108307
 30
0.0
 10
556.787840
 20
351.538253
 30
0.0
  0
SPLINE
  5
179
100
AcDbEntity
  8
Layer_1
 62
7
100
AcDbSpline
 70
8
 71
3
 72
8
 73
4
 74
0
 40
0
 40
0
 40
0
 40
0
 40
1
 40
1
 40
1
 40
1
 10
556.787840
 20
351.538253
 30
0.0
 10
556.890738
 20
351.968202
 30
0.0
 10
556.942188
 20
352.374264
 30
0.0
 10
556.942188
 20
352.756440
 30
0.0
  0
SPLINE
  5
17a
100
AcDbEntity
  8
Layer_1
 62
7
100
AcDbSpline
 70
8
 71
3
 72
8
 73
4
 74
0
 40
0
 40
0
 40
0
 40
0
 40
1
 40
1
 40
1
 40
1
 10
556.942188
 20
352.756440
 30
0.0
 10
556.942188
 20
353.263558
 30
0.0
 10
556.872366
 20
353.638384
 30
0.0
 10
556.732722
 20
353.880918
 30
0.0
  0
SPLINE
  5
17b
100
AcDbEntity
  8
Layer_1
 62
7
100
AcDbSpline
 70
8
 71
3
 72
8
 73
4
 74
0
 40
0
 40
0
 40
0
 40
0
 40
1
 40
1
 40
1
 40
1
 10
556.732722
 20
353.880918
 30
0.0
 10
556.593079
 20
354.123454
 30
0.0
 10
556.376266
 20
354.244722
 30
0.0
 10
556.082285
 20
354.244722
 30
0.0
  0
SPLINE
  5
17c
100
AcDbEntity
  8
Layer_1
 62
7
100
AcDbSpline
 70
8
 71
3
 72
8
 73
4
 74
0
 40
0
 40
0
 40
0
 40
0
 40
1
 40
1
 40
1
 40
1
 10
556.082285
 20
354.244722
 30
0.0
 10
555.861813
 20
354.244722
 30
0.0
 10
555.689102
 20
354.163877
 30
0.0
 10
555.564153
 20
354.002186
 30
0.0
  0
SPLINE
  5
17d
100
AcDbEntity
  8
Layer_1
 62
7
100
AcDbSpline
 70
8
 71
3
 72
8
 73
4
 74
0
 40
0
 40
0
 40
0
 40
0
 40
1
 40
1
 40
1
 40
1
 10
555.564153
 20
354.002186
 30
0.0
 10
555.442891
 20
353.836823
 30
0.0
 10
555.338159
 20
353.539167
 30
0.0
 10
555.249955
 20
353.109218
 30
0.0
  0
LINE
  5
17e
100
AcDbEntity
  8
Layer_1
 62
7
100
AcDbLine
 10
555.249955
 20
353.109218
 30
0.0
 11
555.068063
 21
352.205224
 31
0.0
  0
SPLINE
  5
17f
100
AcDbEntity
  8
Layer_1
 62
7
100
AcDbSpline
 70
8
 71
3
 72
8
 73
4
 74
0
 40
0
 40
0
 40
0
 40
0
 40
1
 40
1
 40
1
 40
1
 10
555.068063
 20
352.205224
 30
0.0
 10
554.884317
 20
351.290206
 30
0.0
 10
554.605030
 20
350.639773
 30
0.0
 10
554.230201
 20
350.253922
 30
0.0
  0
SPLINE
  5
180
100
AcDbEntity
  8
Layer_1
 62
7
100
AcDbSpline
 70
8
 71
3
 72
8
 73
4
 74
0
 40
0
 40
0
 40
0
 40
0
 40
1
 40
1
 40
1
 40
1
 10
554.230201
 20
350.253922
 30
0.0
 10
553.855391
 20
349.868072
 30
0.0
 10
553.322556
 20
349.675147
 30
0.0
 10
552.631695
 20
349.675147
 30
0.0
  0
SPLINE
  5
181
100
AcDbEntity
  8
Layer_1
 62
7
100
AcDbSpline
 70
8
 71
3
 72
8
 73
4
 74
0
 40
0
 40
0
 40
0
 40
0
 40
1
 40
1
 40
1
 40
1
 10
552.631695
 20
349.675147
 30
0.0
 10
551.724030
 20
349.675147
 30
0.0
 10
551.047873
 20
349.945242
 30
0.0
 10
550.603222
 20
350.485432
 30
0.0
  0
SPLINE
  5
182
100
AcDbEntity
  8
Layer_1
 62
7
100
AcDbSpline
 70
8
 71
3
 72
8
 73
4
 74
0
 40
0
 40
0
 40
0
 40
0
 40
1
 40
1
 40
1
 40
1
 10
550.603222
 20
350.485432
 30
0.0
 10
550.162241
 20
351.021950
 30
0.0
 10
549.941750
 20
351.843260
 30
0.0
 10
549.941750
 20
352.949365
 30
0.0
  0
SPLINE
  5
183
100
AcDbEntity
  8
Layer_1
 62
7
100
AcDbSpline
 70
8
 71
3
 72
8
 73
4
 74
0
 40
0
 40
0
 40
0
 40
0
 40
1
 40
1
 40
1
 40
1
 10
549.941750
 20
352.949365
 30
0.0
 10
549.941750
 20
353.471182
 30
0.0
 10
549.991365
 20
353.994837
 30
0.0
 10
550.090594
 20
354.520329
 30
0.0
  0
SPLINE
  5
184
100
AcDbEntity
  8
Layer_1
 62
7
100
AcDbSpline
 70
8
 71
3
 72
8
 73
4
 74
0
 40
0
 40
0
 40
0
 40
0
 40
1
 40
1
 40
1
 40
1
 10
550.090594
 20
354.520329
 30
0.0
 10
550.189805
 20
355.045821
 30
0.0
 10
550.336795
 20
355.571313
 30
0.0
 10
550.531566
 20
356.096806
 30
0.0
  0
LINE
  5
185
100
AcDbEntity
  8
Layer_1
 62
7
100
AcDbLine
 10
550.531566
 20
356.096806
 30
0.0
 11
552.323000
 21
356.096806
 31
0.0
  0
SPLINE
  5
186
100
AcDbEntity
  8
Layer_1
 62
7
100
AcDbSpline
 70
8
 71
3
 72
8
 73
4
 74
0
 40
0
 40
0
 40
0
 40
0
 40
1
 40
1
 40
1
 40
1
 10
552.323000
 20
356.096806
 30
0.0
 10
552.043732
 20
355.571313
 30
0.0
 10
551.832432
 20
355.064195
 30
0.0
 10
551.689101
 20
354.575450
 30
0.0
  0
SPLINE
  5
187
100
AcDbEntity
  8
Layer_1
 62
7
100
AcDbSpline
 70
8
 71
3
 72
8
 73
4
 74
0
 40
0
 40
0
 40
0
 40
0
 40
1
 40
1
 40
1
 40
1
 10
551.689101
 20
354.575450
 30
0.0
 10
551.549476
 20
354.083031
 30
0.0
 10
551.479664
 20
353.608986
 30
0.0
 10
551.479664
 20
353.153315
 30
0.0
  0
SPLINE
  5
188
100
AcDbEntity
  8
Layer_1
 62
7
100
AcDbSpline
 70
8
 71
3
 72
8
 73
4
 74
0
 40
0
 40
0
 40
0
 40
0
 40
1
 40
1
 40
1
 40
1
 10
551.479664
 20
353.153315
 30
0.0
 10
551.479664
 20
352.690294
 30
0.0
 10
551.556833
 20
352.335679
 30
0.0
 10
551.711170
 20
352.089470
 30
0.0
  0
SPLINE
  5
189
100
AcDbEntity
  8
Layer_1
 62
7
100
AcDbSpline
 70
8
 71
3
 72
8
 73
4
 74
0
 40
0
 40
0
 40
0
 40
0
 40
1
 40
1
 40
1
 40
1
 10
551.711170
 20
352.089470
 30
0.0
 10
551.865508
 20
351.843259
 30
0.0
 10
552.085990
 20
351.720154
 30
0.0
 10
552.372615
 20
351.720154
 30
0.0
  0
SPLINE
  5
18a
100
AcDbEntity
  8
Layer_1
 62
7
100
AcDbSpline
 70
8
 71
3
 72
8
 73
4
 74
0
 40
0
 40
0
 40
0
 40
0
 40
1
 40
1
 40
1
 40
1
 10
552.372615
 20
351.720154
 30
0.0
 10
552.629851
 20
351.720154
 30
0.0
 10
552.828291
 20
351.804674
 30
0.0
 10
552.967934
 20
351.973714
 30
0.0
  0
SPLINE
  5
18b
100
AcDbEntity
  8
Layer_1
 62
7
100
AcDbSpline
 70
8
 71
3
 72
8
 73
4
 74
0
 40
0
 40
0
 40
0
 40
0
 40
1
 40
1
 40
1
 40
1
 10
552.967934
 20
351.973714
 30
0.0
 10
553.107578
 20
352.139079
 30
0.0
 10
553.232518
 20
352.471646
 30
0.0
 10
553.342754
 20
352.971415
 30
0.0
  0
LINE
  5
18c
100
AcDbEntity
  8
Layer_1
 62
7
100
AcDbLine
 10
553.342754
 20
352.971415
 30
0.0
 11
553.524646
 21
353.792724
 31
0.0
  0
SPLINE
  5
18d
100
AcDbEntity
  8
Layer_1
 62
7
100
AcDbSpline
 70
8
 71
3
 72
8
 73
4
 74
0
 40
0
 40
0
 40
0
 40
0
 40
1
 40
1
 40
1
 40
1
 10
553.524646
 20
353.792724
 30
0.0
 10
553.701035
 20
354.615872
 30
0.0
 10
553.982156
 20
355.218534
 30
0.0
 10
554.368010
 20
355.600710
 30
0.0
  0
SPLINE
  5
18e
100
AcDbEntity
  8
Layer_1
 62
7
100
AcDbSpline
 70
8
 71
3
 72
8
 73
4
 74
0
 40
0
 40
0
 40
0
 40
0
 40
1
 40
1
 40
1
 40
1
 10
554.368010
 20
355.600710
 30
0.0
 10
554.753865
 20
355.979211
 30
0.0
 10
555.273850
 20
356.168462
 30
0.0
 10
555.927966
 20
356.168462
 30
0.0
  0
SPLINE
  5
18f
100
AcDbEntity
  8
Layer_1
 62
7
100
AcDbSpline
 70
8
 71
3
 72
8
 73
4
 74
0
 40
0
 40
0
 40
0
 40
0
 40
1
 40
1
 40
1
 40
1
 10
555.927966
 20
356.168462
 30
0.0
 10
556.747426
 20
356.168462
 30
0.0
 10
557.377647
 20
355.903878
 30
0.0
 10
557.818629
 20
355.374712
 30
0.0
  0
SPLINE
  5
190
100
AcDbEntity
  8
Layer_1
 62
7
100
AcDbSpline
 70
8
 71
3
 72
8
 73
4
 74
0
 40
0
 40
0
 40
0
 40
0
 40
1
 40
1
 40
1
 40
1
 10
557.818629
 20
355.374712
 30
0.0
 10
558.259591
 20
354.845545
 30
0.0
 10
558.480073
 20
354.084869
 30
0.0
 10
558.480073
 20
353.092683
 30
0.0
  0
SPLINE
  5
191
100
AcDbEntity
  8
Layer_1
 62
7
100
AcDbSpline
 70
8
 71
3
 72
8
 73
4
 74
0
 40
0
 40
0
 40
0
 40
0
 40
1
 40
1
 40
1
 40
1
 10
558.480073
 20
353.092683
 30
0.0
 10
558.480073
 20
352.640685
 30
0.0
 10
558.445162
 20
352.175826
 30
0.0
 10
558.375340
 20
351.698107
 30
0.0
  0
SPLINE
  5
192
100
AcDbEntity
  8
Layer_1
 62
7
100
AcDbSpline
 70
8
 71
3
 72
8
 73
4
 74
0
 40
0
 40
0
 40
0
 40
0
 40
1
 40
1
 40
1
 40
1
 10
558.375340
 20
351.698107
 30
0.0
 10
558.309206
 20
351.220387
 30
0.0
 10
558.208152
 20
350.726131
 30
0.0
 10
558.072177
 20
350.215337
 30
0.0
  0
LINE
  5
193
100
AcDbEntity
  8
Layer_1
 62
7
100
AcDbLine
 10
558.072177
 20
350.215337
 30
0.0
 11
558.072177
 21
350.215337
 31
0.0
  0
LINE
  5
194
100
AcDbEntity
  8
Layer_1
 62
7
100
AcDbLine
 10
558.331257
 20
348.506572
 30
0.0
 11
558.331257
 21
346.472585
 31
0.0
  0
LINE
  5
195
100
AcDbEntity
  8
Layer_1
 62
7
100
AcDbLine
 10
558.331257
 20
346.472585
 30
0.0
 11
552.350573
 21
345.050450
 31
0.0
  0
LINE
  5
196
100
AcDbEntity
  8
Layer_1
 62
7
100
AcDbLine
 10
552.350573
 20
345.050450
 30
0.0
 11
558.331257
 21
343.639339
 31
0.0
  0
LINE
  5
197
100
AcDbEntity
  8
Layer_1
 62
7
100
AcDbLine
 10
558.331257
 20
343.639339
 30
0.0
 11
558.331257
 21
341.594331
 31
0.0
  0
LINE
  5
198
100
AcDbEntity
  8
Layer_1
 62
7
100
AcDbLine
 10
558.331257
 20
341.594331
 30
0.0
 11
552.350573
 21
340.183220
 31
0.0
  0
LINE
  5
199
100
AcDbEntity
  8
Layer_1
 62
7
100
AcDbLine
 10
552.350573
 20
340.183220
 30
0.0
 11
558.331257
 21
338.761085
 31
0.0
  0
LINE
  5
19a
100
AcDbEntity
  8
Layer_1
 62
7
100
AcDbLine
 10
558.331257
 20
338.761085
 30
0.0
 11
558.331257
 21
336.743637
 31
0.0
  0
LINE
  5
19b
100
AcDbEntity
  8
Layer_1
 62
7
100
AcDbLine
 10
558.331257
 20
336.743637
 30
0.0
 11
550.101601
 21
338.683915
 31
0.0
  0
LINE
  5
19c
100
AcDbEntity
  8
Layer_1
 62
7
100
AcDbLine
 10
550.101601
 20
338.683915
 30
0.0
 11
550.101601
 21
341.131309
 31
0.0
  0
LINE
  5
19d
100
AcDbEntity
  8
Layer_1
 62
7
100
AcDbLine
 10
550.101601
 20
341.131309
 30
0.0
 11
556.357903
 21
342.625103
 31
0.0
  0
LINE
  5
19e
100
AcDbEntity
  8
Layer_1
 62
7
100
AcDbLine
 10
556.357903
 20
342.625103
 30
0.0
 11
550.101601
 21
344.102361
 31
0.0
  0
LINE
  5
19f
100
AcDbEntity
  8
Layer_1
 62
7
100
AcDbLine
 10
550.101601
 20
344.102361
 30
0.0
 11
550.101601
 21
346.549756
 31
0.0
  0
LINE
  5
1a0
100
AcDbEntity
  8
Layer_1
 62
7
100
AcDbLine
 10
550.101601
 20
346.549756
 30
0.0
 11
558.331257
 21
348.506572
 31
0.0
  0
LINE
  5
1a1
100
AcDbEntity
  8
Layer_1
 62
7
100
AcDbLine
 10
558.331257
 20
348.506572
 30
0.0
 11
558.331257
 21
348.506572
 31
0.0
  0
LINE
  5
1a2
100
AcDbEntity
  8
Layer_1
 62
7
100
AcDbLine
 10
558.331257
 20
335.349061
 30
0.0
 11
558.331257
 21
333.226883
 31
0.0
  0
LINE
  5
1a3
100
AcDbEntity
  8
Layer_1
 62
7
100
AcDbLine
 10
558.331257
 20
333.226883
 30
0.0
 11
550.101601
 21
333.226883
 31
0.0
  0
LINE
  5
1a4
100
AcDbEntity
  8
Layer_1
 62
7
100
AcDbLine
 10
550.101601
 20
333.226883
 30
0.0
 11
550.101601
 21
335.349061
 31
0.0
  0
LINE
  5
1a5
100
AcDbEntity
  8
Layer_1
 62
7
100
AcDbLine
 10
550.101601
 20
335.349061
 30
0.0
 11
558.331257
 21
335.349061
 31
0.0
  0
LINE
  5
1a6
100
AcDbEntity
  8
Layer_1
 62
7
100
AcDbLine
 10
558.331257
 20
335.349061
 30
0.0
 11
558.331257
 21
335.349061
 31
0.0
  0
LINE
  5
1a7
100
AcDbEntity
  8
Layer_1
 62
7
100
AcDbLine
 10
558.331257
 20
332.118940
 30
0.0
 11
558.331257
 21
324.534215
 31
0.0
  0
LINE
  5
1a8
100
AcDbEntity
  8
Layer_1
 62
7
100
AcDbLine
 10
558.331257
 20
324.534215
 30
0.0
 11
556.727219
 21
324.534215
 31
0.0
  0
LINE
  5
1a9
100
AcDbEntity
  8
Layer_1
 62
7
100
AcDbLine
 10
556.727219
 20
324.534215
 30
0.0
 11
556.727219
 21
327.262734
 31
0.0
  0
LINE
  5
1aa
100
AcDbEntity
  8
Layer_1
 62
7
100
AcDbLine
 10
556.727219
 20
327.262734
 30
0.0
 11
550.101601
 21
327.262734
 31
0.0
  0
LINE
  5
1ab
100
AcDbEntity
  8
Layer_1
 62
7
100
AcDbLine
 10
550.101601
 20
327.262734
 30
0.0
 11
550.101601
 21
329.384912
 31
0.0
  0
LINE
  5
1ac
100
AcDbEntity
  8
Layer_1
 62
7
100
AcDbLine
 10
550.101601
 20
329.384912
 30
0.0
 11
556.727219
 21
329.384912
 31
0.0
  0
LINE
  5
1ad
100
AcDbEntity
  8
Layer_1
 62
7
100
AcDbLine
 10
556.727219
 20
329.384912
 30
0.0
 11
556.727219
 21
332.118940
 31
0.0
  0
LINE
  5
1ae
100
AcDbEntity
  8
Layer_1
 62
7
100
AcDbLine
 10
556.727219
 20
332.118940
 30
0.0
 11
558.331257
 21
332.118940
 31
0.0
  0
LINE
  5
1af
100
AcDbEntity
  8
Layer_1
 62
7
100
AcDbLine
 10
558.331257
 20
332.118940
 30
0.0
 11
558.331257
 21
332.118940
 31
0.0
  0
SPLINE
  5
1b0
100
AcDbEntity
  8
Layer_1
 62
7
100
AcDbSpline
 70
8
 71
3
 72
8
 73
4
 74
0
 40
0
 40
0
 40
0
 40
0
 40
1
 40
1
 40
1
 40
1
 10
550.553608
 20
316.916417
 30
0.0
 10
550.351499
 20
317.305940
 30
0.0
 10
550.198996
 20
317.712001
 30
0.0
 10
550.096097
 20
318.134601
 30
0.0
  0
SPLINE
  5
1b1
100
AcDbEntity
  8
Layer_1
 62
7
100
AcDbSpline
 70
8
 71
3
 72
8
 73
4
 74
0
 40
0
 40
0
 40
0
 40
0
 40
1
 40
1
 40
1
 40
1
 10
550.096097
 20
318.134601
 30
0.0
 10
549.993199
 20
318.557200
 30
0.0
 10
549.941750
 20
318.998172
 30
0.0
 10
549.941750
 20
319.457517
 30
0.0
  0
SPLINE
  5
1b2
100
AcDbEntity
  8
Layer_1
 62
7
100
AcDbSpline
 70
8
 71
3
 72
8
 73
4
 74
0
 40
0
 40
0
 40
0
 40
0
 40
1
 40
1
 40
1
 40
1
 10
549.941750
 20
319.457517
 30
0.0
 10
549.941750
 20
320.828214
 30
0.0
 10
550.323926
 20
321.914111
 30
0.0
 10
551.088278
 20
322.715208
 30
0.0
  0
SPLINE
  5
1b3
100
AcDbEntity
  8
Layer_1
 62
7
100
AcDbSpline
 70
8
 71
3
 72
8
 73
4
 74
0
 40
0
 40
0
 40
0
 40
0
 40
1
 40
1
 40
1
 40
1
 10
551.088278
 20
322.715208
 30
0.0
 10
551.856317
 20
323.516306
 30
0.0
 10
552.896278
 20
323.916854
 30
0.0
 10
554.208160
 20
323.916854
 30
0.0
  0
SPLINE
  5
1b4
100
AcDbEntity
  8
Layer_1
 62
7
100
AcDbSpline
 70
8
 71
3
 72
8
 73
4
 74
0
 40
0
 40
0
 40
0
 40
0
 40
1
 40
1
 40
1
 40
1
 10
554.208160
 20
323.916854
 30
0.0
 10
555.523729
 20
323.916854
 30
0.0
 10
556.563690
 20
323.516306
 30
0.0
 10
557.328042
 20
322.715208
 30
0.0
  0
SPLINE
  5
1b5
100
AcDbEntity
  8
Layer_1
 62
7
100
AcDbSpline
 70
8
 71
3
 72
8
 73
4
 74
0
 40
0
 40
0
 40
0
 40
0
 40
1
 40
1
 40
1
 40
1
 10
557.328042
 20
322.715208
 30
0.0
 10
558.096063
 20
321.914111
 30
0.0
 10
558.480073
 20
320.828214
 30
0.0
 10
558.480073
 20
319.457517
 30
0.0
  0
SPLINE
  5
1b6
100
AcDbEntity
  8
Layer_1
 62
7
100
AcDbSpline
 70
8
 71
3
 72
8
 73
4
 74
0
 40
0
 40
0
 40
0
 40
0
 40
1
 40
1
 40
1
 40
1
 10
558.480073
 20
319.457517
 30
0.0
 10
558.480073
 20
318.998172
 30
0.0
 10
558.428633
 20
318.557200
 30
0.0
 10
558.325754
 20
318.134601
 30
0.0
  0
SPLINE
  5
1b7
100
AcDbEntity
  8
Layer_1
 62
7
100
AcDbSpline
 70
8
 71
3
 72
8
 73
4
 74
0
 40
0
 40
0
 40
0
 40
0
 40
1
 40
1
 40
1
 40
1
 10
558.325754
 20
318.134601
 30
0.0
 10
558.222856
 20
317.712001
 30
0.0
 10
558.070352
 20
317.305940
 30
0.0
 10
557.868243
 20
316.916417
 30
0.0
  0
LINE
  5
1b8
100
AcDbEntity
  8
Layer_1
 62
7
100
AcDbLine
 10
557.868243
 20
316.916417
 30
0.0
 11
556.164976
 21
316.916417
 31
0.0
  0
SPLINE
  5
1b9
100
AcDbEntity
  8
Layer_1
 62
7
100
AcDbSpline
 70
8
 71
3
 72
8
 73
4
 74
0
 40
0
 40
0
 40
0
 40
0
 40
1
 40
1
 40
1
 40
1
 10
556.164976
 20
316.916417
 30
0.0
 10
556.433237
 20
317.309627
 30
0.0
 10
556.629843
 20
317.697316
 30
0.0
 10
556.754792
 20
318.079483
 30
0.0
  0
SPLINE
  5
1ba
100
AcDbEntity
  8
Layer_1
 62
7
100
AcDbSpline
 70
8
 71
3
 72
8
 73
4
 74
0
 40
0
 40
0
 40
0
 40
0
 40
1
 40
1
 40
1
 40
1
 10
556.754792
 20
318.079483
 30
0.0
 10
556.879722
 20
318.461668
 30
0.0
 10
556.942188
 20
318.864060
 30
0.0
 10
556.942188
 20
319.286660
 30
0.0
  0
SPLINE
  5
1bb
100
AcDbEntity
  8
Layer_1
 62
7
100
AcDbSpline
 70
8
 71
3
 72
8
 73
4
 74
0
 40
0
 40
0
 40
0
 40
0
 40
1
 40
1
 40
1
 40
1
 10
556.942188
 20
319.286660
 30
0.0
 10
556.942188
 20
320.043655
 30
0.0
 10
556.699655
 20
320.638965
 30
0.0
 10
556.214590
 20
321.072590
 30
0.0
  0
SPLINE
  5
1bc
100
AcDbEntity
  8
Layer_1
 62
7
100
AcDbSpline
 70
8
 71
3
 72
8
 73
4
 74
0
 40
0
 40
0
 40
0
 40
0
 40
1
 40
1
 40
1
 40
1
 10
556.214590
 20
321.072590
 30
0.0
 10
555.729526
 20
321.506215
 30
0.0
 10
555.060715
 20
321.723028
 30
0.0
 10
554.208160
 20
321.723028
 30
0.0
  0
SPLINE
  5
1bd
100
AcDbEntity
  8
Layer_1
 62
7
100
AcDbSpline
 70
8
 71
3
 72
8
 73
4
 74
0
 40
0
 40
0
 40
0
 40
0
 40
1
 40
1
 40
1
 40
1
 10
554.208160
 20
321.723028
 30
0.0
 10
553.359292
 20
321.723028
 30
0.0
 10
552.692325
 20
321.506215
 30
0.0
 10
552.207261
 20
321.072590
 30
0.0
  0
SPLINE
  5
1be
100
AcDbEntity
  8
Layer_1
 62
7
100
AcDbSpline
 70
8
 71
3
 72
8
 73
4
 74
0
 40
0
 40
0
 40
0
 40
0
 40
1
 40
1
 40
1
 40
1
 10
552.207261
 20
321.072590
 30
0.0
 10
551.722196
 20
320.638965
 30
0.0
 10
551.479664
 20
320.043655
 30
0.0
 10
551.479664
 20
319.286660
 30
0.0
  0
SPLINE
  5
1bf
100
AcDbEntity
  8
Layer_1
 62
7
100
AcDbSpline
 70
8
 71
3
 72
8
 73
4
 74
0
 40
0
 40
0
 40
0
 40
0
 40
1
 40
1
 40
1
 40
1
 10
551.479664
 20
319.286660
 30
0.0
 10
551.479664
 20
318.864060
 30
0.0
 10
551.542129
 20
318.461668
 30
0.0
 10
551.667059
 20
318.079483
 30
0.0
  0
SPLINE
  5
1c0
100
AcDbEntity
  8
Layer_1
 62
7
100
AcDbSpline
 70
8
 71
3
 72
8
 73
4
 74
0
 40
0
 40
0
 40
0
 40
0
 40
1
 40
1
 40
1
 40
1
 10
551.667059
 20
318.079483
 30
0.0
 10
551.792008
 20
317.697316
 30
0.0
 10
551.988614
 20
317.309627
 30
0.0
 10
552.256875
 20
316.916417
 30
0.0
  0
LINE
  5
1c1
100
AcDbEntity
  8
Layer_1
 62
7
100
AcDbLine
 10
552.256875
 20
316.916417
 30
0.0
 11
550.553608
 21
316.916417
 31
0.0
  0
LINE
  5
1c2
100
AcDbEntity
  8
Layer_1
 62
7
100
AcDbLine
 10
550.553608
 20
316.916417
 30
0.0
 11
550.553608
 21
316.916417
 31
0.0
  0
LINE
  5
1c3
100
AcDbEntity
  8
Layer_1
 62
7
100
AcDbLine
 10
558.331257
 20
315.152528
 30
0.0
 11
558.331257
 21
313.030358
 31
0.0
  0
LINE
  5
1c4
100
AcDbEntity
  8
Layer_1
 62
7
100
AcDbLine
 10
558.331257
 20
313.030358
 30
0.0
 11
555.194837
 21
313.030358
 31
0.0
  0
LINE
  5
1c5
100
AcDbEntity
  8
Layer_1
 62
7
100
AcDbLine
 10
555.194837
 20
313.030358
 30
0.0
 11
555.194837
 21
309.899441
 31
0.0
  0
LINE
  5
1c6
100
AcDbEntity
  8
Layer_1
 62
7
100
AcDbLine
 10
555.194837
 20
309.899441
 30
0.0
 11
558.331257
 21
309.899441
 31
0.0
  0
LINE
  5
1c7
100
AcDbEntity
  8
Layer_1
 62
7
100
AcDbLine
 10
558.331257
 20
309.899441
 30
0.0
 11
558.331257
 21
307.777271
 31
0.0
  0
LINE
  5
1c8
100
AcDbEntity
  8
Layer_1
 62
7
100
AcDbLine
 10
558.331257
 20
307.777271
 30
0.0
 11
550.101601
 21
307.777271
 31
0.0
  0
LINE
  5
1c9
100
AcDbEntity
  8
Layer_1
 62
7
100
AcDbLine
 10
550.101601
 20
307.777271
 30
0.0
 11
550.101601
 21
309.899441
 31
0.0
  0
LINE
  5
1ca
100
AcDbEntity
  8
Layer_1
 62
7
100
AcDbLine
 10
550.101601
 20
309.899441
 30
0.0
 11
553.590799
 21
309.899441
 31
0.0
  0
LINE
  5
1cb
100
AcDbEntity
  8
Layer_1
 62
7
100
AcDbLine
 10
553.590799
 20
309.899441
 30
0.0
 11
553.590799
 21
313.030358
 31
0.0
  0
LINE
  5
1cc
100
AcDbEntity
  8
Layer_1
 62
7
100
AcDbLine
 10
553.590799
 20
313.030358
 30
0.0
 11
550.101601
 21
313.030358
 31
0.0
  0
LINE
  5
1cd
100
AcDbEntity
  8
Layer_1
 62
7
100
AcDbLine
 10
550.101601
 20
313.030358
 30
0.0
 11
550.101601
 21
315.152528
 31
0.0
  0
LINE
  5
1ce
100
AcDbEntity
  8
Layer_1
 62
7
100
AcDbLine
 10
550.101601
 20
315.152528
 30
0.0
 11
558.331257
 21
315.152528
 31
0.0
  0
LINE
  5
1cf
100
AcDbEntity
  8
Layer_1
 62
7
100
AcDbLine
 10
558.331257
 20
315.152528
 30
0.0
 11
558.331257
 21
315.152528
 31
0.0
  0
ENDSEC
  0
SECTION
  2
OBJECTS
  0
DICTIONARY
  5
C
330
0
100
AcDbDictionary
  3
ACAD_GROUP
350
D
  3
ACAD_MLINESTYLE
350
17
  0
DICTIONARY
  5
D
330
C
100
AcDbDictionary
  0
DICTIONARY
  5
1A
330
C
100
AcDbDictionary
  0
DICTIONARY
  5
17
330
C
100
AcDbDictionary
  3
STANDARD
350
18
  0
DICTIONARY
  5
19
330
C
100
AcDbDictionary
  0
ENDSEC
  0
EOF
