<?xml version="1.0" encoding="UTF-8" standalone="no"?>
<!-- Created with Inkscape (http://www.inkscape.org/) -->

<svg
   xmlns:dc="http://purl.org/dc/elements/1.1/"
   xmlns:cc="http://creativecommons.org/ns#"
   xmlns:rdf="http://www.w3.org/1999/02/22-rdf-syntax-ns#"
   xmlns:svg="http://www.w3.org/2000/svg"
   xmlns="http://www.w3.org/2000/svg"
   xmlns:sodipodi="http://sodipodi.sourceforge.net/DTD/sodipodi-0.dtd"
   xmlns:inkscape="http://www.inkscape.org/namespaces/inkscape"
   width="650mm"
   height="400mm"
   viewBox="0 0 2303.1496 1417.3228"
   id="svg2"
   version="1.1"
   inkscape:version="0.91 r13725"
   sodipodi:docname="stitch box bottom and top.svg">
  <defs
     id="defs4" />
  <sodipodi:namedview
     id="base"
     pagecolor="#ffffff"
     bordercolor="#666666"
     borderopacity="1.0"
     inkscape:pageopacity="0.0"
     inkscape:pageshadow="2"
     inkscape:zoom="0.088388348"
     inkscape:cx="2827.662"
     inkscape:cy="65.719013"
     inkscape:document-units="mm"
     inkscape:current-layer="layer1"
     showgrid="false"
     inkscape:snap-object-midpoints="true"
     inkscape:window-width="1440"
     inkscape:window-height="849"
     inkscape:window-x="0"
     inkscape:window-y="25"
     inkscape:window-maximized="1"
     inkscape:object-nodes="true"
     inkscape:snap-intersection-paths="true"
     inkscape:object-paths="true"
     inkscape:snap-smooth-nodes="true"
     inkscape:snap-midpoints="true"
     inkscape:snap-bbox="true"
     inkscape:snap-nodes="true"
     inkscape:snap-bbox-edge-midpoints="true"
     inkscape:bbox-nodes="true" />
  <metadata
     id="metadata7">
    <rdf:RDF>
      <cc:Work
         rdf:about="">
        <dc:format>image/svg+xml</dc:format>
        <dc:type
           rdf:resource="http://purl.org/dc/dcmitype/StillImage" />
        <dc:title></dc:title>
      </cc:Work>
    </rdf:RDF>
  </metadata>
  <g
     inkscape:label="Layer 1"
     inkscape:groupmode="layer"
     id="layer1"
     transform="translate(0,364.96045)">
    <path
       style="fill:none;stroke:#0000ff;stroke-width:0.70709217;stroke-miterlimit:4;stroke-dasharray:none"
       d="m 1308.9715,50.407955 -10.6309,0 0,-52.7969 0,-10.6289 -61.6543,0 0,10.6289 -70.8652,0 0,-10.6289 -61.6543,0 0,10.6289 0,52.7969 -10.6309,0 0,70.865205 10.6309,0 0,70.8672 -10.6309,0 0,70.8652 10.6309,0 0,70.8653 -10.6309,0 0,70.8672 10.6309,0 0,70.86519 -10.6309,0 0,70.8672 10.6309,0 0,70.8652 -10.6309,0 0,70.8672 10.6309,0 0,70.8652 -10.6309,0 0,70.8672 10.6309,0 0,52.7949 0,10.6289 61.6543,0 0,-10.6289 70.8652,0 0,10.6289 61.6543,0 0,-10.6289 0,-52.7949 10.6309,0 0,-70.8672 -10.6309,0 0,-70.8652 10.6309,0 0,-70.8672 -10.6309,0 0,-70.8652 10.6309,0 0,-70.8672 -10.6309,0 0,-70.86519 10.6309,0 0,-70.86719 -10.6309,0 0,-70.8653 10.6309,0 0,-70.86522 -10.6309,0 0,-70.86719 10.6309,0 0,-70.865205 z"
       id="rect4163"
       inkscape:connector-curvature="0" />
    <path
       style="fill:none;stroke:#0000ff;stroke-width:0.70866144;stroke-miterlimit:4;stroke-dasharray:none"
       d="m 1396.3973,-263.68084 0,10.6308 -52.7969,0 -10.6289,0 0,70.8653 10.6289,0 0,70.8652 -10.6289,0 0,70.8652 10.6289,0 0,70.8653 -10.6289,0 0,70.8652 10.6289,0 0,70.8652 -10.6289,0 0,70.8653 10.6289,0 0,70.8652 -10.6289,0 0,70.8652 10.6289,0 0,70.8653 -10.6289,0 0,70.8652 10.6289,0 0,70.8652 -10.6289,0 0,70.86527 10.6289,0 0,70.86523 -10.6289,0 0,70.86524 10.6289,0 0,70.86523 -10.6289,0 0,74.1875 10.6289,0 53.5039,0 0,10.63281 70.8672,0 0,-10.63281 70.8652,0 0,10.63281 70.8672,0 0,-10.63281 70.8633,0 0,10.63281 70.8672,0 0,-10.63281 70.8652,0 0,10.63281 70.8672,0 0,-10.63281 70.8653,0 0,10.63281 70.8671,0 0,-10.63281 70.8653,0 0,10.63281 70.8672,0 0,-10.63281 52.7949,0 10.6289,0 0,-74.1875 -10.6289,0 0,-70.86523 10.6289,0 0,-70.86524 -10.6289,0 0,-70.86523 10.6289,0 0,-70.86527 -10.6289,0 0,-70.8652 10.6289,0 0,-70.8652 -10.6289,0 0,-70.8653 10.6289,0 0,-70.8652 -10.6289,0 0,-70.8652 10.6289,0 0,-70.8653 -10.6289,0 0,-70.8652 10.6289,0 0,-70.8652 -10.6289,0 0,-70.8653 10.6289,0 0,-70.8652 -10.6289,0 0,-70.8652 10.6289,0 0,-70.8653 -10.6289,0 -53.502,0 0,-10.6308 -70.8672,0 0,10.6308 -70.8652,0 0,-10.6308 -70.8672,0 0,10.6308 -70.8652,0 0,-10.6308 -70.8672,0 0,10.6308 -70.8652,0 0,-10.6308 -70.8672,0 0,10.6308 -70.8633,0 0,-10.6308 -70.8672,0 0,10.6308 -70.8652,0 0,-10.6308 -70.8672,0 z"
       id="rect4189"
       inkscape:connector-curvature="0" />
  </g>
</svg>
