<?xml version="1.0" encoding="UTF-8" standalone="no"?>
<!-- Created with Inkscape (http://www.inkscape.org/) -->

<svg
   xmlns:dc="http://purl.org/dc/elements/1.1/"
   xmlns:cc="http://creativecommons.org/ns#"
   xmlns:rdf="http://www.w3.org/1999/02/22-rdf-syntax-ns#"
   xmlns:svg="http://www.w3.org/2000/svg"
   xmlns="http://www.w3.org/2000/svg"
   xmlns:sodipodi="http://sodipodi.sourceforge.net/DTD/sodipodi-0.dtd"
   xmlns:inkscape="http://www.inkscape.org/namespaces/inkscape"
   width="650mm"
   height="400mm"
   viewBox="0 0 2303.1496 1417.3228"
   id="svg2"
   version="1.1"
   inkscape:version="0.91 r13725"
   sodipodi:docname="stitch box2.svg">
  <defs
     id="defs4" />
  <sodipodi:namedview
     id="base"
     pagecolor="#ffffff"
     bordercolor="#666666"
     borderopacity="1.0"
     inkscape:pageopacity="0.0"
     inkscape:pageshadow="2"
     inkscape:zoom="0.5"
     inkscape:cx="1993.3427"
     inkscape:cy="587.18465"
     inkscape:document-units="mm"
     inkscape:current-layer="layer1"
     showgrid="false"
     inkscape:snap-object-midpoints="true"
     inkscape:window-width="1440"
     inkscape:window-height="849"
     inkscape:window-x="0"
     inkscape:window-y="25"
     inkscape:window-maximized="1"
     inkscape:object-nodes="true"
     inkscape:snap-intersection-paths="true"
     inkscape:object-paths="true"
     inkscape:snap-smooth-nodes="true"
     inkscape:snap-midpoints="true"
     inkscape:snap-bbox="true"
     inkscape:snap-nodes="true"
     inkscape:snap-bbox-edge-midpoints="true"
     inkscape:bbox-nodes="true" />
  <metadata
     id="metadata7">
    <rdf:RDF>
      <cc:Work
         rdf:about="">
        <dc:format>image/svg+xml</dc:format>
        <dc:type
           rdf:resource="http://purl.org/dc/dcmitype/StillImage" />
        <dc:title />
      </cc:Work>
    </rdf:RDF>
  </metadata>
  <g
     inkscape:label="Layer 1"
     inkscape:groupmode="layer"
     id="layer1"
     transform="translate(0,364.96045)">
    <path
       style="fill:none;stroke:#0000ff;stroke-width:0.70709217;stroke-miterlimit:4;stroke-dasharray:none"
       d="m 1443.0665,-2073.1974 0,10.6309 -52.7969,0 -10.6289,0 0,61.6543 10.6289,0 0,70.8652 -10.6289,0 0,61.6543 10.6289,0 52.7969,0 0,10.6309 70.8652,0 0,-10.6309 70.8672,0 0,10.6309 70.8652,0 0,-10.6309 70.8653,0 0,10.6309 70.8672,0 0,-10.6309 70.8652,0 0,10.6309 70.8672,0 0,-10.6309 70.8652,0 0,10.6309 70.8672,0 0,-10.6309 70.8652,0 0,10.6309 70.8672,0 0,-10.6309 52.7949,0 10.6289,0 0,-61.6543 -10.6289,0 0,-70.8652 10.6289,0 0,-61.6543 -10.6289,0 -52.7949,0 0,-10.6309 -70.8672,0 0,10.6309 -70.8652,0 0,-10.6309 -70.8672,0 0,10.6309 -70.8652,0 0,-10.6309 -70.8672,0 0,10.6309 -70.8652,0 0,-10.6309 -70.8672,0 0,10.6309 -70.8653,0 0,-10.6309 -70.8652,0 0,10.6309 -70.8672,0 0,-10.6309 -70.8652,0 z"
       id="rect4163"
       inkscape:connector-curvature="0" />
    <path
       style="fill:none;stroke:#0000ff;stroke-width:0.70929742;stroke-miterlimit:4;stroke-dasharray:none"
       d="M 2471.1621 -2769.748 L 2471.1621 -2759.1172 L 2436.0781 -2759.1172 L 2425.4473 -2759.1172 L 2425.4473 -2706.3223 L 2436.0781 -2706.3223 L 2436.0781 -2635.4551 L 2425.4473 -2635.4551 L 2425.4473 -2564.5879 L 2436.0781 -2564.5879 L 2436.0781 -2493.7227 L 2425.4473 -2493.7227 L 2425.4473 -2422.8555 L 2436.0781 -2422.8555 L 2436.0781 -2351.9902 L 2425.4473 -2351.9902 L 2425.4473 -2281.123 L 2436.0781 -2281.123 L 2436.0781 -2210.2578 L 2425.4473 -2210.2578 L 2425.4473 -2139.3906 L 2436.0781 -2139.3906 L 2436.0781 -2068.5273 L 2425.4473 -2068.5273 L 2425.4473 -1997.6602 L 2436.0781 -1997.6602 L 2436.0781 -1926.7949 L 2425.4473 -1926.7949 L 2425.4473 -1873.998 L 2436.0781 -1873.998 L 2471.1621 -1873.998 L 2471.1621 -1863.3672 L 2542.0273 -1863.3672 L 2542.0273 -1873.998 L 2612.8926 -1873.998 L 2612.8926 -1863.3672 L 2683.7578 -1863.3672 L 2683.7578 -1873.998 L 2754.623 -1873.998 L 2754.623 -1863.3672 L 2825.4883 -1863.3672 L 2825.4883 -1873.998 L 2896.3535 -1873.998 L 2896.3535 -1863.3672 L 2967.2188 -1863.3672 L 2967.2188 -1873.998 L 3038.084 -1873.998 L 3038.084 -1863.3672 L 3108.9492 -1863.3672 L 3108.9492 -1873.998 L 3179.8145 -1873.998 L 3179.8145 -1863.3672 L 3250.6797 -1863.3672 L 3250.6797 -1873.998 L 3285.7617 -1873.998 L 3296.3926 -1873.998 L 3296.3926 -1926.7949 L 3285.7617 -1926.7949 L 3285.7617 -1997.6602 L 3296.3926 -1997.6602 L 3296.3926 -2068.5273 L 3285.7617 -2068.5273 L 3285.7617 -2139.3906 L 3296.3926 -2139.3906 L 3296.3926 -2210.2578 L 3285.7617 -2210.2578 L 3285.7617 -2281.123 L 3296.3926 -2281.123 L 3296.3926 -2351.9902 L 3285.7617 -2351.9902 L 3285.7617 -2422.8555 L 3296.3926 -2422.8555 L 3296.3926 -2493.7227 L 3285.7617 -2493.7227 L 3285.7617 -2564.5879 L 3296.3926 -2564.5879 L 3296.3926 -2635.4551 L 3285.7617 -2635.4551 L 3285.7617 -2706.3223 L 3296.3926 -2706.3223 L 3296.3926 -2759.1172 L 3285.7617 -2759.1172 L 3250.6797 -2759.1172 L 3250.6797 -2769.748 L 3179.8145 -2769.748 L 3179.8145 -2759.1172 L 3108.9492 -2759.1172 L 3108.9492 -2769.748 L 3038.084 -2769.748 L 3038.084 -2759.1172 L 2967.2188 -2759.1172 L 2967.2188 -2769.748 L 2896.3535 -2769.748 L 2896.3535 -2759.1172 L 2825.4883 -2759.1172 L 2825.4883 -2769.748 L 2754.623 -2769.748 L 2754.623 -2759.1172 L 2683.7578 -2759.1172 L 2683.7578 -2769.748 L 2612.8926 -2769.748 L 2612.8926 -2759.1172 L 2542.0273 -2759.1172 L 2542.0273 -2769.748 L 2471.1621 -2769.748 z "
       transform="translate(0,-364.96051)"
       id="rect4185" />
    <path
       style="fill:none;stroke:#0000ff;stroke-width:0.70965266;stroke-miterlimit:4;stroke-dasharray:none"
       d="M 2894.0176 -312.10742 L 2894.0176 -301.47656 L 2867.7949 -301.47656 L 2857.166 -301.47656 L 2857.166 -248.68164 L 2867.7949 -248.68164 L 2867.7949 -177.81445 L 2857.166 -177.81445 L 2857.166 -106.94922 L 2867.7949 -106.94922 L 2867.7949 -36.082031 L 2857.166 -36.082031 L 2857.166 34.783203 L 2867.7949 34.783203 L 2867.7949 105.65039 L 2857.166 105.65039 L 2857.166 176.51562 L 2867.7949 176.51562 L 2867.7949 247.38281 L 2857.166 247.38281 L 2857.166 318.24805 L 2867.7949 318.24805 L 2867.7949 389.11523 L 2857.166 389.11523 L 2857.166 459.98047 L 2867.7949 459.98047 L 2867.7949 530.8457 L 2857.166 530.8457 L 2857.166 583.64258 L 2867.7949 583.64258 L 2894.0176 583.64258 L 2894.0176 594.27344 L 2964.8828 594.27344 L 2964.8828 583.64258 L 3035.748 583.64258 L 3035.748 594.27344 L 3106.6133 594.27344 L 3106.6133 583.64258 L 3177.4785 583.64258 L 3177.4785 594.27344 L 3248.3438 594.27344 L 3248.3438 583.64258 L 3274.5664 583.64258 L 3285.1953 583.64258 L 3285.1953 530.84766 L 3274.5664 530.84766 L 3274.5664 459.98047 L 3285.1953 459.98047 L 3285.1953 389.11523 L 3274.5664 389.11523 L 3274.5664 318.24805 L 3285.1953 318.24805 L 3285.1953 247.38281 L 3274.5664 247.38281 L 3274.5664 176.51758 L 3285.1953 176.51758 L 3285.1953 105.65039 L 3274.5664 105.65039 L 3274.5664 34.785156 L 3285.1953 34.785156 L 3285.1953 -36.082031 L 3274.5664 -36.082031 L 3274.5664 -106.94727 L 3285.1953 -106.94727 L 3285.1953 -177.81445 L 3274.5664 -177.81445 L 3274.5664 -248.67969 L 3285.1953 -248.67969 L 3285.1953 -301.47656 L 3274.5664 -301.47656 L 3248.3438 -301.47656 L 3248.3438 -312.10742 L 3177.4785 -312.10742 L 3177.4785 -301.47656 L 3106.6133 -301.47656 L 3106.6133 -312.10742 L 3035.748 -312.10742 L 3035.748 -301.47656 L 2964.8828 -301.47656 L 2964.8828 -312.10742 L 2894.0176 -312.10742 z "
       transform="translate(0,-364.96051)"
       id="rect4187" />
    <path
       style="fill:none;stroke:#0000ff;stroke-width:0.70866144;stroke-miterlimit:4;stroke-dasharray:none"
       d="M 3494.7422 -1710.9238 L 3494.7422 -1700.293 L 3441.9453 -1700.293 L 3431.3164 -1700.293 L 3431.3164 -1629.4277 L 3441.9453 -1629.4277 L 3441.9453 -1558.5625 L 3431.3164 -1558.5625 L 3431.3164 -1487.6973 L 3441.9453 -1487.6973 L 3441.9453 -1416.832 L 3431.3164 -1416.832 L 3431.3164 -1345.9668 L 3441.9453 -1345.9668 L 3441.9453 -1275.1016 L 3431.3164 -1275.1016 L 3431.3164 -1204.2363 L 3441.9453 -1204.2363 L 3441.9453 -1133.3711 L 3431.3164 -1133.3711 L 3431.3164 -1062.5059 L 3441.9453 -1062.5059 L 3441.9453 -991.64062 L 3431.3164 -991.64062 L 3431.3164 -920.77539 L 3441.9453 -920.77539 L 3441.9453 -849.91016 L 3431.3164 -849.91016 L 3431.3164 -779.04492 L 3441.9453 -779.04492 L 3441.9453 -708.17969 L 3431.3164 -708.17969 L 3431.3164 -637.31445 L 3441.9453 -637.31445 L 3441.9453 -566.44922 L 3431.3164 -566.44922 L 3431.3164 -492.26172 L 3441.9453 -492.26172 L 3495.4492 -492.26172 L 3495.4492 -481.62891 L 3566.3164 -481.62891 L 3566.3164 -492.26172 L 3637.1816 -492.26172 L 3637.1816 -481.62891 L 3708.0488 -481.62891 L 3708.0488 -492.26172 L 3778.9121 -492.26172 L 3778.9121 -481.62891 L 3849.7793 -481.62891 L 3849.7793 -492.26172 L 3920.6445 -492.26172 L 3920.6445 -481.62891 L 3991.5117 -481.62891 L 3991.5117 -492.26172 L 4062.377 -492.26172 L 4062.377 -481.62891 L 4133.2441 -481.62891 L 4133.2441 -492.26172 L 4204.1094 -492.26172 L 4204.1094 -481.62891 L 4274.9766 -481.62891 L 4274.9766 -492.26172 L 4327.7715 -492.26172 L 4338.4004 -492.26172 L 4338.4004 -566.44922 L 4327.7715 -566.44922 L 4327.7715 -637.31445 L 4338.4004 -637.31445 L 4338.4004 -708.17969 L 4327.7715 -708.17969 L 4327.7715 -779.04492 L 4338.4004 -779.04492 L 4338.4004 -849.91016 L 4327.7715 -849.91016 L 4327.7715 -920.77539 L 4338.4004 -920.77539 L 4338.4004 -991.64062 L 4327.7715 -991.64062 L 4327.7715 -1062.5059 L 4338.4004 -1062.5059 L 4338.4004 -1133.3711 L 4327.7715 -1133.3711 L 4327.7715 -1204.2363 L 4338.4004 -1204.2363 L 4338.4004 -1275.1016 L 4327.7715 -1275.1016 L 4327.7715 -1345.9668 L 4338.4004 -1345.9668 L 4338.4004 -1416.832 L 4327.7715 -1416.832 L 4327.7715 -1487.6973 L 4338.4004 -1487.6973 L 4338.4004 -1558.5625 L 4327.7715 -1558.5625 L 4327.7715 -1629.4277 L 4338.4004 -1629.4277 L 4338.4004 -1700.293 L 4327.7715 -1700.293 L 4274.2695 -1700.293 L 4274.2695 -1710.9238 L 4203.4023 -1710.9238 L 4203.4023 -1700.293 L 4132.5371 -1700.293 L 4132.5371 -1710.9238 L 4061.6699 -1710.9238 L 4061.6699 -1700.293 L 3990.8047 -1700.293 L 3990.8047 -1710.9238 L 3919.9375 -1710.9238 L 3919.9375 -1700.293 L 3849.0723 -1700.293 L 3849.0723 -1710.9238 L 3778.2051 -1710.9238 L 3778.2051 -1700.293 L 3707.3418 -1700.293 L 3707.3418 -1710.9238 L 3636.4746 -1710.9238 L 3636.4746 -1700.293 L 3565.6094 -1700.293 L 3565.6094 -1710.9238 L 3494.7422 -1710.9238 z "
       transform="translate(0,-364.96051)"
       id="rect4189" />
    <g
       id="g4370"
       transform="translate(-40,1444)">
      <path
         inkscape:connector-curvature="0"
         id="rect4161"
         d="m 1446.6602,-715.24232 0,10.6308 -52.7968,0 -10.629,0 0,17.3614 10.629,0 0,70.8672 -10.629,0 0,70.8671 10.629,0 0,70.8672 -10.629,0 0,17.3614 10.629,0 52.7968,0 0,10.6289 70.8653,0 0,-10.6289 70.8671,0 0,10.6289 70.8653,0 0,-10.6289 70.8672,0 0,10.6289 70.8652,0 0,-10.6289 70.8652,0 0,10.6289 70.8672,0 0,-10.6289 70.8653,0 0,10.6289 70.8671,0 0,-10.6289 70.8653,0 0,10.6289 70.8671,0 0,-10.6289 52.795,0 10.6289,0 0,-17.3614 -10.6289,0 0,-70.8672 10.6289,0 0,-70.8671 -10.6289,0 0,-70.8672 10.6289,0 0,-17.3614 -10.6289,0 -52.795,0 0,-10.6308 -70.8671,0 0,10.6308 -70.8653,0 0,-10.6308 -70.8671,0 0,10.6308 -70.8653,0 0,-10.6308 -70.8672,0 0,10.6308 -70.8652,0 0,-10.6308 -70.8652,0 0,10.6308 -70.8672,0 0,-10.6308 -70.8653,0 0,10.6308 -70.8671,0 0,-10.6308 -70.8653,0 z"
         style="fill:none;stroke:#0000ff;stroke-width:0.70736748;stroke-miterlimit:4;stroke-dasharray:none" />
      <path
         style="fill:none;stroke:#ff00ff;stroke-width:0.70866144;stroke-miterlimit:4;stroke-dasharray:none"
         d="m 1763.7091,-580.95044 a 52.713779,52.713779 0 0 1 -52.7137,52.71378 52.713779,52.713779 0 0 1 -52.7138,-52.71378 52.713779,52.713779 0 0 1 52.7138,-52.71378 52.713779,52.713779 0 0 1 52.7137,52.71378 z"
         id="circle4280"
         inkscape:connector-curvature="0" />
      <path
         style="fill:none;stroke:#ff00ff;stroke-width:0.70866144;stroke-miterlimit:4;stroke-dasharray:none"
         d="m 2014.5642,-580.95044 a 52.713779,52.713779 0 0 1 -52.7137,52.71378 52.713779,52.713779 0 0 1 -52.7138,-52.71378 52.713779,52.713779 0 0 1 52.7138,-52.71378 52.713779,52.713779 0 0 1 52.7137,52.71378 z"
         id="circle4282"
         inkscape:connector-curvature="0" />
      <path
         d="m 1941.7919,-494.36257 -7.8906,-10.6836 7.4023,0 4.4727,6.48438 4.5312,-6.48438 7.4024,0 -7.8907,10.64453 8.2813,11.23047 -7.4024,0 -4.9218,-6.91406 -4.8633,6.91406 -7.4024,0 8.2813,-11.1914 z"
         style="font-style:normal;font-variant:normal;font-weight:bold;font-stretch:normal;font-size:medium;line-height:125%;font-family:sans-serif;-inkscape-font-specification:'sans-serif Bold';letter-spacing:0px;word-spacing:0px;fill:none;fill-opacity:1;stroke:#000000;stroke-width:0.70866144;stroke-linecap:butt;stroke-linejoin:miter;stroke-miterlimit:4;stroke-dasharray:none;stroke-opacity:1"
         id="path5432"
         inkscape:connector-curvature="0" />
      <path
         d="m 1970.2099,-488.69851 12.832,0 0,5.52734 -21.1914,0 0,-5.52734 10.6445,-9.39453 q 1.4258,-1.28906 2.1094,-2.51953 0.6836,-1.23047 0.6836,-2.5586 0,-2.05078 -1.3867,-3.30078 -1.3672,-1.25 -3.6524,-1.25 -1.7578,0 -3.8476,0.76172 -2.0899,0.74219 -4.4727,2.22656 l 0,-6.40625 q 2.5391,-0.83984 5.0195,-1.26953 2.4805,-0.44922 4.8633,-0.44922 5.2344,0 8.125,2.30469 2.9102,2.30469 2.9102,6.42578 0,2.38281 -1.2305,4.45313 -1.2305,2.05078 -5.1758,5.50781 l -6.2304,5.46875 z"
         style="font-style:normal;font-variant:normal;font-weight:bold;font-stretch:normal;font-size:medium;line-height:125%;font-family:sans-serif;-inkscape-font-specification:'sans-serif Bold';letter-spacing:0px;word-spacing:0px;fill:none;fill-opacity:1;stroke:#000000;stroke-width:0.70866144;stroke-linecap:butt;stroke-linejoin:miter;stroke-miterlimit:4;stroke-dasharray:none;stroke-opacity:1"
         id="path5434"
         inkscape:connector-curvature="0" />
      <path
         inkscape:connector-curvature="0"
         id="rect5416"
         d="m 1665.801,-518.60284 0,3.54297 0,31.88868 35.4317,0 0,-35.43165 -35.4317,0 z m 7.086,7.08594 21.2597,0 0,21.25977 -21.2597,0 0,-21.25977 z"
         style="color:#000000;font-style:normal;font-variant:normal;font-weight:normal;font-stretch:normal;font-size:medium;line-height:normal;font-family:sans-serif;text-indent:0;text-align:start;text-decoration:none;text-decoration-line:none;text-decoration-style:solid;text-decoration-color:#000000;letter-spacing:normal;word-spacing:normal;text-transform:none;direction:ltr;block-progression:tb;writing-mode:lr-tb;baseline-shift:baseline;text-anchor:start;white-space:normal;clip-rule:nonzero;display:inline;overflow:visible;visibility:visible;opacity:1;isolation:auto;mix-blend-mode:normal;color-interpolation:sRGB;color-interpolation-filters:linearRGB;solid-color:#000000;solid-opacity:1;fill:none;fill-opacity:1;fill-rule:nonzero;stroke:#000000;stroke-width:0.70866144;stroke-linecap:butt;stroke-linejoin:miter;stroke-miterlimit:4;stroke-dasharray:none;stroke-dashoffset:0;stroke-opacity:1;color-rendering:auto;image-rendering:auto;shape-rendering:auto;text-rendering:auto;enable-background:accumulate" />
      <path
         inkscape:connector-curvature="0"
         id="rect5422"
         d="m 1727.5999,-517.56085 -4.7559,4.75586 11.918,11.91797 -11.918,11.91797 4.7559,4.75586 11.9179,-11.91797 11.918,11.91797 4.7539,-4.75586 -11.918,-11.91797 11.918,-11.91797 -4.7539,-4.75586 -11.918,11.91797 -11.9179,-11.91797 z"
         style="fill:none;stroke:#000000;stroke-width:0.70866144;stroke-miterlimit:4;stroke-dasharray:none" />
    </g>
    <g
       id="g4342"
       transform="translate(-35.9649,1508.0098)">
      <path
         style="fill:none;stroke:#ff00ff;stroke-width:0.70866144;stroke-miterlimit:4;stroke-dasharray:none"
         d="m 1889.6694,-1491.7218 a 52.713779,52.713779 0 0 1 -52.7138,52.7138 52.713779,52.713779 0 0 1 -52.7138,-52.7138 52.713779,52.713779 0 0 1 52.7138,-52.7138 52.713779,52.713779 0 0 1 52.7138,52.7138 z"
         id="path4138"
         inkscape:connector-curvature="0" />
      <path
         inkscape:connector-curvature="0"
         id="rect4159"
         d="m 1394.3966,-1703.631 0,10.6289 -10.6309,0 0,52.7969 10.6309,0 0,70.8652 -10.6309,0 0,70.8672 10.6309,0 0,70.8652 -10.6309,0 0,70.8672 10.6309,0 0,70.8653 -10.6309,0 0,70.8652 10.6309,0 0,70.8672 -10.6309,0 0,70.8652 10.6309,0 0,70.8672 -10.6309,0 0,70.86528 10.6309,0 0,70.8671 -10.6309,0 0,52.795 10.6309,0 0,10.6308 52.7949,0 0,-10.6308 70.8672,0 0,10.6308 70.8652,0 0,-10.6308 70.8672,0 0,10.6308 70.8652,0 0,-10.6308 70.8653,0 0,10.6308 70.8671,0 0,-10.6308 70.8653,0 0,10.6308 70.8672,0 0,-10.6308 70.8652,0 0,10.6308 70.8672,0 0,-10.6308 70.8652,0 0,10.6308 52.7969,0 0,-10.6308 10.6289,0 0,-52.795 -10.6289,0 0,-70.8671 10.6289,0 0,-70.86528 -10.6289,0 0,-70.8672 10.6289,0 0,-70.8652 -10.6289,0 0,-70.8672 10.6289,0 0,-70.8652 -10.6289,0 0,-70.8653 10.6289,0 0,-70.8672 -10.6289,0 0,-70.8652 10.6289,0 0,-70.8672 -10.6289,0 0,-70.8652 10.6289,0 0,-52.7969 -10.6289,0 0,-10.6289 -52.7969,0 0,10.6289 -70.8652,0 0,-10.6289 -70.8672,0 0,10.6289 -70.8652,0 0,-10.6289 -70.8672,0 0,10.6289 -70.8653,0 0,-10.6289 -70.8652,0 0,10.6289 -70.8672,0 0,-10.6289 -70.8652,0 0,10.6289 -70.8672,0 0,-10.6289 -70.8652,0 0,10.6289 -70.8672,0 0,-10.6289 -52.7949,0 z"
         style="fill:none;stroke:#0000ff;stroke-width:0.70809484;stroke-miterlimit:4;stroke-dasharray:none" />
      <path
         style="fill:none;stroke:#ff00ff;stroke-width:0.70866144;stroke-miterlimit:4;stroke-dasharray:none"
         d="m 1648.3897,-1491.7218 a 52.713779,52.713779 0 0 1 -52.7138,52.7138 52.713779,52.713779 0 0 1 -52.7137,-52.7138 52.713779,52.713779 0 0 1 52.7137,-52.7138 52.713779,52.713779 0 0 1 52.7138,52.7138 z"
         id="circle4205"
         inkscape:connector-curvature="0" />
      <path
         style="fill:none;stroke:#ff00ff;stroke-width:0.70866144;stroke-miterlimit:4;stroke-dasharray:none"
         d="m 2130.949,-1491.7218 a 52.713779,52.713779 0 0 1 -52.7138,52.7138 52.713779,52.713779 0 0 1 -52.7137,-52.7138 52.713779,52.713779 0 0 1 52.7137,-52.7138 52.713779,52.713779 0 0 1 52.7138,52.7138 z"
         id="circle4207"
         inkscape:connector-curvature="0" />
      <path
         style="fill:none;stroke:#ff00ff;stroke-width:0.70866144;stroke-miterlimit:4;stroke-dasharray:none"
         d="m 1648.3897,-1250.4422 a 52.713779,52.713779 0 0 1 -52.7138,52.7138 52.713779,52.713779 0 0 1 -52.7137,-52.7138 52.713779,52.713779 0 0 1 52.7137,-52.7137 52.713779,52.713779 0 0 1 52.7138,52.7137 z"
         id="circle4209"
         inkscape:connector-curvature="0" />
      <path
         style="fill:none;stroke:#ff00ff;stroke-width:0.70866144;stroke-miterlimit:4;stroke-dasharray:none"
         d="m 2130.949,-1250.4422 a 52.713779,52.713779 0 0 1 -52.7138,52.7138 52.713779,52.713779 0 0 1 -52.7137,-52.7138 52.713779,52.713779 0 0 1 52.7137,-52.7137 52.713779,52.713779 0 0 1 52.7138,52.7137 z"
         id="circle4213"
         inkscape:connector-curvature="0" />
      <path
         style="fill:none;stroke:#ff00ff;stroke-width:0.70866144;stroke-miterlimit:4;stroke-dasharray:none"
         d="m 1648.3897,-1009.1625 a 52.713779,52.713779 0 0 1 -52.7138,52.71377 52.713779,52.713779 0 0 1 -52.7137,-52.71377 52.713779,52.713779 0 0 1 52.7137,-52.7138 52.713779,52.713779 0 0 1 52.7138,52.7138 z"
         id="circle4215"
         inkscape:connector-curvature="0" />
      <path
         style="fill:none;stroke:#ff00ff;stroke-width:0.70866144;stroke-miterlimit:4;stroke-dasharray:none"
         d="m 1889.6694,-1009.1625 a 52.713779,52.713779 0 0 1 -52.7138,52.71377 52.713779,52.713779 0 0 1 -52.7138,-52.71377 52.713779,52.713779 0 0 1 52.7138,-52.7138 52.713779,52.713779 0 0 1 52.7138,52.7138 z"
         id="circle4217"
         inkscape:connector-curvature="0" />
      <path
         style="fill:none;stroke:#ff00ff;stroke-width:0.70866144;stroke-miterlimit:4;stroke-dasharray:none"
         d="m 2130.949,-1009.1625 a 52.713779,52.713779 0 0 1 -52.7138,52.71377 52.713779,52.713779 0 0 1 -52.7137,-52.71377 52.713779,52.713779 0 0 1 52.7137,-52.7138 52.713779,52.713779 0 0 1 52.7138,52.7138 z"
         id="circle4219"
         inkscape:connector-curvature="0" />
      <path
         id="path5453"
         transform="translate(0,-364.96051)"
         d="m 1697.7285,-1029.7188 -5.0117,5.0118 135.6836,135.68356 -133.1777,0 0,7.08594 133.1777,0 -135.6836,135.68359 5.0117,5.01172 135.6836,-135.68359 0,133.17773 7.0859,0 0,-133.17773 135.6836,135.68359 5.0118,-5.01172 -135.6836,-135.68359 133.1777,0 0,-7.08594 -133.1777,0 135.6836,-135.68356 -5.0118,-5.0118 -135.6836,135.68364 0,-133.17774 -7.0859,0 0,133.17774 -135.6836,-135.68364 z"
         style="color:#000000;font-style:normal;font-variant:normal;font-weight:normal;font-stretch:normal;font-size:medium;line-height:normal;font-family:sans-serif;text-indent:0;text-align:start;text-decoration:none;text-decoration-line:none;text-decoration-style:solid;text-decoration-color:#000000;letter-spacing:normal;word-spacing:normal;text-transform:none;direction:ltr;block-progression:tb;writing-mode:lr-tb;baseline-shift:baseline;text-anchor:start;white-space:normal;clip-rule:nonzero;display:inline;overflow:visible;visibility:visible;opacity:1;isolation:auto;mix-blend-mode:normal;color-interpolation:sRGB;color-interpolation-filters:linearRGB;solid-color:#000000;solid-opacity:1;fill:none;fill-opacity:1;fill-rule:evenodd;stroke:#000000;stroke-width:0.70866144;stroke-linecap:butt;stroke-linejoin:miter;stroke-miterlimit:4;stroke-dasharray:none;stroke-dashoffset:0;stroke-opacity:1;color-rendering:auto;image-rendering:auto;shape-rendering:auto;text-rendering:auto;enable-background:accumulate"
         inkscape:connector-curvature="0" />
      <path
         style="fill:none;stroke:#000000;stroke-width:0.70866144;stroke-miterlimit:4;stroke-dasharray:none"
         d="m 1583.759,-1602.6388 -4.7559,4.7559 11.918,11.9179 -11.918,11.918 4.7559,4.7559 11.9179,-11.918 11.918,11.918 4.7539,-4.7559 -11.918,-11.918 11.918,-11.9179 -4.7539,-4.7559 -11.918,11.918 -11.9179,-11.918 z"
         id="path4165"
         inkscape:connector-curvature="0" />
      <path
         inkscape:connector-curvature="0"
         id="path4173"
         d="m 1819.2398,-1604.576 0,3.543 0,31.8887 35.4317,0 0,-35.4317 -35.4317,0 z m 7.086,7.086 21.2597,0 0,21.2597 -21.2597,0 0,-21.2597 z"
         style="color:#000000;font-style:normal;font-variant:normal;font-weight:normal;font-stretch:normal;font-size:medium;line-height:normal;font-family:sans-serif;text-indent:0;text-align:start;text-decoration:none;text-decoration-line:none;text-decoration-style:solid;text-decoration-color:#000000;letter-spacing:normal;word-spacing:normal;text-transform:none;direction:ltr;block-progression:tb;writing-mode:lr-tb;baseline-shift:baseline;text-anchor:start;white-space:normal;clip-rule:nonzero;display:inline;overflow:visible;visibility:visible;opacity:1;isolation:auto;mix-blend-mode:normal;color-interpolation:sRGB;color-interpolation-filters:linearRGB;solid-color:#000000;solid-opacity:1;fill:none;fill-opacity:1;fill-rule:nonzero;stroke:#000000;stroke-width:0.70866144;stroke-linecap:butt;stroke-linejoin:miter;stroke-miterlimit:4;stroke-dasharray:none;stroke-dashoffset:0;stroke-opacity:1;color-rendering:auto;image-rendering:auto;shape-rendering:auto;text-rendering:auto;enable-background:accumulate" />
      <path
         style="fill:none;stroke:#000000;stroke-width:0.70866144;stroke-miterlimit:4;stroke-dasharray:none"
         d="m 2066.3183,-1602.6388 -4.7559,4.7559 11.918,11.9179 -11.918,11.918 4.7559,4.7559 11.9179,-11.918 11.918,11.918 4.7539,-4.7559 -11.918,-11.918 11.918,-11.9179 -4.7539,-4.7559 -11.918,11.918 -11.9179,-11.918 z"
         id="path4181"
         inkscape:connector-curvature="0" />
      <path
         inkscape:connector-curvature="0"
         id="path4185"
         d="m 2191.0894,-1268.158 -3.543,0 -31.8887,0 0,35.4317 35.4317,0 0,-35.4317 z m -7.086,7.086 0,21.2597 -21.2597,0 0,-21.2597 21.2597,0 z"
         style="color:#000000;font-style:normal;font-variant:normal;font-weight:normal;font-stretch:normal;font-size:medium;line-height:normal;font-family:sans-serif;text-indent:0;text-align:start;text-decoration:none;text-decoration-line:none;text-decoration-style:solid;text-decoration-color:#000000;letter-spacing:normal;word-spacing:normal;text-transform:none;direction:ltr;block-progression:tb;writing-mode:lr-tb;baseline-shift:baseline;text-anchor:start;white-space:normal;clip-rule:nonzero;display:inline;overflow:visible;visibility:visible;opacity:1;isolation:auto;mix-blend-mode:normal;color-interpolation:sRGB;color-interpolation-filters:linearRGB;solid-color:#000000;solid-opacity:1;fill:none;fill-opacity:1;fill-rule:nonzero;stroke:#000000;stroke-width:0.70866144;stroke-linecap:butt;stroke-linejoin:miter;stroke-miterlimit:4;stroke-dasharray:none;stroke-dashoffset:0;stroke-opacity:1;color-rendering:auto;image-rendering:auto;shape-rendering:auto;text-rendering:auto;enable-background:accumulate" />
      <path
         style="color:#000000;font-style:normal;font-variant:normal;font-weight:normal;font-stretch:normal;font-size:medium;line-height:normal;font-family:sans-serif;text-indent:0;text-align:start;text-decoration:none;text-decoration-line:none;text-decoration-style:solid;text-decoration-color:#000000;letter-spacing:normal;word-spacing:normal;text-transform:none;direction:ltr;block-progression:tb;writing-mode:lr-tb;baseline-shift:baseline;text-anchor:start;white-space:normal;clip-rule:nonzero;display:inline;overflow:visible;visibility:visible;opacity:1;isolation:auto;mix-blend-mode:normal;color-interpolation:sRGB;color-interpolation-filters:linearRGB;solid-color:#000000;solid-opacity:1;fill:none;fill-opacity:1;fill-rule:nonzero;stroke:#000000;stroke-width:0.70866144;stroke-linecap:butt;stroke-linejoin:miter;stroke-miterlimit:4;stroke-dasharray:none;stroke-dashoffset:0;stroke-opacity:1;color-rendering:auto;image-rendering:auto;shape-rendering:auto;text-rendering:auto;enable-background:accumulate"
         d="m 1518.2535,-1268.158 -3.543,0 -31.8887,0 0,35.4317 35.4317,0 0,-35.4317 z m -7.086,7.086 0,21.2597 -21.2597,0 0,-21.2597 21.2597,0 z"
         id="path4191"
         inkscape:connector-curvature="0" />
      <path
         inkscape:connector-curvature="0"
         id="path4199"
         d="m 1583.759,-931.59325 -4.7559,4.7559 11.918,11.9179 -11.918,11.918 4.7559,4.7559 11.9179,-11.918 11.918,11.918 4.7539,-4.7559 -11.918,-11.918 11.918,-11.9179 -4.7539,-4.7559 -11.918,11.918 -11.9179,-11.918 z"
         style="fill:none;stroke:#000000;stroke-width:0.70866144;stroke-miterlimit:4;stroke-dasharray:none" />
      <path
         style="color:#000000;font-style:normal;font-variant:normal;font-weight:normal;font-stretch:normal;font-size:medium;line-height:normal;font-family:sans-serif;text-indent:0;text-align:start;text-decoration:none;text-decoration-line:none;text-decoration-style:solid;text-decoration-color:#000000;letter-spacing:normal;word-spacing:normal;text-transform:none;direction:ltr;block-progression:tb;writing-mode:lr-tb;baseline-shift:baseline;text-anchor:start;white-space:normal;clip-rule:nonzero;display:inline;overflow:visible;visibility:visible;opacity:1;isolation:auto;mix-blend-mode:normal;color-interpolation:sRGB;color-interpolation-filters:linearRGB;solid-color:#000000;solid-opacity:1;fill:none;fill-opacity:1;fill-rule:nonzero;stroke:#000000;stroke-width:0.70866144;stroke-linecap:butt;stroke-linejoin:miter;stroke-miterlimit:4;stroke-dasharray:none;stroke-dashoffset:0;stroke-opacity:1;color-rendering:auto;image-rendering:auto;shape-rendering:auto;text-rendering:auto;enable-background:accumulate"
         d="m 1819.2398,-931.74007 0,3.543 0,31.8887 35.4317,0 0,-35.4317 -35.4317,0 z m 7.086,7.086 21.2597,0 0,21.2597 -21.2597,0 0,-21.2597 z"
         id="path4203"
         inkscape:connector-curvature="0" />
      <path
         inkscape:connector-curvature="0"
         id="path4211"
         d="m 2066.3183,-931.59325 -4.7559,4.7559 11.918,11.9179 -11.918,11.918 4.7559,4.7559 11.9179,-11.918 11.918,11.918 4.7539,-4.7559 -11.918,-11.918 11.918,-11.9179 -4.7539,-4.7559 -11.918,11.918 -11.9179,-11.918 z"
         style="fill:none;stroke:#000000;stroke-width:0.70866144;stroke-miterlimit:4;stroke-dasharray:none" />
      <path
         id="path4229"
         d="m 1480.1132,-1274.3695 a 3.5028412,3.5028412 0 0 1 -3.5028,3.5028 3.5028412,3.5028412 0 0 1 -3.5029,-3.5028 3.5028412,3.5028412 0 0 1 3.5029,-3.5028 3.5028412,3.5028412 0 0 1 3.5028,3.5028 z"
         style="fill:none;stroke:#000000;stroke-width:0.70866144;stroke-miterlimit:4;stroke-dasharray:none"
         inkscape:connector-curvature="0" />
      <path
         id="circle4231"
         d="m 1578.1476,-1606.9971 a 3.5028412,3.5028412 0 0 1 -3.5028,3.5029 3.5028412,3.5028412 0 0 1 -3.5029,-3.5029 3.5028412,3.5028412 0 0 1 3.5029,-3.5028 3.5028412,3.5028412 0 0 1 3.5028,3.5028 z"
         style="fill:none;stroke:#000000;stroke-width:0.70866144;stroke-miterlimit:4;stroke-dasharray:none"
         inkscape:connector-curvature="0" />
      <path
         id="circle4233"
         d="m 1864.3859,-1610.7875 a 3.5028412,3.5028412 0 0 1 -3.5028,3.5029 3.5028412,3.5028412 0 0 1 -3.5029,-3.5029 3.5028412,3.5028412 0 0 1 3.5029,-3.5028 3.5028412,3.5028412 0 0 1 3.5028,3.5028 z"
         style="fill:none;stroke:#000000;stroke-width:0.70866144;stroke-miterlimit:4;stroke-dasharray:none"
         inkscape:connector-curvature="0" />
      <path
         id="circle4235"
         d="m 2102.7692,-1606.9971 a 3.5028412,3.5028412 0 0 1 -3.5028,3.5029 3.5028412,3.5028412 0 0 1 -3.5029,-3.5029 3.5028412,3.5028412 0 0 1 3.5029,-3.5028 3.5028412,3.5028412 0 0 1 3.5028,3.5028 z"
         style="fill:none;stroke:#000000;stroke-width:0.70866144;stroke-miterlimit:4;stroke-dasharray:none"
         inkscape:connector-curvature="0" />
      <path
         id="circle4237"
         d="m 2200.8036,-1226.5148 a 3.5028412,3.5028412 0 0 1 -3.5028,3.5029 3.5028412,3.5028412 0 0 1 -3.5029,-3.5029 3.5028412,3.5028412 0 0 1 3.5029,-3.5028 3.5028412,3.5028412 0 0 1 3.5028,3.5028 z"
         style="fill:none;stroke:#000000;stroke-width:0.70866144;stroke-miterlimit:4;stroke-dasharray:none"
         inkscape:connector-curvature="0" />
      <path
         id="circle4239"
         d="m 2102.7692,-893.88721 a 3.5028412,3.5028412 0 0 1 -3.5028,3.50284 3.5028412,3.5028412 0 0 1 -3.5029,-3.50284 3.5028412,3.5028412 0 0 1 3.5029,-3.50284 3.5028412,3.5028412 0 0 1 3.5028,3.50284 z"
         style="fill:none;stroke:#000000;stroke-width:0.70866144;stroke-miterlimit:4;stroke-dasharray:none"
         inkscape:connector-curvature="0" />
      <path
         id="circle4241"
         d="m 1816.5312,-890.09686 a 3.5028412,3.5028412 0 0 1 -3.5029,3.50284 3.5028412,3.5028412 0 0 1 -3.5028,-3.50284 3.5028412,3.5028412 0 0 1 3.5028,-3.50284 3.5028412,3.5028412 0 0 1 3.5029,3.50284 z"
         style="fill:none;stroke:#000000;stroke-width:0.70866144;stroke-miterlimit:4;stroke-dasharray:none"
         inkscape:connector-curvature="0" />
      <path
         id="circle4243"
         d="m 1578.1476,-893.88721 a 3.5028412,3.5028412 0 0 1 -3.5028,3.50284 3.5028412,3.5028412 0 0 1 -3.5029,-3.50284 3.5028412,3.5028412 0 0 1 3.5029,-3.50284 3.5028412,3.5028412 0 0 1 3.5028,3.50284 z"
         style="fill:none;stroke:#000000;stroke-width:0.70866144;stroke-miterlimit:4;stroke-dasharray:none"
         inkscape:connector-curvature="0" />
    </g>
    <g
       id="g4333">
      <path
         id="path4183"
         d="m 2431.5527,-2075.8863 0,10.6309 0,61.6543 -10.6289,0 0,70.8652 10.6289,0 0,61.6563 26.3965,45.7207 -9.2051,5.3164 35.4336,61.3711 9.2051,-5.3145 35.4336,61.3711 -9.2051,5.3164 35.4317,61.3711 9.207,-5.3144 35.4316,61.371 -9.205,5.3145 35.4336,61.373 9.205,-5.3144 35.4336,61.3711 -9.205,5.3144 35.4316,61.3731 9.2051,-5.3164 35.4336,61.373 -9.2051,5.3145 35.4336,61.3711 9.2051,-5.3145 35.4335,61.3731 -9.207,5.3144 35.4336,61.3711 9.2051,-5.3144 26.3984,45.7226 0,17.3613 -10.6289,0 0,70.8672 10.6289,0 0,70.86721 -10.6289,0 0,70.86719 10.6289,0 0,17.36132 0,10.63086 26.7539,0 0,-10.63086 70.8653,0 0,10.63086 70.8652,0 0,-10.63086 70.8652,0 0,10.63086 70.8653,0 0,-10.63086 70.8652,0 0,10.63086 26.7539,0 0,-10.63086 0,-72.52734 10.6289,0 0,-70.86518 -10.6289,0 0,-70.8653 10.6289,0 0,-70.8652 -10.6289,0 0,-70.8653 10.6289,0 0,-70.8652 -10.6289,0 0,-70.8652 10.6289,0 0,-70.8653 -10.6289,0 0,-70.8652 10.6289,0 0,-70.8652 -10.6289,0 0,-70.8653 10.6289,0 0,-70.8652 -10.6289,0 0,-70.8652 10.6289,0 0,-70.8653 -10.6289,0 0,-70.8652 10.6289,0 0,-70.8652 -10.6289,0 0,-72.5293 0,-10.6309 -35.4375,0 0,10.6309 -70.8652,0 0,-10.6309 -70.8653,0 0,10.6309 -70.8652,0 0,-10.6309 -70.8652,0 0,10.6309 -70.8653,0 0,-10.6309 -70.8652,0 0,10.6309 -70.8652,0 0,-10.6309 -70.8653,0 0,10.6309 -70.8652,0 0,-10.6309 -70.8652,0 0,10.6309 -70.8653,0 0,-10.6309 -35.4375,0 z"
         style="fill:none;fill-rule:evenodd;stroke:#0000ff;stroke-width:0.70866132;stroke-linecap:butt;stroke-linejoin:miter;stroke-miterlimit:4;stroke-dasharray:none;stroke-opacity:1"
         inkscape:connector-curvature="0" />
      <path
         style="fill:none;stroke:#ff00ff;stroke-width:0.70866132;stroke-miterlimit:4;stroke-dasharray:none"
         d="m 3130.7421,-966.88623 a 52.713779,52.713779 0 0 1 -52.7138,52.71378 52.713779,52.713779 0 0 1 -52.7138,-52.71378 52.713779,52.713779 0 0 1 52.7138,-52.71377 52.713779,52.713779 0 0 1 52.7138,52.71377 z"
         id="circle4284"
         inkscape:connector-curvature="0" />
      <path
         d="m 3183.1824,-921.12451 q 1.0742,2.07031 1.6211,4.3164 0.5468,2.2461 0.5468,4.6875 0,7.28516 -4.0625,11.54297 -4.082,4.25782 -11.0546,4.25782 -6.9922,0 -11.0547,-4.25782 -4.0821,-4.25781 -4.0821,-11.54297 0,-2.4414 0.5469,-4.6875 0.5469,-2.24609 1.6211,-4.3164 l 6.0352,0 q -1.4258,2.08984 -2.0899,4.12109 -0.664,2.03125 -0.664,4.27735 0,4.02343 2.5781,6.32812 2.5781,2.30469 7.1094,2.30469 4.5117,0 7.0898,-2.30469 2.5781,-2.30469 2.5781,-6.32812 0,-2.2461 -0.664,-4.27735 -0.6641,-2.03125 -2.0899,-4.12109 l 6.0352,0 z"
         style="font-style:normal;font-variant:normal;font-weight:bold;font-stretch:normal;font-size:medium;line-height:125%;font-family:sans-serif;-inkscape-font-specification:'sans-serif Bold';letter-spacing:0px;word-spacing:0px;fill:none;fill-opacity:1;stroke:#000000;stroke-width:0.70866144;stroke-linecap:butt;stroke-linejoin:miter;stroke-miterlimit:4;stroke-dasharray:none;stroke-opacity:1"
         id="path4250"
         inkscape:connector-curvature="0" />
      <path
         d="m 3155.6238,-927.37451 0,-7.51953 23.4765,0 0,-13.20313 5.6836,0 0,20.72266 -29.1601,0 z"
         style="font-style:normal;font-variant:normal;font-weight:bold;font-stretch:normal;font-size:medium;line-height:125%;font-family:sans-serif;-inkscape-font-specification:'sans-serif Bold';letter-spacing:0px;word-spacing:0px;fill:none;fill-opacity:1;stroke:#000000;stroke-width:0.70866144;stroke-linecap:butt;stroke-linejoin:miter;stroke-miterlimit:4;stroke-dasharray:none;stroke-opacity:1"
         id="path4252"
         inkscape:connector-curvature="0" />
      <path
         d="m 3155.6238,-952.84326 0,-20.29297 5.6836,0 0,12.77344 5.4297,0 0,-12.01172 5.6836,0 0,12.01172 6.6796,0 0,-13.20313 5.6836,0 0,20.72266 -29.1601,0 z"
         style="font-style:normal;font-variant:normal;font-weight:bold;font-stretch:normal;font-size:medium;line-height:125%;font-family:sans-serif;-inkscape-font-specification:'sans-serif Bold';letter-spacing:0px;word-spacing:0px;fill:none;fill-opacity:1;stroke:#000000;stroke-width:0.70866144;stroke-linecap:butt;stroke-linejoin:miter;stroke-miterlimit:4;stroke-dasharray:none;stroke-opacity:1"
         id="path4254"
         inkscape:connector-curvature="0" />
      <path
         d="m 3179.4714,-997.88232 0,11.75781 5.3125,1.85547 0,7.55859 -29.1601,-10.80078 0,-8.96484 29.1601,-10.80083 0,7.55864 -5.3125,1.83594 z m -5.4101,9.88281 0,-7.98828 -11.6016,3.98437 11.6016,4.00391 z"
         style="font-style:normal;font-variant:normal;font-weight:bold;font-stretch:normal;font-size:medium;line-height:125%;font-family:sans-serif;-inkscape-font-specification:'sans-serif Bold';letter-spacing:0px;word-spacing:0px;fill:none;fill-opacity:1;stroke:#000000;stroke-width:0.70866144;stroke-linecap:butt;stroke-linejoin:miter;stroke-miterlimit:4;stroke-dasharray:none;stroke-opacity:1"
         id="path4256"
         inkscape:connector-curvature="0" />
      <path
         d="m 3168.5535,-1021.8081 q 0,-2.3633 -0.8789,-3.3789 -0.8789,-1.0352 -2.8907,-1.0352 -1.9922,0 -2.8515,1.0352 -0.8594,1.0156 -0.8594,3.3789 l 0,3.1641 7.4805,0 0,-3.1641 z m 5.1953,3.1641 11.0351,0 0,7.5195 -29.1601,0 0,-11.4844 q 0,-5.7617 1.9336,-8.4375 1.9336,-2.6953 6.1133,-2.6953 2.8906,0 4.746,1.4063 1.8555,1.3867 2.7344,4.1992 0.3516,-1.543 1.6016,-2.7539 1.2305,-1.2305 3.75,-2.4805 l 8.2812,-4.082 0,8.0078 -7.2461,3.5547 q -2.1875,1.0742 -2.9882,2.1875 -0.8008,1.0937 -0.8008,2.9297 l 0,2.1289 z"
         style="font-style:normal;font-variant:normal;font-weight:bold;font-stretch:normal;font-size:medium;line-height:125%;font-family:sans-serif;-inkscape-font-specification:'sans-serif Bold';letter-spacing:0px;word-spacing:0px;fill:none;fill-opacity:1;stroke:#000000;stroke-width:0.70866144;stroke-linecap:butt;stroke-linejoin:miter;stroke-miterlimit:4;stroke-dasharray:none;stroke-opacity:1"
         id="path4258"
         inkscape:connector-curvature="0" />
    </g>
    <g
       id="g4323">
      <path
         inkscape:connector-curvature="0"
         style="fill:none;fill-rule:evenodd;stroke:#0000ff;stroke-width:0.70866132;stroke-linecap:butt;stroke-linejoin:miter;stroke-miterlimit:4;stroke-dasharray:none;stroke-opacity:1"
         d="m 5396.3948,-2082.3525 0,10.6309 0,61.6543 10.6289,0 0,70.8652 -10.6289,0 0,61.6563 -26.3965,45.7207 9.2051,5.3164 -35.4336,61.3711 -9.2051,-5.3145 -35.4336,61.3711 9.2051,5.3164 -35.4317,61.3711 -9.207,-5.3144 -35.4316,61.371 9.205,5.3145 -35.4336,61.373 -9.205,-5.3144 -35.4336,61.3711 9.205,5.3144 -35.4316,61.3731 -9.2051,-5.3164 -35.4336,61.373 9.2051,5.3145 -35.4336,61.3711 -9.2051,-5.3145 -35.4335,61.3731 9.207,5.3144 -35.4336,61.3711 -9.2051,-5.3145 -26.3984,45.7227 0,17.3613 10.6289,0 0,70.8672 -10.6289,0 0,70.8672 10.6289,0 0,70.86719 -10.6289,0 0,17.36132 0,10.63086 -26.7539,0 0,-10.63086 -70.8653,0 0,10.63086 -70.8652,0 0,-10.63086 -70.8652,0 0,10.63086 -70.8653,0 0,-10.63086 -70.8652,0 0,10.63086 -26.7539,0 0,-10.63086 0,-72.52734 -10.6289,0 0,-70.86527 10.6289,0 0,-70.8652 -10.6289,0 0,-70.8652 10.6289,0 0,-70.8653 -10.6289,0 0,-70.8652 10.6289,0 0,-70.8652 -10.6289,0 0,-70.8653 10.6289,0 0,-70.8652 -10.6289,0 0,-70.8652 10.6289,0 0,-70.8653 -10.6289,0 0,-70.8652 10.6289,0 0,-70.8652 -10.6289,0 0,-70.8653 10.6289,0 0,-70.8652 -10.6289,0 0,-70.8652 10.6289,0 0,-72.5293 0,-10.6309 35.4375,0 0,10.6309 70.8652,0 0,-10.6309 70.8653,0 0,10.6309 70.8652,0 0,-10.6309 70.8652,0 0,10.6309 70.8653,0 0,-10.6309 70.8652,0 0,10.6309 70.8652,0 0,-10.6309 70.8653,0 0,10.6309 70.8652,0 0,-10.6309 70.8652,0 0,10.6309 70.8653,0 0,-10.6309 35.4375,0 z"
         id="path5369" />
      <path
         id="rect4260"
         d="m 4717.1865,-999.88483 65.4652,0 0,42.43372 -65.4652,0 z"
         style="fill:none;stroke:#ff00ff;stroke-width:0.70866144;stroke-miterlimit:4;stroke-dasharray:none" />
      <path
         d="m 4808.4512,-914.0293 6.1718,0 q -1.0742,2.40235 -1.621,4.6875 -0.5469,2.28516 -0.5469,4.31641 0,2.69531 0.7422,3.98437 0.7422,1.28907 2.3047,1.28907 1.1718,0 1.8359,-0.85938 0.6445,-0.8789 1.1133,-3.16406 l 0.6445,-3.20313 q 0.9766,-4.86328 2.9688,-6.91406 1.9921,-2.05078 5.664,-2.05078 4.8242,0 7.1875,2.87109 2.3438,2.85157 2.3438,8.73047 0,2.77344 -0.5274,5.56641 -0.5273,2.79297 -1.5625,5.58594 l -6.3476,0 q 1.4843,-2.79297 2.2461,-5.39063 0.7421,-2.61719 0.7421,-5.03906 0,-2.46094 -0.8203,-3.76953 -0.8203,-1.3086 -2.3437,-1.3086 -1.3672,0 -2.1094,0.89844 -0.7422,0.87891 -1.3281,3.53516 l -0.6445,2.91015 q -0.9375,4.375 -2.9883,6.40625 -2.0508,2.01172 -5.5274,2.01172 -4.3554,0 -6.6992,-2.8125 -2.3437,-2.8125 -2.3437,-8.08593 0,-2.40235 0.3711,-4.94141 0.3515,-2.53906 1.0742,-5.25391 z"
         style="font-style:normal;font-variant:normal;font-weight:bold;font-stretch:normal;font-size:medium;line-height:125%;font-family:sans-serif;-inkscape-font-specification:'sans-serif Bold';letter-spacing:0px;word-spacing:0px;fill:none;fill-opacity:1;stroke:#000000;stroke-width:0.70866144;stroke-linecap:butt;stroke-linejoin:miter;stroke-miterlimit:4;stroke-dasharray:none;stroke-opacity:1"
         id="path4271"
         inkscape:connector-curvature="0" />
      <path
         d="m 4807.5332,-920.08398 0,-7.20704 21.1914,-5.03906 -21.1914,-5 0,-7.24609 21.1914,-5 -21.1914,-5.03906 0,-7.14844 29.1602,6.875 0,8.67187 -22.168,5.29297 22.168,5.23438 0,8.67187 -29.1602,6.9336 z"
         style="font-style:normal;font-variant:normal;font-weight:bold;font-stretch:normal;font-size:medium;line-height:125%;font-family:sans-serif;-inkscape-font-specification:'sans-serif Bold';letter-spacing:0px;word-spacing:0px;fill:none;fill-opacity:1;stroke:#000000;stroke-width:0.70866144;stroke-linecap:butt;stroke-linejoin:miter;stroke-miterlimit:4;stroke-dasharray:none;stroke-opacity:1"
         id="path4273"
         inkscape:connector-curvature="0" />
      <path
         d="m 4807.5332,-966.70508 0,-7.51953 29.1602,0 0,7.51953 -29.1602,0 z"
         style="font-style:normal;font-variant:normal;font-weight:bold;font-stretch:normal;font-size:medium;line-height:125%;font-family:sans-serif;-inkscape-font-specification:'sans-serif Bold';letter-spacing:0px;word-spacing:0px;fill:none;fill-opacity:1;stroke:#000000;stroke-width:0.70866144;stroke-linecap:butt;stroke-linejoin:miter;stroke-miterlimit:4;stroke-dasharray:none;stroke-opacity:1"
         id="path4275"
         inkscape:connector-curvature="0" />
      <path
         d="m 4807.5332,-978.15039 0,-26.87501 5.6836,0 0,9.66798 23.4766,0 0,7.51953 -23.4766,0 0,9.6875 -5.6836,0 z"
         style="font-style:normal;font-variant:normal;font-weight:bold;font-stretch:normal;font-size:medium;line-height:125%;font-family:sans-serif;-inkscape-font-specification:'sans-serif Bold';letter-spacing:0px;word-spacing:0px;fill:none;fill-opacity:1;stroke:#000000;stroke-width:0.70866144;stroke-linecap:butt;stroke-linejoin:miter;stroke-miterlimit:4;stroke-dasharray:none;stroke-opacity:1"
         id="path4277"
         inkscape:connector-curvature="0" />
      <path
         d="m 4835.0918,-1032.0176 q 1.0742,2.0703 1.6211,4.3164 0.5469,2.2461 0.5469,4.6875 0,7.2852 -4.0625,11.543 -4.0821,4.2578 -11.0547,4.2578 -6.9922,0 -11.0547,-4.2578 -4.082,-4.2578 -4.082,-11.543 0,-2.4414 0.5468,-4.6875 0.5469,-2.2461 1.6211,-4.3164 l 6.0352,0 q -1.4258,2.0899 -2.0899,4.1211 -0.664,2.0313 -0.664,4.2774 0,4.0234 2.5781,6.3281 2.5781,2.3047 7.1094,2.3047 4.5117,0 7.0898,-2.3047 2.5781,-2.3047 2.5781,-6.3281 0,-2.2461 -0.664,-4.2774 -0.6641,-2.0312 -2.0899,-4.1211 l 6.0352,0 z"
         style="font-style:normal;font-variant:normal;font-weight:bold;font-stretch:normal;font-size:medium;line-height:125%;font-family:sans-serif;-inkscape-font-specification:'sans-serif Bold';letter-spacing:0px;word-spacing:0px;fill:none;fill-opacity:1;stroke:#000000;stroke-width:0.70866144;stroke-linecap:butt;stroke-linejoin:miter;stroke-miterlimit:4;stroke-dasharray:none;stroke-opacity:1"
         id="path4279"
         inkscape:connector-curvature="0" />
      <path
         d="m 4807.5332,-1038.2676 0,-7.5195 11.1133,0 0,-11.0938 -11.1133,0 0,-7.5195 29.1602,0 0,7.5195 -12.3633,0 0,11.0938 12.3633,0 0,7.5195 -29.1602,0 z"
         style="font-style:normal;font-variant:normal;font-weight:bold;font-stretch:normal;font-size:medium;line-height:125%;font-family:sans-serif;-inkscape-font-specification:'sans-serif Bold';letter-spacing:0px;word-spacing:0px;fill:none;fill-opacity:1;stroke:#000000;stroke-width:0.70866144;stroke-linecap:butt;stroke-linejoin:miter;stroke-miterlimit:4;stroke-dasharray:none;stroke-opacity:1"
         id="path4281"
         inkscape:connector-curvature="0" />
    </g>
  </g>
</svg>
