  0
SECTION
  2
HEADER
  9
$ACADVER
  1
AC1014
  9
$HANDSEED
  5
FFFF
  9
$MEASUREMENT
 70
     1
  0
ENDSEC
  0
SECTION
  2
TABLES
  0
TABLE
  2
VPORT
  5
8
330
0
100
AcDbSymbolTable
 70
     4
  0
VPORT
  5
2E
330
8
100
AcDbSymbolTableRecord
100
AcDbViewportTableRecord
  2
*ACTIVE
 70
     0
 10
0.0
 20
0.0
 11
1.0
 21
1.0
 12
210.0
 22
148.5
 13
0.0
 23
0.0
 14
10.0
 24
10.0
 15
10.0
 25
10.0
 16
0.0
 26
0.0
 36
1.0
 17
0.0
 27
0.0
 37
0.0
 40
341.0
 41
1.24
 42
50.0
 43
0.0
 44
0.0
 50
0.0
 51
0.0
 71
     0
 72
   100
 73
     1
 74
     3
 75
     0
 76
     0
 77
     0
 78
     0
  0
ENDTAB
  0
TABLE
  2
LTYPE
  5
5
330
0
100
AcDbSymbolTable
 70
     1
  0
LTYPE
  5
14
330
5
100
AcDbSymbolTableRecord
100
AcDbLinetypeTableRecord
  2
BYBLOCK
 70
     0
  3

 72
    65
 73
     0
 40
0.0
  0
LTYPE
  5
15
330
5
100
AcDbSymbolTableRecord
100
AcDbLinetypeTableRecord
  2
BYLAYER
 70
     0
  3

 72
    65
 73
     0
 40
0.0
  0
LTYPE
  5
16
330
5
100
AcDbSymbolTableRecord
100
AcDbLinetypeTableRecord
  2
CONTINUOUS
 70
     0
  3
Solid line
 72
    65
 73
     0
 40
0.0
  0
ENDTAB
  0
TABLE
  2
LAYER
  5
2
100
AcDbSymbolTable
 70
2
  0
LAYER
  5
50
100
AcDbSymbolTableRecord
100
AcDbLayerTableRecord
  2
0
 70
0
  6
CONTINUOUS
  0
LAYER
  5
51
100
AcDbSymbolTableRecord
100
AcDbLayerTableRecord
  2
Layer_1
 70
0
  6
CONTINUOUS
  0
ENDTAB
  0
TABLE
  2
STYLE
  5
3
330
0
100
AcDbSymbolTable
 70
     1
  0
STYLE
  5
11
330
3
100
AcDbSymbolTableRecord
100
AcDbTextStyleTableRecord
  2
STANDARD
 70
     0
 40
0.0
 41
1.0
 50
0.0
 71
     0
 42
2.5
  3
txt
  4

  0
ENDTAB
  0
TABLE
  2
VIEW
  5
6
330
0
100
AcDbSymbolTable
 70
     0
  0
ENDTAB
  0
TABLE
  2
UCS
  5
7
330
0
100
AcDbSymbolTable
 70
     0
  0
ENDTAB
  0
TABLE
  2
APPID
  5
9
330
0
100
AcDbSymbolTable
 70
     2
  0
APPID
  5
12
330
9
100
AcDbSymbolTableRecord
100
AcDbRegAppTableRecord
  2
ACAD
 70
     0
  0
ENDTAB
  0
TABLE
  2
DIMSTYLE
  5
A
330
0
100
AcDbSymbolTable
 70
     1
  0
DIMSTYLE
105
27
330
A
100
AcDbSymbolTableRecord
100
AcDbDimStyleTableRecord
  2
ISO-25
 70
     0
  3

  4

  5

  6

  7

 40
1.0
 41
2.5
 42
0.625
 43
3.75
 44
1.25
 45
0.0
 46
0.0
 47
0.0
 48
0.0
140
2.5
141
2.5
142
0.0
143
0.03937007874016
144
1.0
145
0.0
146
1.0
147
0.625
 71
     0
 72
     0
 73
     0
 74
     0
 75
     0
 76
     0
 77
     1
 78
     8
170
     0
171
     3
172
     1
173
     0
174
     0
175
     0
176
     0
177
     0
178
     0
270
     2
271
     2
272
     2
273
     2
274
     3
340
11
275
     0
280
     0
281
     0
282
     0
283
     0
284
     8
285
     0
286
     0
287
     3
288
     0
  0
ENDTAB
  0
TABLE
  2
BLOCK_RECORD
  5
1
330
0
100
AcDbSymbolTable
 70
     1
  0
BLOCK_RECORD
  5
1F
330
1
100
AcDbSymbolTableRecord
100
AcDbBlockTableRecord
  2
*MODEL_SPACE
  0
BLOCK_RECORD
  5
1B
330
1
100
AcDbSymbolTableRecord
100
AcDbBlockTableRecord
  2
*PAPER_SPACE
  0
ENDTAB
  0
ENDSEC
  0
SECTION
  2
BLOCKS
  0
BLOCK
  5
20
330
1F
100
AcDbEntity
  8
0
100
AcDbBlockBegin
  2
*MODEL_SPACE
 70
     0
 10
0.0
 20
0.0
 30
0.0
  3
*MODEL_SPACE
  1

  0
ENDBLK
  5
21
330
1F
100
AcDbEntity
  8
0
100
AcDbBlockEnd
  0
BLOCK
  5
1C
330
1B
100
AcDbEntity
 67
     1
  8
0
100
AcDbBlockBegin
  2
*PAPER_SPACE
  1

  0
ENDBLK
  5
1D
330
1B
100
AcDbEntity
 67
     1
  8
0
100
AcDbBlockEnd
  0
ENDSEC
  0
SECTION
  2
ENTITIES
  0
LINE
  5
100
100
AcDbEntity
  8
Layer_1
 62
5
100
AcDbLine
 10
396.990768
 20
91.328439
 30
0.0
 11
396.990768
 21
88.328191
 31
0.0
  0
LINE
  5
101
100
AcDbEntity
  8
Layer_1
 62
5
100
AcDbLine
 10
396.990768
 20
88.328191
 30
0.0
 11
382.090337
 21
88.328191
 31
0.0
  0
LINE
  5
102
100
AcDbEntity
  8
Layer_1
 62
5
100
AcDbLine
 10
382.090337
 20
88.328191
 30
0.0
 11
379.090597
 21
88.328191
 31
0.0
  0
LINE
  5
103
100
AcDbEntity
  8
Layer_1
 62
5
100
AcDbLine
 10
379.090597
 20
88.328191
 30
0.0
 11
379.090597
 21
83.428418
 31
0.0
  0
LINE
  5
104
100
AcDbEntity
  8
Layer_1
 62
5
100
AcDbLine
 10
379.090597
 20
83.428418
 30
0.0
 11
382.090337
 21
83.428418
 31
0.0
  0
LINE
  5
105
100
AcDbEntity
  8
Layer_1
 62
5
100
AcDbLine
 10
382.090337
 20
83.428418
 30
0.0
 11
382.090337
 21
63.428119
 31
0.0
  0
LINE
  5
106
100
AcDbEntity
  8
Layer_1
 62
5
100
AcDbLine
 10
382.090337
 20
63.428119
 30
0.0
 11
379.090597
 21
63.428119
 31
0.0
  0
LINE
  5
107
100
AcDbEntity
  8
Layer_1
 62
5
100
AcDbLine
 10
379.090597
 20
63.428119
 30
0.0
 11
379.090597
 21
43.427849
 31
0.0
  0
LINE
  5
108
100
AcDbEntity
  8
Layer_1
 62
5
100
AcDbLine
 10
379.090597
 20
43.427849
 30
0.0
 11
382.090337
 21
43.427849
 31
0.0
  0
LINE
  5
109
100
AcDbEntity
  8
Layer_1
 62
5
100
AcDbLine
 10
382.090337
 20
43.427849
 30
0.0
 11
382.090337
 21
23.427550
 31
0.0
  0
LINE
  5
10a
100
AcDbEntity
  8
Layer_1
 62
5
100
AcDbLine
 10
382.090337
 20
23.427550
 30
0.0
 11
379.090597
 21
23.427550
 31
0.0
  0
LINE
  5
10b
100
AcDbEntity
  8
Layer_1
 62
5
100
AcDbLine
 10
379.090597
 20
23.427550
 30
0.0
 11
379.090597
 21
18.527777
 31
0.0
  0
LINE
  5
10c
100
AcDbEntity
  8
Layer_1
 62
5
100
AcDbLine
 10
379.090597
 20
18.527777
 30
0.0
 11
382.090337
 21
18.527777
 31
0.0
  0
LINE
  5
10d
100
AcDbEntity
  8
Layer_1
 62
5
100
AcDbLine
 10
382.090337
 20
18.527777
 30
0.0
 11
396.990768
 21
18.527777
 31
0.0
  0
LINE
  5
10e
100
AcDbEntity
  8
Layer_1
 62
5
100
AcDbLine
 10
396.990768
 20
18.527777
 30
0.0
 11
396.990768
 21
15.528066
 31
0.0
  0
LINE
  5
10f
100
AcDbEntity
  8
Layer_1
 62
5
100
AcDbLine
 10
396.990768
 20
15.528066
 30
0.0
 11
416.990530
 21
15.528066
 31
0.0
  0
LINE
  5
110
100
AcDbEntity
  8
Layer_1
 62
5
100
AcDbLine
 10
416.990530
 20
15.528066
 30
0.0
 11
416.990530
 21
18.527777
 31
0.0
  0
LINE
  5
111
100
AcDbEntity
  8
Layer_1
 62
5
100
AcDbLine
 10
416.990530
 20
18.527777
 30
0.0
 11
436.990800
 21
18.527777
 31
0.0
  0
LINE
  5
112
100
AcDbEntity
  8
Layer_1
 62
5
100
AcDbLine
 10
436.990800
 20
18.527777
 30
0.0
 11
436.990800
 21
15.528066
 31
0.0
  0
LINE
  5
113
100
AcDbEntity
  8
Layer_1
 62
5
100
AcDbLine
 10
436.990800
 20
15.528066
 30
0.0
 11
456.990563
 21
15.528066
 31
0.0
  0
LINE
  5
114
100
AcDbEntity
  8
Layer_1
 62
5
100
AcDbLine
 10
456.990563
 20
15.528066
 30
0.0
 11
456.990563
 21
18.527777
 31
0.0
  0
LINE
  5
115
100
AcDbEntity
  8
Layer_1
 62
5
100
AcDbLine
 10
456.990563
 20
18.527777
 30
0.0
 11
476.990862
 21
18.527777
 31
0.0
  0
LINE
  5
116
100
AcDbEntity
  8
Layer_1
 62
5
100
AcDbLine
 10
476.990862
 20
18.527777
 30
0.0
 11
476.990862
 21
15.528066
 31
0.0
  0
LINE
  5
117
100
AcDbEntity
  8
Layer_1
 62
5
100
AcDbLine
 10
476.990862
 20
15.528066
 30
0.0
 11
496.990596
 21
15.528066
 31
0.0
  0
LINE
  5
118
100
AcDbEntity
  8
Layer_1
 62
5
100
AcDbLine
 10
496.990596
 20
15.528066
 30
0.0
 11
496.990596
 21
18.527777
 31
0.0
  0
LINE
  5
119
100
AcDbEntity
  8
Layer_1
 62
5
100
AcDbLine
 10
496.990596
 20
18.527777
 30
0.0
 11
516.990330
 21
18.527777
 31
0.0
  0
LINE
  5
11a
100
AcDbEntity
  8
Layer_1
 62
5
100
AcDbLine
 10
516.990330
 20
18.527777
 30
0.0
 11
516.990330
 21
15.528066
 31
0.0
  0
LINE
  5
11b
100
AcDbEntity
  8
Layer_1
 62
5
100
AcDbLine
 10
516.990330
 20
15.528066
 30
0.0
 11
536.990629
 21
15.528066
 31
0.0
  0
LINE
  5
11c
100
AcDbEntity
  8
Layer_1
 62
5
100
AcDbLine
 10
536.990629
 20
15.528066
 30
0.0
 11
536.990629
 21
18.527777
 31
0.0
  0
LINE
  5
11d
100
AcDbEntity
  8
Layer_1
 62
5
100
AcDbLine
 10
536.990629
 20
18.527777
 30
0.0
 11
556.990391
 21
18.527777
 31
0.0
  0
LINE
  5
11e
100
AcDbEntity
  8
Layer_1
 62
5
100
AcDbLine
 10
556.990391
 20
18.527777
 30
0.0
 11
556.990391
 21
15.528066
 31
0.0
  0
LINE
  5
11f
100
AcDbEntity
  8
Layer_1
 62
5
100
AcDbLine
 10
556.990391
 20
15.528066
 30
0.0
 11
576.990662
 21
15.528066
 31
0.0
  0
LINE
  5
120
100
AcDbEntity
  8
Layer_1
 62
5
100
AcDbLine
 10
576.990662
 20
15.528066
 30
0.0
 11
576.990662
 21
18.527777
 31
0.0
  0
LINE
  5
121
100
AcDbEntity
  8
Layer_1
 62
5
100
AcDbLine
 10
576.990662
 20
18.527777
 30
0.0
 11
596.990424
 21
18.527777
 31
0.0
  0
LINE
  5
122
100
AcDbEntity
  8
Layer_1
 62
5
100
AcDbLine
 10
596.990424
 20
18.527777
 30
0.0
 11
596.990424
 21
15.528066
 31
0.0
  0
LINE
  5
123
100
AcDbEntity
  8
Layer_1
 62
5
100
AcDbLine
 10
596.990424
 20
15.528066
 30
0.0
 11
616.990694
 21
15.528066
 31
0.0
  0
LINE
  5
124
100
AcDbEntity
  8
Layer_1
 62
5
100
AcDbLine
 10
616.990694
 20
15.528066
 30
0.0
 11
616.990694
 21
18.527777
 31
0.0
  0
LINE
  5
125
100
AcDbEntity
  8
Layer_1
 62
5
100
AcDbLine
 10
616.990694
 20
18.527777
 30
0.0
 11
631.890617
 21
18.527777
 31
0.0
  0
LINE
  5
126
100
AcDbEntity
  8
Layer_1
 62
5
100
AcDbLine
 10
631.890617
 20
18.527777
 30
0.0
 11
634.890328
 21
18.527777
 31
0.0
  0
LINE
  5
127
100
AcDbEntity
  8
Layer_1
 62
5
100
AcDbLine
 10
634.890328
 20
18.527777
 30
0.0
 11
634.890328
 21
23.427550
 31
0.0
  0
LINE
  5
128
100
AcDbEntity
  8
Layer_1
 62
5
100
AcDbLine
 10
634.890328
 20
23.427550
 30
0.0
 11
631.890617
 21
23.427550
 31
0.0
  0
LINE
  5
129
100
AcDbEntity
  8
Layer_1
 62
5
100
AcDbLine
 10
631.890617
 20
23.427550
 30
0.0
 11
631.890617
 21
43.427849
 31
0.0
  0
LINE
  5
12a
100
AcDbEntity
  8
Layer_1
 62
5
100
AcDbLine
 10
631.890617
 20
43.427849
 30
0.0
 11
634.890328
 21
43.427849
 31
0.0
  0
LINE
  5
12b
100
AcDbEntity
  8
Layer_1
 62
5
100
AcDbLine
 10
634.890328
 20
43.427849
 30
0.0
 11
634.890328
 21
63.428119
 31
0.0
  0
LINE
  5
12c
100
AcDbEntity
  8
Layer_1
 62
5
100
AcDbLine
 10
634.890328
 20
63.428119
 30
0.0
 11
631.890617
 21
63.428119
 31
0.0
  0
LINE
  5
12d
100
AcDbEntity
  8
Layer_1
 62
5
100
AcDbLine
 10
631.890617
 20
63.428119
 30
0.0
 11
631.890617
 21
83.428418
 31
0.0
  0
LINE
  5
12e
100
AcDbEntity
  8
Layer_1
 62
5
100
AcDbLine
 10
631.890617
 20
83.428418
 30
0.0
 11
634.890328
 21
83.428418
 31
0.0
  0
LINE
  5
12f
100
AcDbEntity
  8
Layer_1
 62
5
100
AcDbLine
 10
634.890328
 20
83.428418
 30
0.0
 11
634.890328
 21
88.328191
 31
0.0
  0
LINE
  5
130
100
AcDbEntity
  8
Layer_1
 62
5
100
AcDbLine
 10
634.890328
 20
88.328191
 30
0.0
 11
631.890617
 21
88.328191
 31
0.0
  0
LINE
  5
131
100
AcDbEntity
  8
Layer_1
 62
5
100
AcDbLine
 10
631.890617
 20
88.328191
 30
0.0
 11
616.990694
 21
88.328191
 31
0.0
  0
LINE
  5
132
100
AcDbEntity
  8
Layer_1
 62
5
100
AcDbLine
 10
616.990694
 20
88.328191
 30
0.0
 11
616.990694
 21
91.328439
 31
0.0
  0
LINE
  5
133
100
AcDbEntity
  8
Layer_1
 62
5
100
AcDbLine
 10
616.990694
 20
91.328439
 30
0.0
 11
596.990424
 21
91.328439
 31
0.0
  0
LINE
  5
134
100
AcDbEntity
  8
Layer_1
 62
5
100
AcDbLine
 10
596.990424
 20
91.328439
 30
0.0
 11
596.990424
 21
88.328191
 31
0.0
  0
LINE
  5
135
100
AcDbEntity
  8
Layer_1
 62
5
100
AcDbLine
 10
596.990424
 20
88.328191
 30
0.0
 11
576.990662
 21
88.328191
 31
0.0
  0
LINE
  5
136
100
AcDbEntity
  8
Layer_1
 62
5
100
AcDbLine
 10
576.990662
 20
88.328191
 30
0.0
 11
576.990662
 21
91.328439
 31
0.0
  0
LINE
  5
137
100
AcDbEntity
  8
Layer_1
 62
5
100
AcDbLine
 10
576.990662
 20
91.328439
 30
0.0
 11
556.990391
 21
91.328439
 31
0.0
  0
LINE
  5
138
100
AcDbEntity
  8
Layer_1
 62
5
100
AcDbLine
 10
556.990391
 20
91.328439
 30
0.0
 11
556.990391
 21
88.328191
 31
0.0
  0
LINE
  5
139
100
AcDbEntity
  8
Layer_1
 62
5
100
AcDbLine
 10
556.990391
 20
88.328191
 30
0.0
 11
536.990629
 21
88.328191
 31
0.0
  0
LINE
  5
13a
100
AcDbEntity
  8
Layer_1
 62
5
100
AcDbLine
 10
536.990629
 20
88.328191
 30
0.0
 11
536.990629
 21
91.328439
 31
0.0
  0
LINE
  5
13b
100
AcDbEntity
  8
Layer_1
 62
5
100
AcDbLine
 10
536.990629
 20
91.328439
 30
0.0
 11
516.990330
 21
91.328439
 31
0.0
  0
LINE
  5
13c
100
AcDbEntity
  8
Layer_1
 62
5
100
AcDbLine
 10
516.990330
 20
91.328439
 30
0.0
 11
516.990330
 21
88.328191
 31
0.0
  0
LINE
  5
13d
100
AcDbEntity
  8
Layer_1
 62
5
100
AcDbLine
 10
516.990330
 20
88.328191
 30
0.0
 11
496.990596
 21
88.328191
 31
0.0
  0
LINE
  5
13e
100
AcDbEntity
  8
Layer_1
 62
5
100
AcDbLine
 10
496.990596
 20
88.328191
 30
0.0
 11
496.990596
 21
91.328439
 31
0.0
  0
LINE
  5
13f
100
AcDbEntity
  8
Layer_1
 62
5
100
AcDbLine
 10
496.990596
 20
91.328439
 30
0.0
 11
476.990862
 21
91.328439
 31
0.0
  0
LINE
  5
140
100
AcDbEntity
  8
Layer_1
 62
5
100
AcDbLine
 10
476.990862
 20
91.328439
 30
0.0
 11
476.990862
 21
88.328191
 31
0.0
  0
LINE
  5
141
100
AcDbEntity
  8
Layer_1
 62
5
100
AcDbLine
 10
476.990862
 20
88.328191
 30
0.0
 11
456.990563
 21
88.328191
 31
0.0
  0
LINE
  5
142
100
AcDbEntity
  8
Layer_1
 62
5
100
AcDbLine
 10
456.990563
 20
88.328191
 30
0.0
 11
456.990563
 21
91.328439
 31
0.0
  0
LINE
  5
143
100
AcDbEntity
  8
Layer_1
 62
5
100
AcDbLine
 10
456.990563
 20
91.328439
 30
0.0
 11
436.990800
 21
91.328439
 31
0.0
  0
LINE
  5
144
100
AcDbEntity
  8
Layer_1
 62
5
100
AcDbLine
 10
436.990800
 20
91.328439
 30
0.0
 11
436.990800
 21
88.328191
 31
0.0
  0
LINE
  5
145
100
AcDbEntity
  8
Layer_1
 62
5
100
AcDbLine
 10
436.990800
 20
88.328191
 30
0.0
 11
416.990530
 21
88.328191
 31
0.0
  0
LINE
  5
146
100
AcDbEntity
  8
Layer_1
 62
5
100
AcDbLine
 10
416.990530
 20
88.328191
 30
0.0
 11
416.990530
 21
91.328439
 31
0.0
  0
LINE
  5
147
100
AcDbEntity
  8
Layer_1
 62
5
100
AcDbLine
 10
416.990530
 20
91.328439
 30
0.0
 11
396.990768
 21
91.328439
 31
0.0
  0
LINE
  5
148
100
AcDbEntity
  8
Layer_1
 62
5
100
AcDbLine
 10
396.990768
 20
91.328439
 30
0.0
 11
396.990768
 21
91.328439
 31
0.0
  0
SPLINE
  5
149
100
AcDbEntity
  8
Layer_1
 62
6
100
AcDbSpline
 70
8
 71
3
 72
8
 73
4
 74
0
 40
0
 40
0
 40
0
 40
0
 40
1
 40
1
 40
1
 40
1
 10
486.469013
 20
53.428286
 30
0.0
 10
486.469013
 20
45.211955
 30
0.0
 10
479.808367
 20
38.551298
 30
0.0
 10
471.592035
 20
38.551286
 30
0.0
  0
SPLINE
  5
14a
100
AcDbEntity
  8
Layer_1
 62
6
100
AcDbSpline
 70
8
 71
3
 72
8
 73
4
 74
0
 40
0
 40
0
 40
0
 40
0
 40
1
 40
1
 40
1
 40
1
 10
471.592035
 20
38.551286
 30
0.0
 10
467.646408
 20
38.551284
 30
0.0
 10
463.862384
 20
40.118677
 30
0.0
 10
461.072404
 20
42.908656
 30
0.0
  0
SPLINE
  5
14b
100
AcDbEntity
  8
Layer_1
 62
6
100
AcDbSpline
 70
8
 71
3
 72
8
 73
4
 74
0
 40
0
 40
0
 40
0
 40
0
 40
1
 40
1
 40
1
 40
1
 10
461.072404
 20
42.908656
 30
0.0
 10
458.282424
 20
45.698635
 30
0.0
 10
456.715029
 20
49.482659
 30
0.0
 10
456.715029
 20
53.428286
 30
0.0
  0
SPLINE
  5
14c
100
AcDbEntity
  8
Layer_1
 62
6
100
AcDbSpline
 70
8
 71
3
 72
8
 73
4
 74
0
 40
0
 40
0
 40
0
 40
0
 40
1
 40
1
 40
1
 40
1
 10
456.715029
 20
53.428286
 30
0.0
 10
456.715029
 20
57.373913
 30
0.0
 10
458.282424
 20
61.157937
 30
0.0
 10
461.072404
 20
63.947916
 30
0.0
  0
SPLINE
  5
14d
100
AcDbEntity
  8
Layer_1
 62
6
100
AcDbSpline
 70
8
 71
3
 72
8
 73
4
 74
0
 40
0
 40
0
 40
0
 40
0
 40
1
 40
1
 40
1
 40
1
 10
461.072404
 20
63.947916
 30
0.0
 10
463.862384
 20
66.737895
 30
0.0
 10
467.646408
 20
68.305288
 30
0.0
 10
471.592035
 20
68.305286
 30
0.0
  0
SPLINE
  5
14e
100
AcDbEntity
  8
Layer_1
 62
6
100
AcDbSpline
 70
8
 71
3
 72
8
 73
4
 74
0
 40
0
 40
0
 40
0
 40
0
 40
1
 40
1
 40
1
 40
1
 10
471.592035
 20
68.305286
 30
0.0
 10
479.808367
 20
68.305274
 30
0.0
 10
486.469013
 20
61.644618
 30
0.0
 10
486.469013
 20
53.428286
 30
0.0
  0
LINE
  5
14f
100
AcDbEntity
  8
Layer_1
 62
6
100
AcDbLine
 10
486.469013
 20
53.428286
 30
0.0
 11
486.469013
 21
53.428286
 31
0.0
  0
SPLINE
  5
150
100
AcDbEntity
  8
Layer_1
 62
6
100
AcDbSpline
 70
8
 71
3
 72
8
 73
4
 74
0
 40
0
 40
0
 40
0
 40
0
 40
1
 40
1
 40
1
 40
1
 10
557.265896
 20
53.428286
 30
0.0
 10
557.265897
 20
45.211955
 30
0.0
 10
550.605250
 20
38.551298
 30
0.0
 10
542.388919
 20
38.551286
 30
0.0
  0
SPLINE
  5
151
100
AcDbEntity
  8
Layer_1
 62
6
100
AcDbSpline
 70
8
 71
3
 72
8
 73
4
 74
0
 40
0
 40
0
 40
0
 40
0
 40
1
 40
1
 40
1
 40
1
 10
542.388919
 20
38.551286
 30
0.0
 10
538.443292
 20
38.551284
 30
0.0
 10
534.659267
 20
40.118677
 30
0.0
 10
531.869287
 20
42.908656
 30
0.0
  0
SPLINE
  5
152
100
AcDbEntity
  8
Layer_1
 62
6
100
AcDbSpline
 70
8
 71
3
 72
8
 73
4
 74
0
 40
0
 40
0
 40
0
 40
0
 40
1
 40
1
 40
1
 40
1
 10
531.869287
 20
42.908656
 30
0.0
 10
529.079308
 20
45.698635
 30
0.0
 10
527.511913
 20
49.482659
 30
0.0
 10
527.511913
 20
53.428286
 30
0.0
  0
SPLINE
  5
153
100
AcDbEntity
  8
Layer_1
 62
6
100
AcDbSpline
 70
8
 71
3
 72
8
 73
4
 74
0
 40
0
 40
0
 40
0
 40
0
 40
1
 40
1
 40
1
 40
1
 10
527.511913
 20
53.428286
 30
0.0
 10
527.511913
 20
57.373913
 30
0.0
 10
529.079308
 20
61.157937
 30
0.0
 10
531.869288
 20
63.947916
 30
0.0
  0
SPLINE
  5
154
100
AcDbEntity
  8
Layer_1
 62
6
100
AcDbSpline
 70
8
 71
3
 72
8
 73
4
 74
0
 40
0
 40
0
 40
0
 40
0
 40
1
 40
1
 40
1
 40
1
 10
531.869288
 20
63.947916
 30
0.0
 10
534.659268
 20
66.737895
 30
0.0
 10
538.443292
 20
68.305288
 30
0.0
 10
542.388919
 20
68.305286
 30
0.0
  0
SPLINE
  5
155
100
AcDbEntity
  8
Layer_1
 62
6
100
AcDbSpline
 70
8
 71
3
 72
8
 73
4
 74
0
 40
0
 40
0
 40
0
 40
0
 40
1
 40
1
 40
1
 40
1
 10
542.388919
 20
68.305286
 30
0.0
 10
550.605250
 20
68.305274
 30
0.0
 10
557.265897
 20
61.644618
 30
0.0
 10
557.265896
 20
53.428286
 30
0.0
  0
LINE
  5
156
100
AcDbEntity
  8
Layer_1
 62
6
100
AcDbLine
 10
557.265896
 20
53.428286
 30
0.0
 11
557.265896
 21
53.428286
 31
0.0
  0
LINE
  5
157
100
AcDbEntity
  8
Layer_1
 62
7
100
AcDbLine
 10
536.727936
 20
28.991265
 30
0.0
 11
534.501034
 21
32.006414
 31
0.0
  0
LINE
  5
158
100
AcDbEntity
  8
Layer_1
 62
7
100
AcDbLine
 10
534.501034
 20
32.006414
 30
0.0
 11
536.590127
 21
32.006414
 31
0.0
  0
LINE
  5
159
100
AcDbEntity
  8
Layer_1
 62
7
100
AcDbLine
 10
536.590127
 20
32.006414
 30
0.0
 11
537.852422
 21
30.176378
 31
0.0
  0
LINE
  5
15a
100
AcDbEntity
  8
Layer_1
 62
7
100
AcDbLine
 10
537.852422
 20
30.176378
 30
0.0
 11
539.131228
 21
32.006414
 31
0.0
  0
LINE
  5
15b
100
AcDbEntity
  8
Layer_1
 62
7
100
AcDbLine
 10
539.131228
 20
32.006414
 30
0.0
 11
541.220350
 21
32.006414
 31
0.0
  0
LINE
  5
15c
100
AcDbEntity
  8
Layer_1
 62
7
100
AcDbLine
 10
541.220350
 20
32.006414
 30
0.0
 11
538.993419
 21
29.002291
 31
0.0
  0
LINE
  5
15d
100
AcDbEntity
  8
Layer_1
 62
7
100
AcDbLine
 10
538.993419
 20
29.002291
 30
0.0
 11
541.330586
 21
25.832803
 31
0.0
  0
LINE
  5
15e
100
AcDbEntity
  8
Layer_1
 62
7
100
AcDbLine
 10
541.330586
 20
25.832803
 30
0.0
 11
539.241464
 21
25.832803
 31
0.0
  0
LINE
  5
15f
100
AcDbEntity
  8
Layer_1
 62
7
100
AcDbLine
 10
539.241464
 20
25.832803
 30
0.0
 11
537.852422
 21
27.784105
 31
0.0
  0
LINE
  5
160
100
AcDbEntity
  8
Layer_1
 62
7
100
AcDbLine
 10
537.852422
 20
27.784105
 30
0.0
 11
536.479891
 21
25.832803
 31
0.0
  0
LINE
  5
161
100
AcDbEntity
  8
Layer_1
 62
7
100
AcDbLine
 10
536.479891
 20
25.832803
 30
0.0
 11
534.390769
 21
25.832803
 31
0.0
  0
LINE
  5
162
100
AcDbEntity
  8
Layer_1
 62
7
100
AcDbLine
 10
534.390769
 20
25.832803
 30
0.0
 11
536.727936
 21
28.991265
 31
0.0
  0
LINE
  5
163
100
AcDbEntity
  8
Layer_1
 62
7
100
AcDbLine
 10
536.727936
 20
28.991265
 30
0.0
 11
536.727936
 21
28.991265
 31
0.0
  0
LINE
  5
164
100
AcDbEntity
  8
Layer_1
 62
7
100
AcDbLine
 10
544.748127
 20
27.392741
 30
0.0
 11
548.369603
 21
27.392741
 31
0.0
  0
LINE
  5
165
100
AcDbEntity
  8
Layer_1
 62
7
100
AcDbLine
 10
548.369603
 20
27.392741
 30
0.0
 11
548.369603
 21
25.832803
 31
0.0
  0
LINE
  5
166
100
AcDbEntity
  8
Layer_1
 62
7
100
AcDbLine
 10
548.369603
 20
25.832803
 30
0.0
 11
542.388919
 21
25.832803
 31
0.0
  0
LINE
  5
167
100
AcDbEntity
  8
Layer_1
 62
7
100
AcDbLine
 10
542.388919
 20
25.832803
 30
0.0
 11
542.388919
 21
27.392741
 31
0.0
  0
LINE
  5
168
100
AcDbEntity
  8
Layer_1
 62
7
100
AcDbLine
 10
542.388919
 20
27.392741
 30
0.0
 11
545.393033
 21
30.044087
 31
0.0
  0
SPLINE
  5
169
100
AcDbEntity
  8
Layer_1
 62
7
100
AcDbSpline
 70
8
 71
3
 72
8
 73
4
 74
0
 40
0
 40
0
 40
0
 40
0
 40
1
 40
1
 40
1
 40
1
 10
545.393033
 20
30.044087
 30
0.0
 10
545.661295
 20
30.286621
 30
0.0
 10
545.859735
 20
30.523643
 30
0.0
 10
545.988353
 20
30.755154
 30
0.0
  0
SPLINE
  5
16a
100
AcDbEntity
  8
Layer_1
 62
7
100
AcDbSpline
 70
8
 71
3
 72
8
 73
4
 74
0
 40
0
 40
0
 40
0
 40
0
 40
1
 40
1
 40
1
 40
1
 10
545.988353
 20
30.755154
 30
0.0
 10
546.116971
 20
30.986665
 30
0.0
 10
546.181280
 20
31.227362
 30
0.0
 10
546.181280
 20
31.477248
 30
0.0
  0
SPLINE
  5
16b
100
AcDbEntity
  8
Layer_1
 62
7
100
AcDbSpline
 70
8
 71
3
 72
8
 73
4
 74
0
 40
0
 40
0
 40
0
 40
0
 40
1
 40
1
 40
1
 40
1
 10
546.181280
 20
31.477248
 30
0.0
 10
546.181280
 20
31.863098
 30
0.0
 10
546.050827
 20
32.173616
 30
0.0
 10
545.789922
 20
32.408801
 30
0.0
  0
SPLINE
  5
16c
100
AcDbEntity
  8
Layer_1
 62
7
100
AcDbSpline
 70
8
 71
3
 72
8
 73
4
 74
0
 40
0
 40
0
 40
0
 40
0
 40
1
 40
1
 40
1
 40
1
 10
545.789922
 20
32.408801
 30
0.0
 10
545.532686
 20
32.643986
 30
0.0
 10
545.189090
 20
32.761579
 30
0.0
 10
544.759134
 20
32.761579
 30
0.0
  0
SPLINE
  5
16d
100
AcDbEntity
  8
Layer_1
 62
7
100
AcDbSpline
 70
8
 71
3
 72
8
 73
4
 74
0
 40
0
 40
0
 40
0
 40
0
 40
1
 40
1
 40
1
 40
1
 10
544.759134
 20
32.761579
 30
0.0
 10
544.428407
 20
32.761579
 30
0.0
 10
544.066448
 20
32.689921
 30
0.0
 10
543.673256
 20
32.546605
 30
0.0
  0
SPLINE
  5
16e
100
AcDbEntity
  8
Layer_1
 62
7
100
AcDbSpline
 70
8
 71
3
 72
8
 73
4
 74
0
 40
0
 40
0
 40
0
 40
0
 40
1
 40
1
 40
1
 40
1
 10
543.673256
 20
32.546605
 30
0.0
 10
543.280045
 20
32.406963
 30
0.0
 10
542.859280
 20
32.197501
 30
0.0
 10
542.410960
 20
31.918220
 30
0.0
  0
LINE
  5
16f
100
AcDbEntity
  8
Layer_1
 62
7
100
AcDbLine
 10
542.410960
 20
31.918220
 30
0.0
 11
542.410960
 21
33.726206
 31
0.0
  0
SPLINE
  5
170
100
AcDbEntity
  8
Layer_1
 62
7
100
AcDbSpline
 70
8
 71
3
 72
8
 73
4
 74
0
 40
0
 40
0
 40
0
 40
0
 40
1
 40
1
 40
1
 40
1
 10
542.410960
 20
33.726206
 30
0.0
 10
542.888687
 20
33.884220
 30
0.0
 10
543.360892
 20
34.003650
 30
0.0
 10
543.827575
 20
34.084496
 30
0.0
  0
SPLINE
  5
171
100
AcDbEntity
  8
Layer_1
 62
7
100
AcDbSpline
 70
8
 71
3
 72
8
 73
4
 74
0
 40
0
 40
0
 40
0
 40
0
 40
1
 40
1
 40
1
 40
1
 10
543.827575
 20
34.084496
 30
0.0
 10
544.294276
 20
34.169015
 30
0.0
 10
544.751787
 20
34.211275
 30
0.0
 10
545.200106
 20
34.211275
 30
0.0
  0
SPLINE
  5
172
100
AcDbEntity
  8
Layer_1
 62
7
100
AcDbSpline
 70
8
 71
3
 72
8
 73
4
 74
0
 40
0
 40
0
 40
0
 40
0
 40
1
 40
1
 40
1
 40
1
 10
545.200106
 20
34.211275
 30
0.0
 10
546.184949
 20
34.211275
 30
0.0
 10
546.949301
 20
33.994464
 30
0.0
 10
547.493162
 20
33.560841
 30
0.0
  0
SPLINE
  5
173
100
AcDbEntity
  8
Layer_1
 62
7
100
AcDbSpline
 70
8
 71
3
 72
8
 73
4
 74
0
 40
0
 40
0
 40
0
 40
0
 40
1
 40
1
 40
1
 40
1
 10
547.493162
 20
33.560841
 30
0.0
 10
548.040711
 20
33.127218
 30
0.0
 10
548.314485
 20
32.522718
 30
0.0
 10
548.314485
 20
31.747343
 30
0.0
  0
SPLINE
  5
174
100
AcDbEntity
  8
Layer_1
 62
7
100
AcDbSpline
 70
8
 71
3
 72
8
 73
4
 74
0
 40
0
 40
0
 40
0
 40
0
 40
1
 40
1
 40
1
 40
1
 10
548.314485
 20
31.747343
 30
0.0
 10
548.314485
 20
31.299021
 30
0.0
 10
548.198727
 20
30.880097
 30
0.0
 10
547.967210
 20
30.490571
 30
0.0
  0
SPLINE
  5
175
100
AcDbEntity
  8
Layer_1
 62
7
100
AcDbSpline
 70
8
 71
3
 72
8
 73
4
 74
0
 40
0
 40
0
 40
0
 40
0
 40
1
 40
1
 40
1
 40
1
 10
547.967210
 20
30.490571
 30
0.0
 10
547.735694
 20
30.104720
 30
0.0
 10
547.248786
 20
29.586578
 30
0.0
 10
546.506485
 20
28.936144
 30
0.0
  0
LINE
  5
176
100
AcDbEntity
  8
Layer_1
 62
7
100
AcDbLine
 10
546.506485
 20
28.936144
 30
0.0
 11
544.748127
 21
27.392741
 31
0.0
  0
LINE
  5
177
100
AcDbEntity
  8
Layer_1
 62
7
100
AcDbLine
 10
544.748127
 20
27.392741
 30
0.0
 11
544.748127
 21
27.392741
 31
0.0
  0
LINE
  5
178
100
AcDbEntity
  8
Layer_1
 62
7
100
AcDbLine
 10
458.837171
 20
35.832408
 30
0.0
 11
458.837171
 21
34.832503
 31
0.0
  0
LINE
  5
179
100
AcDbEntity
  8
Layer_1
 62
7
100
AcDbLine
 10
458.837171
 20
34.832503
 30
0.0
 11
458.837171
 21
25.832809
 31
0.0
  0
LINE
  5
17a
100
AcDbEntity
  8
Layer_1
 62
7
100
AcDbLine
 10
458.837171
 20
25.832809
 30
0.0
 11
468.836784
 21
25.832809
 31
0.0
  0
LINE
  5
17b
100
AcDbEntity
  8
Layer_1
 62
7
100
AcDbLine
 10
468.836784
 20
25.832809
 30
0.0
 11
468.836784
 21
35.832408
 31
0.0
  0
LINE
  5
17c
100
AcDbEntity
  8
Layer_1
 62
7
100
AcDbLine
 10
468.836784
 20
35.832408
 30
0.0
 11
458.837171
 21
35.832408
 31
0.0
  0
LINE
  5
17d
100
AcDbEntity
  8
Layer_1
 62
7
100
AcDbLine
 10
458.837171
 20
35.832408
 30
0.0
 11
458.837171
 21
35.832408
 31
0.0
  0
LINE
  5
17e
100
AcDbEntity
  8
Layer_1
 62
7
100
AcDbLine
 10
460.836998
 20
33.832598
 30
0.0
 11
466.836958
 21
33.832598
 31
0.0
  0
LINE
  5
17f
100
AcDbEntity
  8
Layer_1
 62
7
100
AcDbLine
 10
466.836958
 20
33.832598
 30
0.0
 11
466.836958
 21
27.832619
 31
0.0
  0
LINE
  5
180
100
AcDbEntity
  8
Layer_1
 62
7
100
AcDbLine
 10
466.836958
 20
27.832619
 30
0.0
 11
460.836998
 21
27.832619
 31
0.0
  0
LINE
  5
181
100
AcDbEntity
  8
Layer_1
 62
7
100
AcDbLine
 10
460.836998
 20
27.832619
 30
0.0
 11
460.836998
 21
33.832598
 31
0.0
  0
LINE
  5
182
100
AcDbEntity
  8
Layer_1
 62
7
100
AcDbLine
 10
460.836998
 20
33.832598
 30
0.0
 11
460.836998
 21
33.832598
 31
0.0
  0
LINE
  5
183
100
AcDbEntity
  8
Layer_1
 62
7
100
AcDbLine
 10
476.278194
 20
35.538335
 30
0.0
 11
474.935973
 21
34.196126
 31
0.0
  0
LINE
  5
184
100
AcDbEntity
  8
Layer_1
 62
7
100
AcDbLine
 10
474.935973
 20
34.196126
 30
0.0
 11
478.299498
 21
30.832610
 31
0.0
  0
LINE
  5
185
100
AcDbEntity
  8
Layer_1
 62
7
100
AcDbLine
 10
478.299498
 20
30.832610
 30
0.0
 11
474.935973
 21
27.469094
 31
0.0
  0
LINE
  5
186
100
AcDbEntity
  8
Layer_1
 62
7
100
AcDbLine
 10
474.935973
 20
27.469094
 30
0.0
 11
476.278194
 21
26.126884
 31
0.0
  0
LINE
  5
187
100
AcDbEntity
  8
Layer_1
 62
7
100
AcDbLine
 10
476.278194
 20
26.126884
 30
0.0
 11
479.641690
 21
29.490400
 31
0.0
  0
LINE
  5
188
100
AcDbEntity
  8
Layer_1
 62
7
100
AcDbLine
 10
479.641690
 20
29.490400
 30
0.0
 11
483.005215
 21
26.126884
 31
0.0
  0
LINE
  5
189
100
AcDbEntity
  8
Layer_1
 62
7
100
AcDbLine
 10
483.005215
 20
26.126884
 30
0.0
 11
484.346871
 21
27.469094
 31
0.0
  0
LINE
  5
18a
100
AcDbEntity
  8
Layer_1
 62
7
100
AcDbLine
 10
484.346871
 20
27.469094
 30
0.0
 11
480.983346
 21
30.832610
 31
0.0
  0
LINE
  5
18b
100
AcDbEntity
  8
Layer_1
 62
7
100
AcDbLine
 10
480.983346
 20
30.832610
 30
0.0
 11
484.346871
 21
34.196126
 31
0.0
  0
LINE
  5
18c
100
AcDbEntity
  8
Layer_1
 62
7
100
AcDbLine
 10
484.346871
 20
34.196126
 30
0.0
 11
483.005215
 21
35.538335
 31
0.0
  0
LINE
  5
18d
100
AcDbEntity
  8
Layer_1
 62
7
100
AcDbLine
 10
483.005215
 20
35.538335
 30
0.0
 11
479.641690
 21
32.174819
 31
0.0
  0
LINE
  5
18e
100
AcDbEntity
  8
Layer_1
 62
7
100
AcDbLine
 10
479.641690
 20
32.174819
 30
0.0
 11
476.278194
 21
35.538335
 31
0.0
  0
LINE
  5
18f
100
AcDbEntity
  8
Layer_1
 62
7
100
AcDbLine
 10
476.278194
 20
35.538335
 30
0.0
 11
476.278194
 21
35.538335
 31
0.0
  0
SPLINE
  5
190
100
AcDbEntity
  8
Layer_1
 62
6
100
AcDbSpline
 70
8
 71
3
 72
8
 73
4
 74
0
 40
0
 40
0
 40
0
 40
0
 40
1
 40
1
 40
1
 40
1
 10
523.156603
 20
292.403215
 30
0.0
 10
523.156605
 20
288.457587
 30
0.0
 10
521.589211
 20
284.673562
 30
0.0
 10
518.799231
 20
281.883582
 30
0.0
  0
SPLINE
  5
191
100
AcDbEntity
  8
Layer_1
 62
6
100
AcDbSpline
 70
8
 71
3
 72
8
 73
4
 74
0
 40
0
 40
0
 40
0
 40
0
 40
1
 40
1
 40
1
 40
1
 10
518.799231
 20
281.883582
 30
0.0
 10
516.009251
 20
279.093602
 30
0.0
 10
512.225225
 20
277.526208
 30
0.0
 10
508.279598
 20
277.526209
 30
0.0
  0
SPLINE
  5
192
100
AcDbEntity
  8
Layer_1
 62
6
100
AcDbSpline
 70
8
 71
3
 72
8
 73
4
 74
0
 40
0
 40
0
 40
0
 40
0
 40
1
 40
1
 40
1
 40
1
 10
508.279598
 20
277.526209
 30
0.0
 10
504.333970
 20
277.526208
 30
0.0
 10
500.549944
 20
279.093602
 30
0.0
 10
497.759964
 20
281.883582
 30
0.0
  0
SPLINE
  5
193
100
AcDbEntity
  8
Layer_1
 62
6
100
AcDbSpline
 70
8
 71
3
 72
8
 73
4
 74
0
 40
0
 40
0
 40
0
 40
0
 40
1
 40
1
 40
1
 40
1
 10
497.759964
 20
281.883582
 30
0.0
 10
494.969984
 20
284.673562
 30
0.0
 10
493.402590
 20
288.457587
 30
0.0
 10
493.402592
 20
292.403215
 30
0.0
  0
SPLINE
  5
194
100
AcDbEntity
  8
Layer_1
 62
6
100
AcDbSpline
 70
8
 71
3
 72
8
 73
4
 74
0
 40
0
 40
0
 40
0
 40
0
 40
1
 40
1
 40
1
 40
1
 10
493.402592
 20
292.403215
 30
0.0
 10
493.402590
 20
296.348843
 30
0.0
 10
494.969984
 20
300.132868
 30
0.0
 10
497.759964
 20
302.922849
 30
0.0
  0
SPLINE
  5
195
100
AcDbEntity
  8
Layer_1
 62
6
100
AcDbSpline
 70
8
 71
3
 72
8
 73
4
 74
0
 40
0
 40
0
 40
0
 40
0
 40
1
 40
1
 40
1
 40
1
 10
497.759964
 20
302.922849
 30
0.0
 10
500.549944
 20
305.712829
 30
0.0
 10
504.333970
 20
307.280223
 30
0.0
 10
508.279598
 20
307.280221
 30
0.0
  0
SPLINE
  5
196
100
AcDbEntity
  8
Layer_1
 62
6
100
AcDbSpline
 70
8
 71
3
 72
8
 73
4
 74
0
 40
0
 40
0
 40
0
 40
0
 40
1
 40
1
 40
1
 40
1
 10
508.279598
 20
307.280221
 30
0.0
 10
512.225225
 20
307.280223
 30
0.0
 10
516.009251
 20
305.712829
 30
0.0
 10
518.799231
 20
302.922849
 30
0.0
  0
SPLINE
  5
197
100
AcDbEntity
  8
Layer_1
 62
6
100
AcDbSpline
 70
8
 71
3
 72
8
 73
4
 74
0
 40
0
 40
0
 40
0
 40
0
 40
1
 40
1
 40
1
 40
1
 10
518.799231
 20
302.922849
 30
0.0
 10
521.589211
 20
300.132869
 30
0.0
 10
523.156605
 20
296.348843
 30
0.0
 10
523.156603
 20
292.403215
 30
0.0
  0
LINE
  5
198
100
AcDbEntity
  8
Layer_1
 62
6
100
AcDbLine
 10
523.156603
 20
292.403215
 30
0.0
 11
523.156603
 21
292.403215
 31
0.0
  0
LINE
  5
199
100
AcDbEntity
  8
Layer_1
 62
5
100
AcDbLine
 10
383.379613
 20
352.208701
 30
0.0
 11
383.379613
 21
349.208989
 31
0.0
  0
LINE
  5
19a
100
AcDbEntity
  8
Layer_1
 62
5
100
AcDbLine
 10
383.379613
 20
349.208989
 30
0.0
 11
380.379337
 21
349.208989
 31
0.0
  0
LINE
  5
19b
100
AcDbEntity
  8
Layer_1
 62
5
100
AcDbLine
 10
380.379337
 20
349.208989
 30
0.0
 11
380.379337
 21
334.308530
 31
0.0
  0
LINE
  5
19c
100
AcDbEntity
  8
Layer_1
 62
5
100
AcDbLine
 10
380.379337
 20
334.308530
 30
0.0
 11
383.379613
 21
334.308530
 31
0.0
  0
LINE
  5
19d
100
AcDbEntity
  8
Layer_1
 62
5
100
AcDbLine
 10
383.379613
 20
334.308530
 30
0.0
 11
383.379613
 21
314.308796
 31
0.0
  0
LINE
  5
19e
100
AcDbEntity
  8
Layer_1
 62
5
100
AcDbLine
 10
383.379613
 20
314.308796
 30
0.0
 11
380.379337
 21
314.308796
 31
0.0
  0
LINE
  5
19f
100
AcDbEntity
  8
Layer_1
 62
5
100
AcDbLine
 10
380.379337
 20
314.308796
 30
0.0
 11
380.379337
 21
294.308497
 31
0.0
  0
LINE
  5
1a0
100
AcDbEntity
  8
Layer_1
 62
5
100
AcDbLine
 10
380.379337
 20
294.308497
 30
0.0
 11
383.379613
 21
294.308497
 31
0.0
  0
LINE
  5
1a1
100
AcDbEntity
  8
Layer_1
 62
5
100
AcDbLine
 10
383.379613
 20
294.308497
 30
0.0
 11
383.379613
 21
274.308763
 31
0.0
  0
LINE
  5
1a2
100
AcDbEntity
  8
Layer_1
 62
5
100
AcDbLine
 10
383.379613
 20
274.308763
 30
0.0
 11
380.379337
 21
274.308763
 31
0.0
  0
LINE
  5
1a3
100
AcDbEntity
  8
Layer_1
 62
5
100
AcDbLine
 10
380.379337
 20
274.308763
 30
0.0
 11
380.379337
 21
254.308465
 31
0.0
  0
LINE
  5
1a4
100
AcDbEntity
  8
Layer_1
 62
5
100
AcDbLine
 10
380.379337
 20
254.308465
 30
0.0
 11
383.379613
 21
254.308465
 31
0.0
  0
LINE
  5
1a5
100
AcDbEntity
  8
Layer_1
 62
5
100
AcDbLine
 10
383.379613
 20
254.308465
 30
0.0
 11
383.379613
 21
234.308702
 31
0.0
  0
LINE
  5
1a6
100
AcDbEntity
  8
Layer_1
 62
5
100
AcDbLine
 10
383.379613
 20
234.308702
 30
0.0
 11
380.379337
 21
234.308702
 31
0.0
  0
LINE
  5
1a7
100
AcDbEntity
  8
Layer_1
 62
5
100
AcDbLine
 10
380.379337
 20
234.308702
 30
0.0
 11
380.379337
 21
214.308968
 31
0.0
  0
LINE
  5
1a8
100
AcDbEntity
  8
Layer_1
 62
5
100
AcDbLine
 10
380.379337
 20
214.308968
 30
0.0
 11
383.379613
 21
214.308968
 31
0.0
  0
LINE
  5
1a9
100
AcDbEntity
  8
Layer_1
 62
5
100
AcDbLine
 10
383.379613
 20
214.308968
 30
0.0
 11
383.379613
 21
194.308669
 31
0.0
  0
LINE
  5
1aa
100
AcDbEntity
  8
Layer_1
 62
5
100
AcDbLine
 10
383.379613
 20
194.308669
 30
0.0
 11
380.379337
 21
194.308669
 31
0.0
  0
LINE
  5
1ab
100
AcDbEntity
  8
Layer_1
 62
5
100
AcDbLine
 10
380.379337
 20
194.308669
 30
0.0
 11
380.379337
 21
174.308935
 31
0.0
  0
LINE
  5
1ac
100
AcDbEntity
  8
Layer_1
 62
5
100
AcDbLine
 10
380.379337
 20
174.308935
 30
0.0
 11
383.379613
 21
174.308935
 31
0.0
  0
LINE
  5
1ad
100
AcDbEntity
  8
Layer_1
 62
5
100
AcDbLine
 10
383.379613
 20
174.308935
 30
0.0
 11
383.379613
 21
154.308636
 31
0.0
  0
LINE
  5
1ae
100
AcDbEntity
  8
Layer_1
 62
5
100
AcDbLine
 10
383.379613
 20
154.308636
 30
0.0
 11
380.379337
 21
154.308636
 31
0.0
  0
LINE
  5
1af
100
AcDbEntity
  8
Layer_1
 62
5
100
AcDbLine
 10
380.379337
 20
154.308636
 30
0.0
 11
380.379337
 21
134.308880
 31
0.0
  0
LINE
  5
1b0
100
AcDbEntity
  8
Layer_1
 62
5
100
AcDbLine
 10
380.379337
 20
134.308880
 30
0.0
 11
383.379613
 21
134.308880
 31
0.0
  0
LINE
  5
1b1
100
AcDbEntity
  8
Layer_1
 62
5
100
AcDbLine
 10
383.379613
 20
134.308880
 30
0.0
 11
383.379613
 21
114.308609
 31
0.0
  0
LINE
  5
1b2
100
AcDbEntity
  8
Layer_1
 62
5
100
AcDbLine
 10
383.379613
 20
114.308609
 30
0.0
 11
380.379337
 21
114.308609
 31
0.0
  0
LINE
  5
1b3
100
AcDbEntity
  8
Layer_1
 62
5
100
AcDbLine
 10
380.379337
 20
114.308609
 30
0.0
 11
380.379337
 21
99.408687
 31
0.0
  0
LINE
  5
1b4
100
AcDbEntity
  8
Layer_1
 62
5
100
AcDbLine
 10
380.379337
 20
99.408687
 30
0.0
 11
383.379613
 21
99.408687
 31
0.0
  0
LINE
  5
1b5
100
AcDbEntity
  8
Layer_1
 62
5
100
AcDbLine
 10
383.379613
 20
99.408687
 30
0.0
 11
383.379613
 21
96.408439
 31
0.0
  0
LINE
  5
1b6
100
AcDbEntity
  8
Layer_1
 62
5
100
AcDbLine
 10
383.379613
 20
96.408439
 30
0.0
 11
398.279507
 21
96.408439
 31
0.0
  0
LINE
  5
1b7
100
AcDbEntity
  8
Layer_1
 62
5
100
AcDbLine
 10
398.279507
 20
96.408439
 30
0.0
 11
398.279507
 21
99.408687
 31
0.0
  0
LINE
  5
1b8
100
AcDbEntity
  8
Layer_1
 62
5
100
AcDbLine
 10
398.279507
 20
99.408687
 30
0.0
 11
418.279806
 21
99.408687
 31
0.0
  0
LINE
  5
1b9
100
AcDbEntity
  8
Layer_1
 62
5
100
AcDbLine
 10
418.279806
 20
99.408687
 30
0.0
 11
418.279806
 21
96.408439
 31
0.0
  0
LINE
  5
1ba
100
AcDbEntity
  8
Layer_1
 62
5
100
AcDbLine
 10
418.279806
 20
96.408439
 30
0.0
 11
438.279540
 21
96.408439
 31
0.0
  0
LINE
  5
1bb
100
AcDbEntity
  8
Layer_1
 62
5
100
AcDbLine
 10
438.279540
 20
96.408439
 30
0.0
 11
438.279540
 21
99.408687
 31
0.0
  0
LINE
  5
1bc
100
AcDbEntity
  8
Layer_1
 62
5
100
AcDbLine
 10
438.279540
 20
99.408687
 30
0.0
 11
458.279839
 21
99.408687
 31
0.0
  0
LINE
  5
1bd
100
AcDbEntity
  8
Layer_1
 62
5
100
AcDbLine
 10
458.279839
 20
99.408687
 30
0.0
 11
458.279839
 21
96.408439
 31
0.0
  0
LINE
  5
1be
100
AcDbEntity
  8
Layer_1
 62
5
100
AcDbLine
 10
458.279839
 20
96.408439
 30
0.0
 11
478.279573
 21
96.408439
 31
0.0
  0
LINE
  5
1bf
100
AcDbEntity
  8
Layer_1
 62
5
100
AcDbLine
 10
478.279573
 20
96.408439
 30
0.0
 11
478.279573
 21
99.408687
 31
0.0
  0
LINE
  5
1c0
100
AcDbEntity
  8
Layer_1
 62
5
100
AcDbLine
 10
478.279573
 20
99.408687
 30
0.0
 11
498.279335
 21
99.408687
 31
0.0
  0
LINE
  5
1c1
100
AcDbEntity
  8
Layer_1
 62
5
100
AcDbLine
 10
498.279335
 20
99.408687
 30
0.0
 11
498.279335
 21
96.408439
 31
0.0
  0
LINE
  5
1c2
100
AcDbEntity
  8
Layer_1
 62
5
100
AcDbLine
 10
498.279335
 20
96.408439
 30
0.0
 11
518.279606
 21
96.408439
 31
0.0
  0
LINE
  5
1c3
100
AcDbEntity
  8
Layer_1
 62
5
100
AcDbLine
 10
518.279606
 20
96.408439
 30
0.0
 11
518.279606
 21
99.408687
 31
0.0
  0
LINE
  5
1c4
100
AcDbEntity
  8
Layer_1
 62
5
100
AcDbLine
 10
518.279606
 20
99.408687
 30
0.0
 11
538.279368
 21
99.408687
 31
0.0
  0
LINE
  5
1c5
100
AcDbEntity
  8
Layer_1
 62
5
100
AcDbLine
 10
538.279368
 20
99.408687
 30
0.0
 11
538.279368
 21
96.408439
 31
0.0
  0
LINE
  5
1c6
100
AcDbEntity
  8
Layer_1
 62
5
100
AcDbLine
 10
538.279368
 20
96.408439
 30
0.0
 11
558.279667
 21
96.408439
 31
0.0
  0
LINE
  5
1c7
100
AcDbEntity
  8
Layer_1
 62
5
100
AcDbLine
 10
558.279667
 20
96.408439
 30
0.0
 11
558.279667
 21
99.408687
 31
0.0
  0
LINE
  5
1c8
100
AcDbEntity
  8
Layer_1
 62
5
100
AcDbLine
 10
558.279667
 20
99.408687
 30
0.0
 11
578.279401
 21
99.408687
 31
0.0
  0
LINE
  5
1c9
100
AcDbEntity
  8
Layer_1
 62
5
100
AcDbLine
 10
578.279401
 20
99.408687
 30
0.0
 11
578.279401
 21
96.408439
 31
0.0
  0
LINE
  5
1ca
100
AcDbEntity
  8
Layer_1
 62
5
100
AcDbLine
 10
578.279401
 20
96.408439
 30
0.0
 11
598.279700
 21
96.408439
 31
0.0
  0
LINE
  5
1cb
100
AcDbEntity
  8
Layer_1
 62
5
100
AcDbLine
 10
598.279700
 20
96.408439
 30
0.0
 11
598.279700
 21
99.408687
 31
0.0
  0
LINE
  5
1cc
100
AcDbEntity
  8
Layer_1
 62
5
100
AcDbLine
 10
598.279700
 20
99.408687
 30
0.0
 11
618.279434
 21
99.408687
 31
0.0
  0
LINE
  5
1cd
100
AcDbEntity
  8
Layer_1
 62
5
100
AcDbLine
 10
618.279434
 20
99.408687
 30
0.0
 11
618.279434
 21
96.408439
 31
0.0
  0
LINE
  5
1ce
100
AcDbEntity
  8
Layer_1
 62
5
100
AcDbLine
 10
618.279434
 20
96.408439
 30
0.0
 11
633.179892
 21
96.408439
 31
0.0
  0
LINE
  5
1cf
100
AcDbEntity
  8
Layer_1
 62
5
100
AcDbLine
 10
633.179892
 20
96.408439
 30
0.0
 11
633.179892
 21
99.408687
 31
0.0
  0
LINE
  5
1d0
100
AcDbEntity
  8
Layer_1
 62
5
100
AcDbLine
 10
633.179892
 20
99.408687
 30
0.0
 11
636.179604
 21
99.408687
 31
0.0
  0
LINE
  5
1d1
100
AcDbEntity
  8
Layer_1
 62
5
100
AcDbLine
 10
636.179604
 20
99.408687
 30
0.0
 11
636.179604
 21
114.308609
 31
0.0
  0
LINE
  5
1d2
100
AcDbEntity
  8
Layer_1
 62
5
100
AcDbLine
 10
636.179604
 20
114.308609
 30
0.0
 11
633.179892
 21
114.308609
 31
0.0
  0
LINE
  5
1d3
100
AcDbEntity
  8
Layer_1
 62
5
100
AcDbLine
 10
633.179892
 20
114.308609
 30
0.0
 11
633.179892
 21
134.308880
 31
0.0
  0
LINE
  5
1d4
100
AcDbEntity
  8
Layer_1
 62
5
100
AcDbLine
 10
633.179892
 20
134.308880
 30
0.0
 11
636.179604
 21
134.308880
 31
0.0
  0
LINE
  5
1d5
100
AcDbEntity
  8
Layer_1
 62
5
100
AcDbLine
 10
636.179604
 20
134.308880
 30
0.0
 11
636.179604
 21
154.308636
 31
0.0
  0
LINE
  5
1d6
100
AcDbEntity
  8
Layer_1
 62
5
100
AcDbLine
 10
636.179604
 20
154.308636
 30
0.0
 11
633.179892
 21
154.308636
 31
0.0
  0
LINE
  5
1d7
100
AcDbEntity
  8
Layer_1
 62
5
100
AcDbLine
 10
633.179892
 20
154.308636
 30
0.0
 11
633.179892
 21
174.308935
 31
0.0
  0
LINE
  5
1d8
100
AcDbEntity
  8
Layer_1
 62
5
100
AcDbLine
 10
633.179892
 20
174.308935
 30
0.0
 11
636.179604
 21
174.308935
 31
0.0
  0
LINE
  5
1d9
100
AcDbEntity
  8
Layer_1
 62
5
100
AcDbLine
 10
636.179604
 20
174.308935
 30
0.0
 11
636.179604
 21
194.308669
 31
0.0
  0
LINE
  5
1da
100
AcDbEntity
  8
Layer_1
 62
5
100
AcDbLine
 10
636.179604
 20
194.308669
 30
0.0
 11
633.179892
 21
194.308669
 31
0.0
  0
LINE
  5
1db
100
AcDbEntity
  8
Layer_1
 62
5
100
AcDbLine
 10
633.179892
 20
194.308669
 30
0.0
 11
633.179892
 21
214.308968
 31
0.0
  0
LINE
  5
1dc
100
AcDbEntity
  8
Layer_1
 62
5
100
AcDbLine
 10
633.179892
 20
214.308968
 30
0.0
 11
636.179604
 21
214.308968
 31
0.0
  0
LINE
  5
1dd
100
AcDbEntity
  8
Layer_1
 62
5
100
AcDbLine
 10
636.179604
 20
214.308968
 30
0.0
 11
636.179604
 21
234.308702
 31
0.0
  0
LINE
  5
1de
100
AcDbEntity
  8
Layer_1
 62
5
100
AcDbLine
 10
636.179604
 20
234.308702
 30
0.0
 11
633.179892
 21
234.308702
 31
0.0
  0
LINE
  5
1df
100
AcDbEntity
  8
Layer_1
 62
5
100
AcDbLine
 10
633.179892
 20
234.308702
 30
0.0
 11
633.179892
 21
254.308465
 31
0.0
  0
LINE
  5
1e0
100
AcDbEntity
  8
Layer_1
 62
5
100
AcDbLine
 10
633.179892
 20
254.308465
 30
0.0
 11
636.179604
 21
254.308465
 31
0.0
  0
LINE
  5
1e1
100
AcDbEntity
  8
Layer_1
 62
5
100
AcDbLine
 10
636.179604
 20
254.308465
 30
0.0
 11
636.179604
 21
274.308763
 31
0.0
  0
LINE
  5
1e2
100
AcDbEntity
  8
Layer_1
 62
5
100
AcDbLine
 10
636.179604
 20
274.308763
 30
0.0
 11
633.179892
 21
274.308763
 31
0.0
  0
LINE
  5
1e3
100
AcDbEntity
  8
Layer_1
 62
5
100
AcDbLine
 10
633.179892
 20
274.308763
 30
0.0
 11
633.179892
 21
294.308497
 31
0.0
  0
LINE
  5
1e4
100
AcDbEntity
  8
Layer_1
 62
5
100
AcDbLine
 10
633.179892
 20
294.308497
 30
0.0
 11
636.179604
 21
294.308497
 31
0.0
  0
LINE
  5
1e5
100
AcDbEntity
  8
Layer_1
 62
5
100
AcDbLine
 10
636.179604
 20
294.308497
 30
0.0
 11
636.179604
 21
314.308796
 31
0.0
  0
LINE
  5
1e6
100
AcDbEntity
  8
Layer_1
 62
5
100
AcDbLine
 10
636.179604
 20
314.308796
 30
0.0
 11
633.179892
 21
314.308796
 31
0.0
  0
LINE
  5
1e7
100
AcDbEntity
  8
Layer_1
 62
5
100
AcDbLine
 10
633.179892
 20
314.308796
 30
0.0
 11
633.179892
 21
334.308530
 31
0.0
  0
LINE
  5
1e8
100
AcDbEntity
  8
Layer_1
 62
5
100
AcDbLine
 10
633.179892
 20
334.308530
 30
0.0
 11
636.179604
 21
334.308530
 31
0.0
  0
LINE
  5
1e9
100
AcDbEntity
  8
Layer_1
 62
5
100
AcDbLine
 10
636.179604
 20
334.308530
 30
0.0
 11
636.179604
 21
349.208989
 31
0.0
  0
LINE
  5
1ea
100
AcDbEntity
  8
Layer_1
 62
5
100
AcDbLine
 10
636.179604
 20
349.208989
 30
0.0
 11
633.179892
 21
349.208989
 31
0.0
  0
LINE
  5
1eb
100
AcDbEntity
  8
Layer_1
 62
5
100
AcDbLine
 10
633.179892
 20
349.208989
 30
0.0
 11
633.179892
 21
352.208701
 31
0.0
  0
LINE
  5
1ec
100
AcDbEntity
  8
Layer_1
 62
5
100
AcDbLine
 10
633.179892
 20
352.208701
 30
0.0
 11
618.279434
 21
352.208701
 31
0.0
  0
LINE
  5
1ed
100
AcDbEntity
  8
Layer_1
 62
5
100
AcDbLine
 10
618.279434
 20
352.208701
 30
0.0
 11
618.279434
 21
349.208989
 31
0.0
  0
LINE
  5
1ee
100
AcDbEntity
  8
Layer_1
 62
5
100
AcDbLine
 10
618.279434
 20
349.208989
 30
0.0
 11
598.279700
 21
349.208989
 31
0.0
  0
LINE
  5
1ef
100
AcDbEntity
  8
Layer_1
 62
5
100
AcDbLine
 10
598.279700
 20
349.208989
 30
0.0
 11
598.279700
 21
352.208701
 31
0.0
  0
LINE
  5
1f0
100
AcDbEntity
  8
Layer_1
 62
5
100
AcDbLine
 10
598.279700
 20
352.208701
 30
0.0
 11
578.279401
 21
352.208701
 31
0.0
  0
LINE
  5
1f1
100
AcDbEntity
  8
Layer_1
 62
5
100
AcDbLine
 10
578.279401
 20
352.208701
 30
0.0
 11
578.279401
 21
349.208989
 31
0.0
  0
LINE
  5
1f2
100
AcDbEntity
  8
Layer_1
 62
5
100
AcDbLine
 10
578.279401
 20
349.208989
 30
0.0
 11
558.279667
 21
349.208989
 31
0.0
  0
LINE
  5
1f3
100
AcDbEntity
  8
Layer_1
 62
5
100
AcDbLine
 10
558.279667
 20
349.208989
 30
0.0
 11
558.279667
 21
352.208701
 31
0.0
  0
LINE
  5
1f4
100
AcDbEntity
  8
Layer_1
 62
5
100
AcDbLine
 10
558.279667
 20
352.208701
 30
0.0
 11
538.279368
 21
352.208701
 31
0.0
  0
LINE
  5
1f5
100
AcDbEntity
  8
Layer_1
 62
5
100
AcDbLine
 10
538.279368
 20
352.208701
 30
0.0
 11
538.279368
 21
349.208989
 31
0.0
  0
LINE
  5
1f6
100
AcDbEntity
  8
Layer_1
 62
5
100
AcDbLine
 10
538.279368
 20
349.208989
 30
0.0
 11
518.279606
 21
349.208989
 31
0.0
  0
LINE
  5
1f7
100
AcDbEntity
  8
Layer_1
 62
5
100
AcDbLine
 10
518.279606
 20
349.208989
 30
0.0
 11
518.279606
 21
352.208701
 31
0.0
  0
LINE
  5
1f8
100
AcDbEntity
  8
Layer_1
 62
5
100
AcDbLine
 10
518.279606
 20
352.208701
 30
0.0
 11
498.279872
 21
352.208701
 31
0.0
  0
LINE
  5
1f9
100
AcDbEntity
  8
Layer_1
 62
5
100
AcDbLine
 10
498.279872
 20
352.208701
 30
0.0
 11
498.279872
 21
349.208989
 31
0.0
  0
LINE
  5
1fa
100
AcDbEntity
  8
Layer_1
 62
5
100
AcDbLine
 10
498.279872
 20
349.208989
 30
0.0
 11
478.279573
 21
349.208989
 31
0.0
  0
LINE
  5
1fb
100
AcDbEntity
  8
Layer_1
 62
5
100
AcDbLine
 10
478.279573
 20
349.208989
 30
0.0
 11
478.279573
 21
352.208701
 31
0.0
  0
LINE
  5
1fc
100
AcDbEntity
  8
Layer_1
 62
5
100
AcDbLine
 10
478.279573
 20
352.208701
 30
0.0
 11
458.279839
 21
352.208701
 31
0.0
  0
LINE
  5
1fd
100
AcDbEntity
  8
Layer_1
 62
5
100
AcDbLine
 10
458.279839
 20
352.208701
 30
0.0
 11
458.279839
 21
349.208989
 31
0.0
  0
LINE
  5
1fe
100
AcDbEntity
  8
Layer_1
 62
5
100
AcDbLine
 10
458.279839
 20
349.208989
 30
0.0
 11
438.279540
 21
349.208989
 31
0.0
  0
LINE
  5
1ff
100
AcDbEntity
  8
Layer_1
 62
5
100
AcDbLine
 10
438.279540
 20
349.208989
 30
0.0
 11
438.279540
 21
352.208701
 31
0.0
  0
LINE
  5
200
100
AcDbEntity
  8
Layer_1
 62
5
100
AcDbLine
 10
438.279540
 20
352.208701
 30
0.0
 11
418.279806
 21
352.208701
 31
0.0
  0
LINE
  5
201
100
AcDbEntity
  8
Layer_1
 62
5
100
AcDbLine
 10
418.279806
 20
352.208701
 30
0.0
 11
418.279806
 21
349.208989
 31
0.0
  0
LINE
  5
202
100
AcDbEntity
  8
Layer_1
 62
5
100
AcDbLine
 10
418.279806
 20
349.208989
 30
0.0
 11
398.279507
 21
349.208989
 31
0.0
  0
LINE
  5
203
100
AcDbEntity
  8
Layer_1
 62
5
100
AcDbLine
 10
398.279507
 20
349.208989
 30
0.0
 11
398.279507
 21
352.208701
 31
0.0
  0
LINE
  5
204
100
AcDbEntity
  8
Layer_1
 62
5
100
AcDbLine
 10
398.279507
 20
352.208701
 30
0.0
 11
383.379613
 21
352.208701
 31
0.0
  0
LINE
  5
205
100
AcDbEntity
  8
Layer_1
 62
5
100
AcDbLine
 10
383.379613
 20
352.208701
 30
0.0
 11
383.379613
 21
352.208701
 31
0.0
  0
SPLINE
  5
206
100
AcDbEntity
  8
Layer_1
 62
6
100
AcDbSpline
 70
8
 71
3
 72
8
 73
4
 74
0
 40
0
 40
0
 40
0
 40
0
 40
1
 40
1
 40
1
 40
1
 10
455.062110
 20
292.403215
 30
0.0
 10
455.062112
 20
288.457587
 30
0.0
 10
453.494718
 20
284.673562
 30
0.0
 10
450.704738
 20
281.883582
 30
0.0
  0
SPLINE
  5
207
100
AcDbEntity
  8
Layer_1
 62
6
100
AcDbSpline
 70
8
 71
3
 72
8
 73
4
 74
0
 40
0
 40
0
 40
0
 40
0
 40
1
 40
1
 40
1
 40
1
 10
450.704738
 20
281.883582
 30
0.0
 10
447.914758
 20
279.093602
 30
0.0
 10
444.130732
 20
277.526208
 30
0.0
 10
440.185104
 20
277.526209
 30
0.0
  0
SPLINE
  5
208
100
AcDbEntity
  8
Layer_1
 62
6
100
AcDbSpline
 70
8
 71
3
 72
8
 73
4
 74
0
 40
0
 40
0
 40
0
 40
0
 40
1
 40
1
 40
1
 40
1
 10
440.185104
 20
277.526209
 30
0.0
 10
431.968771
 20
277.526222
 30
0.0
 10
425.308124
 20
284.186881
 30
0.0
 10
425.308127
 20
292.403215
 30
0.0
  0
SPLINE
  5
209
100
AcDbEntity
  8
Layer_1
 62
6
100
AcDbSpline
 70
8
 71
3
 72
8
 73
4
 74
0
 40
0
 40
0
 40
0
 40
0
 40
1
 40
1
 40
1
 40
1
 10
425.308127
 20
292.403215
 30
0.0
 10
425.308124
 20
300.619549
 30
0.0
 10
431.968771
 20
307.280209
 30
0.0
 10
440.185104
 20
307.280221
 30
0.0
  0
SPLINE
  5
20a
100
AcDbEntity
  8
Layer_1
 62
6
100
AcDbSpline
 70
8
 71
3
 72
8
 73
4
 74
0
 40
0
 40
0
 40
0
 40
0
 40
1
 40
1
 40
1
 40
1
 10
440.185104
 20
307.280221
 30
0.0
 10
444.130732
 20
307.280223
 30
0.0
 10
447.914758
 20
305.712829
 30
0.0
 10
450.704738
 20
302.922849
 30
0.0
  0
SPLINE
  5
20b
100
AcDbEntity
  8
Layer_1
 62
6
100
AcDbSpline
 70
8
 71
3
 72
8
 73
4
 74
0
 40
0
 40
0
 40
0
 40
0
 40
1
 40
1
 40
1
 40
1
 10
450.704738
 20
302.922849
 30
0.0
 10
453.494718
 20
300.132869
 30
0.0
 10
455.062112
 20
296.348843
 30
0.0
 10
455.062110
 20
292.403215
 30
0.0
  0
LINE
  5
20c
100
AcDbEntity
  8
Layer_1
 62
6
100
AcDbLine
 10
455.062110
 20
292.403215
 30
0.0
 11
455.062110
 21
292.403215
 31
0.0
  0
SPLINE
  5
20d
100
AcDbEntity
  8
Layer_1
 62
6
100
AcDbSpline
 70
8
 71
3
 72
8
 73
4
 74
0
 40
0
 40
0
 40
0
 40
0
 40
1
 40
1
 40
1
 40
1
 10
591.251068
 20
292.403215
 30
0.0
 10
591.251070
 20
288.457587
 30
0.0
 10
589.683676
 20
284.673562
 30
0.0
 10
586.893696
 20
281.883582
 30
0.0
  0
SPLINE
  5
20e
100
AcDbEntity
  8
Layer_1
 62
6
100
AcDbSpline
 70
8
 71
3
 72
8
 73
4
 74
0
 40
0
 40
0
 40
0
 40
0
 40
1
 40
1
 40
1
 40
1
 10
586.893696
 20
281.883582
 30
0.0
 10
584.103716
 20
279.093602
 30
0.0
 10
580.319690
 20
277.526208
 30
0.0
 10
576.374062
 20
277.526209
 30
0.0
  0
SPLINE
  5
20f
100
AcDbEntity
  8
Layer_1
 62
6
100
AcDbSpline
 70
8
 71
3
 72
8
 73
4
 74
0
 40
0
 40
0
 40
0
 40
0
 40
1
 40
1
 40
1
 40
1
 10
576.374062
 20
277.526209
 30
0.0
 10
568.157729
 20
277.526222
 30
0.0
 10
561.497082
 20
284.186881
 30
0.0
 10
561.497085
 20
292.403215
 30
0.0
  0
SPLINE
  5
210
100
AcDbEntity
  8
Layer_1
 62
6
100
AcDbSpline
 70
8
 71
3
 72
8
 73
4
 74
0
 40
0
 40
0
 40
0
 40
0
 40
1
 40
1
 40
1
 40
1
 10
561.497085
 20
292.403215
 30
0.0
 10
561.497082
 20
300.619549
 30
0.0
 10
568.157729
 20
307.280209
 30
0.0
 10
576.374062
 20
307.280221
 30
0.0
  0
SPLINE
  5
211
100
AcDbEntity
  8
Layer_1
 62
6
100
AcDbSpline
 70
8
 71
3
 72
8
 73
4
 74
0
 40
0
 40
0
 40
0
 40
0
 40
1
 40
1
 40
1
 40
1
 10
576.374062
 20
307.280221
 30
0.0
 10
580.319690
 20
307.280223
 30
0.0
 10
584.103716
 20
305.712829
 30
0.0
 10
586.893696
 20
302.922849
 30
0.0
  0
SPLINE
  5
212
100
AcDbEntity
  8
Layer_1
 62
6
100
AcDbSpline
 70
8
 71
3
 72
8
 73
4
 74
0
 40
0
 40
0
 40
0
 40
0
 40
1
 40
1
 40
1
 40
1
 10
586.893696
 20
302.922849
 30
0.0
 10
589.683676
 20
300.132869
 30
0.0
 10
591.251070
 20
296.348843
 30
0.0
 10
591.251068
 20
292.403215
 30
0.0
  0
LINE
  5
213
100
AcDbEntity
  8
Layer_1
 62
6
100
AcDbLine
 10
591.251068
 20
292.403215
 30
0.0
 11
591.251068
 21
292.403215
 31
0.0
  0
SPLINE
  5
214
100
AcDbEntity
  8
Layer_1
 62
6
100
AcDbSpline
 70
8
 71
3
 72
8
 73
4
 74
0
 40
0
 40
0
 40
0
 40
0
 40
1
 40
1
 40
1
 40
1
 10
455.062110
 20
224.308750
 30
0.0
 10
455.062112
 20
220.363123
 30
0.0
 10
453.494718
 20
216.579097
 30
0.0
 10
450.704738
 20
213.789117
 30
0.0
  0
SPLINE
  5
215
100
AcDbEntity
  8
Layer_1
 62
6
100
AcDbSpline
 70
8
 71
3
 72
8
 73
4
 74
0
 40
0
 40
0
 40
0
 40
0
 40
1
 40
1
 40
1
 40
1
 10
450.704738
 20
213.789117
 30
0.0
 10
447.914758
 20
210.999137
 30
0.0
 10
444.130732
 20
209.431743
 30
0.0
 10
440.185104
 20
209.431745
 30
0.0
  0
SPLINE
  5
216
100
AcDbEntity
  8
Layer_1
 62
6
100
AcDbSpline
 70
8
 71
3
 72
8
 73
4
 74
0
 40
0
 40
0
 40
0
 40
0
 40
1
 40
1
 40
1
 40
1
 10
440.185104
 20
209.431745
 30
0.0
 10
431.968771
 20
209.431757
 30
0.0
 10
425.308124
 20
216.092417
 30
0.0
 10
425.308127
 20
224.308750
 30
0.0
  0
SPLINE
  5
217
100
AcDbEntity
  8
Layer_1
 62
6
100
AcDbSpline
 70
8
 71
3
 72
8
 73
4
 74
0
 40
0
 40
0
 40
0
 40
0
 40
1
 40
1
 40
1
 40
1
 10
425.308127
 20
224.308750
 30
0.0
 10
425.308139
 20
232.525073
 30
0.0
 10
431.968782
 20
239.185716
 30
0.0
 10
440.185104
 20
239.185728
 30
0.0
  0
SPLINE
  5
218
100
AcDbEntity
  8
Layer_1
 62
6
100
AcDbSpline
 70
8
 71
3
 72
8
 73
4
 74
0
 40
0
 40
0
 40
0
 40
0
 40
1
 40
1
 40
1
 40
1
 10
440.185104
 20
239.185728
 30
0.0
 10
448.401438
 20
239.185731
 30
0.0
 10
455.062098
 20
232.525084
 30
0.0
 10
455.062110
 20
224.308750
 30
0.0
  0
LINE
  5
219
100
AcDbEntity
  8
Layer_1
 62
6
100
AcDbLine
 10
455.062110
 20
224.308750
 30
0.0
 11
455.062110
 21
224.308750
 31
0.0
  0
SPLINE
  5
21a
100
AcDbEntity
  8
Layer_1
 62
6
100
AcDbSpline
 70
8
 71
3
 72
8
 73
4
 74
0
 40
0
 40
0
 40
0
 40
0
 40
1
 40
1
 40
1
 40
1
 10
591.251068
 20
224.308750
 30
0.0
 10
591.251070
 20
220.363123
 30
0.0
 10
589.683676
 20
216.579097
 30
0.0
 10
586.893696
 20
213.789117
 30
0.0
  0
SPLINE
  5
21b
100
AcDbEntity
  8
Layer_1
 62
6
100
AcDbSpline
 70
8
 71
3
 72
8
 73
4
 74
0
 40
0
 40
0
 40
0
 40
0
 40
1
 40
1
 40
1
 40
1
 10
586.893696
 20
213.789117
 30
0.0
 10
584.103716
 20
210.999137
 30
0.0
 10
580.319690
 20
209.431743
 30
0.0
 10
576.374062
 20
209.431745
 30
0.0
  0
SPLINE
  5
21c
100
AcDbEntity
  8
Layer_1
 62
6
100
AcDbSpline
 70
8
 71
3
 72
8
 73
4
 74
0
 40
0
 40
0
 40
0
 40
0
 40
1
 40
1
 40
1
 40
1
 10
576.374062
 20
209.431745
 30
0.0
 10
568.157729
 20
209.431757
 30
0.0
 10
561.497082
 20
216.092417
 30
0.0
 10
561.497085
 20
224.308750
 30
0.0
  0
SPLINE
  5
21d
100
AcDbEntity
  8
Layer_1
 62
6
100
AcDbSpline
 70
8
 71
3
 72
8
 73
4
 74
0
 40
0
 40
0
 40
0
 40
0
 40
1
 40
1
 40
1
 40
1
 10
561.497085
 20
224.308750
 30
0.0
 10
561.497097
 20
232.525073
 30
0.0
 10
568.157740
 20
239.185716
 30
0.0
 10
576.374062
 20
239.185728
 30
0.0
  0
SPLINE
  5
21e
100
AcDbEntity
  8
Layer_1
 62
6
100
AcDbSpline
 70
8
 71
3
 72
8
 73
4
 74
0
 40
0
 40
0
 40
0
 40
0
 40
1
 40
1
 40
1
 40
1
 10
576.374062
 20
239.185728
 30
0.0
 10
584.590396
 20
239.185731
 30
0.0
 10
591.251056
 20
232.525084
 30
0.0
 10
591.251068
 20
224.308750
 30
0.0
  0
LINE
  5
21f
100
AcDbEntity
  8
Layer_1
 62
6
100
AcDbLine
 10
591.251068
 20
224.308750
 30
0.0
 11
591.251068
 21
224.308750
 31
0.0
  0
SPLINE
  5
220
100
AcDbEntity
  8
Layer_1
 62
6
100
AcDbSpline
 70
8
 71
3
 72
8
 73
4
 74
0
 40
0
 40
0
 40
0
 40
0
 40
1
 40
1
 40
1
 40
1
 10
455.062110
 20
156.214257
 30
0.0
 10
455.062110
 20
152.268631
 30
0.0
 10
453.494715
 20
148.484608
 30
0.0
 10
450.704735
 20
145.694629
 30
0.0
  0
SPLINE
  5
221
100
AcDbEntity
  8
Layer_1
 62
6
100
AcDbSpline
 70
8
 71
3
 72
8
 73
4
 74
0
 40
0
 40
0
 40
0
 40
0
 40
1
 40
1
 40
1
 40
1
 10
450.704735
 20
145.694629
 30
0.0
 10
447.914755
 20
142.904651
 30
0.0
 10
444.130731
 20
141.337258
 30
0.0
 10
440.185104
 20
141.337260
 30
0.0
  0
SPLINE
  5
222
100
AcDbEntity
  8
Layer_1
 62
6
100
AcDbSpline
 70
8
 71
3
 72
8
 73
4
 74
0
 40
0
 40
0
 40
0
 40
0
 40
1
 40
1
 40
1
 40
1
 10
440.185104
 20
141.337260
 30
0.0
 10
431.968774
 20
141.337272
 30
0.0
 10
425.308128
 20
147.997927
 30
0.0
 10
425.308127
 20
156.214257
 30
0.0
  0
SPLINE
  5
223
100
AcDbEntity
  8
Layer_1
 62
6
100
AcDbSpline
 70
8
 71
3
 72
8
 73
4
 74
0
 40
0
 40
0
 40
0
 40
0
 40
1
 40
1
 40
1
 40
1
 10
425.308127
 20
156.214257
 30
0.0
 10
425.308124
 20
164.430591
 30
0.0
 10
431.968771
 20
171.091251
 30
0.0
 10
440.185104
 20
171.091263
 30
0.0
  0
SPLINE
  5
224
100
AcDbEntity
  8
Layer_1
 62
6
100
AcDbSpline
 70
8
 71
3
 72
8
 73
4
 74
0
 40
0
 40
0
 40
0
 40
0
 40
1
 40
1
 40
1
 40
1
 10
440.185104
 20
171.091263
 30
0.0
 10
444.130732
 20
171.091265
 30
0.0
 10
447.914758
 20
169.523871
 30
0.0
 10
450.704738
 20
166.733891
 30
0.0
  0
SPLINE
  5
225
100
AcDbEntity
  8
Layer_1
 62
6
100
AcDbSpline
 70
8
 71
3
 72
8
 73
4
 74
0
 40
0
 40
0
 40
0
 40
0
 40
1
 40
1
 40
1
 40
1
 10
450.704738
 20
166.733891
 30
0.0
 10
453.494718
 20
163.943911
 30
0.0
 10
455.062112
 20
160.159885
 30
0.0
 10
455.062110
 20
156.214257
 30
0.0
  0
LINE
  5
226
100
AcDbEntity
  8
Layer_1
 62
6
100
AcDbLine
 10
455.062110
 20
156.214257
 30
0.0
 11
455.062110
 21
156.214257
 31
0.0
  0
SPLINE
  5
227
100
AcDbEntity
  8
Layer_1
 62
6
100
AcDbSpline
 70
8
 71
3
 72
8
 73
4
 74
0
 40
0
 40
0
 40
0
 40
0
 40
1
 40
1
 40
1
 40
1
 10
523.156603
 20
156.214257
 30
0.0
 10
523.156603
 20
152.268631
 30
0.0
 10
521.589208
 20
148.484608
 30
0.0
 10
518.799228
 20
145.694629
 30
0.0
  0
SPLINE
  5
228
100
AcDbEntity
  8
Layer_1
 62
6
100
AcDbSpline
 70
8
 71
3
 72
8
 73
4
 74
0
 40
0
 40
0
 40
0
 40
0
 40
1
 40
1
 40
1
 40
1
 10
518.799228
 20
145.694629
 30
0.0
 10
516.009248
 20
142.904651
 30
0.0
 10
512.225224
 20
141.337258
 30
0.0
 10
508.279598
 20
141.337260
 30
0.0
  0
SPLINE
  5
229
100
AcDbEntity
  8
Layer_1
 62
6
100
AcDbSpline
 70
8
 71
3
 72
8
 73
4
 74
0
 40
0
 40
0
 40
0
 40
0
 40
1
 40
1
 40
1
 40
1
 10
508.279598
 20
141.337260
 30
0.0
 10
504.333971
 20
141.337258
 30
0.0
 10
500.549947
 20
142.904651
 30
0.0
 10
497.759967
 20
145.694629
 30
0.0
  0
SPLINE
  5
22a
100
AcDbEntity
  8
Layer_1
 62
6
100
AcDbSpline
 70
8
 71
3
 72
8
 73
4
 74
0
 40
0
 40
0
 40
0
 40
0
 40
1
 40
1
 40
1
 40
1
 10
497.759967
 20
145.694629
 30
0.0
 10
494.969987
 20
148.484608
 30
0.0
 10
493.402592
 20
152.268631
 30
0.0
 10
493.402592
 20
156.214257
 30
0.0
  0
SPLINE
  5
22b
100
AcDbEntity
  8
Layer_1
 62
6
100
AcDbSpline
 70
8
 71
3
 72
8
 73
4
 74
0
 40
0
 40
0
 40
0
 40
0
 40
1
 40
1
 40
1
 40
1
 10
493.402592
 20
156.214257
 30
0.0
 10
493.402590
 20
160.159885
 30
0.0
 10
494.969984
 20
163.943910
 30
0.0
 10
497.759964
 20
166.733891
 30
0.0
  0
SPLINE
  5
22c
100
AcDbEntity
  8
Layer_1
 62
6
100
AcDbSpline
 70
8
 71
3
 72
8
 73
4
 74
0
 40
0
 40
0
 40
0
 40
0
 40
1
 40
1
 40
1
 40
1
 10
497.759964
 20
166.733891
 30
0.0
 10
500.549944
 20
169.523871
 30
0.0
 10
504.333970
 20
171.091265
 30
0.0
 10
508.279598
 20
171.091263
 30
0.0
  0
SPLINE
  5
22d
100
AcDbEntity
  8
Layer_1
 62
6
100
AcDbSpline
 70
8
 71
3
 72
8
 73
4
 74
0
 40
0
 40
0
 40
0
 40
0
 40
1
 40
1
 40
1
 40
1
 10
508.279598
 20
171.091263
 30
0.0
 10
512.225225
 20
171.091265
 30
0.0
 10
516.009251
 20
169.523871
 30
0.0
 10
518.799231
 20
166.733891
 30
0.0
  0
SPLINE
  5
22e
100
AcDbEntity
  8
Layer_1
 62
6
100
AcDbSpline
 70
8
 71
3
 72
8
 73
4
 74
0
 40
0
 40
0
 40
0
 40
0
 40
1
 40
1
 40
1
 40
1
 10
518.799231
 20
166.733891
 30
0.0
 10
521.589211
 20
163.943911
 30
0.0
 10
523.156605
 20
160.159885
 30
0.0
 10
523.156603
 20
156.214257
 30
0.0
  0
LINE
  5
22f
100
AcDbEntity
  8
Layer_1
 62
6
100
AcDbLine
 10
523.156603
 20
156.214257
 30
0.0
 11
523.156603
 21
156.214257
 31
0.0
  0
SPLINE
  5
230
100
AcDbEntity
  8
Layer_1
 62
6
100
AcDbSpline
 70
8
 71
3
 72
8
 73
4
 74
0
 40
0
 40
0
 40
0
 40
0
 40
1
 40
1
 40
1
 40
1
 10
591.251068
 20
156.214257
 30
0.0
 10
591.251068
 20
152.268631
 30
0.0
 10
589.683673
 20
148.484608
 30
0.0
 10
586.893693
 20
145.694629
 30
0.0
  0
SPLINE
  5
231
100
AcDbEntity
  8
Layer_1
 62
6
100
AcDbSpline
 70
8
 71
3
 72
8
 73
4
 74
0
 40
0
 40
0
 40
0
 40
0
 40
1
 40
1
 40
1
 40
1
 10
586.893693
 20
145.694629
 30
0.0
 10
584.103713
 20
142.904651
 30
0.0
 10
580.319689
 20
141.337258
 30
0.0
 10
576.374062
 20
141.337260
 30
0.0
  0
SPLINE
  5
232
100
AcDbEntity
  8
Layer_1
 62
6
100
AcDbSpline
 70
8
 71
3
 72
8
 73
4
 74
0
 40
0
 40
0
 40
0
 40
0
 40
1
 40
1
 40
1
 40
1
 10
576.374062
 20
141.337260
 30
0.0
 10
568.157732
 20
141.337272
 30
0.0
 10
561.497086
 20
147.997927
 30
0.0
 10
561.497085
 20
156.214257
 30
0.0
  0
SPLINE
  5
233
100
AcDbEntity
  8
Layer_1
 62
6
100
AcDbSpline
 70
8
 71
3
 72
8
 73
4
 74
0
 40
0
 40
0
 40
0
 40
0
 40
1
 40
1
 40
1
 40
1
 10
561.497085
 20
156.214257
 30
0.0
 10
561.497082
 20
164.430591
 30
0.0
 10
568.157729
 20
171.091251
 30
0.0
 10
576.374062
 20
171.091263
 30
0.0
  0
SPLINE
  5
234
100
AcDbEntity
  8
Layer_1
 62
6
100
AcDbSpline
 70
8
 71
3
 72
8
 73
4
 74
0
 40
0
 40
0
 40
0
 40
0
 40
1
 40
1
 40
1
 40
1
 10
576.374062
 20
171.091263
 30
0.0
 10
580.319690
 20
171.091265
 30
0.0
 10
584.103716
 20
169.523871
 30
0.0
 10
586.893696
 20
166.733891
 30
0.0
  0
SPLINE
  5
235
100
AcDbEntity
  8
Layer_1
 62
6
100
AcDbSpline
 70
8
 71
3
 72
8
 73
4
 74
0
 40
0
 40
0
 40
0
 40
0
 40
1
 40
1
 40
1
 40
1
 10
586.893696
 20
166.733891
 30
0.0
 10
589.683676
 20
163.943911
 30
0.0
 10
591.251070
 20
160.159885
 30
0.0
 10
591.251068
 20
156.214257
 30
0.0
  0
LINE
  5
236
100
AcDbEntity
  8
Layer_1
 62
6
100
AcDbLine
 10
591.251068
 20
156.214257
 30
0.0
 11
591.251068
 21
156.214257
 31
0.0
  0
LINE
  5
237
100
AcDbEntity
  8
Layer_1
 62
7
100
AcDbLine
 10
468.986616
 20
265.015668
 30
0.0
 11
467.572203
 21
263.601227
 31
0.0
  0
LINE
  5
238
100
AcDbEntity
  8
Layer_1
 62
7
100
AcDbLine
 10
467.572203
 20
263.601227
 30
0.0
 11
505.865130
 21
225.308311
 31
0.0
  0
LINE
  5
239
100
AcDbEntity
  8
Layer_1
 62
7
100
AcDbLine
 10
505.865130
 20
225.308311
 30
0.0
 11
468.279424
 21
225.308311
 31
0.0
  0
LINE
  5
23a
100
AcDbEntity
  8
Layer_1
 62
7
100
AcDbLine
 10
468.279424
 20
225.308311
 30
0.0
 11
468.279424
 21
223.308501
 31
0.0
  0
LINE
  5
23b
100
AcDbEntity
  8
Layer_1
 62
7
100
AcDbLine
 10
468.279424
 20
223.308501
 30
0.0
 11
505.865130
 21
223.308501
 31
0.0
  0
LINE
  5
23c
100
AcDbEntity
  8
Layer_1
 62
7
100
AcDbLine
 10
505.865130
 20
223.308501
 30
0.0
 11
467.572203
 21
185.015577
 31
0.0
  0
LINE
  5
23d
100
AcDbEntity
  8
Layer_1
 62
7
100
AcDbLine
 10
467.572203
 20
185.015577
 30
0.0
 11
468.986616
 21
183.601158
 31
0.0
  0
LINE
  5
23e
100
AcDbEntity
  8
Layer_1
 62
7
100
AcDbLine
 10
468.986616
 20
183.601158
 30
0.0
 11
507.279543
 21
221.894082
 31
0.0
  0
LINE
  5
23f
100
AcDbEntity
  8
Layer_1
 62
7
100
AcDbLine
 10
507.279543
 20
221.894082
 30
0.0
 11
507.279543
 21
184.308367
 31
0.0
  0
LINE
  5
240
100
AcDbEntity
  8
Layer_1
 62
7
100
AcDbLine
 10
507.279543
 20
184.308367
 30
0.0
 11
509.279342
 21
184.308367
 31
0.0
  0
LINE
  5
241
100
AcDbEntity
  8
Layer_1
 62
7
100
AcDbLine
 10
509.279342
 20
184.308367
 30
0.0
 11
509.279342
 21
221.894082
 31
0.0
  0
LINE
  5
242
100
AcDbEntity
  8
Layer_1
 62
7
100
AcDbLine
 10
509.279342
 20
221.894082
 30
0.0
 11
547.572269
 21
183.601158
 31
0.0
  0
LINE
  5
243
100
AcDbEntity
  8
Layer_1
 62
7
100
AcDbLine
 10
547.572269
 20
183.601158
 30
0.0
 11
548.986710
 21
185.015577
 31
0.0
  0
LINE
  5
244
100
AcDbEntity
  8
Layer_1
 62
7
100
AcDbLine
 10
548.986710
 20
185.015577
 30
0.0
 11
510.693783
 21
223.308501
 31
0.0
  0
LINE
  5
245
100
AcDbEntity
  8
Layer_1
 62
7
100
AcDbLine
 10
510.693783
 20
223.308501
 30
0.0
 11
548.279489
 21
223.308501
 31
0.0
  0
LINE
  5
246
100
AcDbEntity
  8
Layer_1
 62
7
100
AcDbLine
 10
548.279489
 20
223.308501
 30
0.0
 11
548.279489
 21
225.308311
 31
0.0
  0
LINE
  5
247
100
AcDbEntity
  8
Layer_1
 62
7
100
AcDbLine
 10
548.279489
 20
225.308311
 30
0.0
 11
510.693783
 21
225.308311
 31
0.0
  0
LINE
  5
248
100
AcDbEntity
  8
Layer_1
 62
7
100
AcDbLine
 10
510.693783
 20
225.308311
 30
0.0
 11
548.986710
 21
263.601227
 31
0.0
  0
LINE
  5
249
100
AcDbEntity
  8
Layer_1
 62
7
100
AcDbLine
 10
548.986710
 20
263.601227
 30
0.0
 11
547.572269
 21
265.015668
 31
0.0
  0
LINE
  5
24a
100
AcDbEntity
  8
Layer_1
 62
7
100
AcDbLine
 10
547.572269
 20
265.015668
 30
0.0
 11
509.279342
 21
226.722730
 31
0.0
  0
LINE
  5
24b
100
AcDbEntity
  8
Layer_1
 62
7
100
AcDbLine
 10
509.279342
 20
226.722730
 30
0.0
 11
509.279342
 21
264.308447
 31
0.0
  0
LINE
  5
24c
100
AcDbEntity
  8
Layer_1
 62
7
100
AcDbLine
 10
509.279342
 20
264.308447
 30
0.0
 11
507.279543
 21
264.308447
 31
0.0
  0
LINE
  5
24d
100
AcDbEntity
  8
Layer_1
 62
7
100
AcDbLine
 10
507.279543
 20
264.308447
 30
0.0
 11
507.279543
 21
226.722730
 31
0.0
  0
LINE
  5
24e
100
AcDbEntity
  8
Layer_1
 62
7
100
AcDbLine
 10
507.279543
 20
226.722730
 30
0.0
 11
468.986616
 21
265.015668
 31
0.0
  0
LINE
  5
24f
100
AcDbEntity
  8
Layer_1
 62
7
100
AcDbLine
 10
468.986616
 20
265.015668
 30
0.0
 11
468.986616
 21
265.015668
 31
0.0
  0
LINE
  5
250
100
AcDbEntity
  8
Layer_1
 62
7
100
AcDbLine
 10
436.821890
 20
323.706457
 30
0.0
 11
435.479670
 21
322.364237
 31
0.0
  0
LINE
  5
251
100
AcDbEntity
  8
Layer_1
 62
7
100
AcDbLine
 10
435.479670
 20
322.364237
 30
0.0
 11
438.843194
 21
319.000741
 31
0.0
  0
LINE
  5
252
100
AcDbEntity
  8
Layer_1
 62
7
100
AcDbLine
 10
438.843194
 20
319.000741
 30
0.0
 11
435.479670
 21
315.637216
 31
0.0
  0
LINE
  5
253
100
AcDbEntity
  8
Layer_1
 62
7
100
AcDbLine
 10
435.479670
 20
315.637216
 30
0.0
 11
436.821890
 21
314.294995
 31
0.0
  0
LINE
  5
254
100
AcDbEntity
  8
Layer_1
 62
7
100
AcDbLine
 10
436.821890
 20
314.294995
 30
0.0
 11
440.185387
 21
317.658520
 31
0.0
  0
LINE
  5
255
100
AcDbEntity
  8
Layer_1
 62
7
100
AcDbLine
 10
440.185387
 20
317.658520
 30
0.0
 11
443.548911
 21
314.294995
 31
0.0
  0
LINE
  5
256
100
AcDbEntity
  8
Layer_1
 62
7
100
AcDbLine
 10
443.548911
 20
314.294995
 30
0.0
 11
444.890567
 21
315.637216
 31
0.0
  0
LINE
  5
257
100
AcDbEntity
  8
Layer_1
 62
7
100
AcDbLine
 10
444.890567
 20
315.637216
 30
0.0
 11
441.527043
 21
319.000741
 31
0.0
  0
LINE
  5
258
100
AcDbEntity
  8
Layer_1
 62
7
100
AcDbLine
 10
441.527043
 20
319.000741
 30
0.0
 11
444.890567
 21
322.364237
 31
0.0
  0
LINE
  5
259
100
AcDbEntity
  8
Layer_1
 62
7
100
AcDbLine
 10
444.890567
 20
322.364237
 30
0.0
 11
443.548911
 21
323.706457
 31
0.0
  0
LINE
  5
25a
100
AcDbEntity
  8
Layer_1
 62
7
100
AcDbLine
 10
443.548911
 20
323.706457
 30
0.0
 11
440.185387
 21
320.342933
 31
0.0
  0
LINE
  5
25b
100
AcDbEntity
  8
Layer_1
 62
7
100
AcDbLine
 10
440.185387
 20
320.342933
 30
0.0
 11
436.821890
 21
323.706457
 31
0.0
  0
LINE
  5
25c
100
AcDbEntity
  8
Layer_1
 62
7
100
AcDbLine
 10
436.821890
 20
323.706457
 30
0.0
 11
436.821890
 21
323.706457
 31
0.0
  0
LINE
  5
25d
100
AcDbEntity
  8
Layer_1
 62
7
100
AcDbLine
 10
503.279805
 20
324.253178
 30
0.0
 11
503.279805
 21
323.253265
 31
0.0
  0
LINE
  5
25e
100
AcDbEntity
  8
Layer_1
 62
7
100
AcDbLine
 10
503.279805
 20
323.253265
 30
0.0
 11
503.279805
 21
314.253565
 31
0.0
  0
LINE
  5
25f
100
AcDbEntity
  8
Layer_1
 62
7
100
AcDbLine
 10
503.279805
 20
314.253565
 30
0.0
 11
513.279418
 21
314.253565
 31
0.0
  0
LINE
  5
260
100
AcDbEntity
  8
Layer_1
 62
7
100
AcDbLine
 10
513.279418
 20
314.253565
 30
0.0
 11
513.279418
 21
324.253178
 31
0.0
  0
LINE
  5
261
100
AcDbEntity
  8
Layer_1
 62
7
100
AcDbLine
 10
513.279418
 20
324.253178
 30
0.0
 11
503.279805
 21
324.253178
 31
0.0
  0
LINE
  5
262
100
AcDbEntity
  8
Layer_1
 62
7
100
AcDbLine
 10
503.279805
 20
324.253178
 30
0.0
 11
503.279805
 21
324.253178
 31
0.0
  0
LINE
  5
263
100
AcDbEntity
  8
Layer_1
 62
7
100
AcDbLine
 10
505.279632
 20
322.253352
 30
0.0
 11
511.279592
 21
322.253352
 31
0.0
  0
LINE
  5
264
100
AcDbEntity
  8
Layer_1
 62
7
100
AcDbLine
 10
511.279592
 20
322.253352
 30
0.0
 11
511.279592
 21
316.253392
 31
0.0
  0
LINE
  5
265
100
AcDbEntity
  8
Layer_1
 62
7
100
AcDbLine
 10
511.279592
 20
316.253392
 30
0.0
 11
505.279632
 21
316.253392
 31
0.0
  0
LINE
  5
266
100
AcDbEntity
  8
Layer_1
 62
7
100
AcDbLine
 10
505.279632
 20
316.253392
 30
0.0
 11
505.279632
 21
322.253352
 31
0.0
  0
LINE
  5
267
100
AcDbEntity
  8
Layer_1
 62
7
100
AcDbLine
 10
505.279632
 20
322.253352
 30
0.0
 11
505.279632
 21
322.253352
 31
0.0
  0
LINE
  5
268
100
AcDbEntity
  8
Layer_1
 62
7
100
AcDbLine
 10
573.010848
 20
323.706457
 30
0.0
 11
571.668628
 21
322.364237
 31
0.0
  0
LINE
  5
269
100
AcDbEntity
  8
Layer_1
 62
7
100
AcDbLine
 10
571.668628
 20
322.364237
 30
0.0
 11
575.032152
 21
319.000741
 31
0.0
  0
LINE
  5
26a
100
AcDbEntity
  8
Layer_1
 62
7
100
AcDbLine
 10
575.032152
 20
319.000741
 30
0.0
 11
571.668628
 21
315.637216
 31
0.0
  0
LINE
  5
26b
100
AcDbEntity
  8
Layer_1
 62
7
100
AcDbLine
 10
571.668628
 20
315.637216
 30
0.0
 11
573.010848
 21
314.294995
 31
0.0
  0
LINE
  5
26c
100
AcDbEntity
  8
Layer_1
 62
7
100
AcDbLine
 10
573.010848
 20
314.294995
 30
0.0
 11
576.374345
 21
317.658520
 31
0.0
  0
LINE
  5
26d
100
AcDbEntity
  8
Layer_1
 62
7
100
AcDbLine
 10
576.374345
 20
317.658520
 30
0.0
 11
579.737869
 21
314.294995
 31
0.0
  0
LINE
  5
26e
100
AcDbEntity
  8
Layer_1
 62
7
100
AcDbLine
 10
579.737869
 20
314.294995
 30
0.0
 11
581.079525
 21
315.637216
 31
0.0
  0
LINE
  5
26f
100
AcDbEntity
  8
Layer_1
 62
7
100
AcDbLine
 10
581.079525
 20
315.637216
 30
0.0
 11
577.716001
 21
319.000741
 31
0.0
  0
LINE
  5
270
100
AcDbEntity
  8
Layer_1
 62
7
100
AcDbLine
 10
577.716001
 20
319.000741
 30
0.0
 11
581.079525
 21
322.364237
 31
0.0
  0
LINE
  5
271
100
AcDbEntity
  8
Layer_1
 62
7
100
AcDbLine
 10
581.079525
 20
322.364237
 30
0.0
 11
579.737869
 21
323.706457
 31
0.0
  0
LINE
  5
272
100
AcDbEntity
  8
Layer_1
 62
7
100
AcDbLine
 10
579.737869
 20
323.706457
 30
0.0
 11
576.374345
 21
320.342933
 31
0.0
  0
LINE
  5
273
100
AcDbEntity
  8
Layer_1
 62
7
100
AcDbLine
 10
576.374345
 20
320.342933
 30
0.0
 11
573.010848
 21
323.706457
 31
0.0
  0
LINE
  5
274
100
AcDbEntity
  8
Layer_1
 62
7
100
AcDbLine
 10
573.010848
 20
323.706457
 30
0.0
 11
573.010848
 21
323.706457
 31
0.0
  0
LINE
  5
275
100
AcDbEntity
  8
Layer_1
 62
7
100
AcDbLine
 10
608.224026
 20
229.308543
 30
0.0
 11
607.224112
 21
229.308543
 31
0.0
  0
LINE
  5
276
100
AcDbEntity
  8
Layer_1
 62
7
100
AcDbLine
 10
607.224112
 20
229.308543
 30
0.0
 11
598.224412
 21
229.308543
 31
0.0
  0
LINE
  5
277
100
AcDbEntity
  8
Layer_1
 62
7
100
AcDbLine
 10
598.224412
 20
229.308543
 30
0.0
 11
598.224412
 21
219.308930
 31
0.0
  0
LINE
  5
278
100
AcDbEntity
  8
Layer_1
 62
7
100
AcDbLine
 10
598.224412
 20
219.308930
 30
0.0
 11
608.224026
 21
219.308930
 31
0.0
  0
LINE
  5
279
100
AcDbEntity
  8
Layer_1
 62
7
100
AcDbLine
 10
608.224026
 20
219.308930
 30
0.0
 11
608.224026
 21
229.308543
 31
0.0
  0
LINE
  5
27a
100
AcDbEntity
  8
Layer_1
 62
7
100
AcDbLine
 10
608.224026
 20
229.308543
 30
0.0
 11
608.224026
 21
229.308543
 31
0.0
  0
LINE
  5
27b
100
AcDbEntity
  8
Layer_1
 62
7
100
AcDbLine
 10
606.224199
 20
227.308716
 30
0.0
 11
606.224199
 21
221.308756
 31
0.0
  0
LINE
  5
27c
100
AcDbEntity
  8
Layer_1
 62
7
100
AcDbLine
 10
606.224199
 20
221.308756
 30
0.0
 11
600.224239
 21
221.308756
 31
0.0
  0
LINE
  5
27d
100
AcDbEntity
  8
Layer_1
 62
7
100
AcDbLine
 10
600.224239
 20
221.308756
 30
0.0
 11
600.224239
 21
227.308716
 31
0.0
  0
LINE
  5
27e
100
AcDbEntity
  8
Layer_1
 62
7
100
AcDbLine
 10
600.224239
 20
227.308716
 30
0.0
 11
606.224199
 21
227.308716
 31
0.0
  0
LINE
  5
27f
100
AcDbEntity
  8
Layer_1
 62
7
100
AcDbLine
 10
606.224199
 20
227.308716
 30
0.0
 11
606.224199
 21
227.308716
 31
0.0
  0
LINE
  5
280
100
AcDbEntity
  8
Layer_1
 62
7
100
AcDbLine
 10
418.334783
 20
229.308543
 30
0.0
 11
417.334869
 21
229.308543
 31
0.0
  0
LINE
  5
281
100
AcDbEntity
  8
Layer_1
 62
7
100
AcDbLine
 10
417.334869
 20
229.308543
 30
0.0
 11
408.335170
 21
229.308543
 31
0.0
  0
LINE
  5
282
100
AcDbEntity
  8
Layer_1
 62
7
100
AcDbLine
 10
408.335170
 20
229.308543
 30
0.0
 11
408.335170
 21
219.308930
 31
0.0
  0
LINE
  5
283
100
AcDbEntity
  8
Layer_1
 62
7
100
AcDbLine
 10
408.335170
 20
219.308930
 30
0.0
 11
418.334783
 21
219.308930
 31
0.0
  0
LINE
  5
284
100
AcDbEntity
  8
Layer_1
 62
7
100
AcDbLine
 10
418.334783
 20
219.308930
 30
0.0
 11
418.334783
 21
229.308543
 31
0.0
  0
LINE
  5
285
100
AcDbEntity
  8
Layer_1
 62
7
100
AcDbLine
 10
418.334783
 20
229.308543
 30
0.0
 11
418.334783
 21
229.308543
 31
0.0
  0
LINE
  5
286
100
AcDbEntity
  8
Layer_1
 62
7
100
AcDbLine
 10
416.334956
 20
227.308716
 30
0.0
 11
416.334956
 21
221.308756
 31
0.0
  0
LINE
  5
287
100
AcDbEntity
  8
Layer_1
 62
7
100
AcDbLine
 10
416.334956
 20
221.308756
 30
0.0
 11
410.334996
 21
221.308756
 31
0.0
  0
LINE
  5
288
100
AcDbEntity
  8
Layer_1
 62
7
100
AcDbLine
 10
410.334996
 20
221.308756
 30
0.0
 11
410.334996
 21
227.308716
 31
0.0
  0
LINE
  5
289
100
AcDbEntity
  8
Layer_1
 62
7
100
AcDbLine
 10
410.334996
 20
227.308716
 30
0.0
 11
416.334956
 21
227.308716
 31
0.0
  0
LINE
  5
28a
100
AcDbEntity
  8
Layer_1
 62
7
100
AcDbLine
 10
416.334956
 20
227.308716
 30
0.0
 11
416.334956
 21
227.308716
 31
0.0
  0
LINE
  5
28b
100
AcDbEntity
  8
Layer_1
 62
7
100
AcDbLine
 10
436.821890
 20
134.322491
 30
0.0
 11
435.479670
 21
132.980270
 31
0.0
  0
LINE
  5
28c
100
AcDbEntity
  8
Layer_1
 62
7
100
AcDbLine
 10
435.479670
 20
132.980270
 30
0.0
 11
438.843194
 21
129.616774
 31
0.0
  0
LINE
  5
28d
100
AcDbEntity
  8
Layer_1
 62
7
100
AcDbLine
 10
438.843194
 20
129.616774
 30
0.0
 11
435.479670
 21
126.253250
 31
0.0
  0
LINE
  5
28e
100
AcDbEntity
  8
Layer_1
 62
7
100
AcDbLine
 10
435.479670
 20
126.253250
 30
0.0
 11
436.821890
 21
124.911029
 31
0.0
  0
LINE
  5
28f
100
AcDbEntity
  8
Layer_1
 62
7
100
AcDbLine
 10
436.821890
 20
124.911029
 30
0.0
 11
440.185387
 21
128.274554
 31
0.0
  0
LINE
  5
290
100
AcDbEntity
  8
Layer_1
 62
7
100
AcDbLine
 10
440.185387
 20
128.274554
 30
0.0
 11
443.548911
 21
124.911029
 31
0.0
  0
LINE
  5
291
100
AcDbEntity
  8
Layer_1
 62
7
100
AcDbLine
 10
443.548911
 20
124.911029
 30
0.0
 11
444.890567
 21
126.253250
 31
0.0
  0
LINE
  5
292
100
AcDbEntity
  8
Layer_1
 62
7
100
AcDbLine
 10
444.890567
 20
126.253250
 30
0.0
 11
441.527043
 21
129.616774
 31
0.0
  0
LINE
  5
293
100
AcDbEntity
  8
Layer_1
 62
7
100
AcDbLine
 10
441.527043
 20
129.616774
 30
0.0
 11
444.890567
 21
132.980270
 31
0.0
  0
LINE
  5
294
100
AcDbEntity
  8
Layer_1
 62
7
100
AcDbLine
 10
444.890567
 20
132.980270
 30
0.0
 11
443.548911
 21
134.322491
 31
0.0
  0
LINE
  5
295
100
AcDbEntity
  8
Layer_1
 62
7
100
AcDbLine
 10
443.548911
 20
134.322491
 30
0.0
 11
440.185387
 21
130.958967
 31
0.0
  0
LINE
  5
296
100
AcDbEntity
  8
Layer_1
 62
7
100
AcDbLine
 10
440.185387
 20
130.958967
 30
0.0
 11
436.821890
 21
134.322491
 31
0.0
  0
LINE
  5
297
100
AcDbEntity
  8
Layer_1
 62
7
100
AcDbLine
 10
436.821890
 20
134.322491
 30
0.0
 11
436.821890
 21
134.322491
 31
0.0
  0
LINE
  5
298
100
AcDbEntity
  8
Layer_1
 62
7
100
AcDbLine
 10
503.279805
 20
134.363927
 30
0.0
 11
503.279805
 21
133.364014
 31
0.0
  0
LINE
  5
299
100
AcDbEntity
  8
Layer_1
 62
7
100
AcDbLine
 10
503.279805
 20
133.364014
 30
0.0
 11
503.279805
 21
124.364314
 31
0.0
  0
LINE
  5
29a
100
AcDbEntity
  8
Layer_1
 62
7
100
AcDbLine
 10
503.279805
 20
124.364314
 30
0.0
 11
513.279418
 21
124.364314
 31
0.0
  0
LINE
  5
29b
100
AcDbEntity
  8
Layer_1
 62
7
100
AcDbLine
 10
513.279418
 20
124.364314
 30
0.0
 11
513.279418
 21
134.363927
 31
0.0
  0
LINE
  5
29c
100
AcDbEntity
  8
Layer_1
 62
7
100
AcDbLine
 10
513.279418
 20
134.363927
 30
0.0
 11
503.279805
 21
134.363927
 31
0.0
  0
LINE
  5
29d
100
AcDbEntity
  8
Layer_1
 62
7
100
AcDbLine
 10
503.279805
 20
134.363927
 30
0.0
 11
503.279805
 21
134.363927
 31
0.0
  0
LINE
  5
29e
100
AcDbEntity
  8
Layer_1
 62
7
100
AcDbLine
 10
505.279632
 20
132.364100
 30
0.0
 11
511.279592
 21
132.364100
 31
0.0
  0
LINE
  5
29f
100
AcDbEntity
  8
Layer_1
 62
7
100
AcDbLine
 10
511.279592
 20
132.364100
 30
0.0
 11
511.279592
 21
126.364141
 31
0.0
  0
LINE
  5
2a0
100
AcDbEntity
  8
Layer_1
 62
7
100
AcDbLine
 10
511.279592
 20
126.364141
 30
0.0
 11
505.279632
 21
126.364141
 31
0.0
  0
LINE
  5
2a1
100
AcDbEntity
  8
Layer_1
 62
7
100
AcDbLine
 10
505.279632
 20
126.364141
 30
0.0
 11
505.279632
 21
132.364100
 31
0.0
  0
LINE
  5
2a2
100
AcDbEntity
  8
Layer_1
 62
7
100
AcDbLine
 10
505.279632
 20
132.364100
 30
0.0
 11
505.279632
 21
132.364100
 31
0.0
  0
LINE
  5
2a3
100
AcDbEntity
  8
Layer_1
 62
7
100
AcDbLine
 10
573.010848
 20
134.322491
 30
0.0
 11
571.668628
 21
132.980270
 31
0.0
  0
LINE
  5
2a4
100
AcDbEntity
  8
Layer_1
 62
7
100
AcDbLine
 10
571.668628
 20
132.980270
 30
0.0
 11
575.032152
 21
129.616774
 31
0.0
  0
LINE
  5
2a5
100
AcDbEntity
  8
Layer_1
 62
7
100
AcDbLine
 10
575.032152
 20
129.616774
 30
0.0
 11
571.668628
 21
126.253250
 31
0.0
  0
LINE
  5
2a6
100
AcDbEntity
  8
Layer_1
 62
7
100
AcDbLine
 10
571.668628
 20
126.253250
 30
0.0
 11
573.010848
 21
124.911029
 31
0.0
  0
LINE
  5
2a7
100
AcDbEntity
  8
Layer_1
 62
7
100
AcDbLine
 10
573.010848
 20
124.911029
 30
0.0
 11
576.374345
 21
128.274554
 31
0.0
  0
LINE
  5
2a8
100
AcDbEntity
  8
Layer_1
 62
7
100
AcDbLine
 10
576.374345
 20
128.274554
 30
0.0
 11
579.737869
 21
124.911029
 31
0.0
  0
LINE
  5
2a9
100
AcDbEntity
  8
Layer_1
 62
7
100
AcDbLine
 10
579.737869
 20
124.911029
 30
0.0
 11
581.079525
 21
126.253250
 31
0.0
  0
LINE
  5
2aa
100
AcDbEntity
  8
Layer_1
 62
7
100
AcDbLine
 10
581.079525
 20
126.253250
 30
0.0
 11
577.716001
 21
129.616774
 31
0.0
  0
LINE
  5
2ab
100
AcDbEntity
  8
Layer_1
 62
7
100
AcDbLine
 10
577.716001
 20
129.616774
 30
0.0
 11
581.079525
 21
132.980270
 31
0.0
  0
LINE
  5
2ac
100
AcDbEntity
  8
Layer_1
 62
7
100
AcDbLine
 10
581.079525
 20
132.980270
 30
0.0
 11
579.737869
 21
134.322491
 31
0.0
  0
LINE
  5
2ad
100
AcDbEntity
  8
Layer_1
 62
7
100
AcDbLine
 10
579.737869
 20
134.322491
 30
0.0
 11
576.374345
 21
130.958967
 31
0.0
  0
LINE
  5
2ae
100
AcDbEntity
  8
Layer_1
 62
7
100
AcDbLine
 10
576.374345
 20
130.958967
 30
0.0
 11
573.010848
 21
134.322491
 31
0.0
  0
LINE
  5
2af
100
AcDbEntity
  8
Layer_1
 62
7
100
AcDbLine
 10
573.010848
 20
134.322491
 30
0.0
 11
573.010848
 21
134.322491
 31
0.0
  0
SPLINE
  5
2b0
100
AcDbEntity
  8
Layer_1
 62
7
100
AcDbSpline
 70
8
 71
3
 72
8
 73
4
 74
0
 40
0
 40
0
 40
0
 40
0
 40
1
 40
1
 40
1
 40
1
 10
407.570742
 20
231.061566
 30
0.0
 10
407.570736
 20
230.515598
 30
0.0
 10
407.128143
 20
230.073005
 30
0.0
 10
406.582174
 20
230.072998
 30
0.0
  0
SPLINE
  5
2b1
100
AcDbEntity
  8
Layer_1
 62
7
100
AcDbSpline
 70
8
 71
3
 72
8
 73
4
 74
0
 40
0
 40
0
 40
0
 40
0
 40
1
 40
1
 40
1
 40
1
 10
406.582174
 20
230.072998
 30
0.0
 10
406.319986
 20
230.072994
 30
0.0
 10
406.068534
 20
230.177144
 30
0.0
 10
405.883136
 20
230.362536
 30
0.0
  0
SPLINE
  5
2b2
100
AcDbEntity
  8
Layer_1
 62
7
100
AcDbSpline
 70
8
 71
3
 72
8
 73
4
 74
0
 40
0
 40
0
 40
0
 40
0
 40
1
 40
1
 40
1
 40
1
 10
405.883136
 20
230.362536
 30
0.0
 10
405.697739
 20
230.547929
 30
0.0
 10
405.593581
 20
230.799378
 30
0.0
 10
405.593578
 20
231.061566
 30
0.0
  0
SPLINE
  5
2b3
100
AcDbEntity
  8
Layer_1
 62
7
100
AcDbSpline
 70
8
 71
3
 72
8
 73
4
 74
0
 40
0
 40
0
 40
0
 40
0
 40
1
 40
1
 40
1
 40
1
 10
405.593578
 20
231.061566
 30
0.0
 10
405.593581
 20
231.323755
 30
0.0
 10
405.697739
 20
231.575203
 30
0.0
 10
405.883136
 20
231.760596
 30
0.0
  0
SPLINE
  5
2b4
100
AcDbEntity
  8
Layer_1
 62
7
100
AcDbSpline
 70
8
 71
3
 72
8
 73
4
 74
0
 40
0
 40
0
 40
0
 40
0
 40
1
 40
1
 40
1
 40
1
 10
405.883136
 20
231.760596
 30
0.0
 10
406.068534
 20
231.945988
 30
0.0
 10
406.319986
 20
232.050139
 30
0.0
 10
406.582174
 20
232.050134
 30
0.0
  0
SPLINE
  5
2b5
100
AcDbEntity
  8
Layer_1
 62
7
100
AcDbSpline
 70
8
 71
3
 72
8
 73
4
 74
0
 40
0
 40
0
 40
0
 40
0
 40
1
 40
1
 40
1
 40
1
 10
406.582174
 20
232.050134
 30
0.0
 10
407.128143
 20
232.050128
 30
0.0
 10
407.570736
 20
231.607534
 30
0.0
 10
407.570742
 20
231.061566
 30
0.0
  0
LINE
  5
2b6
100
AcDbEntity
  8
Layer_1
 62
7
100
AcDbLine
 10
407.570742
 20
231.061566
 30
0.0
 11
407.570742
 21
231.061566
 31
0.0
  0
SPLINE
  5
2b7
100
AcDbEntity
  8
Layer_1
 62
7
100
AcDbSpline
 70
8
 71
3
 72
8
 73
4
 74
0
 40
0
 40
0
 40
0
 40
0
 40
1
 40
1
 40
1
 40
1
 10
435.238229
 20
324.936467
 30
0.0
 10
435.238233
 20
324.674278
 30
0.0
 10
435.134083
 20
324.422826
 30
0.0
 10
434.948690
 20
324.237429
 30
0.0
  0
SPLINE
  5
2b8
100
AcDbEntity
  8
Layer_1
 62
7
100
AcDbSpline
 70
8
 71
3
 72
8
 73
4
 74
0
 40
0
 40
0
 40
0
 40
0
 40
1
 40
1
 40
1
 40
1
 10
434.948690
 20
324.237429
 30
0.0
 10
434.763298
 20
324.052031
 30
0.0
 10
434.511849
 20
323.947873
 30
0.0
 10
434.249661
 20
323.947870
 30
0.0
  0
SPLINE
  5
2b9
100
AcDbEntity
  8
Layer_1
 62
7
100
AcDbSpline
 70
8
 71
3
 72
8
 73
4
 74
0
 40
0
 40
0
 40
0
 40
0
 40
1
 40
1
 40
1
 40
1
 10
434.249661
 20
323.947870
 30
0.0
 10
433.987467
 20
323.947866
 30
0.0
 10
433.736011
 20
324.052020
 30
0.0
 10
433.550613
 20
324.237419
 30
0.0
  0
SPLINE
  5
2ba
100
AcDbEntity
  8
Layer_1
 62
7
100
AcDbSpline
 70
8
 71
3
 72
8
 73
4
 74
0
 40
0
 40
0
 40
0
 40
0
 40
1
 40
1
 40
1
 40
1
 10
433.550613
 20
324.237419
 30
0.0
 10
433.365214
 20
324.422817
 30
0.0
 10
433.261060
 20
324.674273
 30
0.0
 10
433.261064
 20
324.936467
 30
0.0
  0
SPLINE
  5
2bb
100
AcDbEntity
  8
Layer_1
 62
7
100
AcDbSpline
 70
8
 71
3
 72
8
 73
4
 74
0
 40
0
 40
0
 40
0
 40
0
 40
1
 40
1
 40
1
 40
1
 10
433.261064
 20
324.936467
 30
0.0
 10
433.261068
 20
325.198655
 30
0.0
 10
433.365225
 20
325.450104
 30
0.0
 10
433.550623
 20
325.635496
 30
0.0
  0
SPLINE
  5
2bc
100
AcDbEntity
  8
Layer_1
 62
7
100
AcDbSpline
 70
8
 71
3
 72
8
 73
4
 74
0
 40
0
 40
0
 40
0
 40
0
 40
1
 40
1
 40
1
 40
1
 10
433.550623
 20
325.635496
 30
0.0
 10
433.736021
 20
325.820889
 30
0.0
 10
433.987472
 20
325.925039
 30
0.0
 10
434.249661
 20
325.925035
 30
0.0
  0
SPLINE
  5
2bd
100
AcDbEntity
  8
Layer_1
 62
7
100
AcDbSpline
 70
8
 71
3
 72
8
 73
4
 74
0
 40
0
 40
0
 40
0
 40
0
 40
1
 40
1
 40
1
 40
1
 10
434.249661
 20
325.925035
 30
0.0
 10
434.795629
 20
325.925028
 30
0.0
 10
435.238222
 20
325.482435
 30
0.0
 10
435.238229
 20
324.936467
 30
0.0
  0
LINE
  5
2be
100
AcDbEntity
  8
Layer_1
 62
7
100
AcDbLine
 10
435.238229
 20
324.936467
 30
0.0
 11
435.238229
 21
324.936467
 31
0.0
  0
SPLINE
  5
2bf
100
AcDbEntity
  8
Layer_1
 62
7
100
AcDbSpline
 70
8
 71
3
 72
8
 73
4
 74
0
 40
0
 40
0
 40
0
 40
0
 40
1
 40
1
 40
1
 40
1
 10
516.021038
 20
326.006202
 30
0.0
 10
516.021042
 20
325.744013
 30
0.0
 10
515.916892
 20
325.492562
 30
0.0
 10
515.731499
 20
325.307164
 30
0.0
  0
SPLINE
  5
2c0
100
AcDbEntity
  8
Layer_1
 62
7
100
AcDbSpline
 70
8
 71
3
 72
8
 73
4
 74
0
 40
0
 40
0
 40
0
 40
0
 40
1
 40
1
 40
1
 40
1
 10
515.731499
 20
325.307164
 30
0.0
 10
515.546107
 20
325.121766
 30
0.0
 10
515.294658
 20
325.017609
 30
0.0
 10
515.032470
 20
325.017605
 30
0.0
  0
SPLINE
  5
2c1
100
AcDbEntity
  8
Layer_1
 62
7
100
AcDbSpline
 70
8
 71
3
 72
8
 73
4
 74
0
 40
0
 40
0
 40
0
 40
0
 40
1
 40
1
 40
1
 40
1
 10
515.032470
 20
325.017605
 30
0.0
 10
514.770276
 20
325.017601
 30
0.0
 10
514.518821
 20
325.121755
 30
0.0
 10
514.333422
 20
325.307154
 30
0.0
  0
SPLINE
  5
2c2
100
AcDbEntity
  8
Layer_1
 62
7
100
AcDbSpline
 70
8
 71
3
 72
8
 73
4
 74
0
 40
0
 40
0
 40
0
 40
0
 40
1
 40
1
 40
1
 40
1
 10
514.333422
 20
325.307154
 30
0.0
 10
514.148023
 20
325.492552
 30
0.0
 10
514.043869
 20
325.744008
 30
0.0
 10
514.043874
 20
326.006202
 30
0.0
  0
SPLINE
  5
2c3
100
AcDbEntity
  8
Layer_1
 62
7
100
AcDbSpline
 70
8
 71
3
 72
8
 73
4
 74
0
 40
0
 40
0
 40
0
 40
0
 40
1
 40
1
 40
1
 40
1
 10
514.043874
 20
326.006202
 30
0.0
 10
514.043877
 20
326.268390
 30
0.0
 10
514.148034
 20
326.519839
 30
0.0
 10
514.333432
 20
326.705231
 30
0.0
  0
SPLINE
  5
2c4
100
AcDbEntity
  8
Layer_1
 62
7
100
AcDbSpline
 70
8
 71
3
 72
8
 73
4
 74
0
 40
0
 40
0
 40
0
 40
0
 40
1
 40
1
 40
1
 40
1
 10
514.333432
 20
326.705231
 30
0.0
 10
514.518830
 20
326.890624
 30
0.0
 10
514.770281
 20
326.994774
 30
0.0
 10
515.032470
 20
326.994770
 30
0.0
  0
SPLINE
  5
2c5
100
AcDbEntity
  8
Layer_1
 62
7
100
AcDbSpline
 70
8
 71
3
 72
8
 73
4
 74
0
 40
0
 40
0
 40
0
 40
0
 40
1
 40
1
 40
1
 40
1
 10
515.032470
 20
326.994770
 30
0.0
 10
515.578438
 20
326.994763
 30
0.0
 10
516.021031
 20
326.552170
 30
0.0
 10
516.021038
 20
326.006202
 30
0.0
  0
LINE
  5
2c6
100
AcDbEntity
  8
Layer_1
 62
7
100
AcDbLine
 10
516.021038
 20
326.006202
 30
0.0
 11
516.021038
 21
326.006202
 31
0.0
  0
SPLINE
  5
2c7
100
AcDbEntity
  8
Layer_1
 62
7
100
AcDbSpline
 70
8
 71
3
 72
8
 73
4
 74
0
 40
0
 40
0
 40
0
 40
0
 40
1
 40
1
 40
1
 40
1
 10
583.298102
 20
324.936467
 30
0.0
 10
583.298107
 20
324.674278
 30
0.0
 10
583.193957
 20
324.422826
 30
0.0
 10
583.008564
 20
324.237429
 30
0.0
  0
SPLINE
  5
2c8
100
AcDbEntity
  8
Layer_1
 62
7
100
AcDbSpline
 70
8
 71
3
 72
8
 73
4
 74
0
 40
0
 40
0
 40
0
 40
0
 40
1
 40
1
 40
1
 40
1
 10
583.008564
 20
324.237429
 30
0.0
 10
582.823172
 20
324.052031
 30
0.0
 10
582.571723
 20
323.947873
 30
0.0
 10
582.309534
 20
323.947870
 30
0.0
  0
SPLINE
  5
2c9
100
AcDbEntity
  8
Layer_1
 62
7
100
AcDbSpline
 70
8
 71
3
 72
8
 73
4
 74
0
 40
0
 40
0
 40
0
 40
0
 40
1
 40
1
 40
1
 40
1
 10
582.309534
 20
323.947870
 30
0.0
 10
582.047341
 20
323.947866
 30
0.0
 10
581.795885
 20
324.052020
 30
0.0
 10
581.610486
 20
324.237419
 30
0.0
  0
SPLINE
  5
2ca
100
AcDbEntity
  8
Layer_1
 62
7
100
AcDbSpline
 70
8
 71
3
 72
8
 73
4
 74
0
 40
0
 40
0
 40
0
 40
0
 40
1
 40
1
 40
1
 40
1
 10
581.610486
 20
324.237419
 30
0.0
 10
581.425088
 20
324.422817
 30
0.0
 10
581.320934
 20
324.674273
 30
0.0
 10
581.320938
 20
324.936467
 30
0.0
  0
SPLINE
  5
2cb
100
AcDbEntity
  8
Layer_1
 62
7
100
AcDbSpline
 70
8
 71
3
 72
8
 73
4
 74
0
 40
0
 40
0
 40
0
 40
0
 40
1
 40
1
 40
1
 40
1
 10
581.320938
 20
324.936467
 30
0.0
 10
581.320941
 20
325.198655
 30
0.0
 10
581.425099
 20
325.450104
 30
0.0
 10
581.610496
 20
325.635496
 30
0.0
  0
SPLINE
  5
2cc
100
AcDbEntity
  8
Layer_1
 62
7
100
AcDbSpline
 70
8
 71
3
 72
8
 73
4
 74
0
 40
0
 40
0
 40
0
 40
0
 40
1
 40
1
 40
1
 40
1
 10
581.610496
 20
325.635496
 30
0.0
 10
581.795894
 20
325.820889
 30
0.0
 10
582.047346
 20
325.925039
 30
0.0
 10
582.309534
 20
325.925035
 30
0.0
  0
SPLINE
  5
2cd
100
AcDbEntity
  8
Layer_1
 62
7
100
AcDbSpline
 70
8
 71
3
 72
8
 73
4
 74
0
 40
0
 40
0
 40
0
 40
0
 40
1
 40
1
 40
1
 40
1
 10
582.309534
 20
325.925035
 30
0.0
 10
582.855503
 20
325.925028
 30
0.0
 10
583.298096
 20
325.482435
 30
0.0
 10
583.298102
 20
324.936467
 30
0.0
  0
LINE
  5
2ce
100
AcDbEntity
  8
Layer_1
 62
7
100
AcDbLine
 10
583.298102
 20
324.936467
 30
0.0
 11
583.298102
 21
324.936467
 31
0.0
  0
SPLINE
  5
2cf
100
AcDbEntity
  8
Layer_1
 62
7
100
AcDbSpline
 70
8
 71
3
 72
8
 73
4
 74
0
 40
0
 40
0
 40
0
 40
0
 40
1
 40
1
 40
1
 40
1
 10
610.965589
 20
217.555906
 30
0.0
 10
610.965593
 20
217.293718
 30
0.0
 10
610.861443
 20
217.042266
 30
0.0
 10
610.676050
 20
216.856868
 30
0.0
  0
SPLINE
  5
2d0
100
AcDbEntity
  8
Layer_1
 62
7
100
AcDbSpline
 70
8
 71
3
 72
8
 73
4
 74
0
 40
0
 40
0
 40
0
 40
0
 40
1
 40
1
 40
1
 40
1
 10
610.676050
 20
216.856868
 30
0.0
 10
610.490658
 20
216.671470
 30
0.0
 10
610.239209
 20
216.567313
 30
0.0
 10
609.977021
 20
216.567310
 30
0.0
  0
SPLINE
  5
2d1
100
AcDbEntity
  8
Layer_1
 62
7
100
AcDbSpline
 70
8
 71
3
 72
8
 73
4
 74
0
 40
0
 40
0
 40
0
 40
0
 40
1
 40
1
 40
1
 40
1
 10
609.977021
 20
216.567310
 30
0.0
 10
609.714827
 20
216.567306
 30
0.0
 10
609.463371
 20
216.671460
 30
0.0
 10
609.277973
 20
216.856858
 30
0.0
  0
SPLINE
  5
2d2
100
AcDbEntity
  8
Layer_1
 62
7
100
AcDbSpline
 70
8
 71
3
 72
8
 73
4
 74
0
 40
0
 40
0
 40
0
 40
0
 40
1
 40
1
 40
1
 40
1
 10
609.277973
 20
216.856858
 30
0.0
 10
609.092574
 20
217.042257
 30
0.0
 10
608.988420
 20
217.293713
 30
0.0
 10
608.988424
 20
217.555906
 30
0.0
  0
SPLINE
  5
2d3
100
AcDbEntity
  8
Layer_1
 62
7
100
AcDbSpline
 70
8
 71
3
 72
8
 73
4
 74
0
 40
0
 40
0
 40
0
 40
0
 40
1
 40
1
 40
1
 40
1
 10
608.988424
 20
217.555906
 30
0.0
 10
608.988428
 20
217.818095
 30
0.0
 10
609.092585
 20
218.069543
 30
0.0
 10
609.277983
 20
218.254936
 30
0.0
  0
SPLINE
  5
2d4
100
AcDbEntity
  8
Layer_1
 62
7
100
AcDbSpline
 70
8
 71
3
 72
8
 73
4
 74
0
 40
0
 40
0
 40
0
 40
0
 40
1
 40
1
 40
1
 40
1
 10
609.277983
 20
218.254936
 30
0.0
 10
609.463381
 20
218.440329
 30
0.0
 10
609.714832
 20
218.544479
 30
0.0
 10
609.977021
 20
218.544474
 30
0.0
  0
SPLINE
  5
2d5
100
AcDbEntity
  8
Layer_1
 62
7
100
AcDbSpline
 70
8
 71
3
 72
8
 73
4
 74
0
 40
0
 40
0
 40
0
 40
0
 40
1
 40
1
 40
1
 40
1
 10
609.977021
 20
218.544474
 30
0.0
 10
610.522989
 20
218.544468
 30
0.0
 10
610.965582
 20
218.101875
 30
0.0
 10
610.965589
 20
217.555906
 30
0.0
  0
LINE
  5
2d6
100
AcDbEntity
  8
Layer_1
 62
7
100
AcDbLine
 10
610.965589
 20
217.555906
 30
0.0
 11
610.965589
 21
217.555906
 31
0.0
  0
SPLINE
  5
2d7
100
AcDbEntity
  8
Layer_1
 62
7
100
AcDbSpline
 70
8
 71
3
 72
8
 73
4
 74
0
 40
0
 40
0
 40
0
 40
0
 40
1
 40
1
 40
1
 40
1
 10
583.298102
 20
123.681009
 30
0.0
 10
583.298102
 20
123.135036
 30
0.0
 10
582.855507
 20
122.692436
 30
0.0
 10
582.309534
 20
122.692429
 30
0.0
  0
SPLINE
  5
2d8
100
AcDbEntity
  8
Layer_1
 62
7
100
AcDbSpline
 70
8
 71
3
 72
8
 73
4
 74
0
 40
0
 40
0
 40
0
 40
0
 40
1
 40
1
 40
1
 40
1
 10
582.309534
 20
122.692429
 30
0.0
 10
582.047344
 20
122.692425
 30
0.0
 10
581.795891
 20
122.796577
 30
0.0
 10
581.610492
 20
122.981972
 30
0.0
  0
SPLINE
  5
2d9
100
AcDbEntity
  8
Layer_1
 62
7
100
AcDbSpline
 70
8
 71
3
 72
8
 73
4
 74
0
 40
0
 40
0
 40
0
 40
0
 40
1
 40
1
 40
1
 40
1
 10
581.610492
 20
122.981972
 30
0.0
 10
581.425094
 20
123.167367
 30
0.0
 10
581.320938
 20
123.418818
 30
0.0
 10
581.320938
 20
123.681009
 30
0.0
  0
SPLINE
  5
2da
100
AcDbEntity
  8
Layer_1
 62
7
100
AcDbSpline
 70
8
 71
3
 72
8
 73
4
 74
0
 40
0
 40
0
 40
0
 40
0
 40
1
 40
1
 40
1
 40
1
 10
581.320938
 20
123.681009
 30
0.0
 10
581.320938
 20
123.943199
 30
0.0
 10
581.425094
 20
124.194651
 30
0.0
 10
581.610492
 20
124.380046
 30
0.0
  0
SPLINE
  5
2db
100
AcDbEntity
  8
Layer_1
 62
7
100
AcDbSpline
 70
8
 71
3
 72
8
 73
4
 74
0
 40
0
 40
0
 40
0
 40
0
 40
1
 40
1
 40
1
 40
1
 10
581.610492
 20
124.380046
 30
0.0
 10
581.795891
 20
124.565441
 30
0.0
 10
582.047344
 20
124.669592
 30
0.0
 10
582.309534
 20
124.669588
 30
0.0
  0
SPLINE
  5
2dc
100
AcDbEntity
  8
Layer_1
 62
7
100
AcDbSpline
 70
8
 71
3
 72
8
 73
4
 74
0
 40
0
 40
0
 40
0
 40
0
 40
1
 40
1
 40
1
 40
1
 10
582.309534
 20
124.669588
 30
0.0
 10
582.855507
 20
124.669582
 30
0.0
 10
583.298102
 20
124.226981
 30
0.0
 10
583.298102
 20
123.681009
 30
0.0
  0
LINE
  5
2dd
100
AcDbEntity
  8
Layer_1
 62
7
100
AcDbLine
 10
583.298102
 20
123.681009
 30
0.0
 11
583.298102
 21
123.681009
 31
0.0
  0
SPLINE
  5
2de
100
AcDbEntity
  8
Layer_1
 62
7
100
AcDbSpline
 70
8
 71
3
 72
8
 73
4
 74
0
 40
0
 40
0
 40
0
 40
0
 40
1
 40
1
 40
1
 40
1
 10
502.515378
 20
122.611288
 30
0.0
 10
502.515378
 20
122.349097
 30
0.0
 10
502.411222
 20
122.097646
 30
0.0
 10
502.225824
 20
121.912251
 30
0.0
  0
SPLINE
  5
2df
100
AcDbEntity
  8
Layer_1
 62
7
100
AcDbSpline
 70
8
 71
3
 72
8
 73
4
 74
0
 40
0
 40
0
 40
0
 40
0
 40
1
 40
1
 40
1
 40
1
 10
502.225824
 20
121.912251
 30
0.0
 10
502.040426
 20
121.726856
 30
0.0
 10
501.788972
 20
121.622704
 30
0.0
 10
501.526782
 20
121.622708
 30
0.0
  0
SPLINE
  5
2e0
100
AcDbEntity
  8
Layer_1
 62
7
100
AcDbSpline
 70
8
 71
3
 72
8
 73
4
 74
0
 40
0
 40
0
 40
0
 40
0
 40
1
 40
1
 40
1
 40
1
 10
501.526782
 20
121.622708
 30
0.0
 10
500.980809
 20
121.622715
 30
0.0
 10
500.538214
 20
122.065315
 30
0.0
 10
500.538214
 20
122.611288
 30
0.0
  0
SPLINE
  5
2e1
100
AcDbEntity
  8
Layer_1
 62
7
100
AcDbSpline
 70
8
 71
3
 72
8
 73
4
 74
0
 40
0
 40
0
 40
0
 40
0
 40
1
 40
1
 40
1
 40
1
 10
500.538214
 20
122.611288
 30
0.0
 10
500.538214
 20
123.157260
 30
0.0
 10
500.980809
 20
123.599861
 30
0.0
 10
501.526782
 20
123.599867
 30
0.0
  0
SPLINE
  5
2e2
100
AcDbEntity
  8
Layer_1
 62
7
100
AcDbSpline
 70
8
 71
3
 72
8
 73
4
 74
0
 40
0
 40
0
 40
0
 40
0
 40
1
 40
1
 40
1
 40
1
 10
501.526782
 20
123.599867
 30
0.0
 10
501.788972
 20
123.599871
 30
0.0
 10
502.040426
 20
123.495720
 30
0.0
 10
502.225824
 20
123.310325
 30
0.0
  0
SPLINE
  5
2e3
100
AcDbEntity
  8
Layer_1
 62
7
100
AcDbSpline
 70
8
 71
3
 72
8
 73
4
 74
0
 40
0
 40
0
 40
0
 40
0
 40
1
 40
1
 40
1
 40
1
 10
502.225824
 20
123.310325
 30
0.0
 10
502.411222
 20
123.124930
 30
0.0
 10
502.515378
 20
122.873478
 30
0.0
 10
502.515378
 20
122.611288
 30
0.0
  0
LINE
  5
2e4
100
AcDbEntity
  8
Layer_1
 62
7
100
AcDbLine
 10
502.515378
 20
122.611288
 30
0.0
 11
502.515378
 21
122.611288
 31
0.0
  0
SPLINE
  5
2e5
100
AcDbEntity
  8
Layer_1
 62
7
100
AcDbSpline
 70
8
 71
3
 72
8
 73
4
 74
0
 40
0
 40
0
 40
0
 40
0
 40
1
 40
1
 40
1
 40
1
 10
435.238229
 20
123.681009
 30
0.0
 10
435.238228
 20
123.135036
 30
0.0
 10
434.795633
 20
122.692436
 30
0.0
 10
434.249661
 20
122.692429
 30
0.0
  0
SPLINE
  5
2e6
100
AcDbEntity
  8
Layer_1
 62
7
100
AcDbSpline
 70
8
 71
3
 72
8
 73
4
 74
0
 40
0
 40
0
 40
0
 40
0
 40
1
 40
1
 40
1
 40
1
 10
434.249661
 20
122.692429
 30
0.0
 10
433.987470
 20
122.692425
 30
0.0
 10
433.736017
 20
122.796577
 30
0.0
 10
433.550619
 20
122.981972
 30
0.0
  0
SPLINE
  5
2e7
100
AcDbEntity
  8
Layer_1
 62
7
100
AcDbSpline
 70
8
 71
3
 72
8
 73
4
 74
0
 40
0
 40
0
 40
0
 40
0
 40
1
 40
1
 40
1
 40
1
 10
433.550619
 20
122.981972
 30
0.0
 10
433.365220
 20
123.167367
 30
0.0
 10
433.261065
 20
123.418818
 30
0.0
 10
433.261064
 20
123.681009
 30
0.0
  0
SPLINE
  5
2e8
100
AcDbEntity
  8
Layer_1
 62
7
100
AcDbSpline
 70
8
 71
3
 72
8
 73
4
 74
0
 40
0
 40
0
 40
0
 40
0
 40
1
 40
1
 40
1
 40
1
 10
433.261064
 20
123.681009
 30
0.0
 10
433.261065
 20
123.943199
 30
0.0
 10
433.365220
 20
124.194651
 30
0.0
 10
433.550619
 20
124.380046
 30
0.0
  0
SPLINE
  5
2e9
100
AcDbEntity
  8
Layer_1
 62
7
100
AcDbSpline
 70
8
 71
3
 72
8
 73
4
 74
0
 40
0
 40
0
 40
0
 40
0
 40
1
 40
1
 40
1
 40
1
 10
433.550619
 20
124.380046
 30
0.0
 10
433.736017
 20
124.565441
 30
0.0
 10
433.987470
 20
124.669592
 30
0.0
 10
434.249661
 20
124.669588
 30
0.0
  0
SPLINE
  5
2ea
100
AcDbEntity
  8
Layer_1
 62
7
100
AcDbSpline
 70
8
 71
3
 72
8
 73
4
 74
0
 40
0
 40
0
 40
0
 40
0
 40
1
 40
1
 40
1
 40
1
 10
434.249661
 20
124.669588
 30
0.0
 10
434.795633
 20
124.669582
 30
0.0
 10
435.238228
 20
124.226981
 30
0.0
 10
435.238229
 20
123.681009
 30
0.0
  0
LINE
  5
2eb
100
AcDbEntity
  8
Layer_1
 62
7
100
AcDbLine
 10
435.238229
 20
123.681009
 30
0.0
 11
435.238229
 21
123.681009
 31
0.0
  0
ENDSEC
  0
SECTION
  2
OBJECTS
  0
DICTIONARY
  5
C
330
0
100
AcDbDictionary
  3
ACAD_GROUP
350
D
  3
ACAD_MLINESTYLE
350
17
  0
DICTIONARY
  5
D
330
C
100
AcDbDictionary
  0
DICTIONARY
  5
1A
330
C
100
AcDbDictionary
  0
DICTIONARY
  5
17
330
C
100
AcDbDictionary
  3
STANDARD
350
18
  0
DICTIONARY
  5
19
330
C
100
AcDbDictionary
  0
ENDSEC
  0
EOF
