  0
SECTION
  2
HEADER
  9
$ACADVER
  1
AC1014
  9
$HANDSEED
  5
FFFF
  9
$MEASUREMENT
 70
     1
  0
ENDSEC
  0
SECTION
  2
TABLES
  0
TABLE
  2
VPORT
  5
8
330
0
100
AcDbSymbolTable
 70
     4
  0
VPORT
  5
2E
330
8
100
AcDbSymbolTableRecord
100
AcDbViewportTableRecord
  2
*ACTIVE
 70
     0
 10
0.0
 20
0.0
 11
1.0
 21
1.0
 12
210.0
 22
148.5
 13
0.0
 23
0.0
 14
10.0
 24
10.0
 15
10.0
 25
10.0
 16
0.0
 26
0.0
 36
1.0
 17
0.0
 27
0.0
 37
0.0
 40
341.0
 41
1.24
 42
50.0
 43
0.0
 44
0.0
 50
0.0
 51
0.0
 71
     0
 72
   100
 73
     1
 74
     3
 75
     0
 76
     0
 77
     0
 78
     0
  0
ENDTAB
  0
TABLE
  2
LTYPE
  5
5
330
0
100
AcDbSymbolTable
 70
     1
  0
LTYPE
  5
14
330
5
100
AcDbSymbolTableRecord
100
AcDbLinetypeTableRecord
  2
BYBLOCK
 70
     0
  3

 72
    65
 73
     0
 40
0.0
  0
LTYPE
  5
15
330
5
100
AcDbSymbolTableRecord
100
AcDbLinetypeTableRecord
  2
BYLAYER
 70
     0
  3

 72
    65
 73
     0
 40
0.0
  0
LTYPE
  5
16
330
5
100
AcDbSymbolTableRecord
100
AcDbLinetypeTableRecord
  2
CONTINUOUS
 70
     0
  3
Solid line
 72
    65
 73
     0
 40
0.0
  0
ENDTAB
  0
TABLE
  2
LAYER
  5
2
100
AcDbSymbolTable
 70
2
  0
LAYER
  5
50
100
AcDbSymbolTableRecord
100
AcDbLayerTableRecord
  2
0
 70
0
  6
CONTINUOUS
  0
LAYER
  5
51
100
AcDbSymbolTableRecord
100
AcDbLayerTableRecord
  2
Layer_1
 70
0
  6
CONTINUOUS
  0
ENDTAB
  0
TABLE
  2
STYLE
  5
3
330
0
100
AcDbSymbolTable
 70
     1
  0
STYLE
  5
11
330
3
100
AcDbSymbolTableRecord
100
AcDbTextStyleTableRecord
  2
STANDARD
 70
     0
 40
0.0
 41
1.0
 50
0.0
 71
     0
 42
2.5
  3
txt
  4

  0
ENDTAB
  0
TABLE
  2
VIEW
  5
6
330
0
100
AcDbSymbolTable
 70
     0
  0
ENDTAB
  0
TABLE
  2
UCS
  5
7
330
0
100
AcDbSymbolTable
 70
     0
  0
ENDTAB
  0
TABLE
  2
APPID
  5
9
330
0
100
AcDbSymbolTable
 70
     2
  0
APPID
  5
12
330
9
100
AcDbSymbolTableRecord
100
AcDbRegAppTableRecord
  2
ACAD
 70
     0
  0
ENDTAB
  0
TABLE
  2
DIMSTYLE
  5
A
330
0
100
AcDbSymbolTable
 70
     1
  0
DIMSTYLE
105
27
330
A
100
AcDbSymbolTableRecord
100
AcDbDimStyleTableRecord
  2
ISO-25
 70
     0
  3

  4

  5

  6

  7

 40
1.0
 41
2.5
 42
0.625
 43
3.75
 44
1.25
 45
0.0
 46
0.0
 47
0.0
 48
0.0
140
2.5
141
2.5
142
0.0
143
0.03937007874016
144
1.0
145
0.0
146
1.0
147
0.625
 71
     0
 72
     0
 73
     0
 74
     0
 75
     0
 76
     0
 77
     1
 78
     8
170
     0
171
     3
172
     1
173
     0
174
     0
175
     0
176
     0
177
     0
178
     0
270
     2
271
     2
272
     2
273
     2
274
     3
340
11
275
     0
280
     0
281
     0
282
     0
283
     0
284
     8
285
     0
286
     0
287
     3
288
     0
  0
ENDTAB
  0
TABLE
  2
BLOCK_RECORD
  5
1
330
0
100
AcDbSymbolTable
 70
     1
  0
BLOCK_RECORD
  5
1F
330
1
100
AcDbSymbolTableRecord
100
AcDbBlockTableRecord
  2
*MODEL_SPACE
  0
BLOCK_RECORD
  5
1B
330
1
100
AcDbSymbolTableRecord
100
AcDbBlockTableRecord
  2
*PAPER_SPACE
  0
ENDTAB
  0
ENDSEC
  0
SECTION
  2
BLOCKS
  0
BLOCK
  5
20
330
1F
100
AcDbEntity
  8
0
100
AcDbBlockBegin
  2
*MODEL_SPACE
 70
     0
 10
0.0
 20
0.0
 30
0.0
  3
*MODEL_SPACE
  1

  0
ENDBLK
  5
21
330
1F
100
AcDbEntity
  8
0
100
AcDbBlockEnd
  0
BLOCK
  5
1C
330
1B
100
AcDbEntity
 67
     1
  8
0
100
AcDbBlockBegin
  2
*PAPER_SPACE
  1

  0
ENDBLK
  5
1D
330
1B
100
AcDbEntity
 67
     1
  8
0
100
AcDbBlockEnd
  0
ENDSEC
  0
SECTION
  2
ENTITIES
  0
LINE
  5
100
100
AcDbEntity
  8
Layer_1
 62
5
100
AcDbLine
 10
635.031157
 20
369.044599
 30
0.0
 11
632.030909
 21
369.044599
 31
0.0
  0
LINE
  5
101
100
AcDbEntity
  8
Layer_1
 62
5
100
AcDbLine
 10
632.030909
 20
369.044599
 30
0.0
 11
632.030909
 21
378.946084
 31
0.0
  0
LINE
  5
102
100
AcDbEntity
  8
Layer_1
 62
5
100
AcDbLine
 10
632.030909
 20
378.946084
 30
0.0
 11
632.030909
 21
381.946332
 31
0.0
  0
LINE
  5
103
100
AcDbEntity
  8
Layer_1
 62
5
100
AcDbLine
 10
632.030909
 20
381.946332
 30
0.0
 11
617.131015
 21
381.946332
 31
0.0
  0
LINE
  5
104
100
AcDbEntity
  8
Layer_1
 62
5
100
AcDbLine
 10
617.131015
 20
381.946332
 30
0.0
 11
617.131015
 21
378.946084
 31
0.0
  0
LINE
  5
105
100
AcDbEntity
  8
Layer_1
 62
5
100
AcDbLine
 10
617.131015
 20
378.946084
 30
0.0
 11
597.130717
 21
378.946084
 31
0.0
  0
LINE
  5
106
100
AcDbEntity
  8
Layer_1
 62
5
100
AcDbLine
 10
597.130717
 20
378.946084
 30
0.0
 11
597.130717
 21
381.946332
 31
0.0
  0
LINE
  5
107
100
AcDbEntity
  8
Layer_1
 62
5
100
AcDbLine
 10
597.130717
 20
381.946332
 30
0.0
 11
577.130418
 21
381.946332
 31
0.0
  0
LINE
  5
108
100
AcDbEntity
  8
Layer_1
 62
5
100
AcDbLine
 10
577.130418
 20
381.946332
 30
0.0
 11
577.130418
 21
378.946084
 31
0.0
  0
LINE
  5
109
100
AcDbEntity
  8
Layer_1
 62
5
100
AcDbLine
 10
577.130418
 20
378.946084
 30
0.0
 11
557.130684
 21
378.946084
 31
0.0
  0
LINE
  5
10a
100
AcDbEntity
  8
Layer_1
 62
5
100
AcDbLine
 10
557.130684
 20
378.946084
 30
0.0
 11
557.130684
 21
381.946332
 31
0.0
  0
LINE
  5
10b
100
AcDbEntity
  8
Layer_1
 62
5
100
AcDbLine
 10
557.130684
 20
381.946332
 30
0.0
 11
537.130385
 21
381.946332
 31
0.0
  0
LINE
  5
10c
100
AcDbEntity
  8
Layer_1
 62
5
100
AcDbLine
 10
537.130385
 20
381.946332
 30
0.0
 11
537.130385
 21
378.946084
 31
0.0
  0
LINE
  5
10d
100
AcDbEntity
  8
Layer_1
 62
5
100
AcDbLine
 10
537.130385
 20
378.946084
 30
0.0
 11
517.130623
 21
378.946084
 31
0.0
  0
LINE
  5
10e
100
AcDbEntity
  8
Layer_1
 62
5
100
AcDbLine
 10
517.130623
 20
378.946084
 30
0.0
 11
517.130623
 21
381.946332
 31
0.0
  0
LINE
  5
10f
100
AcDbEntity
  8
Layer_1
 62
5
100
AcDbLine
 10
517.130623
 20
381.946332
 30
0.0
 11
497.130324
 21
381.946332
 31
0.0
  0
LINE
  5
110
100
AcDbEntity
  8
Layer_1
 62
5
100
AcDbLine
 10
497.130324
 20
381.946332
 30
0.0
 11
497.130324
 21
378.946084
 31
0.0
  0
LINE
  5
111
100
AcDbEntity
  8
Layer_1
 62
5
100
AcDbLine
 10
497.130324
 20
378.946084
 30
0.0
 11
477.130590
 21
378.946084
 31
0.0
  0
LINE
  5
112
100
AcDbEntity
  8
Layer_1
 62
5
100
AcDbLine
 10
477.130590
 20
378.946084
 30
0.0
 11
477.130590
 21
381.946332
 31
0.0
  0
LINE
  5
113
100
AcDbEntity
  8
Layer_1
 62
5
100
AcDbLine
 10
477.130590
 20
381.946332
 30
0.0
 11
457.130291
 21
381.946332
 31
0.0
  0
LINE
  5
114
100
AcDbEntity
  8
Layer_1
 62
5
100
AcDbLine
 10
457.130291
 20
381.946332
 30
0.0
 11
457.130291
 21
378.946084
 31
0.0
  0
LINE
  5
115
100
AcDbEntity
  8
Layer_1
 62
5
100
AcDbLine
 10
457.130291
 20
378.946084
 30
0.0
 11
437.131093
 21
378.946084
 31
0.0
  0
LINE
  5
116
100
AcDbEntity
  8
Layer_1
 62
5
100
AcDbLine
 10
437.131093
 20
378.946084
 30
0.0
 11
437.131093
 21
381.946332
 31
0.0
  0
LINE
  5
117
100
AcDbEntity
  8
Layer_1
 62
5
100
AcDbLine
 10
437.131093
 20
381.946332
 30
0.0
 11
417.130823
 21
381.946332
 31
0.0
  0
LINE
  5
118
100
AcDbEntity
  8
Layer_1
 62
5
100
AcDbLine
 10
417.130823
 20
381.946332
 30
0.0
 11
417.130823
 21
378.946084
 31
0.0
  0
LINE
  5
119
100
AcDbEntity
  8
Layer_1
 62
5
100
AcDbLine
 10
417.130823
 20
378.946084
 30
0.0
 11
397.131060
 21
378.946084
 31
0.0
  0
LINE
  5
11a
100
AcDbEntity
  8
Layer_1
 62
5
100
AcDbLine
 10
397.131060
 20
378.946084
 30
0.0
 11
397.131060
 21
381.946332
 31
0.0
  0
LINE
  5
11b
100
AcDbEntity
  8
Layer_1
 62
5
100
AcDbLine
 10
397.131060
 20
381.946332
 30
0.0
 11
382.230602
 21
381.946332
 31
0.0
  0
LINE
  5
11c
100
AcDbEntity
  8
Layer_1
 62
5
100
AcDbLine
 10
382.230602
 20
381.946332
 30
0.0
 11
382.230602
 21
378.946084
 31
0.0
  0
LINE
  5
11d
100
AcDbEntity
  8
Layer_1
 62
5
100
AcDbLine
 10
382.230602
 20
378.946084
 30
0.0
 11
382.230602
 21
369.044599
 31
0.0
  0
LINE
  5
11e
100
AcDbEntity
  8
Layer_1
 62
5
100
AcDbLine
 10
382.230602
 20
369.044599
 30
0.0
 11
379.230354
 21
369.044599
 31
0.0
  0
LINE
  5
11f
100
AcDbEntity
  8
Layer_1
 62
5
100
AcDbLine
 10
379.230354
 20
369.044599
 30
0.0
 11
379.230354
 21
349.044865
 31
0.0
  0
LINE
  5
120
100
AcDbEntity
  8
Layer_1
 62
5
100
AcDbLine
 10
379.230354
 20
349.044865
 30
0.0
 11
382.230602
 21
349.044865
 31
0.0
  0
LINE
  5
121
100
AcDbEntity
  8
Layer_1
 62
5
100
AcDbLine
 10
382.230602
 20
349.044865
 30
0.0
 11
382.230602
 21
329.045103
 31
0.0
  0
LINE
  5
122
100
AcDbEntity
  8
Layer_1
 62
5
100
AcDbLine
 10
382.230602
 20
329.045103
 30
0.0
 11
379.230354
 21
329.045103
 31
0.0
  0
LINE
  5
123
100
AcDbEntity
  8
Layer_1
 62
5
100
AcDbLine
 10
379.230354
 20
329.045103
 30
0.0
 11
379.230354
 21
309.045369
 31
0.0
  0
LINE
  5
124
100
AcDbEntity
  8
Layer_1
 62
5
100
AcDbLine
 10
379.230354
 20
309.045369
 30
0.0
 11
382.230602
 21
309.045369
 31
0.0
  0
LINE
  5
125
100
AcDbEntity
  8
Layer_1
 62
5
100
AcDbLine
 10
382.230602
 20
309.045369
 30
0.0
 11
382.230602
 21
289.045634
 31
0.0
  0
LINE
  5
126
100
AcDbEntity
  8
Layer_1
 62
5
100
AcDbLine
 10
382.230602
 20
289.045634
 30
0.0
 11
379.230354
 21
289.045634
 31
0.0
  0
LINE
  5
127
100
AcDbEntity
  8
Layer_1
 62
5
100
AcDbLine
 10
379.230354
 20
289.045634
 30
0.0
 11
379.230354
 21
269.045872
 31
0.0
  0
LINE
  5
128
100
AcDbEntity
  8
Layer_1
 62
5
100
AcDbLine
 10
379.230354
 20
269.045872
 30
0.0
 11
382.230602
 21
269.045872
 31
0.0
  0
LINE
  5
129
100
AcDbEntity
  8
Layer_1
 62
5
100
AcDbLine
 10
382.230602
 20
269.045872
 30
0.0
 11
382.230602
 21
249.046138
 31
0.0
  0
LINE
  5
12a
100
AcDbEntity
  8
Layer_1
 62
5
100
AcDbLine
 10
382.230602
 20
249.046138
 30
0.0
 11
379.230354
 21
249.046138
 31
0.0
  0
LINE
  5
12b
100
AcDbEntity
  8
Layer_1
 62
5
100
AcDbLine
 10
379.230354
 20
249.046138
 30
0.0
 11
379.230354
 21
229.046375
 31
0.0
  0
LINE
  5
12c
100
AcDbEntity
  8
Layer_1
 62
5
100
AcDbLine
 10
379.230354
 20
229.046375
 30
0.0
 11
382.230602
 21
229.046375
 31
0.0
  0
LINE
  5
12d
100
AcDbEntity
  8
Layer_1
 62
5
100
AcDbLine
 10
382.230602
 20
229.046375
 30
0.0
 11
382.230602
 21
209.046641
 31
0.0
  0
LINE
  5
12e
100
AcDbEntity
  8
Layer_1
 62
5
100
AcDbLine
 10
382.230602
 20
209.046641
 30
0.0
 11
379.230354
 21
209.046641
 31
0.0
  0
LINE
  5
12f
100
AcDbEntity
  8
Layer_1
 62
5
100
AcDbLine
 10
379.230354
 20
209.046641
 30
0.0
 11
379.230354
 21
189.046907
 31
0.0
  0
LINE
  5
130
100
AcDbEntity
  8
Layer_1
 62
5
100
AcDbLine
 10
379.230354
 20
189.046907
 30
0.0
 11
382.230602
 21
189.046907
 31
0.0
  0
LINE
  5
131
100
AcDbEntity
  8
Layer_1
 62
5
100
AcDbLine
 10
382.230602
 20
189.046907
 30
0.0
 11
382.230602
 21
169.047144
 31
0.0
  0
LINE
  5
132
100
AcDbEntity
  8
Layer_1
 62
5
100
AcDbLine
 10
382.230602
 20
169.047144
 30
0.0
 11
379.230354
 21
169.047144
 31
0.0
  0
LINE
  5
133
100
AcDbEntity
  8
Layer_1
 62
5
100
AcDbLine
 10
379.230354
 20
169.047144
 30
0.0
 11
379.230354
 21
149.047410
 31
0.0
  0
LINE
  5
134
100
AcDbEntity
  8
Layer_1
 62
5
100
AcDbLine
 10
379.230354
 20
149.047410
 30
0.0
 11
382.230602
 21
149.047410
 31
0.0
  0
LINE
  5
135
100
AcDbEntity
  8
Layer_1
 62
5
100
AcDbLine
 10
382.230602
 20
149.047410
 30
0.0
 11
382.230602
 21
139.146490
 31
0.0
  0
LINE
  5
136
100
AcDbEntity
  8
Layer_1
 62
5
100
AcDbLine
 10
382.230602
 20
139.146490
 30
0.0
 11
382.230602
 21
136.146214
 31
0.0
  0
LINE
  5
137
100
AcDbEntity
  8
Layer_1
 62
5
100
AcDbLine
 10
382.230602
 20
136.146214
 30
0.0
 11
397.131060
 21
136.146214
 31
0.0
  0
LINE
  5
138
100
AcDbEntity
  8
Layer_1
 62
5
100
AcDbLine
 10
397.131060
 20
136.146214
 30
0.0
 11
397.131060
 21
139.146490
 31
0.0
  0
LINE
  5
139
100
AcDbEntity
  8
Layer_1
 62
5
100
AcDbLine
 10
397.131060
 20
139.146490
 30
0.0
 11
417.130823
 21
139.146490
 31
0.0
  0
LINE
  5
13a
100
AcDbEntity
  8
Layer_1
 62
5
100
AcDbLine
 10
417.130823
 20
139.146490
 30
0.0
 11
417.130823
 21
136.146214
 31
0.0
  0
LINE
  5
13b
100
AcDbEntity
  8
Layer_1
 62
5
100
AcDbLine
 10
417.130823
 20
136.146214
 30
0.0
 11
437.131093
 21
136.146214
 31
0.0
  0
LINE
  5
13c
100
AcDbEntity
  8
Layer_1
 62
5
100
AcDbLine
 10
437.131093
 20
136.146214
 30
0.0
 11
437.131093
 21
139.146490
 31
0.0
  0
LINE
  5
13d
100
AcDbEntity
  8
Layer_1
 62
5
100
AcDbLine
 10
437.131093
 20
139.146490
 30
0.0
 11
457.130291
 21
139.146490
 31
0.0
  0
LINE
  5
13e
100
AcDbEntity
  8
Layer_1
 62
5
100
AcDbLine
 10
457.130291
 20
139.146490
 30
0.0
 11
457.130291
 21
136.146214
 31
0.0
  0
LINE
  5
13f
100
AcDbEntity
  8
Layer_1
 62
5
100
AcDbLine
 10
457.130291
 20
136.146214
 30
0.0
 11
477.130590
 21
136.146214
 31
0.0
  0
LINE
  5
140
100
AcDbEntity
  8
Layer_1
 62
5
100
AcDbLine
 10
477.130590
 20
136.146214
 30
0.0
 11
477.130590
 21
139.146490
 31
0.0
  0
LINE
  5
141
100
AcDbEntity
  8
Layer_1
 62
5
100
AcDbLine
 10
477.130590
 20
139.146490
 30
0.0
 11
497.130324
 21
139.146490
 31
0.0
  0
LINE
  5
142
100
AcDbEntity
  8
Layer_1
 62
5
100
AcDbLine
 10
497.130324
 20
139.146490
 30
0.0
 11
497.130324
 21
136.146214
 31
0.0
  0
LINE
  5
143
100
AcDbEntity
  8
Layer_1
 62
5
100
AcDbLine
 10
497.130324
 20
136.146214
 30
0.0
 11
517.130623
 21
136.146214
 31
0.0
  0
LINE
  5
144
100
AcDbEntity
  8
Layer_1
 62
5
100
AcDbLine
 10
517.130623
 20
136.146214
 30
0.0
 11
517.130623
 21
139.146490
 31
0.0
  0
LINE
  5
145
100
AcDbEntity
  8
Layer_1
 62
5
100
AcDbLine
 10
517.130623
 20
139.146490
 30
0.0
 11
537.130385
 21
139.146490
 31
0.0
  0
LINE
  5
146
100
AcDbEntity
  8
Layer_1
 62
5
100
AcDbLine
 10
537.130385
 20
139.146490
 30
0.0
 11
537.130385
 21
136.146214
 31
0.0
  0
LINE
  5
147
100
AcDbEntity
  8
Layer_1
 62
5
100
AcDbLine
 10
537.130385
 20
136.146214
 30
0.0
 11
557.130684
 21
136.146214
 31
0.0
  0
LINE
  5
148
100
AcDbEntity
  8
Layer_1
 62
5
100
AcDbLine
 10
557.130684
 20
136.146214
 30
0.0
 11
557.130684
 21
139.146490
 31
0.0
  0
LINE
  5
149
100
AcDbEntity
  8
Layer_1
 62
5
100
AcDbLine
 10
557.130684
 20
139.146490
 30
0.0
 11
577.130418
 21
139.146490
 31
0.0
  0
LINE
  5
14a
100
AcDbEntity
  8
Layer_1
 62
5
100
AcDbLine
 10
577.130418
 20
139.146490
 30
0.0
 11
577.130418
 21
136.146214
 31
0.0
  0
LINE
  5
14b
100
AcDbEntity
  8
Layer_1
 62
5
100
AcDbLine
 10
577.130418
 20
136.146214
 30
0.0
 11
597.130717
 21
136.146214
 31
0.0
  0
LINE
  5
14c
100
AcDbEntity
  8
Layer_1
 62
5
100
AcDbLine
 10
597.130717
 20
136.146214
 30
0.0
 11
597.130717
 21
139.146490
 31
0.0
  0
LINE
  5
14d
100
AcDbEntity
  8
Layer_1
 62
5
100
AcDbLine
 10
597.130717
 20
139.146490
 30
0.0
 11
617.131015
 21
139.146490
 31
0.0
  0
LINE
  5
14e
100
AcDbEntity
  8
Layer_1
 62
5
100
AcDbLine
 10
617.131015
 20
139.146490
 30
0.0
 11
617.131015
 21
136.146214
 31
0.0
  0
LINE
  5
14f
100
AcDbEntity
  8
Layer_1
 62
5
100
AcDbLine
 10
617.131015
 20
136.146214
 30
0.0
 11
632.030909
 21
136.146214
 31
0.0
  0
LINE
  5
150
100
AcDbEntity
  8
Layer_1
 62
5
100
AcDbLine
 10
632.030909
 20
136.146214
 30
0.0
 11
632.030909
 21
139.146490
 31
0.0
  0
LINE
  5
151
100
AcDbEntity
  8
Layer_1
 62
5
100
AcDbLine
 10
632.030909
 20
139.146490
 30
0.0
 11
632.030909
 21
149.047410
 31
0.0
  0
LINE
  5
152
100
AcDbEntity
  8
Layer_1
 62
5
100
AcDbLine
 10
632.030909
 20
149.047410
 30
0.0
 11
635.031157
 21
149.047410
 31
0.0
  0
LINE
  5
153
100
AcDbEntity
  8
Layer_1
 62
5
100
AcDbLine
 10
635.031157
 20
149.047410
 30
0.0
 11
635.031157
 21
169.047144
 31
0.0
  0
LINE
  5
154
100
AcDbEntity
  8
Layer_1
 62
5
100
AcDbLine
 10
635.031157
 20
169.047144
 30
0.0
 11
632.030909
 21
169.047144
 31
0.0
  0
LINE
  5
155
100
AcDbEntity
  8
Layer_1
 62
5
100
AcDbLine
 10
632.030909
 20
169.047144
 30
0.0
 11
632.030909
 21
189.046907
 31
0.0
  0
LINE
  5
156
100
AcDbEntity
  8
Layer_1
 62
5
100
AcDbLine
 10
632.030909
 20
189.046907
 30
0.0
 11
635.031157
 21
189.046907
 31
0.0
  0
LINE
  5
157
100
AcDbEntity
  8
Layer_1
 62
5
100
AcDbLine
 10
635.031157
 20
189.046907
 30
0.0
 11
635.031157
 21
209.046641
 31
0.0
  0
LINE
  5
158
100
AcDbEntity
  8
Layer_1
 62
5
100
AcDbLine
 10
635.031157
 20
209.046641
 30
0.0
 11
632.030909
 21
209.046641
 31
0.0
  0
LINE
  5
159
100
AcDbEntity
  8
Layer_1
 62
5
100
AcDbLine
 10
632.030909
 20
209.046641
 30
0.0
 11
632.030909
 21
229.046375
 31
0.0
  0
LINE
  5
15a
100
AcDbEntity
  8
Layer_1
 62
5
100
AcDbLine
 10
632.030909
 20
229.046375
 30
0.0
 11
635.031157
 21
229.046375
 31
0.0
  0
LINE
  5
15b
100
AcDbEntity
  8
Layer_1
 62
5
100
AcDbLine
 10
635.031157
 20
229.046375
 30
0.0
 11
635.031157
 21
249.046138
 31
0.0
  0
LINE
  5
15c
100
AcDbEntity
  8
Layer_1
 62
5
100
AcDbLine
 10
635.031157
 20
249.046138
 30
0.0
 11
632.030909
 21
249.046138
 31
0.0
  0
LINE
  5
15d
100
AcDbEntity
  8
Layer_1
 62
5
100
AcDbLine
 10
632.030909
 20
249.046138
 30
0.0
 11
632.030909
 21
269.045872
 31
0.0
  0
LINE
  5
15e
100
AcDbEntity
  8
Layer_1
 62
5
100
AcDbLine
 10
632.030909
 20
269.045872
 30
0.0
 11
635.031157
 21
269.045872
 31
0.0
  0
LINE
  5
15f
100
AcDbEntity
  8
Layer_1
 62
5
100
AcDbLine
 10
635.031157
 20
269.045872
 30
0.0
 11
635.031157
 21
289.045634
 31
0.0
  0
LINE
  5
160
100
AcDbEntity
  8
Layer_1
 62
5
100
AcDbLine
 10
635.031157
 20
289.045634
 30
0.0
 11
632.030909
 21
289.045634
 31
0.0
  0
LINE
  5
161
100
AcDbEntity
  8
Layer_1
 62
5
100
AcDbLine
 10
632.030909
 20
289.045634
 30
0.0
 11
632.030909
 21
309.045369
 31
0.0
  0
LINE
  5
162
100
AcDbEntity
  8
Layer_1
 62
5
100
AcDbLine
 10
632.030909
 20
309.045369
 30
0.0
 11
635.031157
 21
309.045369
 31
0.0
  0
LINE
  5
163
100
AcDbEntity
  8
Layer_1
 62
5
100
AcDbLine
 10
635.031157
 20
309.045369
 30
0.0
 11
635.031157
 21
329.045103
 31
0.0
  0
LINE
  5
164
100
AcDbEntity
  8
Layer_1
 62
5
100
AcDbLine
 10
635.031157
 20
329.045103
 30
0.0
 11
632.030909
 21
329.045103
 31
0.0
  0
LINE
  5
165
100
AcDbEntity
  8
Layer_1
 62
5
100
AcDbLine
 10
632.030909
 20
329.045103
 30
0.0
 11
632.030909
 21
349.044865
 31
0.0
  0
LINE
  5
166
100
AcDbEntity
  8
Layer_1
 62
5
100
AcDbLine
 10
632.030909
 20
349.044865
 30
0.0
 11
635.031157
 21
349.044865
 31
0.0
  0
LINE
  5
167
100
AcDbEntity
  8
Layer_1
 62
5
100
AcDbLine
 10
635.031157
 20
349.044865
 30
0.0
 11
635.031157
 21
369.044599
 31
0.0
  0
LINE
  5
168
100
AcDbEntity
  8
Layer_1
 62
5
100
AcDbLine
 10
635.031157
 20
369.044599
 30
0.0
 11
635.031157
 21
369.044599
 31
0.0
  0
LINE
  5
169
100
AcDbEntity
  8
Layer_1
 62
5
100
AcDbLine
 10
635.915331
 20
121.407807
 30
0.0
 11
632.915055
 21
121.407807
 31
0.0
  0
LINE
  5
16a
100
AcDbEntity
  8
Layer_1
 62
5
100
AcDbLine
 10
632.915055
 20
121.407807
 30
0.0
 11
632.915055
 21
128.808436
 31
0.0
  0
LINE
  5
16b
100
AcDbEntity
  8
Layer_1
 62
5
100
AcDbLine
 10
632.915055
 20
128.808436
 30
0.0
 11
632.915055
 21
131.808148
 31
0.0
  0
LINE
  5
16c
100
AcDbEntity
  8
Layer_1
 62
5
100
AcDbLine
 10
632.915055
 20
131.808148
 30
0.0
 11
618.015161
 21
131.808148
 31
0.0
  0
LINE
  5
16d
100
AcDbEntity
  8
Layer_1
 62
5
100
AcDbLine
 10
618.015161
 20
131.808148
 30
0.0
 11
618.015161
 21
128.808436
 31
0.0
  0
LINE
  5
16e
100
AcDbEntity
  8
Layer_1
 62
5
100
AcDbLine
 10
618.015161
 20
128.808436
 30
0.0
 11
598.014862
 21
128.808436
 31
0.0
  0
LINE
  5
16f
100
AcDbEntity
  8
Layer_1
 62
5
100
AcDbLine
 10
598.014862
 20
128.808436
 30
0.0
 11
598.014862
 21
131.808148
 31
0.0
  0
LINE
  5
170
100
AcDbEntity
  8
Layer_1
 62
5
100
AcDbLine
 10
598.014862
 20
131.808148
 30
0.0
 11
578.015128
 21
131.808148
 31
0.0
  0
LINE
  5
171
100
AcDbEntity
  8
Layer_1
 62
5
100
AcDbLine
 10
578.015128
 20
131.808148
 30
0.0
 11
578.015128
 21
128.808436
 31
0.0
  0
LINE
  5
172
100
AcDbEntity
  8
Layer_1
 62
5
100
AcDbLine
 10
578.015128
 20
128.808436
 30
0.0
 11
558.014830
 21
128.808436
 31
0.0
  0
LINE
  5
173
100
AcDbEntity
  8
Layer_1
 62
5
100
AcDbLine
 10
558.014830
 20
128.808436
 30
0.0
 11
558.014830
 21
131.808148
 31
0.0
  0
LINE
  5
174
100
AcDbEntity
  8
Layer_1
 62
5
100
AcDbLine
 10
558.014830
 20
131.808148
 30
0.0
 11
538.015095
 21
131.808148
 31
0.0
  0
LINE
  5
175
100
AcDbEntity
  8
Layer_1
 62
5
100
AcDbLine
 10
538.015095
 20
131.808148
 30
0.0
 11
538.015095
 21
128.808436
 31
0.0
  0
LINE
  5
176
100
AcDbEntity
  8
Layer_1
 62
5
100
AcDbLine
 10
538.015095
 20
128.808436
 30
0.0
 11
518.014797
 21
128.808436
 31
0.0
  0
LINE
  5
177
100
AcDbEntity
  8
Layer_1
 62
5
100
AcDbLine
 10
518.014797
 20
128.808436
 30
0.0
 11
518.014797
 21
131.808148
 31
0.0
  0
LINE
  5
178
100
AcDbEntity
  8
Layer_1
 62
5
100
AcDbLine
 10
518.014797
 20
131.808148
 30
0.0
 11
498.015034
 21
131.808148
 31
0.0
  0
LINE
  5
179
100
AcDbEntity
  8
Layer_1
 62
5
100
AcDbLine
 10
498.015034
 20
131.808148
 30
0.0
 11
498.015034
 21
128.808436
 31
0.0
  0
LINE
  5
17a
100
AcDbEntity
  8
Layer_1
 62
5
100
AcDbLine
 10
498.015034
 20
128.808436
 30
0.0
 11
478.014764
 21
128.808436
 31
0.0
  0
LINE
  5
17b
100
AcDbEntity
  8
Layer_1
 62
5
100
AcDbLine
 10
478.014764
 20
128.808436
 30
0.0
 11
478.014764
 21
131.808148
 31
0.0
  0
LINE
  5
17c
100
AcDbEntity
  8
Layer_1
 62
5
100
AcDbLine
 10
478.014764
 20
131.808148
 30
0.0
 11
458.015001
 21
131.808148
 31
0.0
  0
LINE
  5
17d
100
AcDbEntity
  8
Layer_1
 62
5
100
AcDbLine
 10
458.015001
 20
131.808148
 30
0.0
 11
458.015001
 21
128.808436
 31
0.0
  0
LINE
  5
17e
100
AcDbEntity
  8
Layer_1
 62
5
100
AcDbLine
 10
458.015001
 20
128.808436
 30
0.0
 11
438.014703
 21
128.808436
 31
0.0
  0
LINE
  5
17f
100
AcDbEntity
  8
Layer_1
 62
5
100
AcDbLine
 10
438.014703
 20
128.808436
 30
0.0
 11
438.014703
 21
131.808148
 31
0.0
  0
LINE
  5
180
100
AcDbEntity
  8
Layer_1
 62
5
100
AcDbLine
 10
438.014703
 20
131.808148
 30
0.0
 11
418.014968
 21
131.808148
 31
0.0
  0
LINE
  5
181
100
AcDbEntity
  8
Layer_1
 62
5
100
AcDbLine
 10
418.014968
 20
131.808148
 30
0.0
 11
418.014968
 21
128.808436
 31
0.0
  0
LINE
  5
182
100
AcDbEntity
  8
Layer_1
 62
5
100
AcDbLine
 10
418.014968
 20
128.808436
 30
0.0
 11
398.015234
 21
128.808436
 31
0.0
  0
LINE
  5
183
100
AcDbEntity
  8
Layer_1
 62
5
100
AcDbLine
 10
398.015234
 20
128.808436
 30
0.0
 11
398.015234
 21
131.808148
 31
0.0
  0
LINE
  5
184
100
AcDbEntity
  8
Layer_1
 62
5
100
AcDbLine
 10
398.015234
 20
131.808148
 30
0.0
 11
383.114776
 21
131.808148
 31
0.0
  0
LINE
  5
185
100
AcDbEntity
  8
Layer_1
 62
5
100
AcDbLine
 10
383.114776
 20
131.808148
 30
0.0
 11
383.114776
 21
128.808436
 31
0.0
  0
LINE
  5
186
100
AcDbEntity
  8
Layer_1
 62
5
100
AcDbLine
 10
383.114776
 20
128.808436
 30
0.0
 11
383.114776
 21
121.407807
 31
0.0
  0
LINE
  5
187
100
AcDbEntity
  8
Layer_1
 62
5
100
AcDbLine
 10
383.114776
 20
121.407807
 30
0.0
 11
380.114500
 21
121.407807
 31
0.0
  0
LINE
  5
188
100
AcDbEntity
  8
Layer_1
 62
5
100
AcDbLine
 10
380.114500
 20
121.407807
 30
0.0
 11
380.114500
 21
101.408073
 31
0.0
  0
LINE
  5
189
100
AcDbEntity
  8
Layer_1
 62
5
100
AcDbLine
 10
380.114500
 20
101.408073
 30
0.0
 11
383.114776
 21
101.408073
 31
0.0
  0
LINE
  5
18a
100
AcDbEntity
  8
Layer_1
 62
5
100
AcDbLine
 10
383.114776
 20
101.408073
 30
0.0
 11
383.114776
 21
81.408339
 31
0.0
  0
LINE
  5
18b
100
AcDbEntity
  8
Layer_1
 62
5
100
AcDbLine
 10
383.114776
 20
81.408339
 30
0.0
 11
380.114500
 21
81.408339
 31
0.0
  0
LINE
  5
18c
100
AcDbEntity
  8
Layer_1
 62
5
100
AcDbLine
 10
380.114500
 20
81.408339
 30
0.0
 11
380.114500
 21
61.408577
 31
0.0
  0
LINE
  5
18d
100
AcDbEntity
  8
Layer_1
 62
5
100
AcDbLine
 10
380.114500
 20
61.408577
 30
0.0
 11
383.114776
 21
61.408577
 31
0.0
  0
LINE
  5
18e
100
AcDbEntity
  8
Layer_1
 62
5
100
AcDbLine
 10
383.114776
 20
61.408577
 30
0.0
 11
383.114776
 21
41.408842
 31
0.0
  0
LINE
  5
18f
100
AcDbEntity
  8
Layer_1
 62
5
100
AcDbLine
 10
383.114776
 20
41.408842
 30
0.0
 11
380.114500
 21
41.408842
 31
0.0
  0
LINE
  5
190
100
AcDbEntity
  8
Layer_1
 62
5
100
AcDbLine
 10
380.114500
 20
41.408842
 30
0.0
 11
380.114500
 21
21.409080
 31
0.0
  0
LINE
  5
191
100
AcDbEntity
  8
Layer_1
 62
5
100
AcDbLine
 10
380.114500
 20
21.409080
 30
0.0
 11
383.114776
 21
21.409080
 31
0.0
  0
LINE
  5
192
100
AcDbEntity
  8
Layer_1
 62
5
100
AcDbLine
 10
383.114776
 20
21.409080
 30
0.0
 11
383.114776
 21
14.008491
 31
0.0
  0
LINE
  5
193
100
AcDbEntity
  8
Layer_1
 62
5
100
AcDbLine
 10
383.114776
 20
14.008491
 30
0.0
 11
383.114776
 21
11.008779
 31
0.0
  0
LINE
  5
194
100
AcDbEntity
  8
Layer_1
 62
5
100
AcDbLine
 10
383.114776
 20
11.008779
 30
0.0
 11
398.014670
 21
11.008779
 31
0.0
  0
LINE
  5
195
100
AcDbEntity
  8
Layer_1
 62
5
100
AcDbLine
 10
398.014670
 20
11.008779
 30
0.0
 11
398.014670
 21
14.008491
 31
0.0
  0
LINE
  5
196
100
AcDbEntity
  8
Layer_1
 62
5
100
AcDbLine
 10
398.014670
 20
14.008491
 30
0.0
 11
418.014968
 21
14.008491
 31
0.0
  0
LINE
  5
197
100
AcDbEntity
  8
Layer_1
 62
5
100
AcDbLine
 10
418.014968
 20
14.008491
 30
0.0
 11
418.014968
 21
11.008779
 31
0.0
  0
LINE
  5
198
100
AcDbEntity
  8
Layer_1
 62
5
100
AcDbLine
 10
418.014968
 20
11.008779
 30
0.0
 11
438.014703
 21
11.008779
 31
0.0
  0
LINE
  5
199
100
AcDbEntity
  8
Layer_1
 62
5
100
AcDbLine
 10
438.014703
 20
11.008779
 30
0.0
 11
438.014703
 21
14.008491
 31
0.0
  0
LINE
  5
19a
100
AcDbEntity
  8
Layer_1
 62
5
100
AcDbLine
 10
438.014703
 20
14.008491
 30
0.0
 11
458.015001
 21
14.008491
 31
0.0
  0
LINE
  5
19b
100
AcDbEntity
  8
Layer_1
 62
5
100
AcDbLine
 10
458.015001
 20
14.008491
 30
0.0
 11
458.015001
 21
11.008779
 31
0.0
  0
LINE
  5
19c
100
AcDbEntity
  8
Layer_1
 62
5
100
AcDbLine
 10
458.015001
 20
11.008779
 30
0.0
 11
478.014764
 21
11.008779
 31
0.0
  0
LINE
  5
19d
100
AcDbEntity
  8
Layer_1
 62
5
100
AcDbLine
 10
478.014764
 20
11.008779
 30
0.0
 11
478.014764
 21
14.008491
 31
0.0
  0
LINE
  5
19e
100
AcDbEntity
  8
Layer_1
 62
5
100
AcDbLine
 10
478.014764
 20
14.008491
 30
0.0
 11
498.014498
 21
14.008491
 31
0.0
  0
LINE
  5
19f
100
AcDbEntity
  8
Layer_1
 62
5
100
AcDbLine
 10
498.014498
 20
14.008491
 30
0.0
 11
498.014498
 21
11.008779
 31
0.0
  0
LINE
  5
1a0
100
AcDbEntity
  8
Layer_1
 62
5
100
AcDbLine
 10
498.014498
 20
11.008779
 30
0.0
 11
518.014797
 21
11.008779
 31
0.0
  0
LINE
  5
1a1
100
AcDbEntity
  8
Layer_1
 62
5
100
AcDbLine
 10
518.014797
 20
11.008779
 30
0.0
 11
518.014797
 21
14.008491
 31
0.0
  0
LINE
  5
1a2
100
AcDbEntity
  8
Layer_1
 62
5
100
AcDbLine
 10
518.014797
 20
14.008491
 30
0.0
 11
538.014531
 21
14.008491
 31
0.0
  0
LINE
  5
1a3
100
AcDbEntity
  8
Layer_1
 62
5
100
AcDbLine
 10
538.014531
 20
14.008491
 30
0.0
 11
538.014531
 21
11.008779
 31
0.0
  0
LINE
  5
1a4
100
AcDbEntity
  8
Layer_1
 62
5
100
AcDbLine
 10
538.014531
 20
11.008779
 30
0.0
 11
558.014830
 21
11.008779
 31
0.0
  0
LINE
  5
1a5
100
AcDbEntity
  8
Layer_1
 62
5
100
AcDbLine
 10
558.014830
 20
11.008779
 30
0.0
 11
558.014830
 21
14.008491
 31
0.0
  0
LINE
  5
1a6
100
AcDbEntity
  8
Layer_1
 62
5
100
AcDbLine
 10
558.014830
 20
14.008491
 30
0.0
 11
578.014564
 21
14.008491
 31
0.0
  0
LINE
  5
1a7
100
AcDbEntity
  8
Layer_1
 62
5
100
AcDbLine
 10
578.014564
 20
14.008491
 30
0.0
 11
578.014564
 21
11.008779
 31
0.0
  0
LINE
  5
1a8
100
AcDbEntity
  8
Layer_1
 62
5
100
AcDbLine
 10
578.014564
 20
11.008779
 30
0.0
 11
598.014862
 21
11.008779
 31
0.0
  0
LINE
  5
1a9
100
AcDbEntity
  8
Layer_1
 62
5
100
AcDbLine
 10
598.014862
 20
11.008779
 30
0.0
 11
598.014862
 21
14.008491
 31
0.0
  0
LINE
  5
1aa
100
AcDbEntity
  8
Layer_1
 62
5
100
AcDbLine
 10
598.014862
 20
14.008491
 30
0.0
 11
618.014625
 21
14.008491
 31
0.0
  0
LINE
  5
1ab
100
AcDbEntity
  8
Layer_1
 62
5
100
AcDbLine
 10
618.014625
 20
14.008491
 30
0.0
 11
618.014625
 21
11.008779
 31
0.0
  0
LINE
  5
1ac
100
AcDbEntity
  8
Layer_1
 62
5
100
AcDbLine
 10
618.014625
 20
11.008779
 30
0.0
 11
632.915055
 21
11.008779
 31
0.0
  0
LINE
  5
1ad
100
AcDbEntity
  8
Layer_1
 62
5
100
AcDbLine
 10
632.915055
 20
11.008779
 30
0.0
 11
632.915055
 21
14.008491
 31
0.0
  0
LINE
  5
1ae
100
AcDbEntity
  8
Layer_1
 62
5
100
AcDbLine
 10
632.915055
 20
14.008491
 30
0.0
 11
632.915055
 21
21.409080
 31
0.0
  0
LINE
  5
1af
100
AcDbEntity
  8
Layer_1
 62
5
100
AcDbLine
 10
632.915055
 20
21.409080
 30
0.0
 11
635.915331
 21
21.409080
 31
0.0
  0
LINE
  5
1b0
100
AcDbEntity
  8
Layer_1
 62
5
100
AcDbLine
 10
635.915331
 20
21.409080
 30
0.0
 11
635.915331
 21
41.408842
 31
0.0
  0
LINE
  5
1b1
100
AcDbEntity
  8
Layer_1
 62
5
100
AcDbLine
 10
635.915331
 20
41.408842
 30
0.0
 11
632.915055
 21
41.408842
 31
0.0
  0
LINE
  5
1b2
100
AcDbEntity
  8
Layer_1
 62
5
100
AcDbLine
 10
632.915055
 20
41.408842
 30
0.0
 11
632.915055
 21
61.408577
 31
0.0
  0
LINE
  5
1b3
100
AcDbEntity
  8
Layer_1
 62
5
100
AcDbLine
 10
632.915055
 20
61.408577
 30
0.0
 11
635.915331
 21
61.408577
 31
0.0
  0
LINE
  5
1b4
100
AcDbEntity
  8
Layer_1
 62
5
100
AcDbLine
 10
635.915331
 20
61.408577
 30
0.0
 11
635.915331
 21
81.408339
 31
0.0
  0
LINE
  5
1b5
100
AcDbEntity
  8
Layer_1
 62
5
100
AcDbLine
 10
635.915331
 20
81.408339
 30
0.0
 11
632.915055
 21
81.408339
 31
0.0
  0
LINE
  5
1b6
100
AcDbEntity
  8
Layer_1
 62
5
100
AcDbLine
 10
632.915055
 20
81.408339
 30
0.0
 11
632.915055
 21
101.408073
 31
0.0
  0
LINE
  5
1b7
100
AcDbEntity
  8
Layer_1
 62
5
100
AcDbLine
 10
632.915055
 20
101.408073
 30
0.0
 11
635.915331
 21
101.408073
 31
0.0
  0
LINE
  5
1b8
100
AcDbEntity
  8
Layer_1
 62
5
100
AcDbLine
 10
635.915331
 20
101.408073
 30
0.0
 11
635.915331
 21
121.407807
 31
0.0
  0
LINE
  5
1b9
100
AcDbEntity
  8
Layer_1
 62
5
100
AcDbLine
 10
635.915331
 20
121.407807
 30
0.0
 11
635.915331
 21
121.407807
 31
0.0
  0
ENDSEC
  0
SECTION
  2
OBJECTS
  0
DICTIONARY
  5
C
330
0
100
AcDbDictionary
  3
ACAD_GROUP
350
D
  3
ACAD_MLINESTYLE
350
17
  0
DICTIONARY
  5
D
330
C
100
AcDbDictionary
  0
DICTIONARY
  5
1A
330
C
100
AcDbDictionary
  0
DICTIONARY
  5
17
330
C
100
AcDbDictionary
  3
STANDARD
350
18
  0
DICTIONARY
  5
19
330
C
100
AcDbDictionary
  0
ENDSEC
  0
EOF
