  0
SECTION
  2
HEADER
  9
$ACADVER
  1
AC1014
  9
$HANDSEED
  5
FFFF
  9
$MEASUREMENT
 70
     1
  0
ENDSEC
  0
SECTION
  2
TABLES
  0
TABLE
  2
VPORT
  5
8
330
0
100
AcDbSymbolTable
 70
     4
  0
VPORT
  5
2E
330
8
100
AcDbSymbolTableRecord
100
AcDbViewportTableRecord
  2
*ACTIVE
 70
     0
 10
0.0
 20
0.0
 11
1.0
 21
1.0
 12
210.0
 22
148.5
 13
0.0
 23
0.0
 14
10.0
 24
10.0
 15
10.0
 25
10.0
 16
0.0
 26
0.0
 36
1.0
 17
0.0
 27
0.0
 37
0.0
 40
341.0
 41
1.24
 42
50.0
 43
0.0
 44
0.0
 50
0.0
 51
0.0
 71
     0
 72
   100
 73
     1
 74
     3
 75
     0
 76
     0
 77
     0
 78
     0
  0
ENDTAB
  0
TABLE
  2
LTYPE
  5
5
330
0
100
AcDbSymbolTable
 70
     1
  0
LTYPE
  5
14
330
5
100
AcDbSymbolTableRecord
100
AcDbLinetypeTableRecord
  2
BYBLOCK
 70
     0
  3

 72
    65
 73
     0
 40
0.0
  0
LTYPE
  5
15
330
5
100
AcDbSymbolTableRecord
100
AcDbLinetypeTableRecord
  2
BYLAYER
 70
     0
  3

 72
    65
 73
     0
 40
0.0
  0
LTYPE
  5
16
330
5
100
AcDbSymbolTableRecord
100
AcDbLinetypeTableRecord
  2
CONTINUOUS
 70
     0
  3
Solid line
 72
    65
 73
     0
 40
0.0
  0
ENDTAB
  0
TABLE
  2
LAYER
  5
2
100
AcDbSymbolTable
 70
2
  0
LAYER
  5
50
100
AcDbSymbolTableRecord
100
AcDbLayerTableRecord
  2
0
 70
0
  6
CONTINUOUS
  0
LAYER
  5
51
100
AcDbSymbolTableRecord
100
AcDbLayerTableRecord
  2
Layer_1
 70
0
  6
CONTINUOUS
  0
ENDTAB
  0
TABLE
  2
STYLE
  5
3
330
0
100
AcDbSymbolTable
 70
     1
  0
STYLE
  5
11
330
3
100
AcDbSymbolTableRecord
100
AcDbTextStyleTableRecord
  2
STANDARD
 70
     0
 40
0.0
 41
1.0
 50
0.0
 71
     0
 42
2.5
  3
txt
  4

  0
ENDTAB
  0
TABLE
  2
VIEW
  5
6
330
0
100
AcDbSymbolTable
 70
     0
  0
ENDTAB
  0
TABLE
  2
UCS
  5
7
330
0
100
AcDbSymbolTable
 70
     0
  0
ENDTAB
  0
TABLE
  2
APPID
  5
9
330
0
100
AcDbSymbolTable
 70
     2
  0
APPID
  5
12
330
9
100
AcDbSymbolTableRecord
100
AcDbRegAppTableRecord
  2
ACAD
 70
     0
  0
ENDTAB
  0
TABLE
  2
DIMSTYLE
  5
A
330
0
100
AcDbSymbolTable
 70
     1
  0
DIMSTYLE
105
27
330
A
100
AcDbSymbolTableRecord
100
AcDbDimStyleTableRecord
  2
ISO-25
 70
     0
  3

  4

  5

  6

  7

 40
1.0
 41
2.5
 42
0.625
 43
3.75
 44
1.25
 45
0.0
 46
0.0
 47
0.0
 48
0.0
140
2.5
141
2.5
142
0.0
143
0.03937007874016
144
1.0
145
0.0
146
1.0
147
0.625
 71
     0
 72
     0
 73
     0
 74
     0
 75
     0
 76
     0
 77
     1
 78
     8
170
     0
171
     3
172
     1
173
     0
174
     0
175
     0
176
     0
177
     0
178
     0
270
     2
271
     2
272
     2
273
     2
274
     3
340
11
275
     0
280
     0
281
     0
282
     0
283
     0
284
     8
285
     0
286
     0
287
     3
288
     0
  0
ENDTAB
  0
TABLE
  2
BLOCK_RECORD
  5
1
330
0
100
AcDbSymbolTable
 70
     1
  0
BLOCK_RECORD
  5
1F
330
1
100
AcDbSymbolTableRecord
100
AcDbBlockTableRecord
  2
*MODEL_SPACE
  0
BLOCK_RECORD
  5
1B
330
1
100
AcDbSymbolTableRecord
100
AcDbBlockTableRecord
  2
*PAPER_SPACE
  0
ENDTAB
  0
ENDSEC
  0
SECTION
  2
BLOCKS
  0
BLOCK
  5
20
330
1F
100
AcDbEntity
  8
0
100
AcDbBlockBegin
  2
*MODEL_SPACE
 70
     0
 10
0.0
 20
0.0
 30
0.0
  3
*MODEL_SPACE
  1

  0
ENDBLK
  5
21
330
1F
100
AcDbEntity
  8
0
100
AcDbBlockEnd
  0
BLOCK
  5
1C
330
1B
100
AcDbEntity
 67
     1
  8
0
100
AcDbBlockBegin
  2
*PAPER_SPACE
  1

  0
ENDBLK
  5
1D
330
1B
100
AcDbEntity
 67
     1
  8
0
100
AcDbBlockEnd
  0
ENDSEC
  0
SECTION
  2
ENTITIES
  0
LINE
  5
100
100
AcDbEntity
  8
Layer_1
 62
5
100
AcDbLine
 10
394.094349
 20
371.416643
 30
0.0
 11
394.094349
 21
368.416395
 31
0.0
  0
LINE
  5
101
100
AcDbEntity
  8
Layer_1
 62
5
100
AcDbLine
 10
394.094349
 20
368.416395
 30
0.0
 11
379.193891
 21
368.416395
 31
0.0
  0
LINE
  5
102
100
AcDbEntity
  8
Layer_1
 62
5
100
AcDbLine
 10
379.193891
 20
368.416395
 30
0.0
 11
376.194179
 21
368.416395
 31
0.0
  0
LINE
  5
103
100
AcDbEntity
  8
Layer_1
 62
5
100
AcDbLine
 10
376.194179
 20
368.416395
 30
0.0
 11
376.194179
 21
348.416633
 31
0.0
  0
LINE
  5
104
100
AcDbEntity
  8
Layer_1
 62
5
100
AcDbLine
 10
376.194179
 20
348.416633
 30
0.0
 11
379.193891
 21
348.416633
 31
0.0
  0
LINE
  5
105
100
AcDbEntity
  8
Layer_1
 62
5
100
AcDbLine
 10
379.193891
 20
348.416633
 30
0.0
 11
379.193891
 21
328.416899
 31
0.0
  0
LINE
  5
106
100
AcDbEntity
  8
Layer_1
 62
5
100
AcDbLine
 10
379.193891
 20
328.416899
 30
0.0
 11
376.194179
 21
328.416899
 31
0.0
  0
LINE
  5
107
100
AcDbEntity
  8
Layer_1
 62
5
100
AcDbLine
 10
376.194179
 20
328.416899
 30
0.0
 11
376.194179
 21
308.417165
 31
0.0
  0
LINE
  5
108
100
AcDbEntity
  8
Layer_1
 62
5
100
AcDbLine
 10
376.194179
 20
308.417165
 30
0.0
 11
379.193891
 21
308.417165
 31
0.0
  0
LINE
  5
109
100
AcDbEntity
  8
Layer_1
 62
5
100
AcDbLine
 10
379.193891
 20
308.417165
 30
0.0
 11
379.193891
 21
288.417402
 31
0.0
  0
LINE
  5
10a
100
AcDbEntity
  8
Layer_1
 62
5
100
AcDbLine
 10
379.193891
 20
288.417402
 30
0.0
 11
376.194179
 21
288.417402
 31
0.0
  0
LINE
  5
10b
100
AcDbEntity
  8
Layer_1
 62
5
100
AcDbLine
 10
376.194179
 20
288.417402
 30
0.0
 11
376.194179
 21
268.417668
 31
0.0
  0
LINE
  5
10c
100
AcDbEntity
  8
Layer_1
 62
5
100
AcDbLine
 10
376.194179
 20
268.417668
 30
0.0
 11
379.193891
 21
268.417668
 31
0.0
  0
LINE
  5
10d
100
AcDbEntity
  8
Layer_1
 62
5
100
AcDbLine
 10
379.193891
 20
268.417668
 30
0.0
 11
379.193891
 21
248.417934
 31
0.0
  0
LINE
  5
10e
100
AcDbEntity
  8
Layer_1
 62
5
100
AcDbLine
 10
379.193891
 20
248.417934
 30
0.0
 11
376.194179
 21
248.417934
 31
0.0
  0
LINE
  5
10f
100
AcDbEntity
  8
Layer_1
 62
5
100
AcDbLine
 10
376.194179
 20
248.417934
 30
0.0
 11
376.194179
 21
228.418171
 31
0.0
  0
LINE
  5
110
100
AcDbEntity
  8
Layer_1
 62
5
100
AcDbLine
 10
376.194179
 20
228.418171
 30
0.0
 11
379.193891
 21
228.418171
 31
0.0
  0
LINE
  5
111
100
AcDbEntity
  8
Layer_1
 62
5
100
AcDbLine
 10
379.193891
 20
228.418171
 30
0.0
 11
379.193891
 21
208.418437
 31
0.0
  0
LINE
  5
112
100
AcDbEntity
  8
Layer_1
 62
5
100
AcDbLine
 10
379.193891
 20
208.418437
 30
0.0
 11
376.194179
 21
208.418437
 31
0.0
  0
LINE
  5
113
100
AcDbEntity
  8
Layer_1
 62
5
100
AcDbLine
 10
376.194179
 20
208.418437
 30
0.0
 11
376.194179
 21
188.418703
 31
0.0
  0
LINE
  5
114
100
AcDbEntity
  8
Layer_1
 62
5
100
AcDbLine
 10
376.194179
 20
188.418703
 30
0.0
 11
379.193891
 21
188.418703
 31
0.0
  0
LINE
  5
115
100
AcDbEntity
  8
Layer_1
 62
5
100
AcDbLine
 10
379.193891
 20
188.418703
 30
0.0
 11
379.193891
 21
168.418940
 31
0.0
  0
LINE
  5
116
100
AcDbEntity
  8
Layer_1
 62
5
100
AcDbLine
 10
379.193891
 20
168.418940
 30
0.0
 11
376.194179
 21
168.418940
 31
0.0
  0
LINE
  5
117
100
AcDbEntity
  8
Layer_1
 62
5
100
AcDbLine
 10
376.194179
 20
168.418940
 30
0.0
 11
376.194179
 21
148.419206
 31
0.0
  0
LINE
  5
118
100
AcDbEntity
  8
Layer_1
 62
5
100
AcDbLine
 10
376.194179
 20
148.419206
 30
0.0
 11
379.193891
 21
148.419206
 31
0.0
  0
LINE
  5
119
100
AcDbEntity
  8
Layer_1
 62
5
100
AcDbLine
 10
379.193891
 20
148.419206
 30
0.0
 11
379.193891
 21
128.419472
 31
0.0
  0
LINE
  5
11a
100
AcDbEntity
  8
Layer_1
 62
5
100
AcDbLine
 10
379.193891
 20
128.419472
 30
0.0
 11
376.194179
 21
128.419472
 31
0.0
  0
LINE
  5
11b
100
AcDbEntity
  8
Layer_1
 62
5
100
AcDbLine
 10
376.194179
 20
128.419472
 30
0.0
 11
376.194179
 21
108.419718
 31
0.0
  0
LINE
  5
11c
100
AcDbEntity
  8
Layer_1
 62
5
100
AcDbLine
 10
376.194179
 20
108.419718
 30
0.0
 11
379.193891
 21
108.419718
 31
0.0
  0
LINE
  5
11d
100
AcDbEntity
  8
Layer_1
 62
5
100
AcDbLine
 10
379.193891
 20
108.419718
 30
0.0
 11
379.193891
 21
88.419975
 31
0.0
  0
LINE
  5
11e
100
AcDbEntity
  8
Layer_1
 62
5
100
AcDbLine
 10
379.193891
 20
88.419975
 30
0.0
 11
376.194179
 21
88.419975
 31
0.0
  0
LINE
  5
11f
100
AcDbEntity
  8
Layer_1
 62
5
100
AcDbLine
 10
376.194179
 20
88.419975
 30
0.0
 11
376.194179
 21
68.420230
 31
0.0
  0
LINE
  5
120
100
AcDbEntity
  8
Layer_1
 62
5
100
AcDbLine
 10
376.194179
 20
68.420230
 30
0.0
 11
379.193891
 21
68.420230
 31
0.0
  0
LINE
  5
121
100
AcDbEntity
  8
Layer_1
 62
5
100
AcDbLine
 10
379.193891
 20
68.420230
 30
0.0
 11
379.193891
 21
48.420487
 31
0.0
  0
LINE
  5
122
100
AcDbEntity
  8
Layer_1
 62
5
100
AcDbLine
 10
379.193891
 20
48.420487
 30
0.0
 11
376.194179
 21
48.420487
 31
0.0
  0
LINE
  5
123
100
AcDbEntity
  8
Layer_1
 62
5
100
AcDbLine
 10
376.194179
 20
48.420487
 30
0.0
 11
376.194179
 21
27.483126
 31
0.0
  0
LINE
  5
124
100
AcDbEntity
  8
Layer_1
 62
5
100
AcDbLine
 10
376.194179
 20
27.483126
 30
0.0
 11
379.193891
 21
27.483126
 31
0.0
  0
LINE
  5
125
100
AcDbEntity
  8
Layer_1
 62
5
100
AcDbLine
 10
379.193891
 20
27.483126
 30
0.0
 11
394.293880
 21
27.483126
 31
0.0
  0
LINE
  5
126
100
AcDbEntity
  8
Layer_1
 62
5
100
AcDbLine
 10
394.293880
 20
27.483126
 30
0.0
 11
394.293880
 21
24.482311
 31
0.0
  0
LINE
  5
127
100
AcDbEntity
  8
Layer_1
 62
5
100
AcDbLine
 10
394.293880
 20
24.482311
 30
0.0
 11
414.294179
 21
24.482311
 31
0.0
  0
LINE
  5
128
100
AcDbEntity
  8
Layer_1
 62
5
100
AcDbLine
 10
414.294179
 20
24.482311
 30
0.0
 11
414.294179
 21
27.483126
 31
0.0
  0
LINE
  5
129
100
AcDbEntity
  8
Layer_1
 62
5
100
AcDbLine
 10
414.294179
 20
27.483126
 30
0.0
 11
434.293913
 21
27.483126
 31
0.0
  0
LINE
  5
12a
100
AcDbEntity
  8
Layer_1
 62
5
100
AcDbLine
 10
434.293913
 20
27.483126
 30
0.0
 11
434.293913
 21
24.482311
 31
0.0
  0
LINE
  5
12b
100
AcDbEntity
  8
Layer_1
 62
5
100
AcDbLine
 10
434.293913
 20
24.482311
 30
0.0
 11
454.294212
 21
24.482311
 31
0.0
  0
LINE
  5
12c
100
AcDbEntity
  8
Layer_1
 62
5
100
AcDbLine
 10
454.294212
 20
24.482311
 30
0.0
 11
454.294212
 21
27.483126
 31
0.0
  0
LINE
  5
12d
100
AcDbEntity
  8
Layer_1
 62
5
100
AcDbLine
 10
454.294212
 20
27.483126
 30
0.0
 11
474.293410
 21
27.483126
 31
0.0
  0
LINE
  5
12e
100
AcDbEntity
  8
Layer_1
 62
5
100
AcDbLine
 10
474.293410
 20
27.483126
 30
0.0
 11
474.293410
 21
24.482311
 31
0.0
  0
LINE
  5
12f
100
AcDbEntity
  8
Layer_1
 62
5
100
AcDbLine
 10
474.293410
 20
24.482311
 30
0.0
 11
494.293708
 21
24.482311
 31
0.0
  0
LINE
  5
130
100
AcDbEntity
  8
Layer_1
 62
5
100
AcDbLine
 10
494.293708
 20
24.482311
 30
0.0
 11
494.293708
 21
27.483126
 31
0.0
  0
LINE
  5
131
100
AcDbEntity
  8
Layer_1
 62
5
100
AcDbLine
 10
494.293708
 20
27.483126
 30
0.0
 11
514.293443
 21
27.483126
 31
0.0
  0
LINE
  5
132
100
AcDbEntity
  8
Layer_1
 62
5
100
AcDbLine
 10
514.293443
 20
27.483126
 30
0.0
 11
514.293443
 21
24.482311
 31
0.0
  0
LINE
  5
133
100
AcDbEntity
  8
Layer_1
 62
5
100
AcDbLine
 10
514.293443
 20
24.482311
 30
0.0
 11
534.293741
 21
24.482311
 31
0.0
  0
LINE
  5
134
100
AcDbEntity
  8
Layer_1
 62
5
100
AcDbLine
 10
534.293741
 20
24.482311
 30
0.0
 11
534.293741
 21
27.483126
 31
0.0
  0
LINE
  5
135
100
AcDbEntity
  8
Layer_1
 62
5
100
AcDbLine
 10
534.293741
 20
27.483126
 30
0.0
 11
554.293504
 21
27.483126
 31
0.0
  0
LINE
  5
136
100
AcDbEntity
  8
Layer_1
 62
5
100
AcDbLine
 10
554.293504
 20
27.483126
 30
0.0
 11
554.293504
 21
24.482311
 31
0.0
  0
LINE
  5
137
100
AcDbEntity
  8
Layer_1
 62
5
100
AcDbLine
 10
554.293504
 20
24.482311
 30
0.0
 11
574.293774
 21
24.482311
 31
0.0
  0
LINE
  5
138
100
AcDbEntity
  8
Layer_1
 62
5
100
AcDbLine
 10
574.293774
 20
24.482311
 30
0.0
 11
574.293774
 21
27.483126
 31
0.0
  0
LINE
  5
139
100
AcDbEntity
  8
Layer_1
 62
5
100
AcDbLine
 10
574.293774
 20
27.483126
 30
0.0
 11
594.293537
 21
27.483126
 31
0.0
  0
LINE
  5
13a
100
AcDbEntity
  8
Layer_1
 62
5
100
AcDbLine
 10
594.293537
 20
27.483126
 30
0.0
 11
594.293537
 21
24.482311
 31
0.0
  0
LINE
  5
13b
100
AcDbEntity
  8
Layer_1
 62
5
100
AcDbLine
 10
594.293537
 20
24.482311
 30
0.0
 11
614.293835
 21
24.482311
 31
0.0
  0
LINE
  5
13c
100
AcDbEntity
  8
Layer_1
 62
5
100
AcDbLine
 10
614.293835
 20
24.482311
 30
0.0
 11
614.293835
 21
27.483126
 31
0.0
  0
LINE
  5
13d
100
AcDbEntity
  8
Layer_1
 62
5
100
AcDbLine
 10
614.293835
 20
27.483126
 30
0.0
 11
629.193729
 21
27.483126
 31
0.0
  0
LINE
  5
13e
100
AcDbEntity
  8
Layer_1
 62
5
100
AcDbLine
 10
629.193729
 20
27.483126
 30
0.0
 11
632.193441
 21
27.483126
 31
0.0
  0
LINE
  5
13f
100
AcDbEntity
  8
Layer_1
 62
5
100
AcDbLine
 10
632.193441
 20
27.483126
 30
0.0
 11
632.193441
 21
48.420487
 31
0.0
  0
LINE
  5
140
100
AcDbEntity
  8
Layer_1
 62
5
100
AcDbLine
 10
632.193441
 20
48.420487
 30
0.0
 11
629.193729
 21
48.420487
 31
0.0
  0
LINE
  5
141
100
AcDbEntity
  8
Layer_1
 62
5
100
AcDbLine
 10
629.193729
 20
48.420487
 30
0.0
 11
629.193729
 21
68.420230
 31
0.0
  0
LINE
  5
142
100
AcDbEntity
  8
Layer_1
 62
5
100
AcDbLine
 10
629.193729
 20
68.420230
 30
0.0
 11
632.193441
 21
68.420230
 31
0.0
  0
LINE
  5
143
100
AcDbEntity
  8
Layer_1
 62
5
100
AcDbLine
 10
632.193441
 20
68.420230
 30
0.0
 11
632.193441
 21
88.419975
 31
0.0
  0
LINE
  5
144
100
AcDbEntity
  8
Layer_1
 62
5
100
AcDbLine
 10
632.193441
 20
88.419975
 30
0.0
 11
629.193729
 21
88.419975
 31
0.0
  0
LINE
  5
145
100
AcDbEntity
  8
Layer_1
 62
5
100
AcDbLine
 10
629.193729
 20
88.419975
 30
0.0
 11
629.193729
 21
108.419718
 31
0.0
  0
LINE
  5
146
100
AcDbEntity
  8
Layer_1
 62
5
100
AcDbLine
 10
629.193729
 20
108.419718
 30
0.0
 11
632.193441
 21
108.419718
 31
0.0
  0
LINE
  5
147
100
AcDbEntity
  8
Layer_1
 62
5
100
AcDbLine
 10
632.193441
 20
108.419718
 30
0.0
 11
632.193441
 21
128.419472
 31
0.0
  0
LINE
  5
148
100
AcDbEntity
  8
Layer_1
 62
5
100
AcDbLine
 10
632.193441
 20
128.419472
 30
0.0
 11
629.193729
 21
128.419472
 31
0.0
  0
LINE
  5
149
100
AcDbEntity
  8
Layer_1
 62
5
100
AcDbLine
 10
629.193729
 20
128.419472
 30
0.0
 11
629.193729
 21
148.419206
 31
0.0
  0
LINE
  5
14a
100
AcDbEntity
  8
Layer_1
 62
5
100
AcDbLine
 10
629.193729
 20
148.419206
 30
0.0
 11
632.193441
 21
148.419206
 31
0.0
  0
LINE
  5
14b
100
AcDbEntity
  8
Layer_1
 62
5
100
AcDbLine
 10
632.193441
 20
148.419206
 30
0.0
 11
632.193441
 21
168.418940
 31
0.0
  0
LINE
  5
14c
100
AcDbEntity
  8
Layer_1
 62
5
100
AcDbLine
 10
632.193441
 20
168.418940
 30
0.0
 11
629.193729
 21
168.418940
 31
0.0
  0
LINE
  5
14d
100
AcDbEntity
  8
Layer_1
 62
5
100
AcDbLine
 10
629.193729
 20
168.418940
 30
0.0
 11
629.193729
 21
188.418703
 31
0.0
  0
LINE
  5
14e
100
AcDbEntity
  8
Layer_1
 62
5
100
AcDbLine
 10
629.193729
 20
188.418703
 30
0.0
 11
632.193441
 21
188.418703
 31
0.0
  0
LINE
  5
14f
100
AcDbEntity
  8
Layer_1
 62
5
100
AcDbLine
 10
632.193441
 20
188.418703
 30
0.0
 11
632.193441
 21
208.418437
 31
0.0
  0
LINE
  5
150
100
AcDbEntity
  8
Layer_1
 62
5
100
AcDbLine
 10
632.193441
 20
208.418437
 30
0.0
 11
629.193729
 21
208.418437
 31
0.0
  0
LINE
  5
151
100
AcDbEntity
  8
Layer_1
 62
5
100
AcDbLine
 10
629.193729
 20
208.418437
 30
0.0
 11
629.193729
 21
228.418171
 31
0.0
  0
LINE
  5
152
100
AcDbEntity
  8
Layer_1
 62
5
100
AcDbLine
 10
629.193729
 20
228.418171
 30
0.0
 11
632.193441
 21
228.418171
 31
0.0
  0
LINE
  5
153
100
AcDbEntity
  8
Layer_1
 62
5
100
AcDbLine
 10
632.193441
 20
228.418171
 30
0.0
 11
632.193441
 21
248.417934
 31
0.0
  0
LINE
  5
154
100
AcDbEntity
  8
Layer_1
 62
5
100
AcDbLine
 10
632.193441
 20
248.417934
 30
0.0
 11
629.193729
 21
248.417934
 31
0.0
  0
LINE
  5
155
100
AcDbEntity
  8
Layer_1
 62
5
100
AcDbLine
 10
629.193729
 20
248.417934
 30
0.0
 11
629.193729
 21
268.417668
 31
0.0
  0
LINE
  5
156
100
AcDbEntity
  8
Layer_1
 62
5
100
AcDbLine
 10
629.193729
 20
268.417668
 30
0.0
 11
632.193441
 21
268.417668
 31
0.0
  0
LINE
  5
157
100
AcDbEntity
  8
Layer_1
 62
5
100
AcDbLine
 10
632.193441
 20
268.417668
 30
0.0
 11
632.193441
 21
288.417402
 31
0.0
  0
LINE
  5
158
100
AcDbEntity
  8
Layer_1
 62
5
100
AcDbLine
 10
632.193441
 20
288.417402
 30
0.0
 11
629.193729
 21
288.417402
 31
0.0
  0
LINE
  5
159
100
AcDbEntity
  8
Layer_1
 62
5
100
AcDbLine
 10
629.193729
 20
288.417402
 30
0.0
 11
629.193729
 21
308.417165
 31
0.0
  0
LINE
  5
15a
100
AcDbEntity
  8
Layer_1
 62
5
100
AcDbLine
 10
629.193729
 20
308.417165
 30
0.0
 11
632.193441
 21
308.417165
 31
0.0
  0
LINE
  5
15b
100
AcDbEntity
  8
Layer_1
 62
5
100
AcDbLine
 10
632.193441
 20
308.417165
 30
0.0
 11
632.193441
 21
328.416899
 31
0.0
  0
LINE
  5
15c
100
AcDbEntity
  8
Layer_1
 62
5
100
AcDbLine
 10
632.193441
 20
328.416899
 30
0.0
 11
629.193729
 21
328.416899
 31
0.0
  0
LINE
  5
15d
100
AcDbEntity
  8
Layer_1
 62
5
100
AcDbLine
 10
629.193729
 20
328.416899
 30
0.0
 11
629.193729
 21
348.416633
 31
0.0
  0
LINE
  5
15e
100
AcDbEntity
  8
Layer_1
 62
5
100
AcDbLine
 10
629.193729
 20
348.416633
 30
0.0
 11
632.193441
 21
348.416633
 31
0.0
  0
LINE
  5
15f
100
AcDbEntity
  8
Layer_1
 62
5
100
AcDbLine
 10
632.193441
 20
348.416633
 30
0.0
 11
632.193441
 21
368.416395
 31
0.0
  0
LINE
  5
160
100
AcDbEntity
  8
Layer_1
 62
5
100
AcDbLine
 10
632.193441
 20
368.416395
 30
0.0
 11
629.193729
 21
368.416395
 31
0.0
  0
LINE
  5
161
100
AcDbEntity
  8
Layer_1
 62
5
100
AcDbLine
 10
629.193729
 20
368.416395
 30
0.0
 11
614.094276
 21
368.416395
 31
0.0
  0
LINE
  5
162
100
AcDbEntity
  8
Layer_1
 62
5
100
AcDbLine
 10
614.094276
 20
368.416395
 30
0.0
 11
614.094276
 21
371.416643
 31
0.0
  0
LINE
  5
163
100
AcDbEntity
  8
Layer_1
 62
5
100
AcDbLine
 10
614.094276
 20
371.416643
 30
0.0
 11
594.093977
 21
371.416643
 31
0.0
  0
LINE
  5
164
100
AcDbEntity
  8
Layer_1
 62
5
100
AcDbLine
 10
594.093977
 20
371.416643
 30
0.0
 11
594.093977
 21
368.416395
 31
0.0
  0
LINE
  5
165
100
AcDbEntity
  8
Layer_1
 62
5
100
AcDbLine
 10
594.093977
 20
368.416395
 30
0.0
 11
574.094243
 21
368.416395
 31
0.0
  0
LINE
  5
166
100
AcDbEntity
  8
Layer_1
 62
5
100
AcDbLine
 10
574.094243
 20
368.416395
 30
0.0
 11
574.094243
 21
371.416643
 31
0.0
  0
LINE
  5
167
100
AcDbEntity
  8
Layer_1
 62
5
100
AcDbLine
 10
574.094243
 20
371.416643
 30
0.0
 11
554.093944
 21
371.416643
 31
0.0
  0
LINE
  5
168
100
AcDbEntity
  8
Layer_1
 62
5
100
AcDbLine
 10
554.093944
 20
371.416643
 30
0.0
 11
554.093944
 21
368.416395
 31
0.0
  0
LINE
  5
169
100
AcDbEntity
  8
Layer_1
 62
5
100
AcDbLine
 10
554.093944
 20
368.416395
 30
0.0
 11
534.094210
 21
368.416395
 31
0.0
  0
LINE
  5
16a
100
AcDbEntity
  8
Layer_1
 62
5
100
AcDbLine
 10
534.094210
 20
368.416395
 30
0.0
 11
534.094210
 21
371.416643
 31
0.0
  0
LINE
  5
16b
100
AcDbEntity
  8
Layer_1
 62
5
100
AcDbLine
 10
534.094210
 20
371.416643
 30
0.0
 11
514.093912
 21
371.416643
 31
0.0
  0
LINE
  5
16c
100
AcDbEntity
  8
Layer_1
 62
5
100
AcDbLine
 10
514.093912
 20
371.416643
 30
0.0
 11
514.093912
 21
368.416395
 31
0.0
  0
LINE
  5
16d
100
AcDbEntity
  8
Layer_1
 62
5
100
AcDbLine
 10
514.093912
 20
368.416395
 30
0.0
 11
494.094177
 21
368.416395
 31
0.0
  0
LINE
  5
16e
100
AcDbEntity
  8
Layer_1
 62
5
100
AcDbLine
 10
494.094177
 20
368.416395
 30
0.0
 11
494.094177
 21
371.416643
 31
0.0
  0
LINE
  5
16f
100
AcDbEntity
  8
Layer_1
 62
5
100
AcDbLine
 10
494.094177
 20
371.416643
 30
0.0
 11
474.093879
 21
371.416643
 31
0.0
  0
LINE
  5
170
100
AcDbEntity
  8
Layer_1
 62
5
100
AcDbLine
 10
474.093879
 20
371.416643
 30
0.0
 11
474.093879
 21
368.416395
 31
0.0
  0
LINE
  5
171
100
AcDbEntity
  8
Layer_1
 62
5
100
AcDbLine
 10
474.093879
 20
368.416395
 30
0.0
 11
454.094681
 21
368.416395
 31
0.0
  0
LINE
  5
172
100
AcDbEntity
  8
Layer_1
 62
5
100
AcDbLine
 10
454.094681
 20
368.416395
 30
0.0
 11
454.094681
 21
371.416643
 31
0.0
  0
LINE
  5
173
100
AcDbEntity
  8
Layer_1
 62
5
100
AcDbLine
 10
454.094681
 20
371.416643
 30
0.0
 11
434.094382
 21
371.416643
 31
0.0
  0
LINE
  5
174
100
AcDbEntity
  8
Layer_1
 62
5
100
AcDbLine
 10
434.094382
 20
371.416643
 30
0.0
 11
434.094382
 21
368.416395
 31
0.0
  0
LINE
  5
175
100
AcDbEntity
  8
Layer_1
 62
5
100
AcDbLine
 10
434.094382
 20
368.416395
 30
0.0
 11
414.094648
 21
368.416395
 31
0.0
  0
LINE
  5
176
100
AcDbEntity
  8
Layer_1
 62
5
100
AcDbLine
 10
414.094648
 20
368.416395
 30
0.0
 11
414.094648
 21
371.416643
 31
0.0
  0
LINE
  5
177
100
AcDbEntity
  8
Layer_1
 62
5
100
AcDbLine
 10
414.094648
 20
371.416643
 30
0.0
 11
394.094349
 21
371.416643
 31
0.0
  0
LINE
  5
178
100
AcDbEntity
  8
Layer_1
 62
5
100
AcDbLine
 10
394.094349
 20
371.416643
 30
0.0
 11
394.094349
 21
371.416643
 31
0.0
  0
ENDSEC
  0
SECTION
  2
OBJECTS
  0
DICTIONARY
  5
C
330
0
100
AcDbDictionary
  3
ACAD_GROUP
350
D
  3
ACAD_MLINESTYLE
350
17
  0
DICTIONARY
  5
D
330
C
100
AcDbDictionary
  0
DICTIONARY
  5
1A
330
C
100
AcDbDictionary
  0
DICTIONARY
  5
17
330
C
100
AcDbDictionary
  3
STANDARD
350
18
  0
DICTIONARY
  5
19
330
C
100
AcDbDictionary
  0
ENDSEC
  0
EOF
